<?xml version="1.0" encoding="UTF-8"?>
<svg width="158px" height="74px" viewBox="0 0 158 74" version="1.1" xmlns="http://www.w3.org/2000/svg" xmlns:xlink="http://www.w3.org/1999/xlink">
    <!-- Generator: Sketch 61 (89581) - https://sketch.com -->
    <title>Sprites - desktop</title>
    <desc>Created with Sketch.</desc>
    <defs>
        <path d="M26,20 C22.6854839,20 20,22.6854839 20,26 C20,29.3145161 22.6854839,32 26,32 C29.3145161,32 32,29.3145161 32,26 C32,22.6854839 29.3145161,20 26,20 Z M28.9419355,27.575 C29.0556452,27.6887097 29.0556452,27.8725806 28.9419355,27.9862903 L27.983871,28.9419355 C27.8701613,29.0556452 27.6862903,29.0556452 27.5725806,28.9419355 L26,27.3548387 L24.425,28.9419355 C24.3112903,29.0556452 24.1274194,29.0556452 24.0137097,28.9419355 L23.0580645,27.983871 C22.9443548,27.8701613 22.9443548,27.6862903 23.0580645,27.5725806 L24.6451613,26 L23.0580645,24.425 C22.9443548,24.3112903 22.9443548,24.1274194 23.0580645,24.0137097 L24.016129,23.0556452 C24.1298387,22.9419355 24.3137097,22.9419355 24.4274194,23.0556452 L26,24.6451613 L27.575,23.0580645 C27.6887097,22.9443548 27.8725806,22.9443548 27.9862903,23.0580645 L28.9443548,24.016129 C29.0580645,24.1298387 29.0580645,24.3137097 28.9443548,24.4274194 L27.3548387,26 L28.9419355,27.575 Z" id="path-1"></path>
        <rect id="path-3" x="0" y="0" width="32" height="32"></rect>
        <path d="M26,20 C22.6854839,20 20,22.6854839 20,26 C20,29.3145161 22.6854839,32 26,32 C29.3145161,32 32,29.3145161 32,26 C32,22.6854839 29.3145161,20 26,20 Z M28.9419355,27.575 C29.0556452,27.6887097 29.0556452,27.8725806 28.9419355,27.9862903 L27.983871,28.9419355 C27.8701613,29.0556452 27.6862903,29.0556452 27.5725806,28.9419355 L26,27.3548387 L24.425,28.9419355 C24.3112903,29.0556452 24.1274194,29.0556452 24.0137097,28.9419355 L23.0580645,27.983871 C22.9443548,27.8701613 22.9443548,27.6862903 23.0580645,27.5725806 L24.6451613,26 L23.0580645,24.425 C22.9443548,24.3112903 22.9443548,24.1274194 23.0580645,24.0137097 L24.016129,23.0556452 C24.1298387,22.9419355 24.3137097,22.9419355 24.4274194,23.0556452 L26,24.6451613 L27.575,23.0580645 C27.6887097,22.9443548 27.8725806,22.9443548 27.9862903,23.0580645 L28.9443548,24.016129 C29.0580645,24.1298387 29.0580645,24.3137097 28.9443548,24.4274194 L27.3548387,26 L28.9419355,27.575 Z" id="path-5"></path>
        <rect id="path-7" x="0" y="0" width="32" height="32"></rect>
        <path d="M26,20 C22.6854839,20 20,22.6854839 20,26 C20,29.3145161 22.6854839,32 26,32 C29.3145161,32 32,29.3145161 32,26 C32,22.6854839 29.3145161,20 26,20 Z M28.9419355,27.575 C29.0556452,27.6887097 29.0556452,27.8725806 28.9419355,27.9862903 L27.983871,28.9419355 C27.8701613,29.0556452 27.6862903,29.0556452 27.5725806,28.9419355 L26,27.3548387 L24.425,28.9419355 C24.3112903,29.0556452 24.1274194,29.0556452 24.0137097,28.9419355 L23.0580645,27.983871 C22.9443548,27.8701613 22.9443548,27.6862903 23.0580645,27.5725806 L24.6451613,26 L23.0580645,24.425 C22.9443548,24.3112903 22.9443548,24.1274194 23.0580645,24.0137097 L24.016129,23.0556452 C24.1298387,22.9419355 24.3137097,22.9419355 24.4274194,23.0556452 L26,24.6451613 L27.575,23.0580645 C27.6887097,22.9443548 27.8725806,22.9443548 27.9862903,23.0580645 L28.9443548,24.016129 C29.0580645,24.1298387 29.0580645,24.3137097 28.9443548,24.4274194 L27.3548387,26 L28.9419355,27.575 Z" id="path-9"></path>
        <rect id="path-11" x="0" y="0" width="32" height="32"></rect>
        <path d="M26,20 C22.6854839,20 20,22.6854839 20,26 C20,29.3145161 22.6854839,32 26,32 C29.3145161,32 32,29.3145161 32,26 C32,22.6854839 29.3145161,20 26,20 Z M28.9419355,27.575 C29.0556452,27.6887097 29.0556452,27.8725806 28.9419355,27.9862903 L27.983871,28.9419355 C27.8701613,29.0556452 27.6862903,29.0556452 27.5725806,28.9419355 L26,27.3548387 L24.425,28.9419355 C24.3112903,29.0556452 24.1274194,29.0556452 24.0137097,28.9419355 L23.0580645,27.983871 C22.9443548,27.8701613 22.9443548,27.6862903 23.0580645,27.5725806 L24.6451613,26 L23.0580645,24.425 C22.9443548,24.3112903 22.9443548,24.1274194 23.0580645,24.0137097 L24.016129,23.0556452 C24.1298387,22.9419355 24.3137097,22.9419355 24.4274194,23.0556452 L26,24.6451613 L27.575,23.0580645 C27.6887097,22.9443548 27.8725806,22.9443548 27.9862903,23.0580645 L28.9443548,24.016129 C29.0580645,24.1298387 29.0580645,24.3137097 28.9443548,24.4274194 L27.3548387,26 L28.9419355,27.575 Z" id="path-13"></path>
        <rect id="path-15" x="0" y="0" width="32" height="32"></rect>
        <rect id="path-17" x="0" y="0" width="32" height="32"></rect>
        <rect id="path-19" x="0" y="0" width="32" height="32"></rect>
    </defs>
    <g id="Sprites---desktop" stroke="none" stroke-width="1" fill="none" fill-rule="evenodd">
        <g id="no" transform="translate(0.000000, 42.000000)">
            <g id="mobile-no" transform="translate(126.000000, 0.000000)">
                <rect id="bg" x="0" y="0" width="32" height="32"></rect>
                <path d="M21.0848281,1 L10.9151719,1 C9.30781882,1 8,2.2962978 8,3.88976288 L8,28.1102371 C8,29.7035803 9.30769585,31 10.9151719,31 L21.0848281,31 C22.105802,31 23.0059241,30.4769882 23.5267939,29.687019 C23.6870275,29.4440033 21.8705412,28.0555357 21.6762695,26.8512376 C21.5078399,25.8071354 22.9671631,24.934132 22.9671631,24.6641846 C22.8236366,24.1636653 22.7518734,23.6297334 22.7518734,23.0623889 C22.7518734,21.8739311 24,23.0336007 24,21.5518018 C24,18.5373738 24,12.6500275 24,3.88976288 C24,2.2962978 22.6921812,1 21.0848281,1 Z M14.3172715,3.62075214 L17.6494059,3.62075214 C17.8712285,3.62075214 17.9820169,3.73142806 17.9820169,3.95131722 C17.9820169,4.17120638 17.8712285,4.28163852 17.6494059,4.28163852 L14.3172715,4.28163852 C14.095203,4.28163852 13.9837998,4.17132827 13.9837998,3.95131722 C13.9837998,3.73142806 14.09508,3.62075214 14.3172715,3.62075214 Z M15.9793425,30.1559133 C15.0587295,30.1559133 14.312476,29.4161642 14.312476,28.5035754 C14.312476,27.5909867 15.0587295,26.8512376 15.9793425,26.8512376 C16.8999554,26.8512376 17.6462089,27.5909867 17.6462089,28.5035754 C17.6462089,29.4161642 16.8999554,30.1559133 15.9793425,30.1559133 Z M21.0848281,25.8502787 L10.9151719,25.8502787 C10.4595995,25.8502787 10.090346,25.4842437 10.090346,25.0326421 L10.090346,7.09448896 C10.090346,6.64288733 10.5202195,6.27685232 10.7759795,6.27685232 L21.0847051,6.27685232 C21.5402776,6.27685232 21.9095311,6.64288733 21.9095311,7.09448896 L21.9095311,25.0326421 C21.909654,25.4842437 21.5404005,25.8502787 21.0848281,25.8502787 Z" id="mobile" fill="#FFFFFF" fill-rule="nonzero" opacity="0.5"></path>
                <mask id="mask-2" fill="white">
                    <use xlink:href="#path-1"></use>
                </mask>
                <use id="x" fill="#FFFFFF" fill-rule="nonzero" xlink:href="#path-1"></use>
            </g>
            <g id="phone-no" transform="translate(84.000000, 0.000000)">
                <mask id="mask-4" fill="white">
                    <use xlink:href="#path-3"></use>
                </mask>
                <g id="Mask"></g>
                <path d="M11.905469,12.5252256 C12.526113,12.5252256 13.0292133,13.0144427 13.0292133,13.6177158 L13.0292133,13.6177158 L13.0292133,15.4970175 C13.0292133,15.6616558 13.0098849,15.8219241 12.9716776,15.973234 C12.6532085,17.2375729 11.5389036,19.4710599 7.65659175,20.3079074 L7.65659175,20.3079074 L7.65659175,23.8150196 L20.9790582,23.8150196 L23.1529134,22.9703629 C23.2128292,22.9566569 23.2704404,22.9423816 23.3257473,22.9275368 L23.38,22.911 L23.3701905,22.9727165 C23.2768335,23.424844 23.0192077,23.6008834 22.3219829,23.6211222 L22.1765951,23.6231283 C22.4296665,25.2077094 22.2383507,26 21.6026476,26 L21.6026476,26 L7.51421334,26 C6.35338547,26 5.40899075,25.0819805 5.40899075,23.9534381 L5.40899075,23.9534381 L5.40899075,20.1960364 C5.40899075,19.2347543 6.11009482,18.3929906 7.07606544,18.1945944 C9.68506261,17.6584002 10.5328153,16.4288024 10.7817247,15.4805209 L10.7817247,15.4805209 L10.7817247,13.6177158 C10.7817247,13.0144427 11.284825,12.5252256 11.905469,12.5252256 Z M24.1879421,21.6859136 L24.321,21.689 L24.3212704,22.1471354 L24.3212704,22.1471354 C24.3212704,22.4607547 24.0424318,22.7054742 23.4847545,22.8812942 L23.38,22.911 L23.3867532,22.8785741 C23.4158244,22.6827846 23.4215495,22.4415378 23.4215495,22.1471354 C23.4215495,21.7843896 23.7466858,21.6825832 24.1879421,21.6859136 Z M20.0722808,12.5252256 C20.6928124,12.5252256 21.1960251,13.0144427 21.1960251,13.6177158 L21.1960251,13.6177158 L21.1960251,15.4806301 C21.4450468,16.4286932 22.2927996,17.6582909 24.9019091,18.1944851 C25.867655,18.3929906 26.5685475,19.234645 26.5685475,20.1960364 L26.5685475,20.1960364 L26.5685475,21.6468099 C26.5685475,22.1410874 25.2680024,21.740245 24.3390416,21.6907039 L24.321,21.689 L24.3212704,20.3079074 C20.5468006,19.4941995 19.3886953,17.3606752 19.0344016,16.0802946 L19.0059598,15.9726877 C18.9678649,15.8213778 18.9485365,15.6614373 18.9485365,15.4970175 L18.9485365,15.4970175 L18.9485365,13.6177158 C18.9485365,13.0144427 19.4517492,12.5252256 20.0722808,12.5252256 Z M16.0005056,6.97439203 C19.0001163,6.97439203 21.9176937,7.23221972 24.2157508,7.70013328 C27.04444,8.27620338 28.8173714,9.11086591 29.635682,10.2519719 C29.8741406,10.5846352 30,10.9826294 30,11.4030196 L30,11.4030196 L30,14.6456399 C30,15.7741823 29.0556052,16.6923111 27.8947773,16.6923111 L27.8947773,16.6923111 L24.7593059,16.6923111 C23.5984781,16.6923111 22.6541957,15.7741823 22.6541957,14.6456399 L22.6541957,14.6456399 L22.6541957,13.6273297 C22.6541957,13.0240566 23.1574084,12.5348395 23.77794,12.5348395 C24.3984716,12.5348395 24.9016844,13.0240566 24.9016844,13.6273297 L24.9016844,13.6273297 L24.9016844,14.5074399 L27.7526237,14.5074399 L27.7526237,11.450106 C26.8443011,10.330085 22.4693398,9.15948172 16.0003933,9.15948172 C9.53155913,9.15948172 5.15637303,10.330085 4.247601,11.450106 L4.247601,11.450106 L4.247601,14.5074399 L7.09842795,14.5074399 L7.09842795,13.6273297 C7.09842795,13.0240566 7.60152828,12.5348395 8.22217226,12.5348395 C8.84281625,12.5348395 9.34591657,13.0240566 9.34591657,13.6273297 L9.34591657,13.6273297 L9.34591657,14.6456399 C9.34591657,15.7741823 8.40152185,16.6923111 7.24069398,16.6923111 L7.24069398,16.6923111 L4.1052226,16.6923111 C2.94439472,16.6923111 2,15.7742915 2,14.6457491 L2,14.6457491 L2,11.4025826 C2,10.9824109 2.12597174,10.584526 2.36443028,10.2520812 C3.18285326,9.11086591 4.95578467,8.27620338 7.78492335,7.70002403 C10.0829805,7.23211047 13.0007826,6.97439203 16.0005056,6.97439203 Z M4.3711005,2.68789739 C4.8105969,2.40417768 5.40337203,2.52063714 5.69520842,2.94791007 L5.69520842,2.94791007 L6.70500506,4.42670483 C6.99684146,4.85397776 6.87705032,5.43026635 6.43755392,5.71398606 C6.27517286,5.81886512 6.09166542,5.86901042 5.91018071,5.86901042 C5.60092628,5.86901042 5.29751531,5.72316298 5.11355837,5.45386414 L5.11355837,5.45386414 L4.10364935,3.97517862 C3.81181296,3.5479057 3.9316041,2.9716171 4.3711005,2.68789739 Z M26.3033306,2.94780082 C26.5949423,2.52063714 27.1879422,2.40417768 27.6273262,2.68789739 C28.0668226,2.97150786 28.1866137,3.5479057 27.8947773,3.97517862 L27.8947773,3.97517862 L26.8848683,5.45397339 C26.7010237,5.72316298 26.3975004,5.86901042 26.088246,5.86901042 C25.9067613,5.86901042 25.7233662,5.81875587 25.5608728,5.71387681 C25.1213764,5.43026635 25.0015852,4.85386851 25.2934216,4.42659558 L25.2934216,4.42659558 Z M15.9992695,1 C16.5267551,1 16.9544522,1.41580178 16.9544522,1.92861669 L16.9544522,1.92861669 L16.9544522,3.68927393 C16.9544522,4.20208884 16.5267551,4.61789062 15.9992695,4.61789062 C15.4717839,4.61789062 15.0440869,4.20219809 15.0440869,3.68927393 L15.0440869,3.68927393 L15.0440869,1.92861669 C15.0440869,1.41580178 15.4717839,1 15.9992695,1 Z" id="Combined-Shape" fill="#FFFFFF" fill-rule="nonzero" opacity="0.5" mask="url(#mask-4)"></path>
                <mask id="mask-6" fill="white">
                    <use xlink:href="#path-5"></use>
                </mask>
                <use id="x" fill="#FFFFFF" fill-rule="nonzero" xlink:href="#path-5"></use>
            </g>
            <g id="tv-no" transform="translate(42.000000, 0.000000)">
                <mask id="mask-8" fill="white">
                    <use xlink:href="#path-7"></use>
                </mask>
                <g id="Mask"></g>
                <path d="M21.8580423,26.1012703 C22.3919151,26.1012703 21.4598556,26.5263624 21.4598556,27.0506352 C21.4598556,27.5749079 22.3920288,28 21.8580423,28 L10.2654741,28 C9.73160131,28 9.29872535,27.5749079 9.29872535,27.0506352 C9.29872535,26.5263624 9.73160131,26.1012703 10.2654741,26.1012703 L21.8580423,26.1012703 Z M19.8403809,3.33259753 C20.2819007,2.89343253 21.0016167,2.88874155 21.448937,3.32187529 C21.8961436,3.75512073 21.9009204,4.46223 21.4598556,4.90139501 L21.4598556,4.90139501 L18.9001324,7.44937854 L26.8273582,7.44937854 C28.5768322,7.44937854 30,8.84706697 30,10.5650823 L30,10.5650823 L30,22.1961418 C30,23.3231133 28.8002169,22.2081751 27.8850098,22.7553711 C27.8350092,22.7852661 27.7265346,22.7938413 27.5741586,22.7892654 L27.494,22.785 C27.6162668,22.6520611 27.6953251,22.4879604 27.7184141,22.3067695 L27.7254109,22.1961418 L27.7254109,10.5650823 C27.7254109,10.0780023 27.3232434,9.68317817 26.8272444,9.68317817 L26.8272444,9.68317817 L5.17275556,9.68317817 C4.6767566,9.68317817 4.27470287,10.0780023 4.27470287,10.5650823 L4.27470287,10.5650823 L4.27470287,22.1961418 C4.27470287,22.6832218 4.6767566,23.0780459 5.17275556,23.0780459 L5.17275556,23.0780459 L22.6947021,23.0780459 C23.1577562,23.0780459 23.8729255,22.4857178 24.569458,22.4857178 C24.7597051,22.4857178 25.0013481,22.519996 25.294387,22.5885525 L25.394,22.613 L25.1976218,22.6083378 C24.7719058,22.6026722 24.3539748,22.6271496 23.9930115,22.7093393 L23.8175049,22.7553711 C23.0001457,23.0006041 22.8644767,25.3118455 22.6387939,25.3118455 L22.6387939,25.3118455 L5.17275556,25.3118455 C3.42328158,25.3118455 2,23.9141571 2,22.1961418 L2,22.1961418 L2,10.5650823 C2,8.84706697 3.42328158,7.44937854 5.17275556,7.44937854 L5.17275556,7.44937854 L13.0061498,7.44937854 L10.4465404,4.90128332 C10.0054755,4.46211831 10.0103661,3.75489735 10.4575727,3.3217636 C10.9046656,2.88851817 11.6248365,2.89343253 12.0660151,3.33259753 L12.0660151,3.33259753 L15.9529137,7.20220862 Z M27.4518728,22.7834953 L27.494,22.785 L27.423798,22.8554796 C27.2651914,22.9939414 27.0562808,23.0780459 26.8273582,23.0780459 C26.3030213,22.8806032 25.8526945,22.7325212 25.4763779,22.6337998 L25.394,22.613 L25.4109008,22.6135549 C26.1936328,22.6409586 26.9749791,22.7542327 27.4518728,22.7834953 Z" id="tv" fill="#FFFFFF" fill-rule="nonzero" opacity="0.5" mask="url(#mask-8)"></path>
                <mask id="mask-10" fill="white">
                    <use xlink:href="#path-9"></use>
                </mask>
                <use id="x" fill="#FFFFFF" fill-rule="nonzero" xlink:href="#path-9"></use>
            </g>
            <g id="bb-no">
                <mask id="mask-12" fill="white">
                    <use xlink:href="#path-11"></use>
                </mask>
                <g id="Mask"></g>
                <path d="M16.0000636,7 C24.8225333,7 32,14.0647595 32,22.7485369 C32,23.396521 31.4997015,23.9294537 30.8585509,23.993539 L30.7285492,24 L30.7285492,24 C30.0264541,24 29.4570985,23.4395948 29.4570985,22.7485369 C29.4570985,15.4448731 23.4203774,9.50292622 16.0000636,9.50292622 C8.57974976,9.50292622 2.54290153,15.4448731 2.54290153,22.7485369 C2.54290153,23.3964037 2.04260304,23.929439 1.40145242,23.9935377 L1.27145077,24 L1.27145077,24 C0.569228508,24 -2.84217094e-14,23.4395948 -2.84217094e-14,22.7485369 C-2.84217094e-14,14.0647595 7.17759386,7 16.0000636,7 Z M20.6460082,12.1336894 L20.6591678,12.1342525 C20.9036677,12.1475181 21.0974368,12.346751 21.0974368,12.5907863 L21.0911114,12.6663434 L21.0911114,12.6663434 L21.0727707,12.7379583 L18.2201438,22.276485 C18.1795845,22.4284126 18.1230049,22.5760853 18.0519308,22.7156234 C17.6608326,23.4830206 16.875076,23.959828 16.001335,23.959828 C15.6418959,23.959828 15.2956798,23.8788584 14.9724771,23.7192968 C13.8412673,23.1607688 13.3820193,21.8016799 13.9487049,20.6896298 C13.9899847,20.6087853 14.0368588,20.5294981 14.0882349,20.453437 L14.1685387,20.3419733 L20.257135,12.3214714 C20.2640009,12.3120855 20.2712481,12.3030749 20.2788768,12.2943147 C20.3091374,12.2593989 20.3439751,12.2297392 20.3818643,12.2058362 C20.445564,12.1655391 20.5199439,12.1401344 20.5999182,12.134628 L20.6163834,12.1337832 L20.6163834,12.1337832 L20.6460082,12.1336894 Z M5.14072973,18.8231977 C5.80782246,18.8231977 6.34860796,19.3554819 6.34860796,20.0120877 C6.34860796,20.6686935 5.80782246,21.2009776 5.14072973,21.2009776 C4.47363701,21.2009776 3.93285151,20.6686935 3.93285151,20.0120877 C3.93285151,19.3554819 4.47363701,18.8231977 5.14072973,18.8231977 Z M7.39297762,14.5645939 C8.06007034,14.5645939 8.60085585,15.0968781 8.60085585,15.7534839 C8.60085585,16.4100896 8.06007034,16.9423738 7.39297762,16.9423738 C6.72588489,16.9423738 6.18509939,16.4100896 6.18509939,15.7534839 C6.18509939,15.0968781 6.72588489,14.5645939 7.39297762,14.5645939 Z M11.2627652,11.6418018 C11.9298579,11.6418018 12.4706434,12.174086 12.4706434,12.8306918 C12.4706434,13.4872976 11.9298579,14.0195817 11.2627652,14.0195817 C10.5956724,14.0195817 10.0548869,13.4872976 10.0548869,12.8306918 C10.0548869,12.174086 10.5956724,11.6418018 11.2627652,11.6418018 Z M16.024984,10.602712 C16.6920767,10.602712 17.2328622,11.1349962 17.2328622,11.7916019 C17.2328622,12.4482077 16.6920767,12.9804919 16.024984,12.9804919 C15.3578913,12.9804919 14.8171058,12.4482077 14.8171058,11.7916019 C14.8171058,11.1349962 15.3578913,10.602712 16.024984,10.602712 Z" id="bb" fill="#FFFFFF" fill-rule="nonzero" opacity="0.5" mask="url(#mask-12)"></path>
                <mask id="mask-14" fill="white">
                    <use xlink:href="#path-13"></use>
                </mask>
                <use id="x" fill="#FFFFFF" fill-rule="nonzero" xlink:href="#path-13"></use>
            </g>
        </g>
        <g id="yes">
            <g id="mobile" transform="translate(126.000000, 0.000000)">
                <rect id="bg" x="0" y="0" width="32" height="32"></rect>
                <path d="M21.0848281,1 L10.9151719,1 C9.30781882,1 8,2.2962978 8,3.88976288 L8,28.1102371 C8,29.7035803 9.30769585,31 10.9151719,31 L21.0848281,31 C22.105802,31 23.0059241,30.4769882 23.5267939,29.687019 C23.6870275,29.4440033 21.8705412,28.0555357 21.6762695,26.8512376 C21.5078399,25.8071354 22.9671631,24.934132 22.9671631,24.6641846 C23.655721,25.8268639 24,26.1245313 24,25.5571868 C24,20.7422037 24,13.5197291 24,3.88976288 C24,2.2962978 22.6921812,1 21.0848281,1 Z M14.3172715,3.62075214 L17.6494059,3.62075214 C17.8712285,3.62075214 17.9820169,3.73142806 17.9820169,3.95131722 C17.9820169,4.17120638 17.8712285,4.28163852 17.6494059,4.28163852 L14.3172715,4.28163852 C14.095203,4.28163852 13.9837998,4.17132827 13.9837998,3.95131722 C13.9837998,3.73142806 14.09508,3.62075214 14.3172715,3.62075214 Z M15.9793425,30.1559133 C15.0587295,30.1559133 14.312476,29.4161642 14.312476,28.5035754 C14.312476,27.5909867 15.0587295,26.8512376 15.9793425,26.8512376 C16.8999554,26.8512376 17.6462089,27.5909867 17.6462089,28.5035754 C17.6462089,29.4161642 16.8999554,30.1559133 15.9793425,30.1559133 Z M21.0848281,25.8502787 L10.9151719,25.8502787 C10.4595995,25.8502787 10.090346,25.4842437 10.090346,25.0326421 L10.090346,7.09448896 C10.090346,6.64288733 10.5202195,6.27685232 10.7759795,6.27685232 L21.0847051,6.27685232 C21.5402776,6.27685232 21.9095311,6.64288733 21.9095311,7.09448896 L21.9095311,25.0326421 C21.909654,25.4842437 21.5404005,25.8502787 21.0848281,25.8502787 Z" fill="#FFFFFF" fill-rule="nonzero"></path>
                <path d="M32,26 C32,29.3137177 29.3137177,32 26,32 C22.6862823,32 20,29.3137177 20,26 C20,22.6862823 22.6862823,20 26,20 C29.3137177,20 32,22.6862823 32,26 Z M25.3059839,29.1769516 L29.7575968,24.7253387 C29.9087581,24.5741774 29.9087581,24.3290726 29.7575968,24.1779113 L29.2101694,23.6304839 C29.0590081,23.4792984 28.8139032,23.4792984 28.6627177,23.6304839 L25.0322581,27.2609194 L23.3372823,25.5659435 C23.186121,25.4147823 22.9410161,25.4147823 22.7898306,25.5659435 L22.2424032,26.113371 C22.0912419,26.2645323 22.0912419,26.5096371 22.2424032,26.6607984 L24.7585323,29.1769274 C24.9097177,29.3281129 25.1547984,29.3281129 25.3059839,29.1769516 L25.3059839,29.1769516 Z" id="check" fill="#FFFFFF" fill-rule="nonzero"></path>
            </g>
            <g id="phone" transform="translate(84.000000, 0.000000)">
                <mask id="mask-16" fill="white">
                    <use xlink:href="#path-15"></use>
                </mask>
                <g id="Mask"></g>
                <path d="M20.0722808,12.5252256 C20.6928124,12.5252256 21.1960251,13.0144427 21.1960251,13.6177158 L21.1960251,13.6177158 L21.1960251,15.4806301 C21.4450468,16.4286932 22.2927996,17.6582909 24.9019091,18.1944851 C25.867655,18.3929906 26.568759,19.234645 26.5685393,20.1960364 L26.5685393,20.1960364 L26.5685393,23.9534381 C26.5685393,25.0819805 23.9621517,24.5797526 22.8013238,24.5797526 C22.6379094,25.5265842 22.2383507,26 21.6026476,26 L21.6026476,26 L7.51421334,26 C6.35338547,26 5.40899075,25.0819805 5.40899075,23.9534381 L5.40899075,23.9534381 L5.40899075,20.1960364 C5.40899075,19.2347543 6.11009482,18.3929906 7.07606544,18.1945944 C9.68506261,17.6584002 10.5328153,16.4288024 10.7817247,15.4805209 L10.7817247,15.4805209 L10.7817247,13.6177158 C10.7817247,13.0144427 11.284825,12.5252256 11.905469,12.5252256 C12.526113,12.5252256 13.0292133,13.0144427 13.0292133,13.6177158 L13.0292133,13.6177158 L13.0292133,15.4970175 C13.0292133,15.6616558 13.0098849,15.8219241 12.9716776,15.973234 C12.6532085,17.2375729 11.5389036,19.4710599 7.65659175,20.3079074 L7.65659175,20.3079074 L7.65659175,23.8150196 L24.3212704,23.8150196 L24.3212704,20.3079074 C20.4389586,19.4709507 19.3246537,17.2376822 19.0059598,15.9726877 C18.9678649,15.8213778 18.9485365,15.6614373 18.9485365,15.4970175 L18.9485365,15.4970175 L18.9485365,13.6177158 C18.9485365,13.0144427 19.4517492,12.5252256 20.0722808,12.5252256 Z M16.0005056,6.97439203 C19.0001163,6.97439203 21.9176937,7.23221972 24.2157508,7.70013328 C27.04444,8.27620338 28.8173714,9.11086591 29.635682,10.2519719 C29.8741406,10.5846352 30,10.9826294 30,11.4030196 L30,11.4030196 L30,14.6456399 C30,15.7741823 29.0556052,16.6923111 27.8947773,16.6923111 L27.8947773,16.6923111 L24.7593059,16.6923111 C23.5984781,16.6923111 22.6541957,15.7741823 22.6541957,14.6456399 L22.6541957,14.6456399 L22.6541957,13.6273297 C22.6541957,13.0240566 23.1574084,12.5348395 23.77794,12.5348395 C24.3984716,12.5348395 24.9016844,13.0240566 24.9016844,13.6273297 L24.9016844,13.6273297 L24.9016844,14.5074399 L27.7526237,14.5074399 L27.7526237,11.450106 C26.8443011,10.330085 22.4693398,9.15948172 16.0003933,9.15948172 C9.53155913,9.15948172 5.15637303,10.330085 4.247601,11.450106 L4.247601,11.450106 L4.247601,14.5074399 L7.09842795,14.5074399 L7.09842795,13.6273297 C7.09842795,13.0240566 7.60152828,12.5348395 8.22217226,12.5348395 C8.84281625,12.5348395 9.34591657,13.0240566 9.34591657,13.6273297 L9.34591657,13.6273297 L9.34591657,14.6456399 C9.34591657,15.7741823 8.40152185,16.6923111 7.24069398,16.6923111 L7.24069398,16.6923111 L4.1052226,16.6923111 C2.94439472,16.6923111 2,15.7742915 2,14.6457491 L2,14.6457491 L2,11.4025826 C2,10.9824109 2.12597174,10.584526 2.36443028,10.2520812 C3.18285326,9.11086591 4.95578467,8.27620338 7.78492335,7.70002403 C10.0829805,7.23211047 13.0007826,6.97439203 16.0005056,6.97439203 Z M4.3711005,2.68789739 C4.8105969,2.40417768 5.40337203,2.52063714 5.69520842,2.94791007 L5.69520842,2.94791007 L6.70500506,4.42670483 C6.99684146,4.85397776 6.87705032,5.43026635 6.43755392,5.71398606 C6.27517286,5.81886512 6.09166542,5.86901042 5.91018071,5.86901042 C5.60092628,5.86901042 5.29751531,5.72316298 5.11355837,5.45386414 L5.11355837,5.45386414 L4.10364935,3.97517862 C3.81181296,3.5479057 3.9316041,2.9716171 4.3711005,2.68789739 Z M26.3033306,2.94780082 C26.5949423,2.52063714 27.1879422,2.40417768 27.6273262,2.68789739 C28.0668226,2.97150786 28.1866137,3.5479057 27.8947773,3.97517862 L27.8947773,3.97517862 L26.8848683,5.45397339 C26.7010237,5.72316298 26.3975004,5.86901042 26.088246,5.86901042 C25.9067613,5.86901042 25.7233662,5.81875587 25.5608728,5.71387681 C25.1213764,5.43026635 25.0015852,4.85386851 25.2934216,4.42659558 L25.2934216,4.42659558 Z M15.9992695,1 C16.5267551,1 16.9544522,1.41580178 16.9544522,1.92861669 L16.9544522,1.92861669 L16.9544522,3.68927393 C16.9544522,4.20208884 16.5267551,4.61789062 15.9992695,4.61789062 C15.4717839,4.61789062 15.0440869,4.20219809 15.0440869,3.68927393 L15.0440869,3.68927393 L15.0440869,1.92861669 C15.0440869,1.41580178 15.4717839,1 15.9992695,1 Z" id="Combined-Shape" fill="#FFFFFF" fill-rule="nonzero" mask="url(#mask-16)"></path>
                <path d="M32,26 C32,29.3137177 29.3137177,32 26,32 C22.6862823,32 20,29.3137177 20,26 C20,22.6862823 22.6862823,20 26,20 C29.3137177,20 32,22.6862823 32,26 Z M25.3059839,29.1769516 L29.7575968,24.7253387 C29.9087581,24.5741774 29.9087581,24.3290726 29.7575968,24.1779113 L29.2101694,23.6304839 C29.0590081,23.4792984 28.8139032,23.4792984 28.6627177,23.6304839 L25.0322581,27.2609194 L23.3372823,25.5659435 C23.186121,25.4147823 22.9410161,25.4147823 22.7898306,25.5659435 L22.2424032,26.113371 C22.0912419,26.2645323 22.0912419,26.5096371 22.2424032,26.6607984 L24.7585323,29.1769274 C24.9097177,29.3281129 25.1547984,29.3281129 25.3059839,29.1769516 L25.3059839,29.1769516 Z" id="check" fill="#FFFFFF" fill-rule="nonzero" mask="url(#mask-16)"></path>
            </g>
            <g id="tv" transform="translate(42.000000, 0.000000)">
                <mask id="mask-18" fill="white">
                    <use xlink:href="#path-17"></use>
                </mask>
                <g id="Mask"></g>
                <path d="M21.8580423,26.1012703 C22.3919151,26.1012703 21.4598556,26.5263624 21.4598556,27.0506352 C21.4598556,27.5749079 22.3920288,28 21.8580423,28 L10.2654741,28 C9.73160131,28 9.29872535,27.5749079 9.29872535,27.0506352 C9.29872535,26.5263624 9.73160131,26.1012703 10.2654741,26.1012703 L21.8580423,26.1012703 Z M19.8403809,3.33259753 C20.2819007,2.89343253 21.0016167,2.88874155 21.448937,3.32187529 C21.8961436,3.75512073 21.9009204,4.46223 21.4598556,4.90139501 L21.4598556,4.90139501 L18.9001324,7.44937854 L26.8273582,7.44937854 C28.5768322,7.44937854 30,8.84706697 30,10.5650823 L30,10.5650823 L30,22.1961418 C30,23.3231133 28.640618,23.1685023 27.7254109,23.7156982 C27.2454276,24.0026769 26.6018664,25.3118455 26,25.3118455 L26,25.3118455 L5.17275556,25.3118455 C3.42328158,25.3118455 2,23.9141571 2,22.1961418 L2,22.1961418 L2,10.5650823 C2,8.84706697 3.42328158,7.44937854 5.17275556,7.44937854 L5.17275556,7.44937854 L13.0061498,7.44937854 L10.4465404,4.90128332 C10.0054755,4.46211831 10.0103661,3.75489735 10.4575727,3.3217636 C10.9046656,2.88851817 11.6248365,2.89343253 12.0660151,3.33259753 L12.0660151,3.33259753 L15.9529137,7.20220862 Z M26.8272444,9.68317817 L5.17275556,9.68317817 C4.6767566,9.68317817 4.27470287,10.0780023 4.27470287,10.5650823 L4.27470287,10.5650823 L4.27470287,22.1961418 C4.27470287,22.6832218 4.6767566,23.0780459 5.17275556,23.0780459 L5.17275556,23.0780459 L26.8273582,23.0780459 C27.3233571,23.0780459 27.7254109,22.6832218 27.7254109,22.1961418 L27.7254109,22.1961418 L27.7254109,10.5650823 C27.7254109,10.0780023 27.3232434,9.68317817 26.8272444,9.68317817 L26.8272444,9.68317817 Z" fill="#FFFFFF" fill-rule="nonzero" mask="url(#mask-18)"></path>
                <path d="M32,26 C32,29.3137177 29.3137177,32 26,32 C22.6862823,32 20,29.3137177 20,26 C20,22.6862823 22.6862823,20 26,20 C29.3137177,20 32,22.6862823 32,26 Z M25.3059839,29.1769516 L29.7575968,24.7253387 C29.9087581,24.5741774 29.9087581,24.3290726 29.7575968,24.1779113 L29.2101694,23.6304839 C29.0590081,23.4792984 28.8139032,23.4792984 28.6627177,23.6304839 L25.0322581,27.2609194 L23.3372823,25.5659435 C23.186121,25.4147823 22.9410161,25.4147823 22.7898306,25.5659435 L22.2424032,26.113371 C22.0912419,26.2645323 22.0912419,26.5096371 22.2424032,26.6607984 L24.7585323,29.1769274 C24.9097177,29.3281129 25.1547984,29.3281129 25.3059839,29.1769516 L25.3059839,29.1769516 Z" id="check" fill="#FFFFFF" fill-rule="nonzero" mask="url(#mask-18)"></path>
            </g>
            <g id="bb">
                <mask id="mask-20" fill="white">
                    <use xlink:href="#path-19"></use>
                </mask>
                <g id="Mask"></g>
                <path d="M16.0000636,7 C24.8225333,7 32,14.0647595 32,22.7485369 C32,23.1334875 31.8234327,23.4778336 31.5456606,23.7073974 C31.8386713,24.4135339 32,25.1879262 32,26 C32,29.3137177 29.3137177,32 26,32 C22.6862823,32 20,29.3137177 20,26 C20,22.6862823 22.6862823,20 26,20 C27.2370174,20 28.3865989,20.3743452 29.3416408,21.0159317 C28.47792,14.5282355 22.8240678,9.50292622 16.0000636,9.50292622 C8.57974976,9.50292622 2.54290153,15.4448731 2.54290153,22.7485369 C2.54290153,23.3964037 2.04260304,23.929439 1.40145242,23.9935377 L1.27145077,24 C0.569228508,24 -2.84217094e-14,23.4395948 -2.84217094e-14,22.7485369 C-2.84217094e-14,14.0647595 7.17759386,7 16.0000636,7 Z M28.6627177,23.6304839 L25.0322581,27.2609194 L23.3372823,25.5659435 C23.186121,25.4147823 22.9410161,25.4147823 22.7898306,25.5659435 L22.2424032,26.113371 C22.0912419,26.2645323 22.0912419,26.5096371 22.2424032,26.6607984 L24.7585323,29.1769274 C24.9097177,29.3281129 25.1547984,29.3281129 25.3059839,29.1769516 L29.7575968,24.7253387 C29.9087581,24.5741774 29.9087581,24.3290726 29.7575968,24.1779113 L29.2101694,23.6304839 C29.0590081,23.4792984 28.8139032,23.4792984 28.6627177,23.6304839 Z M20.6460082,12.1336894 L20.6591678,12.1342525 C20.9036677,12.1475181 21.0974368,12.346751 21.0974368,12.5907863 L21.0911114,12.6663434 L21.0727707,12.7379583 L18.2201438,22.276485 C18.1795845,22.4284126 18.1230049,22.5760853 18.0519308,22.7156234 C17.6608326,23.4830206 16.875076,23.959828 16.001335,23.959828 C15.6418959,23.959828 15.2956798,23.8788584 14.9724771,23.7192968 C13.8412673,23.1607688 13.3820193,21.8016799 13.9487049,20.6896298 C13.9899847,20.6087853 14.0368588,20.5294981 14.0882349,20.453437 L14.1685387,20.3419733 L20.257135,12.3214714 C20.2640009,12.3120855 20.2712481,12.3030749 20.2788768,12.2943147 C20.3091374,12.2593989 20.3439751,12.2297392 20.3818643,12.2058362 C20.445564,12.1655391 20.5199439,12.1401344 20.5999182,12.134628 L20.6163834,12.1337832 L20.6460082,12.1336894 Z M5.14072973,18.8231977 C5.80782246,18.8231977 6.34860796,19.3554819 6.34860796,20.0120877 C6.34860796,20.6686935 5.80782246,21.2009776 5.14072973,21.2009776 C4.47363701,21.2009776 3.93285151,20.6686935 3.93285151,20.0120877 C3.93285151,19.3554819 4.47363701,18.8231977 5.14072973,18.8231977 Z M7.39297762,14.5645939 C8.06007034,14.5645939 8.60085585,15.0968781 8.60085585,15.7534839 C8.60085585,16.4100896 8.06007034,16.9423738 7.39297762,16.9423738 C6.72588489,16.9423738 6.18509939,16.4100896 6.18509939,15.7534839 C6.18509939,15.0968781 6.72588489,14.5645939 7.39297762,14.5645939 Z M11.2627652,11.6418018 C11.9298579,11.6418018 12.4706434,12.174086 12.4706434,12.8306918 C12.4706434,13.4872976 11.9298579,14.0195817 11.2627652,14.0195817 C10.5956724,14.0195817 10.0548869,13.4872976 10.0548869,12.8306918 C10.0548869,12.174086 10.5956724,11.6418018 11.2627652,11.6418018 Z M16.024984,10.602712 C16.6920767,10.602712 17.2328622,11.1349962 17.2328622,11.7916019 C17.2328622,12.4482077 16.6920767,12.9804919 16.024984,12.9804919 C15.3578913,12.9804919 14.8171058,12.4482077 14.8171058,11.7916019 C14.8171058,11.1349962 15.3578913,10.602712 16.024984,10.602712 Z" fill="#FFFFFF" fill-rule="nonzero" mask="url(#mask-20)"></path>
            </g>
        </g>
    </g>
</svg>