<svg xmlns="http://www.w3.org/2000/svg" width="20" height="20" viewBox="0 0 20 20">
  <path fill="#FFFFFF" fill-rule="evenodd" d="M12.0303301,7.90900974 L4.82456372,0.703243381 C4.43269118,0.311370835 3.80506819,0.316252155 3.41495139,0.706368958 L2.70636896,1.41495139 C2.31300812,1.80831222 2.31485279,2.43617313 2.70324338,2.82456372 L9.90900974,10.0303301 L2.70324338,17.2360964 C2.31137084,17.627969 2.31625215,18.255592 2.70636896,18.6457088 L3.41495139,19.3542912 C3.80831222,19.747652 4.43617313,19.7458074 4.82456372,19.3574168 L12.0303301,12.1516504 L19.2360964,19.3574168 C19.627969,19.7492893 20.255592,19.744408 20.6457088,19.3542912 L21.3542912,18.6457088 C21.747652,18.252348 21.7458074,17.624487 21.3574168,17.2360964 L14.1516504,10.0303301 L21.3574168,2.82456372 C21.7492893,2.43269118 21.744408,1.80506819 21.3542912,1.41495139 L20.6457088,0.706368958 C20.252348,0.313008122 19.624487,0.314852786 19.2360964,0.703243381 L12.0303301,7.90900974 Z" transform="translate(-2)"/>
</svg>
