<svg xmlns="http://www.w3.org/2000/svg" width="20" height="20" viewBox="0 0 20 20">
  <g fill="#FFFFFF" fill-rule="evenodd">
    <path d="M9.99994947,2 C8.47138084,2.00648853 7.10368828,2.45473798 6.15269916,3.26201956 C5.39259664,3.91357635 5.00393581,4.81061596 5,5.92556211 C5.00787161,7.10917857 5.46098127,8.48204389 6.3101314,9.88572973 C7.16370932,11.286712 8.43448266,12.7039156 9.99994947,14 C11.5624644,12.7152706 12.8361896,11.2975262 13.6937033,9.88356689 C14.5556448,8.45500834 15.0077706,7.08646871 14.9998989,5.92664354 C15.0013749,5.00310909 14.7224246,4.20177533 14.1935507,3.60050466 L14.1925667,3.59942324 C14.0907278,3.48317037 13.9775733,3.37340603 13.8580232,3.27229307 C12.8991625,2.45041229 11.530978,2 9.99994947,2 M9.99685908,16 C9.74689823,16 9.49642621,15.918724 9.28378058,15.7556301 C7.32703186,14.2531071 5.7311673,12.5663585 4.66436098,10.8769007 C3.58630898,9.15764164 3.01124568,7.41996004 3,5.85024891 C3.00613401,4.13044803 3.66196176,2.68752752 4.89643097,1.66670053 C6.19990779,0.598733448 8.01046264,0.00812760337 9.99634791,0 C11.990923,0 13.8071007,0.595482407 15.1141557,1.67591182 C15.3063546,1.83304548 15.4898637,2.00643435 15.6549708,2.18740899 C16.5372457,3.15513563 17.0029192,4.41924887 16.9998522,5.84320498 C17.0105867,7.37823834 16.4365457,9.12025466 15.341114,10.872566 C14.2686849,12.5771953 12.6682198,14.2655694 10.7119822,15.7567137 C10.4978031,15.918724 10.2473311,16 9.99685908,16"/>
    <path d="M0.0214252815,20 L0.0136565387,19.8710332 C0.00699761636,19.7667997 0.00144851438,19.6619774 -0.000216216216,19.5595106 C0.00755252656,16.9772296 0.919824893,14.8054047 2.63838178,13.2642806 C3.67439912,12.3438461 4.93959437,11.6530786 6.40233765,11.2072891 L6.97001079,11.0335667 L7.37842469,11.4858339 C8.1353222,12.3220572 8.99099373,13.1247137 9.92879196,13.8749591 C10.8876768,13.1123471 11.757776,12.2979127 12.517448,11.4516783 L12.9225325,11 L13.4885409,11.1666558 C15.0012261,11.6124452 16.3097043,12.323235 17.3762417,13.2790028 C17.6176277,13.4927697 17.9028515,13.7589479 18.1586651,14.0863705 C19.4349586,15.7187725 20.0037415,17.4024079 19.9998572,19.5459661 C20.000967,19.6437218 19.9954179,19.7520775 19.9898688,19.8604332 L19.9998572,20 L18.0338103,20 L18.0338103,19.7455997 C18.0365849,19.6802329 18.0415791,19.6148662 18.0404692,19.5506772 C18.0437987,17.8752863 17.640379,16.6798403 16.6509741,15.4143166 C16.4961542,15.2158608 16.2941669,15.0285939 16.1165956,14.8719492 C15.3902181,14.2212262 14.5156797,13.7112478 13.5085177,13.3479029 C12.6717131,14.2259373 11.7294756,15.0668717 10.7023368,15.8512727 C10.2356573,16.2040175 9.61360297,16.2046064 9.15136278,15.8506838 C8.14919496,15.0798273 7.22582439,14.254204 6.39678855,13.3897141 C5.4306899,13.7477589 4.5927755,14.2388929 3.89858284,14.8554603 C2.63727196,15.987895 1.96527571,17.6120526 1.95917169,19.5500883 C1.96028151,19.600144 1.9647208,19.6678663 1.96860517,19.7344108 L1.96860517,20 L0.0214252815,20 Z"/>
  </g>
</svg>
