<svg xmlns="http://www.w3.org/2000/svg" width="16" height="9" viewBox="0 0 16 9">
  <path fill="#FFFFFF" fill-rule="evenodd" d="M16,4.28350515 C16,4.41752644 15.9465603,4.53608196 15.8396794,4.63917526 L8.36873747,11.8453608 C8.26185651,11.9484541 8.13894525,12 8,12 C7.86105475,12 7.73814349,11.9484541 7.63126253,11.8453608 L0.160320641,4.63917526 C0.0534396794,4.53608196 0,4.41752644 0,4.28350515 C0,4.14948387 0.0534396794,4.03092835 0.160320641,3.92783505 L0.961923848,3.15463918 C1.06880481,3.05154588 1.19171607,3 1.33066132,3 C1.46960657,3 1.59251784,3.05154588 1.6993988,3.15463918 L8,9.23195876 L14.3006012,3.15463918 C14.4074822,3.05154588 14.5303934,3 14.6693387,3 C14.8082839,3 14.9311952,3.05154588 15.0380762,3.15463918 L15.8396794,3.92783505 C15.9465603,4.03092835 16,4.14948387 16,4.28350515 Z" transform="translate(0 -3)"/>
</svg>
