<?xml version="1.0" encoding="UTF-8"?>
<svg width="63px" height="69px" viewBox="0 0 63 69" version="1.1" xmlns="http://www.w3.org/2000/svg" xmlns:xlink="http://www.w3.org/1999/xlink">
    <!-- Generator: Sketch 46.2 (44496) - http://www.bohemiancoding.com/sketch -->
    <title>calendar copy</title>
    <desc>Created with Sketch.</desc>
    <defs></defs>
    <g id="Form" stroke="none" stroke-width="1" fill="none" fill-rule="evenodd">
        <g id="Large-Devices:-Desktops--Copy-16" transform="translate(-113.000000, -400.000000)" fill="#FFFFFF">
            <g id="calendar-copy" transform="translate(113.000000, 400.000000)">
                <g id="calendar">
                    <path d="M58.0316019,35.6568589 L47.1531981,35.6568589 L47.150775,24.5897518 L58.0303904,24.5909839 L58.0316019,35.6568589 Z M58.0303904,50.4093054 L47.1519865,50.4093054 L47.1519865,38.1137518 L58.0316019,38.1137518 L58.0303904,50.4093054 Z M58.0303904,63.9345375 L47.150775,63.9345375 L47.1531981,52.8686625 L58.0316019,52.8686625 L58.0303904,63.9345375 Z M43.5234288,17.2129125 L43.5234288,6.1470375 C43.5234288,5.49400179 44.0904288,4.91735893 44.7349673,4.91735893 L47.1519865,4.91735893 C47.7928904,4.91735893 48.3611019,5.49400179 48.3598904,6.1470375 L48.3598904,17.2129125 C48.3611019,17.8671804 47.7928904,18.4438232 47.1519865,18.4438232 L44.7349673,18.4438232 C44.0904288,18.4438232 43.5234288,17.8671804 43.5234288,17.2129125 L43.5234288,17.2129125 Z M44.7349673,35.6568589 L32.645025,35.6568589 L32.645025,24.5909839 L44.7349673,24.5909839 L44.7349673,35.6568589 Z M44.7361788,50.4093054 L32.645025,50.4105375 L32.645025,38.1137518 L44.7349673,38.1137518 L44.7361788,50.4093054 Z M44.7349673,63.9345375 L32.645025,63.9345375 L32.645025,52.8686625 L44.7349673,52.8674304 L44.7349673,63.9345375 Z M18.1380635,35.6568589 L30.2280058,35.6568589 L30.2280058,24.5909839 L18.1380635,24.5909839 L18.1380635,35.6568589 Z M30.2280058,50.4093054 L18.1380635,50.4093054 L18.1380635,38.1137518 L30.2280058,38.1137518 L30.2280058,50.4093054 Z M30.2280058,63.9345375 L18.1380635,63.9345375 L18.1380635,52.8674304 L30.2280058,52.8686625 L30.2280058,63.9345375 Z M14.5082942,17.2129125 L14.5095058,6.1470375 C14.5095058,5.49400179 15.0752942,4.91735893 15.7198327,4.91735893 L18.1380635,4.91735893 C18.7789673,4.91735893 19.3459673,5.49400179 19.3459673,6.1470375 L19.3459673,17.2129125 C19.3459673,17.8671804 18.7789673,18.4438232 18.1380635,18.4438232 L15.7198327,18.4438232 C15.0752942,18.4438232 14.5082942,17.8671804 14.5082942,17.2129125 L14.5082942,17.2129125 Z M4.83779423,35.6568589 L15.7198327,35.6568589 L15.7198327,24.5909839 L4.83779423,24.5909839 L4.83779423,35.6568589 Z M4.83779423,50.4093054 L15.7198327,50.4093054 L15.7198327,38.1137518 L4.83779423,38.1137518 L4.83779423,50.4093054 Z M15.7210442,63.9345375 L4.83779423,63.9345375 L4.83779423,52.8674304 L15.7198327,52.8686625 L15.7210442,63.9345375 Z M58.0303904,9.83484107 L53.1975635,9.83484107 L53.1975635,6.1470375 C53.1975635,2.76726964 50.4776596,0.00110892857 47.1519865,0.00110892857 L44.7349673,-0.000123214286 C41.4092942,0.00110892857 38.6893904,2.76726964 38.6893904,6.1470375 L38.6893904,9.83484107 L24.1800058,9.83484107 L24.1800058,6.1470375 C24.1800058,2.76726964 21.462525,0.00110892857 18.1380635,-0.000123214286 L15.7198327,0.00110892857 C12.3917365,0.00110892857 9.67304423,2.76726964 9.67183269,6.1470375 L9.67425577,9.83484107 L4.83779423,9.83484107 C2.19542885,9.83484107 0.00133269231,12.0662518 0.000121153846,14.7547875 L0.00133269231,63.9345375 C0.00133269231,66.6243054 2.19421731,68.8520196 4.83779423,68.8520196 L58.0316019,68.8520196 C60.6788135,68.8520196 62.8680635,66.6243054 62.8680635,63.9345375 L62.8680635,14.7547875 C62.8680635,12.0662518 60.6788135,9.83484107 58.0303904,9.83484107 L58.0303904,9.83484107 Z" id="Fill-1"></path>
                </g>
            </g>
        </g>
    </g>
</svg>
