<?xml version="1.0" encoding="UTF-8"?>
<svg width="66px" height="66px" viewBox="0 0 66 66" version="1.1" xmlns="http://www.w3.org/2000/svg" xmlns:xlink="http://www.w3.org/1999/xlink">
    <!-- Generator: Sketch 46.2 (44496) - http://www.bohemiancoding.com/sketch -->
    <title>Group 4 Copy</title>
    <desc>Created with Sketch.</desc>
    <defs></defs>
    <g id="Form" stroke="none" stroke-width="1" fill="none" fill-rule="evenodd">
        <g id="Large-Devices:-Desktops--Copy-16" transform="translate(-603.000000, -403.000000)" fill="#FFFFFF">
            <g id="Group-4-Copy" transform="translate(603.000000, 403.000000)">
                <g id="promotion" transform="translate(17.809524, 12.571429)">
                    <g id="Fill-1">
                        <path d="M9.107,21.4997714 C9.54817647,21.4997714 9.93758824,21.7933224 10.0634706,22.2188531 L11.1993529,26.0699347 L14.3681765,23.6274245 C14.7275882,23.3480776 15.2246471,23.3480776 15.5840588,23.6274245 L18.7493529,26.0699347 L19.8852353,22.2188531 C20.0128824,21.7850367 20.4305294,21.4956286 20.8675882,21.4997714 L24.857,21.6045265 L23.527,17.8173633 C23.3775882,17.3876898 23.5311176,16.9112612 23.9028824,16.6544041 L27.1911176,14.3782 L23.9028824,12.1019959 C23.5311176,11.8445469 23.3775882,11.3687102 23.527,10.9390367 L24.857,7.15424082 L20.8675882,7.25662857 C20.4081765,7.25248571 20.0128824,6.97313878 19.8852353,6.53932245 L18.7493529,2.69238367 L15.5840588,5.13075102 C15.2246471,5.40832245 14.7258235,5.4059551 14.3705294,5.13311837 L11.1993529,2.69001633 L10.0634706,6.53932245 C9.93582353,6.97313878 9.58641176,7.25011837 9.08111765,7.25662857 L5.09170588,7.15424082 L6.42170588,10.9390367 C6.57111765,11.3687102 6.41758824,11.8427714 6.04582353,12.1019959 L2.75935294,14.3782 L6.04582353,16.6544041 C6.41758824,16.9136286 6.57111765,17.3876898 6.42170588,17.8173633 L5.09170588,21.6045265 L9.08111765,21.4997714 L9.107,21.4997714 Z M19.2940588,28.7580571 C19.0764118,28.7580571 18.8628824,28.6876286 18.6852353,28.5509143 L14.9752353,25.6882 L11.2634706,28.5509143 C10.9999412,28.7521388 10.6564118,28.8125061 10.347,28.7101184 C10.0334706,28.6071388 9.79170588,28.3562 9.69817647,28.040751 L8.36817647,23.5285878 L3.69170588,23.6493224 C3.39464706,23.6593837 3.05288235,23.5049143 2.85935294,23.2356286 C2.66582353,22.9704857 2.61582353,22.6224857 2.72523529,22.3094041 L4.28288235,17.8718122 L0.433470588,15.2055878 C0.163470588,15.0191592 -5.88235295e-05,14.7078531 -5.88235295e-05,14.3782 C-5.88235295e-05,14.0485469 0.163470588,13.7390163 0.433470588,13.5502204 L4.28288235,10.8845878 L2.72523529,6.45113878 C2.61582353,6.13924082 2.66582353,5.7942 2.85935294,5.52491429 C3.05288235,5.25562857 3.36052941,5.13489388 3.69170588,5.11062857 L8.36817647,5.22722041 L9.69817647,0.7192 C9.79170588,0.40375102 10.0334706,0.152812245 10.347,0.0504244898 C10.6581765,-0.0519632653 10.9999412,0.00840408163 11.2617059,0.207261224 L14.9752353,3.06760816 L18.6852353,0.209036735 C18.947,0.00603673469 19.2881765,-0.0543306122 19.6017059,0.0504244898 C19.9152353,0.152812245 20.157,0.40375102 20.2505294,0.7192 L21.5805294,5.22722041 L26.257,5.11062857 C26.6164118,5.11713878 26.8975882,5.25740408 27.0893529,5.52491429 C27.2828824,5.7942 27.3328824,6.13924082 27.2228824,6.45113878 L25.6634706,10.8845878 L29.5193529,13.5502204 C29.7887647,13.7390163 29.9505294,14.0467714 29.9505294,14.3782 C29.9505294,14.7096286 29.7887647,15.0191592 29.5193529,15.2055878 L25.6634706,17.8718122 L27.2228824,22.3094041 C27.3328824,22.6224857 27.2811176,22.9704857 27.0893529,23.2356286 C26.8958235,23.5049143 26.5464118,23.6635265 26.257,23.6493224 L21.5805294,23.5285878 L20.2505294,28.040751 C20.157,28.3562 19.9152353,28.6071388 19.6017059,28.7101184 C19.5017059,28.7438531 19.3958235,28.7580571 19.2940588,28.7580571 L19.2940588,28.7580571 Z"></path>
                    </g>
                </g>
                <g id="Page-1">
                    <path d="M57.0357028,22.4147037 L57.0357028,29.3499651 C58.5515301,28.1557941 59.9739169,27.0353628 61.4556157,25.8682067 C59.9729536,24.709734 58.5559338,23.6025345 57.0357028,22.4147037 L57.0357028,22.4147037 Z M3.72908653,25.8562154 C5.22372114,27.0332953 6.64858504,28.1553806 8.15560499,29.3421087 L8.15560499,22.3471663 C6.63509879,23.5525017 5.21064774,24.6817542 3.72908653,25.8562154 L3.72908653,25.8562154 Z M36.9954063,6.93444821 C37.0142595,6.88648289 37.0329751,6.8386554 37.051966,6.79096574 C35.6579278,5.68404195 34.2722841,4.56609165 32.8558147,3.48880161 C32.7264568,3.39052783 32.3430619,3.47915341 32.1725571,3.60733659 C31.1306753,4.39077014 30.1154907,5.20976418 29.0930126,6.01911003 C28.7649388,6.27878435 28.442232,6.54493674 27.9998004,6.90288482 C28.285764,6.9208029 28.3932412,6.93348339 28.5007183,6.93348339 C31.3324186,6.93458604 34.1638436,6.93444821 36.9954063,6.93444821 L36.9954063,6.93444821 Z M23.4831442,44.916503 C16.5944213,39.4876007 9.76294615,34.1037693 2.87284709,28.6737644 L2.87284709,61.0622084 C9.7967994,55.6381302 16.613825,50.2978535 23.4831442,44.916503 L23.4831442,44.916503 Z M62.3541029,28.6499195 C55.4099212,34.1230657 48.590281,39.4978003 41.7149067,44.9166409 C48.5957856,50.3062612 55.423958,55.6548078 62.3541029,61.0832966 L62.3541029,28.6499195 Z M59.6792836,62.5123323 C59.4282741,62.2931804 59.3155676,62.185672 59.1937785,62.090017 C52.7674414,57.0551746 46.3373887,52.025432 39.9217855,46.9769443 C39.5598585,46.6921847 39.3561886,46.7620652 39.0486195,47.0076807 C37.2918286,48.4095636 35.5218267,49.7944933 33.7576047,51.1868659 C32.8273284,51.9210936 32.3565481,51.919164 31.4434738,51.1955493 C29.6822792,49.7993174 27.9089746,48.4187983 26.1587893,47.0089212 C25.8069081,46.7255399 25.5887886,46.7336719 25.230302,47.0156749 C18.848965,52.0341154 12.4544169,57.036016 6.0642725,62.0432921 C5.91537326,62.1598975 5.78381348,62.2989694 5.55207012,62.5123323 L59.6792836,62.5123323 Z M10.9479474,9.7044454 C10.9479474,10.0541236 10.9479474,10.3275811 10.9479474,10.6010385 C10.9493236,17.3520194 10.9568924,24.1030002 10.9396905,30.8538433 C10.9383144,31.3708488 11.0989109,31.6851043 11.5006085,32.000049 C16.6431369,36.0320303 21.7710782,40.0828945 26.9036983,44.1274184 C28.7916361,45.6151703 30.6821886,47.099752 32.5915943,48.6012871 C32.8580166,48.3988128 33.0952645,48.2241804 33.326595,48.0418295 C40.0965564,42.7029311 46.8623892,37.3586573 53.6440478,32.0347825 C54.0884061,31.6860691 54.2633145,31.3374936 54.2619384,30.7756929 C54.2440484,24.001832 54.2509292,17.2278333 54.2491402,10.4539724 C54.2491402,10.2116649 54.227397,9.96935731 54.2145989,9.7044454 L10.9479474,9.7044454 Z M32.6131998,65.2923912 C22.5914001,65.2923912 12.5691877,65.2529714 2.54793849,65.3216115 C0.210963527,65.3375999 0.0372936176,64.6917221 0.0454128923,62.8271392 C0.0970184517,50.8380147 0.0721101683,38.8484766 0.0690826422,26.8592143 C0.0690826422,26.5388942 -0.0562844635,26.1922482 0.0308257208,25.9045942 C0.163211183,25.4672552 0.327660898,24.941842 0.657248405,24.6780327 C2.87394801,22.9033159 5.12202379,21.1665027 7.39693446,19.4671797 C8.01303603,19.0070985 8.23968765,18.5194511 8.22771516,17.7525574 C8.18078851,14.7442497 8.20418303,11.7348394 8.20294449,8.72584262 C8.20253165,7.34711535 8.62583485,6.92879712 10.0154694,6.92921062 C14.3039601,6.93086459 18.5925886,6.94244243 22.881217,6.91790844 C23.2549788,6.91570314 23.6945206,6.76408863 23.9901172,6.53515071 C26.5112208,4.58332057 29.0046638,2.59565428 31.5096665,0.623011609 C32.3416857,-0.0321009278 32.8968239,-0.0195582724 33.717834,0.634451613 C36.1936623,2.60695645 38.663986,4.58662853 41.1599061,6.53349673 C41.4538514,6.76284814 41.8925674,6.91556531 42.265366,6.91777061 C46.5995449,6.9440964 50.9341367,6.93375905 55.2685908,6.9352752 C56.5870785,6.93568869 57.0000605,7.39204838 56.994556,8.73590431 C56.9814825,11.9745282 56.9812073,15.2132899 57.0048771,18.4517759 C57.0068037,18.6998724 57.176758,19.024741 57.3738224,19.1814552 C59.4919898,20.8661682 61.6257077,22.5314469 63.7689209,24.1843207 C64.2988756,24.5929908 65.0513535,24.7826468 65.1302068,25.6024678 C65.1670876,25.9849499 65.126216,26.374737 65.126216,26.7612162 C65.1260783,36.4772256 65.1238765,46.1933729 65.1288306,55.9095202 C65.1300692,58.5502315 65.1566288,61.1909429 65.1644729,63.8316543 C65.1670876,64.72935 64.5394264,65.3327758 63.6398382,65.3327758 C53.2976713,65.331811 42.9555043,65.3322245 32.6131998,65.3322245 L32.6131998,65.2923912 Z" id="Fill-1"></path>
                </g>
            </g>
        </g>
    </g>
</svg>
