<?xml version="1.0" encoding="utf-8"?>
<!-- Generator: Adobe Illustrator 20.0.0, SVG Export Plug-In . SVG Version: 6.00 Build 0)  -->
<svg version="1.1" id="Layer_1" xmlns="http://www.w3.org/2000/svg" xmlns:xlink="http://www.w3.org/1999/xlink" x="0px" y="0px"
	 viewBox="0 0 109.6 116.4" style="enable-background:new 0 0 109.6 116.4;" xml:space="preserve">
<style type="text/css">
	.st0{fill:#E41613;}
</style>
<path class="st0" d="M102.1,18.2C92.6,6.8,74.9,0,54.8,0C34.6,0,16.9,6.8,7.4,18.2C2.6,24,0,31.8,0,40.3C0,54,7,82,53.8,115.7
	l0.9,0.7l0.9-0.7c46.9-33.8,53.9-61.8,53.9-75.4C109.6,29.5,105.5,22.3,102.1,18.2z M54.8,65.2c-12,0-21.7-9.7-21.7-21.7
	s9.7-21.7,21.7-21.7c12,0,21.7,9.7,21.7,21.7S66.8,65.2,54.8,65.2z"/>
</svg>
