<svg width="337" height="213" fill="none" xmlns="http://www.w3.org/2000/svg">
    <path d="M325.026 0H11.974C5.637 0 .5 5.15.5 11.503V200.9c0 6.353 5.137 11.503 11.474 11.503h313.052c6.337 0 11.474-5.15 11.474-11.503V11.503C336.5 5.15 331.363 0 325.026 0Z"
          fill="#F1EFE6"/>
    <path d="M254.097 100.632h-2.711c-.148.001-.264-.131-.255-.288l.225-3.869c-.005-.183-.147-.283-.296-.309-.958-.16-3.641-.035-4.345.581a.432.432 0 0 0-.135.308l-.182 3.316a.27.27 0 0 1-.263.262h-1.5a.271.271 0 0 0-.262.263l-.193 3.952c-.009.157.108.289.256.289l1.415-.001c.148 0 .265.132.256.289l-.204 3.781c-.141 2.453.336 3.665 1.055 4.473.821.924 1.6 1.397 3.304 1.472 1.205.052 2.44-.309 3.24-.655a.277.277 0 0 0 .159-.24l.198-3.763c.011-.194-.164-.335-.339-.274-.507.178-1.141.342-1.624.342-1.011 0-1.303-.634-1.238-1.76l.182-3.403a.27.27 0 0 1 .262-.262l2.795-.001a.272.272 0 0 0 .263-.262l.193-3.951c.009-.158-.108-.29-.256-.29ZM263.871 100.345c-2.173.031-4.012.724-5.448 2.083-1.442 1.365-2.19 3.184-2.243 5.389-.051 2.212.621 4.011 1.999 5.348l.002.002c1.368 1.297 3.175 1.94 5.369 1.909 2.172-.031 4.002-.715 5.421-2.055 1.442-1.364 2.189-3.184 2.242-5.39.051-2.211-.621-4.01-1.999-5.347-1.359-1.318-3.156-1.97-5.343-1.939Zm-.273 10.726c-.746.01-1.39-.233-1.865-.702-.594-.589-.906-1.514-.878-2.605.052-2.018 1.234-3.39 2.941-3.415.737-.01 1.379.234 1.856.707.599.593.914 1.517.886 2.601-.052 2.017-1.234 3.39-2.94 3.414ZM167.696 107.359c.217-4.517-2.908-7.152-6.277-7.152-1.133 0-2.337.29-3.239.927l-.056-.028.379-7.637a.242.242 0 0 0-.241-.253h-4.232a.241.241 0 0 0-.241.23l-1.031 21.187a.277.277 0 0 0 .321.287l2.67-.624a.267.267 0 0 1 .167.025c.872.443 2.077.771 3.57.771 4.501-.001 7.99-3.129 8.21-7.733Zm-7.509 3.683c-.745 0-1.387-.252-1.855-.729-.586-.598-.885-1.528-.842-2.62.081-2.018 1.282-3.374 2.991-3.374.738 0 1.377.254 1.848.733.59.602.892 1.531.849 2.615-.081 2.018-1.283 3.375-2.991 3.375ZM194.336 114.538l.624-13.813c.008-.176-.138-.314-.302-.285l-3.233.677a.271.271 0 0 1-.179-.031c-.968-.544-2.123-.788-3.237-.788-3.986 0-7.353 3.23-7.558 7.756-.194 4.297 2.602 7.065 5.878 7.064 1.174 0 2.364-.346 3.214-1.038l.052.058-.017.374c-.007.157.111.289.26.289l4.239-.001a.267.267 0 0 0 .259-.262Zm-6.7-3.26c-.744 0-1.386-.252-1.854-.729-.587-.597-.885-1.527-.842-2.619.081-2.018 1.283-3.374 2.991-3.374.737 0 1.377.253 1.848.733.591.602.892 1.53.848 2.615-.079 2.018-1.281 3.374-2.991 3.374ZM227.311 114.891c.12-.068.14-.229.148-.366l1.077-21.46c-.002-.165-.141-.267-.282-.29-.905-.152-3.69-.038-4.348.54a.33.33 0 0 0-.119.237s-.283 4.729-.416 7.265a7.452 7.452 0 0 0-6.304.291 7.314 7.314 0 0 0-2.234 1.856c-1.283 1.586-1.774 3.603-1.591 5.635.095 1.05.389 2.089.915 3.007.107.188.225.371.351.547.963 1.342 2.449 2.276 4.055 2.677 1.606.402 3.322.286 4.901-.216.367-.117.736-.255 1.121-.26.262-.003.519.055.774.113.626.144 1.028.287 1.655.43.098.023.209.044.297-.006Zm-6.936-3.849c-.745 0-1.387-.252-1.856-.73-.588-.597-.889-1.527-.848-2.618.075-2.019 1.274-3.375 2.983-3.375.738 0 1.377.253 1.849.734.592.602.896 1.53.855 2.614-.076 2.019-1.274 3.375-2.983 3.375ZM154.198 90.253h4.185a.251.251 0 0 0 .254-.243l.317-7.006c.082-2 .857-3.146 2.177-3.146.434 0 .764.125 1.01.381.401.416.608 1.195.563 2.315l-.334 7.411a.28.28 0 0 0 .277.288l4.197-.004c.138 0 .25-.106.255-.245l.318-7.006c.083-1.999.856-3.145 2.175-3.145.419 0 .74.123.982.374.401.417.61 1.198.563 2.322l-.504 11.872a.28.28 0 0 0 .276.29h4.191c.139 0 .25-.107.255-.245l.669-12.7c.088-2.135-.504-3.715-1.446-4.696-.789-.822-1.946-1.239-3.439-1.239-1.887 0-3.163.783-4.228 2.32-.658-1.537-2.02-2.315-4.051-2.315-1.422 0-2.718.695-3.667 1.883l.079-1.523c.002-.158-.142-.266-.283-.29-.902-.151-3.68-.033-4.335.547-.08.072-.119.147-.123.288l-.611 13.224a.28.28 0 0 0 .278.288ZM282.575 92.83c-1.776-.54-3.884-.536-5.44.543-1.804 1.25-2.321 3.44-2.384 5.53l-.044 1.463c-.004.147-.116.264-.255.264l-1.362-.003c-.138 0-.25.116-.255.264l-.12 3.951c-.005.159.116.292.264.292l1.311.003c.149 0 .269.133.265.292l-.219 9.148c-.005.158.115.291.263.292l4.17.009a.263.263 0 0 0 .255-.264l.221-9.099a.261.261 0 0 1 .255-.264l2.454.005c.138 0 .25-.116.255-.264l.119-3.951c.005-.158-.115-.291-.263-.292l-2.404-.004c-.149-.001-.268-.134-.263-.292l.049-1.67c.031-1.047.322-1.657 1.305-1.655.367.001.961.084 1.479.18.154.029.294-.092.299-.259l.237-3.938a.282.282 0 0 0-.192-.281ZM238.74 106.146c-.718-.215-1.325-.333-1.813-.428-.929-.181-1.349-.3-1.32-.94.016-.337.23-.738 1.162-.739.874 0 2.658.244 4.615 1.194.161.079.35-.03.359-.21l.177-3.467a.249.249 0 0 0-.152-.244c-1.799-.755-3.356-.988-4.706-.988-3.707 0-6.303 1.952-6.461 4.857-.09 2.017 1.036 3.312 3.545 4.076.692.21 1.298.329 1.784.424.98.192 1.323.319 1.292 1.003-.035.769-.927.769-1.22.769-.934 0-3.028-.319-4.981-1.269a.25.25 0 0 0-.36.21l-.178 3.485a.25.25 0 0 0 .149.244 13.6 13.6 0 0 0 5.074 1.044c3.869 0 6.473-1.942 6.634-4.947.093-2.059-.984-3.278-3.6-4.074ZM178.771 90.257h4.076a.314.314 0 0 0 .313-.299l.246-5.144c.007-.145.2-.188.267-.06l2.772 5.333a.313.313 0 0 0 .278.169h5.493a.314.314 0 0 0 .271-.473l-3.972-6.817a.312.312 0 0 1 .026-.353l4.768-6.068a.314.314 0 0 0-.245-.51l-5.199.002a.313.313 0 0 0-.252.128l-3.781 5.198c-.084.114-.264.05-.256-.09l.631-12.684c0-.173-.139-.268-.28-.292a4.54 4.54 0 0 0-.494-.047 9.244 9.244 0 0 0-1.438.02c-.991.07-2.017.251-2.382.577-.08.071-.115.147-.124.289l-1.03 20.792a.314.314 0 0 0 .312.33ZM195.298 90.444l2.632-.625c.057-.01.115 0 .167.026.872.443 2.077.77 3.572.77 4.502 0 7.992-3.13 8.212-7.735.217-4.519-2.91-7.154-6.28-7.154-1.133 0-2.338.29-3.239.927l-.057-.029.424-8.012c.004-.16-.138-.27-.277-.293-.894-.153-3.653-.037-4.308.547a.409.409 0 0 0-.126.29l-1.041 21.001a.277.277 0 0 0 .321.287Zm7.365-10.605c.738 0 1.378.253 1.849.734.591.602.892 1.531.849 2.615-.08 2.02-1.283 3.376-2.992 3.376-.746 0-1.387-.252-1.855-.729-.587-.597-.886-1.529-.842-2.62.079-2.02 1.282-3.376 2.991-3.376ZM179.191 100.557a4.37 4.37 0 0 0-.731-.067c-1.429 0-2.654.727-3.548 1.762l-.052-.027.061-1.378c-.004-.167-.144-.272-.286-.295-.907-.153-3.693-.035-4.343.552-.081.072-.114.152-.122.292l-.631 13.16c-.007.152.108.28.252.28l4.211-.001a.258.258 0 0 0 .251-.253l.394-7.8a.279.279 0 0 1 .089-.188c.888-.807 1.942-1.312 3.02-1.313.343 0 .752.037 1.146.11.147.027.284-.091.291-.251l.205-4.307a.262.262 0 0 0-.207-.276ZM209.905 102.037a4.162 4.162 0 0 0-2.794-1.577c-1.707-.204-3.27.484-4.348 1.83l.078-1.522c-.002-.173-.141-.267-.282-.291-.596-.099-2.007-.08-3.088.109-.558.098-1.03.241-1.253.438-.08.072-.118.142-.124.289l-.611 13.223a.274.274 0 0 0 .084.208c.05.055.123.091.203.091l4.203-.005c.138 0 .25-.106.255-.244l.319-7.006c.083-1.999.857-3.146 2.178-3.146.42 0 .742.122.983.374.401.417.611 1.198.565 2.322l-.329 7.406c-.001.022.007.041.01.061a.277.277 0 0 0 .268.228l4.204-.004a.254.254 0 0 0 .255-.245l.102-2.34.18-4.095c.068-1.554.211-3.218-.292-4.687a4.73 4.73 0 0 0-.766-1.417Z"
          fill="#A9228C"/>
    <path d="M213.798 85.459c-.762 0-1.41.234-1.921.704-.512.471-.783 1.105-.812 1.878-.03.775.197 1.41.674 1.885h.001c.473.462 1.103.696 1.873.696.761 0 1.406-.23 1.911-.693.512-.47.783-1.105.812-1.879.03-.774-.197-1.409-.674-1.885-.469-.469-1.097-.706-1.864-.706ZM22.51 68.769h15.02c6.009 0 10.482.704 13.933 2.435 4.794 2.37 8.054 6.6 8.054 13.07 0 5.383-2.302 9.548-6.903 12.239-3.58 2.115-8.5 3.14-14.828 3.14h-2.11v15.506H22.51v-46.39Zm15.532 20.888c2.876 0 4.857-.256 5.943-.833 1.535-.769 2.365-2.242 2.365-4.293 0-2.114-.895-3.652-2.556-4.421-1.214-.576-2.812-.833-6.136-.833h-1.981v10.38h2.365ZM75.392 68.769h12.975l18.727 46.39H92.778l-3.26-9.483H73.667l-3.388 9.483H56.666l18.726-46.39Zm6.264 14.096a169.546 169.546 0 0 1-2.877 8.65l-1.596 4.422h8.947l-1.533-4.422c-1.087-3.14-1.918-5.766-2.813-8.65h-.128ZM112.433 100.294c5.624 3.203 12.017 4.613 15.212 4.613 2.684 0 4.602-.961 4.602-3.332 0-3.332-3.707-3.332-9.588-5.382-7.03-2.435-11.888-5.895-11.888-13.391 0-9.035 6.967-14.738 17.322-14.738 4.793 0 10.738 1.218 15.084 3.396v12.175c-5.561-3.14-11.697-4.614-14.956-4.614-2.43 0-4.091.769-4.091 2.82 0 3.01 3.578 3.01 9.204 4.997 7.222 2.563 12.272 6.151 12.272 13.968 0 9.355-7.351 15.058-18.088 15.058-4.73 0-10.61-1.09-15.085-3.205v-12.365ZM22.51 16.003h13.167v35.242h19.302v11.148h-32.47v-46.39ZM77.582 16.003h12.974l18.728 46.39H94.967l-3.26-9.483H75.856l-3.387 9.483H58.856l18.726-46.39Zm6.263 14.096a169.646 169.646 0 0 1-2.876 8.65l-1.597 4.422h8.948l-1.534-4.421c-1.087-3.14-1.917-5.767-2.812-8.65h-.129ZM131.029 16.003h12.975l18.727 46.39h-14.316l-3.261-9.483h-15.851l-3.387 9.483h-13.613l18.726-46.39Zm6.263 14.096a168.952 168.952 0 0 1-2.876 8.65l-1.597 4.422h8.948l-1.533-4.421c-1.088-3.14-1.918-5.767-2.813-8.65h-.129ZM167.787 16.003h13.294c9.588 0 16.81 1.602 21.732 5.318 5.113 3.845 7.926 10.124 7.926 17.941 0 6.92-2.173 12.687-6.584 16.724-4.602 4.164-11.696 6.407-22.818 6.407h-13.55v-46.39Zm13.678 35.242c8.373 0 11.761-1.666 13.742-4.037 1.725-2.115 2.365-4.934 2.365-7.946 0-4.357-1.343-7.497-3.964-9.483-2.811-2.114-7.03-2.627-12.206-2.627h-.448v24.093h.511Z"
          fill="#00AEAB"/>
    <path fill-rule="evenodd" clip-rule="evenodd"
          d="M315.967 177.774c0 .772.041 1.443-.009 2.108a55.505 55.505 0 0 1-.36 3.454c-.124.89-.289 1.78-.52 2.648-.311 1.169-.588 2.347-.971 3.5-.263.792-.552 1.578-.803 2.375-.198.629-.494 1.228-.758 1.834-.392.895-.768 1.798-1.199 2.674-.418.849-.89 1.673-1.353 2.5a45.925 45.925 0 0 1-1.781 2.955 52.012 52.012 0 0 1-1.984 2.824c-1.493 1.959-3.119 3.798-4.942 5.452a40.947 40.947 0 0 1-4.873 3.778c-1.801 1.195-3.711 2.168-5.66 3.063a22.774 22.774 0 0 1-3.143 1.168c-.923.268-1.836.568-2.758.837-.319.093-.659.13-.981.183-.858.142-1.718.292-2.578.427-2.218.349-4.445.374-6.675.293a27.655 27.655 0 0 1-3.479-.367c-.881-.145-1.77-.301-2.634-.522-1.179-.303-2.368-.576-3.521-.995-.901-.327-1.825-.6-2.722-.944-2.237-.86-4.386-1.922-6.47-3.093-1.773-.995-3.48-2.113-5.07-3.4a57.357 57.357 0 0 1-2.28-1.924c-1.518-1.365-3.197-2.5-5.074-3.285-.891-.373-1.842-.627-2.815-.807-1.017-.189-2.019-.103-3.027-.126-.91-.021-1.378-.752-.979-1.586.378-.79.812-1.555 1.153-2.36.273-.647.461-1.332.669-2.007.26-.846.321-1.717.446-2.575.098-.67.159-1.381-.073-2.063-.051-.149-.046-.322-.043-.484.011-.714-.279-1.368-.42-2.05-.15-.724-.323-1.447-.456-2.173-.5-2.72-.452-5.472-.34-8.215.048-1.187.223-2.379.46-3.557.139-.696.244-1.407.414-2.096a35.86 35.86 0 0 1 .62-2.295c.196-.617.368-1.244.591-1.854.257-.703.479-1.421.761-2.113a59.314 59.314 0 0 1 2.077-4.494c.72-1.411 1.532-2.767 2.368-4.109.708-1.135 1.504-2.21 2.286-3.294.244-.338.527-.65.791-.974a41.162 41.162 0 0 1 4.82-5.005 35.691 35.691 0 0 1 5.763-4.149 47.654 47.654 0 0 1 3.889-2.008 27.043 27.043 0 0 1 3.537-1.343c1.102-.331 2.203-.655 3.33-.899 1.034-.225 2.074-.389 3.12-.548 2.16-.329 4.328-.386 6.497-.281 1.161.056 2.328.191 3.48.362.882.131 1.769.3 2.634.519 1.181.299 2.359.613 3.523.987a47.12 47.12 0 0 1 4.55 1.7 49.777 49.777 0 0 1 4.97 2.54c1.232.715 2.401 1.52 3.593 2.29.613.396 1.161.896 1.736 1.352 1.439 1.144 2.807 2.368 4.028 3.745 1.31 1.477 2.515 3.032 3.577 4.71.974 1.538 1.76 3.165 2.521 4.805.41.882.678 1.835.994 2.761.336.988.55 2.005.809 3.008.11.424.176.887.253 1.331.107.615.082 1.254.299 1.851.02.054.018.117.019.176.029 1.298.316 2.583.173 3.785"
          fill="#FFE300"/>
    <path d="M260.668 167.849h5.701v-1.665h-3.797v-7.007h-1.904v8.672ZM268.953 167.981c.67 0 1.257-.216 1.641-.491h.024c.323.335.79.467 1.269.467.348 0 .671-.072.875-.18v-1.365a.688.688 0 0 1-.3.072c-.251 0-.359-.192-.359-.468v-2c0-.743-.216-1.27-.659-1.629-.467-.383-1.174-.563-1.964-.563-.863 0-1.581.216-2.061.455v1.569c.468-.251 1.066-.467 1.725-.467.431 0 .743.096.911.252.131.12.227.335.227.623v.227a4.726 4.726 0 0 0-1.018-.108c-.611 0-1.198.108-1.653.42-.419.287-.719.778-.719 1.425 0 .611.264 1.078.695 1.378.383.263.863.383 1.366.383Zm.503-1.342c-.42 0-.755-.203-.755-.587 0-.455.467-.599.934-.599.192 0 .456.024.647.084v.863a1.64 1.64 0 0 1-.826.239ZM273.386 165.022c0 1.809 1.282 2.959 2.767 2.959.575 0 1.102-.18 1.497-.455l.024.012v.311h1.785v-9.151h-1.821v3.33l-.024.012a2.79 2.79 0 0 0-1.114-.216c-1.761 0-3.114 1.342-3.114 3.198Zm1.833-.084c0-.886.515-1.605 1.473-1.605.359 0 .683.096.946.228v2.635c-.263.168-.623.3-1.018.3-.898 0-1.401-.683-1.401-1.558ZM286.471 165.382c.024-.156.036-.42.036-.623 0-1.977-1.365-2.935-2.815-2.935-1.629 0-3.09 1.222-3.09 3.102 0 1.845 1.401 3.055 3.342 3.055.779 0 1.665-.18 2.24-.539v-1.521c-.623.419-1.342.646-2.001.646-.838 0-1.509-.371-1.712-1.185h4Zm-2.803-2.168c.587 0 1.055.383 1.162 1.018h-2.371c.155-.671.646-1.018 1.209-1.018ZM287.688 167.849h1.82v-3.965c.324-.251.767-.491 1.234-.491.252 0 .467.072.623.252.144.167.204.383.204.826v3.378h1.82v-3.677c0-.851-.155-1.366-.515-1.749-.371-.383-.922-.599-1.545-.599-.743 0-1.365.311-1.821.683l-.024-.012v-.539h-1.796v5.893ZM258.955 174.736c0 .575.48 1.042 1.055 1.042.574 0 1.054-.467 1.054-1.042s-.48-1.042-1.054-1.042c-.575 0-1.055.467-1.055 1.042Zm.144 7.762h1.821v-5.894h-1.821v5.894ZM262.433 182.498h1.821v-3.965c.323-.252.766-.491 1.233-.491.252 0 .468.072.623.251.144.168.204.384.204.827v3.378h1.821v-3.678c0-.85-.156-1.365-.515-1.749-.372-.383-.923-.598-1.546-.598-.742 0-1.365.311-1.82.682l-.024-.012v-.539h-1.797v5.894ZM272.458 182.498h1.82v-3.965c.324-.252.767-.491 1.234-.491.252 0 .467.072.623.251.144.168.204.384.204.827v3.378h1.82v-3.678c0-.85-.155-1.365-.515-1.749-.371-.383-.922-.598-1.545-.598-.743 0-1.366.311-1.797.67l-.024-.012v-3.785h-1.82v9.152ZM285.138 180.03c.024-.156.036-.419.036-.623 0-1.976-1.366-2.934-2.815-2.934-1.629 0-3.09 1.221-3.09 3.102 0 1.845 1.401 3.054 3.341 3.054.779 0 1.665-.179 2.24-.539v-1.521c-.623.419-1.341.647-2 .647-.838 0-1.509-.371-1.713-1.186h4.001Zm-2.803-2.168c.587 0 1.054.383 1.162 1.018h-2.372c.156-.671.647-1.018 1.21-1.018ZM291.852 180.03c.024-.156.036-.419.036-.623 0-1.976-1.365-2.934-2.815-2.934-1.629 0-3.09 1.221-3.09 3.102 0 1.845 1.401 3.054 3.342 3.054.778 0 1.665-.179 2.24-.539v-1.521c-.623.419-1.342.647-2.001.647-.838 0-1.509-.371-1.713-1.186h4.001Zm-2.803-2.168c.587 0 1.054.383 1.162 1.018h-2.372c.156-.671.647-1.018 1.21-1.018ZM293.068 182.498h1.821v-9.152h-1.821v9.152ZM256.129 197.146h5.486v-1.665h-3.582v-2.06h2.971v-1.581h-2.971v-1.701h3.45v-1.665h-5.354v8.672ZM263.312 196.691c.335.347.85.587 1.533.587.767 0 1.342-.3 1.797-.695l.024.012v.551h1.796v-5.893h-1.82v3.941c-.288.275-.743.527-1.198.527-.252 0-.491-.084-.647-.264-.156-.168-.228-.419-.228-.85v-3.354h-1.82v3.629c0 .875.179 1.414.563 1.809ZM270.001 197.146h1.821v-3.569c.431-.504.958-.695 1.593-.695.168 0 .347.024.491.06v-1.713a1.456 1.456 0 0 0-.383-.048c-.731 0-1.306.299-1.713.874l-.024-.012v-.79h-1.785v5.893ZM276.2 194.199c0-.838.635-1.509 1.461-1.509.827 0 1.461.671 1.461 1.509 0 .839-.634 1.51-1.461 1.51-.826 0-1.461-.671-1.461-1.51Zm-1.821 0c0 1.737 1.401 3.079 3.282 3.079s3.282-1.342 3.282-3.079c0-1.736-1.401-3.078-3.282-3.078s-3.282 1.342-3.282 3.078ZM283.905 197.062l.024-.012c.276.132.659.228 1.138.228 1.725 0 3.079-1.234 3.079-3.126 0-1.833-1.282-3.031-2.791-3.031-.587 0-1.078.18-1.462.443l-.024-.012v-.299h-1.784v8.528h1.82v-2.719Zm0-1.485v-2.611a1.69 1.69 0 0 1 .982-.324c.899 0 1.426.719 1.426 1.605 0 .875-.527 1.558-1.473 1.558-.372 0-.707-.108-.935-.228ZM290.991 197.278c.67 0 1.257-.216 1.641-.491h.024c.323.335.79.467 1.269.467.348 0 .671-.072.875-.18v-1.365a.688.688 0 0 1-.3.072c-.251 0-.359-.192-.359-.468v-2c0-.743-.216-1.27-.659-1.629-.467-.383-1.174-.563-1.964-.563-.863 0-1.582.216-2.061.455v1.569c.467-.251 1.066-.467 1.725-.467.431 0 .743.096.911.252.131.12.227.335.227.623v.227a4.726 4.726 0 0 0-1.018-.108c-.611 0-1.198.108-1.653.42-.419.287-.719.778-.719 1.425 0 .611.264 1.078.695 1.378.383.263.862.383 1.366.383Zm.503-1.342c-.42 0-.755-.203-.755-.587 0-.455.467-.599.934-.599.192 0 .455.024.647.084v.863a1.64 1.64 0 0 1-.826.239ZM295.723 196.2c0 .599.503 1.078 1.102 1.078.599 0 1.102-.479 1.102-1.078 0-.599-.503-1.078-1.102-1.078-.599 0-1.102.479-1.102 1.078Z"
          fill="#413C37"/>
</svg>