<svg width="337" height="214" fill="none" xmlns="http://www.w3.org/2000/svg">
    <path d="M325.026.785H11.974C5.637.785.5 5.935.5 12.287v189.398c0 6.353 5.137 11.503 11.474 11.503h313.052c6.337 0 11.474-5.15 11.474-11.503V12.287c0-6.352-5.137-11.502-11.474-11.502Z"
          fill="#F1EFE6"/>
    <path d="M293.689 23.97h-1.107v7.637h1.107V23.97ZM290.527 27.89c-.014.484-.562.76-1.212.76h-1.164v-1.137c0-.587.595-.795 1.164-.795.513 0 1.212.172 1.212.76v.412Zm-1.185-2.048c-1.109 0-2.26.611-2.301 1.278v3.241c.042.634 1.206 1.301 2.301 1.267.124 0 .609.011.846 0v-.887h-.846c-.846.012-1.179-.369-1.179-.772-.013-.091-.013-.251-.013-.412h1.206c1.246 0 2.285-.703 2.285-1.28V27.1c-.013-.53-1.025-1.257-2.299-1.257M270.365 26.861v2.741c0 .53.11 1.083.983 1.348v.795c-1.926.011-2.119-1.567-2.119-2.108V23.97h1.122v1.993h1.038v.898h-1.024ZM275.81 26.918c-.472-.184-.735-.184-.997-.207-.666 0-1.179.3-1.179.783v4.112h-1.122v-4.48c0-.507.914-1.278 2.314-1.278.748-.013 1.468.252 1.468.252l-.484.818ZM280.548 30.466c-.043.669-1.193 1.278-2.301 1.278-1.274 0-2.286-.726-2.3-1.255v-1.404c0-.577 1.04-1.28 2.286-1.28h1.206c0-.16 0-.207-.014-.3 0-.402-.332-.782-1.178-.77h-.845v-.888c.236-.011.721 0 .845 0 1.095-.034 2.258.633 2.301 1.267v3.352Zm-1.151-1.774h-1.164c-.65 0-1.205.276-1.219.76 0 .139.014.589.014.658 0 .586.692.76 1.205.76.568 0 1.164-.208 1.164-.795v-1.383ZM285.492 25.974l-1.58 3.64-1.57-3.641h-1.223l2.642 5.714h.263l2.618-5.713h-1.15Z"
          fill="#69645F"/>
    <path d="M266.69 16.788c-2.937 0-5.329 2.396-5.329 5.343v11.314c0 2.946 2.392 5.343 5.329 5.343h21.671c2.938 0 5.328-2.397 5.328-5.343h-1.107a4.23 4.23 0 0 1-4.221 4.232H266.69a4.231 4.231 0 0 1-4.221-4.232V22.13a4.231 4.231 0 0 1 4.221-4.233h21.671a4.23 4.23 0 0 1 4.221 4.233h1.107c0-2.947-2.39-5.343-5.328-5.343H266.69ZM295.062 30.305V27.24c0-.725 1.22-1.359 2.329-1.359.513 0 1.052.184 1.26.31l-.359.692c-.403-.057-.472-.138-.846-.126-.997.034-1.289.494-1.289.84l.014 2.477c0 .323.402.76 1.275.771.263 0 .582-.023.846-.138l.374.715a2.55 2.55 0 0 1-1.261.311c-.956 0-2.342-.541-2.342-1.428M303.97 30.466c-.042.668-1.193 1.278-2.301 1.278-1.274 0-2.285-.726-2.3-1.255v-1.405c0-.576 1.04-1.28 2.286-1.28h1.206c0-.16 0-.206-.014-.3 0-.402-.332-.782-1.178-.77h-.845v-.887c.235-.012.721 0 .845 0 1.095-.035 2.259.633 2.301 1.266v3.353Zm-1.15-1.774h-1.165c-.651 0-1.205.276-1.219.76 0 .138.014.588.014.657 0 .587.693.76 1.205.76.569 0 1.165-.208 1.165-.794v-1.383ZM308.638 26.918c-.472-.184-.735-.184-.999-.207-.664 0-1.177.3-1.177.783v4.112h-1.122v-4.48c0-.507.914-1.278 2.313-1.278.75-.013 1.469.252 1.469.252l-.484.818ZM311.53 31.596c-.845 0-2.202-.508-2.202-1.337v-2.96c0-.854 1.385-1.337 2.244-1.337h1.219V23.97h1.136v7.636l-2.397-.01Zm1.261-4.724-1.302-.011c-.665.011-1.039.322-1.039.875v2.188c0 .508.54.784 1.108.784l1.233-.012v-3.824Z"
          fill="#80BC00"/>
    <path d="M37.21 27.924h-14.7v-11.15h42.566v11.15h-14.7v35.241H37.21v-35.24ZM79.812 16.775h12.975l18.727 46.39H97.198l-3.26-9.483H78.086L74.7 63.165H61.086l18.726-46.39Zm6.264 14.096a169.48 169.48 0 0 1-2.877 8.65l-1.597 4.422h8.948l-1.533-4.421c-1.087-3.14-1.918-5.767-2.813-8.65h-.128ZM136.414 46.378c-2.556-3.46-4.794-6.6-7.094-9.932l-.129.064c.064 3.909.129 7.881.129 11.79v14.865h-12.656v-46.39h12.335l12.272 16.788c2.557 3.46 4.794 6.6 7.095 9.931l.127-.064c-.063-3.908-.127-7.881-.127-11.79V16.776h12.655v46.39h-12.336l-12.271-16.787ZM169.684 16.775h13.167v20.12l.127.064 13.359-20.184h15.467l-15.275 21.53 16.554 24.86h-15.98L182.978 40.42l-.127.064v22.682h-13.167v-46.39Z"
          fill="#00AEAB"/>
    <path d="M254.097 101.418h-2.711c-.148.001-.264-.131-.255-.288l.225-3.869c-.005-.183-.147-.284-.296-.31-.958-.16-3.641-.034-4.345.582a.432.432 0 0 0-.135.307l-.182 3.317a.27.27 0 0 1-.263.262h-1.5a.271.271 0 0 0-.262.263l-.193 3.951c-.009.158.108.289.256.289l1.415-.001c.148 0 .265.133.256.29l-.204 3.78c-.141 2.454.336 3.666 1.055 4.474.821.924 1.6 1.397 3.304 1.471 1.205.053 2.44-.309 3.24-.654a.277.277 0 0 0 .159-.24l.198-3.763c.011-.194-.164-.336-.339-.274-.507.178-1.141.342-1.624.342-1.011 0-1.303-.635-1.238-1.761l.182-3.403a.271.271 0 0 1 .262-.262h2.795c.138 0 .254-.116.263-.263l.193-3.951c.009-.157-.108-.289-.256-.289ZM263.871 101.13c-2.173.031-4.012.724-5.448 2.083-1.442 1.365-2.19 3.185-2.243 5.39-.051 2.211.621 4.01 1.999 5.347l.002.002c1.368 1.297 3.175 1.94 5.369 1.909 2.172-.03 4.002-.715 5.421-2.055 1.442-1.364 2.189-3.184 2.242-5.39.051-2.211-.621-4.009-1.999-5.347-1.359-1.318-3.156-1.97-5.343-1.939Zm-.273 10.726c-.746.011-1.39-.232-1.865-.702-.594-.588-.906-1.514-.878-2.605.052-2.018 1.234-3.39 2.941-3.414.737-.011 1.379.234 1.856.706.599.593.914 1.517.886 2.601-.052 2.017-1.234 3.39-2.94 3.414ZM167.696 108.144c.217-4.517-2.908-7.152-6.277-7.152-1.133 0-2.337.29-3.239.927l-.056-.028.379-7.637a.241.241 0 0 0-.241-.253h-4.232a.241.241 0 0 0-.241.23l-1.031 21.187a.277.277 0 0 0 .321.287l2.67-.624a.267.267 0 0 1 .167.025c.872.443 2.077.771 3.57.771 4.501-.001 7.99-3.129 8.21-7.733Zm-7.509 3.683c-.745 0-1.387-.252-1.855-.729-.586-.598-.885-1.528-.842-2.62.081-2.018 1.282-3.374 2.991-3.374.738 0 1.377.254 1.848.733.59.602.892 1.531.849 2.615-.081 2.018-1.283 3.375-2.991 3.375ZM194.336 115.323l.624-13.813c.008-.176-.138-.314-.302-.285l-3.233.677a.265.265 0 0 1-.179-.031c-.968-.544-2.123-.788-3.237-.788-3.986 0-7.353 3.23-7.558 7.756-.194 4.297 2.602 7.065 5.878 7.064 1.174 0 2.364-.346 3.214-1.038l.052.058-.017.375c-.007.157.111.288.26.288l4.239-.001a.267.267 0 0 0 .259-.262Zm-6.7-3.259c-.744 0-1.386-.252-1.854-.729-.587-.598-.885-1.528-.842-2.62.081-2.018 1.283-3.374 2.991-3.374.737 0 1.377.254 1.848.733.591.602.892 1.531.848 2.615-.079 2.018-1.281 3.375-2.991 3.375ZM227.311 115.676c.12-.068.14-.228.148-.365l1.077-21.461c-.002-.165-.141-.267-.282-.29-.905-.152-3.69-.037-4.348.54a.33.33 0 0 0-.119.237s-.283 4.729-.416 7.265a7.454 7.454 0 0 0-6.304.291 7.314 7.314 0 0 0-2.234 1.856c-1.283 1.587-1.774 3.603-1.591 5.635.095 1.051.389 2.09.915 3.007.107.188.225.371.351.547.963 1.342 2.449 2.277 4.055 2.677 1.606.402 3.322.286 4.901-.215.367-.117.736-.256 1.121-.261.262-.003.519.056.774.114.626.143 1.028.286 1.655.429.098.023.209.044.297-.006Zm-6.936-3.849c-.745 0-1.387-.252-1.856-.73-.588-.597-.889-1.527-.848-2.618.075-2.019 1.274-3.375 2.983-3.375.738 0 1.377.253 1.849.734.592.602.896 1.53.855 2.615-.076 2.018-1.274 3.374-2.983 3.374ZM154.198 91.038h4.185a.251.251 0 0 0 .254-.243l.317-7.006c.082-2 .857-3.146 2.177-3.146.434 0 .764.125 1.01.381.401.417.608 1.195.563 2.315l-.334 7.411a.28.28 0 0 0 .277.288l4.197-.004c.138 0 .25-.106.255-.245l.318-7.006c.083-1.999.856-3.145 2.175-3.145.419 0 .74.123.982.374.401.417.61 1.198.563 2.322l-.504 11.872a.279.279 0 0 0 .276.29h4.191c.139 0 .25-.106.255-.245l.669-12.7c.088-2.135-.504-3.714-1.446-4.695-.789-.823-1.946-1.24-3.439-1.24-1.887 0-3.163.784-4.228 2.32-.658-1.536-2.02-2.315-4.051-2.315-1.422 0-2.718.695-3.667 1.883l.079-1.522c.002-.16-.142-.267-.283-.29-.902-.152-3.68-.034-4.335.546-.08.072-.119.147-.123.288l-.611 13.224a.28.28 0 0 0 .278.288ZM282.575 93.615c-1.776-.54-3.884-.536-5.44.543-1.804 1.25-2.321 3.44-2.384 5.53l-.044 1.463c-.004.148-.116.264-.255.264l-1.362-.003c-.138 0-.25.116-.255.264l-.12 3.951c-.005.159.116.292.264.292l1.311.003c.149 0 .269.133.265.292l-.219 9.148c-.005.159.115.291.263.292l4.17.009a.263.263 0 0 0 .255-.264l.221-9.099a.261.261 0 0 1 .255-.264l2.454.005c.138 0 .25-.116.255-.263l.119-3.952c.005-.158-.115-.291-.263-.292l-2.404-.004c-.149-.001-.268-.133-.263-.292l.049-1.67c.031-1.046.322-1.657 1.305-1.655.367.001.961.085 1.479.18.154.029.294-.092.299-.259l.237-3.937a.282.282 0 0 0-.192-.282ZM238.74 106.931c-.718-.215-1.325-.333-1.813-.428-.929-.181-1.349-.3-1.32-.94.016-.336.23-.738 1.162-.739.874 0 2.658.244 4.615 1.194.161.079.35-.03.359-.209l.177-3.467a.25.25 0 0 0-.152-.245c-1.799-.755-3.356-.988-4.706-.988-3.707 0-6.303 1.952-6.461 4.857-.09 2.017 1.036 3.312 3.545 4.076.692.21 1.298.329 1.784.424.98.192 1.323.319 1.292 1.003-.035.769-.927.769-1.22.769-.934 0-3.028-.318-4.981-1.269a.25.25 0 0 0-.36.21l-.178 3.485a.25.25 0 0 0 .149.244 13.6 13.6 0 0 0 5.074 1.044c3.869 0 6.473-1.942 6.634-4.946.093-2.059-.984-3.279-3.6-4.075ZM178.771 91.043l4.076-.001a.314.314 0 0 0 .313-.299l.246-5.144c.007-.145.2-.188.267-.059l2.772 5.332a.313.313 0 0 0 .278.169h5.493a.314.314 0 0 0 .271-.473l-3.972-6.817a.312.312 0 0 1 .026-.353l4.768-6.068a.314.314 0 0 0-.245-.51l-5.199.002a.314.314 0 0 0-.252.128l-3.781 5.198c-.084.115-.264.05-.256-.09l.631-12.684c0-.173-.139-.268-.28-.292a9.232 9.232 0 0 0-1.932-.026c-.991.07-2.017.25-2.382.576-.08.071-.115.148-.124.289l-1.03 20.792a.314.314 0 0 0 .312.33ZM195.298 91.23l2.632-.625c.057-.01.115 0 .167.026.872.442 2.077.77 3.572.77 4.502 0 7.992-3.13 8.212-7.735.217-4.519-2.91-7.155-6.28-7.155-1.133 0-2.338.29-3.239.928l-.057-.03.424-8.011c.004-.16-.138-.27-.277-.293-.894-.153-3.653-.037-4.308.547a.408.408 0 0 0-.126.29l-1.041 21a.277.277 0 0 0 .321.287Zm7.365-10.605c.738 0 1.378.253 1.849.733.591.602.892 1.532.849 2.616-.08 2.02-1.283 3.376-2.992 3.376-.746 0-1.387-.252-1.855-.73-.587-.597-.886-1.528-.842-2.62.079-2.019 1.282-3.375 2.991-3.375ZM179.191 101.342a4.37 4.37 0 0 0-.731-.067c-1.429 0-2.654.727-3.548 1.762l-.052-.028.061-1.378c-.004-.167-.144-.271-.286-.294-.907-.154-3.693-.036-4.343.552-.081.071-.114.152-.122.292l-.631 13.16c-.007.152.108.28.252.28l4.211-.001a.258.258 0 0 0 .251-.254l.394-7.799a.277.277 0 0 1 .089-.188c.888-.807 1.942-1.312 3.02-1.313.343 0 .752.037 1.146.109.147.028.284-.09.291-.25l.205-4.307a.261.261 0 0 0-.207-.276ZM209.905 102.822a4.166 4.166 0 0 0-2.794-1.577c-1.707-.204-3.27.485-4.348 1.83l.078-1.521c-.002-.174-.141-.268-.282-.291-.596-.1-2.007-.081-3.088.108-.558.098-1.03.242-1.253.438-.08.072-.118.143-.124.289l-.611 13.223a.274.274 0 0 0 .084.208c.05.055.123.091.203.091l4.203-.005c.138 0 .25-.106.255-.244l.319-7.006c.083-1.999.857-3.146 2.178-3.146.42 0 .742.123.983.374.401.417.611 1.198.565 2.323l-.329 7.405c-.001.022.007.041.01.061a.277.277 0 0 0 .268.228l4.204-.004a.254.254 0 0 0 .255-.245l.102-2.34.18-4.094c.068-1.555.211-3.219-.292-4.688a4.742 4.742 0 0 0-.766-1.417Z"
          fill="#A9228C"/>
    <path d="M213.798 86.244c-.762 0-1.41.234-1.921.703-.512.472-.783 1.105-.812 1.879-.03.775.197 1.409.674 1.885h.001c.473.462 1.103.696 1.873.696.761 0 1.406-.23 1.911-.694.512-.47.783-1.105.812-1.878.03-.774-.197-1.409-.674-1.885-.469-.469-1.097-.706-1.864-.706ZM22.51 69.554h15.02c6.009 0 10.482.705 13.933 2.435 4.794 2.37 8.054 6.6 8.054 13.071 0 5.383-2.302 9.547-6.903 12.238-3.58 2.115-8.5 3.14-14.828 3.14h-2.11v15.506H22.51v-46.39Zm15.532 20.889c2.876 0 4.857-.257 5.943-.833 1.535-.77 2.365-2.243 2.365-4.294 0-2.114-.895-3.652-2.556-4.421-1.214-.576-2.812-.833-6.136-.833h-1.981v10.38h2.365ZM75.392 69.554h12.975l18.727 46.39H92.778l-3.26-9.483H73.667l-3.388 9.483H56.666l18.726-46.39Zm6.264 14.096a169.48 169.48 0 0 1-2.877 8.65l-1.596 4.422h8.947L84.597 92.3c-1.087-3.14-1.918-5.767-2.813-8.65h-.128ZM112.433 101.079c5.624 3.203 12.017 4.613 15.212 4.613 2.684 0 4.602-.961 4.602-3.332 0-3.331-3.707-3.331-9.588-5.382-7.03-2.434-11.888-5.895-11.888-13.391 0-9.035 6.967-14.737 17.322-14.737 4.793 0 10.738 1.217 15.084 3.396V84.42c-5.561-3.14-11.697-4.614-14.956-4.614-2.43 0-4.091.77-4.091 2.82 0 3.011 3.578 3.011 9.204 4.997 7.222 2.563 12.272 6.151 12.272 13.968 0 9.355-7.351 15.058-18.088 15.058-4.73 0-10.61-1.09-15.085-3.205v-12.365Z"
          fill="#00AEAB"/>
    <path d="m16.676 113.789.003-.071.622-13.473v-.005c.005-.209-.253-.317-.413-.183L6.79 106.925c-.203.049-.24.327-.07.448l9.564 6.542.025.018.004.003c.174.115.402-.046.375-.254l.004-.272"
          fill="#A9228C"/>
    <path fill-rule="evenodd" clip-rule="evenodd"
          d="M315.709 178.559c0 .772.041 1.443-.009 2.107a54.708 54.708 0 0 1-.36 3.455c-.124.89-.289 1.78-.52 2.647-.311 1.169-.588 2.348-.971 3.501-.263.792-.552 1.577-.803 2.375-.197.629-.493 1.227-.758 1.834-.391.895-.767 1.798-1.198 2.674-.419.849-.891 1.673-1.354 2.5a45.475 45.475 0 0 1-1.781 2.955 51.847 51.847 0 0 1-1.984 2.824c-1.492 1.958-3.119 3.798-4.942 5.451a40.843 40.843 0 0 1-4.873 3.778c-1.801 1.196-3.711 2.169-5.66 3.064a22.904 22.904 0 0 1-3.143 1.168c-.923.268-1.836.568-2.758.837-.319.093-.658.129-.981.183-.858.142-1.718.291-2.577.426-2.219.349-4.446.375-6.675.294a27.67 27.67 0 0 1-3.48-.367c-.881-.145-1.77-.301-2.634-.523-1.179-.303-2.368-.575-3.521-.994-.901-.328-1.825-.6-2.721-.945-2.238-.859-4.386-1.922-6.471-3.092-1.772-.995-3.479-2.114-5.07-3.401a56.522 56.522 0 0 1-2.28-1.924c-1.517-1.364-3.197-2.499-5.073-3.284-.892-.373-1.843-.627-2.815-.807-1.018-.189-2.02-.103-3.028-.127-.909-.021-1.378-.751-.979-1.585.378-.79.813-1.555 1.153-2.361.273-.646.462-1.331.669-2.006.26-.846.321-1.717.446-2.575.098-.67.159-1.381-.073-2.063-.051-.149-.046-.323-.043-.484.011-.714-.279-1.369-.42-2.05-.15-.724-.323-1.447-.456-2.174-.5-2.719-.452-5.472-.34-8.215.048-1.187.223-2.378.46-3.556.14-.697.245-1.408.414-2.096.189-.768.379-1.538.62-2.295.196-.618.368-1.244.591-1.854.257-.704.479-1.421.762-2.114a59.095 59.095 0 0 1 2.076-4.494c.72-1.411 1.532-2.766 2.369-4.108.708-1.136 1.503-2.21 2.285-3.294.245-.338.527-.65.791-.975a41.308 41.308 0 0 1 4.82-5.005 35.797 35.797 0 0 1 5.763-4.149 48.294 48.294 0 0 1 3.889-2.008 27.097 27.097 0 0 1 3.537-1.343c1.102-.33 2.203-.654 3.33-.899 1.034-.224 2.074-.388 3.12-.547 2.161-.329 4.328-.386 6.497-.281 1.161.056 2.328.191 3.48.362a26.9 26.9 0 0 1 2.635.519c1.18.299 2.358.612 3.522.987a47.378 47.378 0 0 1 4.55 1.699 49.677 49.677 0 0 1 4.97 2.541c1.232.714 2.401 1.519 3.593 2.29.614.396 1.161.895 1.736 1.352 1.439 1.143 2.807 2.367 4.028 3.745 1.31 1.477 2.515 3.031 3.578 4.71.974 1.538 1.759 3.165 2.52 4.805.41.882.678 1.834.994 2.761.337.987.55 2.004.809 3.008.11.424.176.887.253 1.33.108.616.082 1.254.299 1.851.02.054.018.117.019.177.03 1.298.317 2.583.173 3.785"
          fill="#FFE300"/>
    <path d="M261.534 168.634h2.347c3.714 0 5.391-1.689 5.391-4.348 0-2.779-1.857-4.324-5.307-4.324h-2.431v8.672Zm1.904-1.665v-5.342h.515c.97 0 1.797.096 2.408.527.647.455 1.006 1.222 1.006 2.132 0 1.713-1.006 2.683-3.402 2.683h-.527ZM270.256 160.872c0 .575.479 1.042 1.054 1.042.575 0 1.054-.467 1.054-1.042s-.479-1.042-1.054-1.042c-.575 0-1.054.467-1.054 1.042Zm.143 7.762h1.821v-5.893h-1.821v5.893ZM274.691 168.179c.372.395.935.587 1.534.587.515 0 1.054-.144 1.329-.324v-1.449c-.239.12-.575.24-.874.24-.551 0-.683-.432-.683-1.007v-1.976h1.557v-1.509h-1.557v-1.845l-1.821.312v1.533h-.958v1.509h.958v2.168c0 .934.204 1.425.515 1.761ZM281.345 160.872c0 .575.479 1.042 1.054 1.042.575 0 1.054-.467 1.054-1.042s-.479-1.042-1.054-1.042c-.575 0-1.054.467-1.054 1.042Zm.144 7.762h1.82v-5.893h-1.82v5.893ZM284.679 168.287c.694.335 1.593.479 2.299.479 1.51 0 2.636-.707 2.648-2.001 0-1.018-.683-1.449-1.809-1.724-.874-.216-1.509-.18-1.509-.611 0-.276.287-.42.766-.42.527 0 1.438.192 2.216.635v-1.569c-.671-.323-1.545-.467-2.252-.467-1.461 0-2.563.707-2.575 1.952 0 .971.659 1.438 1.773 1.713.886.228 1.545.18 1.545.635 0 .324-.299.455-.803.455-.563 0-1.497-.203-2.299-.67v1.593ZM255.028 180.336c0-.839.635-1.509 1.461-1.509.827 0 1.462.67 1.462 1.509 0 .838-.635 1.509-1.462 1.509-.826 0-1.461-.671-1.461-1.509Zm-1.821 0c0 1.737 1.402 3.078 3.282 3.078 1.881 0 3.282-1.341 3.282-3.078 0-1.737-1.401-3.078-3.282-3.078-1.88 0-3.282 1.341-3.282 3.078ZM262.362 180.336c0-.839.635-1.509 1.462-1.509.826 0 1.461.67 1.461 1.509 0 .838-.635 1.509-1.461 1.509-.827 0-1.462-.671-1.462-1.509Zm-1.82 0c0 1.737 1.401 3.078 3.282 3.078 1.88 0 3.282-1.341 3.282-3.078 0-1.737-1.402-3.078-3.282-3.078-1.881 0-3.282 1.341-3.282 3.078ZM268.247 183.283h1.821v-2.995l.024-.012 2.144 3.007h2.156l-2.42-3.259 2.252-2.635h-2.072l-2.06 2.504-.024-.012v-5.75h-1.821v9.152ZM283.548 180.815c.024-.156.035-.419.035-.623 0-1.976-1.365-2.934-2.814-2.934-1.629 0-3.091 1.221-3.091 3.102 0 1.844 1.402 3.054 3.342 3.054.779 0 1.665-.179 2.24-.539v-1.521c-.623.419-1.341.647-2 .647-.839 0-1.51-.371-1.713-1.186h4.001Zm-2.803-2.168c.587 0 1.054.383 1.162 1.018h-2.372c.156-.671.647-1.018 1.21-1.018ZM290.262 180.815c.024-.156.036-.419.036-.623 0-1.976-1.366-2.934-2.815-2.934-1.629 0-3.09 1.221-3.09 3.102 0 1.844 1.401 3.054 3.341 3.054.779 0 1.665-.179 2.24-.539v-1.521c-.622.419-1.341.647-2 .647-.838 0-1.509-.371-1.713-1.186h4.001Zm-2.803-2.168c.587 0 1.054.383 1.162 1.018h-2.372c.156-.671.647-1.018 1.21-1.018ZM291.478 183.283h1.821v-3.965c.323-.252.766-.491 1.234-.491.251 0 .467.072.623.251.143.168.203.383.203.827v3.378h1.821v-3.678c0-.85-.156-1.365-.515-1.749-.372-.383-.923-.598-1.545-.598-.743 0-1.366.311-1.821.682l-.024-.012v-.539h-1.797v5.894ZM252.766 197.931h1.82v-9.151h-1.82v9.151ZM257.776 198.063c.671 0 1.258-.216 1.641-.491h.024c.324.335.791.467 1.27.467.347 0 .671-.072.874-.18v-1.365a.68.68 0 0 1-.299.072c-.252 0-.359-.192-.359-.468v-2c0-.743-.216-1.27-.659-1.629-.467-.383-1.174-.563-1.965-.563-.862 0-1.581.216-2.06.455v1.569c.467-.251 1.066-.467 1.725-.467.431 0 .743.096.91.252.132.119.228.335.228.623v.227a4.732 4.732 0 0 0-1.018-.108c-.611 0-1.198.108-1.653.42-.419.287-.719.778-.719 1.425 0 .611.264 1.078.695 1.377.383.264.862.384 1.365.384Zm.503-1.342c-.419 0-.754-.203-.754-.587 0-.455.467-.599.934-.599.192 0 .455.024.647.084v.863a1.645 1.645 0 0 1-.827.239ZM264.21 198.063c.671 0 1.258-.216 1.641-.491h.024c.323.335.79.467 1.27.467.347 0 .67-.072.874-.18v-1.365a.687.687 0 0 1-.299.072c-.252 0-.36-.192-.36-.468v-2c0-.743-.215-1.27-.659-1.629-.467-.383-1.173-.563-1.964-.563-.862 0-1.581.216-2.06.455v1.569c.467-.251 1.066-.467 1.725-.467.431 0 .742.096.91.252.132.119.227.335.227.623v.227a4.719 4.719 0 0 0-1.018-.108c-.611 0-1.197.108-1.653.42-.419.287-.718.778-.718 1.425 0 .611.263 1.078.694 1.377.384.264.863.384 1.366.384Zm.503-1.342c-.419 0-.755-.203-.755-.587 0-.455.468-.599.935-.599.191 0 .455.024.646.084v.863a1.64 1.64 0 0 1-.826.239ZM268.643 195.104c0 1.809 1.282 2.959 2.767 2.959.575 0 1.102-.18 1.497-.455l.024.012v.311h1.785v-9.151h-1.821v3.33l-.024.012a2.787 2.787 0 0 0-1.114-.216c-1.76 0-3.114 1.342-3.114 3.198Zm1.833-.084c0-.886.515-1.605 1.473-1.605.359 0 .683.096.946.228v2.635a1.92 1.92 0 0 1-1.018.299c-.898 0-1.401-.682-1.401-1.557ZM278.051 197.847l.024-.012c.276.132.659.228 1.138.228 1.725 0 3.079-1.234 3.079-3.127 0-1.832-1.282-3.03-2.791-3.03-.587 0-1.078.18-1.462.443l-.024-.012v-.299h-1.784v8.528h1.82v-2.719Zm0-1.485v-2.611c.264-.192.611-.324.983-.324.898 0 1.425.719 1.425 1.605 0 .875-.527 1.557-1.473 1.557-.372 0-.707-.107-.935-.227ZM285.137 198.063c.67 0 1.257-.216 1.641-.491h.024c.323.335.79.467 1.269.467.348 0 .671-.072.875-.18v-1.365a.688.688 0 0 1-.3.072c-.251 0-.359-.192-.359-.468v-2c0-.743-.216-1.27-.659-1.629-.467-.383-1.174-.563-1.964-.563-.863 0-1.581.216-2.061.455v1.569c.468-.251 1.066-.467 1.725-.467.431 0 .743.096.911.252.131.119.227.335.227.623v.227a4.726 4.726 0 0 0-1.018-.108c-.611 0-1.198.108-1.653.42-.419.287-.719.778-.719 1.425 0 .611.264 1.078.695 1.377.383.264.862.384 1.366.384Zm.503-1.342c-.42 0-.755-.203-.755-.587 0-.455.467-.599.934-.599.192 0 .455.024.647.084v.863a1.64 1.64 0 0 1-.826.239ZM289.749 197.584c.695.335 1.594.479 2.3.479 1.51 0 2.635-.707 2.647-2.001 0-1.018-.682-1.449-1.808-1.724-.875-.216-1.509-.18-1.509-.611 0-.276.287-.42.766-.42.527 0 1.437.192 2.216.635v-1.569c-.671-.323-1.545-.467-2.252-.467-1.461 0-2.563.707-2.575 1.952 0 .971.659 1.438 1.773 1.713.886.228 1.545.18 1.545.635 0 .324-.3.455-.803.455-.563 0-1.497-.203-2.3-.67v1.593ZM295.788 196.985c0 .599.503 1.078 1.102 1.078.599 0 1.102-.479 1.102-1.078 0-.599-.503-1.078-1.102-1.078-.599 0-1.102.479-1.102 1.078Z"
          fill="#413C37"/>
</svg>