<?xml version="1.0" encoding="utf-8"?>
<svg version="1.1" xmlns="http://www.w3.org/2000/svg" xmlns:xlink="http://www.w3.org/1999/xlink" x="0px" y="0px"
	 viewBox="0 0 1416 192" style="enable-background:new 0 0 1416 192;" xml:space="preserve" preserveAspectRatio="none">
<style type="text/css">
	.st0{fill:#a9228c;}
	.st1{fill:#910f78;}
</style>
<g>
	<path class="st0" d="M1275.6,140.8c-31.9,0.3-63.8,1.9-95.7,2.9c-28.7,0.9-57.3,2-86,3c-42.2,1.5-84.3,1.7-126.5,3.1
		c-49.4,1.7-98.9,0.8-148.3,0.8c-39.4,0-78.8-1.1-118.2-2.9c-29.9-1.4-59.8-3-89.7-4.5c-30.2-1.6-60.3-1.9-90.5-3.1
		c-61.2-2.4-122.3-1.4-183.5-0.9c-42.1,0.3-84.3,1.9-126.4,4.4c-31.9,1.8-63.8,3.3-95.7,4.5c-36.7,1.4-73.3,2.3-110,2.6
		c-2.1,0-3.2,0.3-5.2,0v41.2c1.2,0,1.3,0.1,2.5,0.1c471.7,0,941.8,0,1413.5,0v-53c-2.2,0-4.3,0-6.5-0.1
		C1364.3,137.9,1320.8,140.4,1275.6,140.8z"/>
	<path class="st1" d="M1243.7,9.4c-68.3-3.9-136.7-5.9-205.2-6.2C948.3,2.8,858.2,5,768.2,10.4c-35.9,2.2-71.9,3-107.8,3.8
		c-90.9,1.9-181.8,1.4-272.7-1.1C321,11.3,254.4,8,187.8,6.3C124.9,4.6,62.9,3.2,0,3.1v145.6c28.4,0.6,55.8-1.7,84.3-1.8
		c29.6-0.1,59.2-1.3,88.8-3c19.1-1.1,38.2-1.9,57.3-3c30.3-1.8,60.7-1.8,91-3c61.6-2.5,123.3-1.1,184.9-0.8
		c19.9,0.1,39.9,0,59.7,1.2c21.8,1.3,43.7,2,65.6,3.1c19.6,1,39.2,1.8,58.8,3c33.3,2,66.7,1.7,100,3.1c53.4,2.2,106.8,1.4,160.2,0.7
		c26.6-0.3,53.4,0.1,80-1.2c32.1-1.5,64.2-2.1,96.3-3.1c28.8-0.9,57.7-1.8,86.5-3c39.8-1.6,79.7-1.7,119.5-3.2
		c28.3-1.1,54.9-0.6,83.2-0.8V15C1358,14.8,1301.6,12.7,1243.7,9.4z"/>
	<path class="st1" d="M1213.3,140.8c-28.8,1.2-57.7,2-86.5,3c-32.1,1.1-64.2,1.6-96.3,3.1c-26.6,1.3-53.3,0.8-80,1.2
		c-53.4,0.6-106.8,1.5-160.2-0.7c-33.3-1.4-66.7-1-100-3.1c-19.6-1.2-39.2-2-58.8-3c-21.8-1.1-43.7-1.8-65.6-3.1
		c-19.9-1.2-39.9-1.1-59.7-1.2c-61.6-0.3-123.3-1.7-184.9,0.8c-30.3,1.2-60.7,1.3-91,3c-19.1,1.1-38.2,1.9-57.3,3
		c-29.6,1.7-59.2,2.9-88.8,3c-28.4,0.1-55.8,2.5-84.3,1.8v2c2,0.3,3.2,0.1,5.2,0c36.7-0.3,73.3-1.2,110-2.6
		c31.9-1.2,63.8-2.7,95.7-4.5c42.1-2.4,84.3-4,126.4-4.4c61.1-0.5,122.3-1.5,183.5,0.9c30.2,1.2,60.3,1.5,90.5,3.1
		c29.9,1.5,59.8,3.2,89.7,4.5c39.4,1.8,78.8,2.9,118.2,2.9c49.4,0,98.8,0.9,148.3-0.8c42.1-1.4,84.3-1.6,126.5-3.1
		c28.7-1,57.3-2.1,86-3c31.9-1,63.8-2.6,95.7-2.9c45.2-0.4,88.7-2.9,133.9-1.8c2.2,0.1,4.3,0.1,6.5,0.1v-2.2
		c-28.3,0.3-54.9-0.2-83.2,0.8C1293,139.1,1253.2,139.2,1213.3,140.8z"/>
</g>
</svg>
