<svg xmlns="http://www.w3.org/2000/svg" viewBox="0 0 1416.2 308.9" preserveAspectRatio="none">
    <path d="M1275.6,270.8c-31.9.3-63.8,1.9-95.7,2.9-28.7.9-57.3,2-86,3-42.2,1.5-84.3,1.7-126.5,3.1-49.4,1.7-98.9.8-148.3,0.8-39.4,0-78.8-1.1-118.2-2.9-29.9-1.4-59.8-3-89.7-4.5-30.2-1.6-60.3-1.9-90.5-3.1-61.2-2.4-122.3-1.4-183.5-.9-42.1.3-84.3,1.9-126.4,4.4q-47.85,2.7-95.7,4.5c-36.7,1.4-73.3,2.3-110,2.6a30.09,30.09,0,0,1-5.2,0v41.2c1.2,0,1.3.1,2.5,0.1H1415.9V269c-2.2,0-4.3,0-6.5-.1C1364.3,267.9,1320.8,270.4,1275.6,270.8Z"
          transform="translate(0.1 -13.1)" style="fill:#a9228c"/>
    <path d="M1243.7,19.4q-102.45-5.85-205.2-6.2c-90.2-.4-180.3,1.8-270.3,7.2-35.9,2.2-71.9,3-107.8,3.8Q524,27.05,387.7,23.1C321,21.3,254.4,18,187.8,16.3,124.9,14.6,62.9,13.2,0,13.1V278.7c28.4,0.6,55.8-1.7,84.3-1.8,29.6-.1,59.2-1.3,88.8-3,19.1-1.1,38.2-1.9,57.3-3,30.3-1.8,60.7-1.8,91-3,61.6-2.5,123.3-1.1,184.9-.8,19.9,0.1,39.9,0,59.7,1.2,21.8,1.3,43.7,2,65.6,3.1,19.6,1,39.2,1.8,58.8,3,33.3,2,66.7,1.7,100,3.1,53.4,2.2,106.8,1.4,160.2.7,26.6-.3,53.4.1,80-1.2,32.1-1.5,64.2-2.1,96.3-3.1,28.8-.9,57.7-1.8,86.5-3,39.8-1.6,79.7-1.7,119.5-3.2,28.3-1.1,54.9-.6,83.2-0.8V25C1358,24.8,1301.6,22.7,1243.7,19.4Z"
          transform="translate(0.1 -13.1)" style="fill:#910f78"/>
    <path d="M1213.3,270.8c-28.8,1.2-57.7,2-86.5,3-32.1,1.1-64.2,1.6-96.3,3.1-26.6,1.3-53.3.8-80,1.2-53.4.6-106.8,1.5-160.2-.7-33.3-1.4-66.7-1-100-3.1-19.6-1.2-39.2-2-58.8-3-21.8-1.1-43.7-1.8-65.6-3.1C546,267,526,267.1,506.2,267c-61.6-.3-123.3-1.7-184.9.8-30.3,1.2-60.7,1.3-91,3-19.1,1.1-38.2,1.9-57.3,3-29.6,1.7-59.2,2.9-88.8,3-28.4.1-55.8,2.5-84.3,1.8v2a22.61,22.61,0,0,0,5.2,0c36.7-.3,73.3-1.2,110-2.6q47.85-1.8,95.7-4.5c42.1-2.4,84.3-4,126.4-4.4,61.1-.5,122.3-1.5,183.5.9,30.2,1.2,60.3,1.5,90.5,3.1,29.9,1.5,59.8,3.2,89.7,4.5,39.4,1.8,78.8,2.9,118.2,2.9,49.4,0,98.8.9,148.3-.8,42.1-1.4,84.3-1.6,126.5-3.1,28.7-1,57.3-2.1,86-3,31.9-1,63.8-2.6,95.7-2.9,45.2-.4,88.7-2.9,133.9-1.8,2.2,0.1,4.3.1,6.5,0.1v-2.2c-28.3.3-54.9-.2-83.2,0.8C1293,269.1,1253.2,269.2,1213.3,270.8Z"
          transform="translate(0.1 -13.1)" style="fill:#910f78"/>
</svg>