<?xml version="1.0" encoding="UTF-8"?>
<svg width="22px" height="17px" viewBox="0 0 22 17" version="1.1" xmlns="http://www.w3.org/2000/svg" xmlns:xlink="http://www.w3.org/1999/xlink">
    <!-- Generator: Sketch 50.2 (55047) - http://www.bohemiancoding.com/sketch -->
    <title>Group</title>
    <desc>Created with Sketch.</desc>
    <defs></defs>
    <g id="Symbols" stroke="none" stroke-width="1" fill="none" fill-rule="evenodd">
        <g id="label/luisteren" transform="translate(-12.000000, -12.000000)" fill="#00AEAB">
            <g id="Group" transform="translate(12.000000, 12.000000)">
                <path d="M16.3534746,16.0435622 C15.9830033,16.0435622 15.6266042,15.8335798 15.45142,15.4721875 C15.2055879,14.964364 15.4100651,14.3499385 15.9077603,14.0989553 C18.1934821,12.9485915 19.6136222,10.6197491 19.6136222,8.022059 C19.6136222,5.42378312 18.1931949,3.09523359 15.9066115,1.94457693 C15.4086292,1.69417951 15.2044392,1.07946118 15.4499841,0.571930509 C15.695529,0.0641069782 16.2983347,-0.144703966 16.7963171,0.106279175 C19.7738726,1.60456359 21.6239316,4.6380331 21.6239316,8.022059 C21.6239316,11.405792 19.7747341,14.4386758 16.797753,15.937546 C16.6547338,16.0092973 16.5030991,16.0435622 16.3534746,16.0435622" id="Fill-1"></path>
                <path d="M14.9189091,11.1607389 C14.562693,11.1607389 14.2200076,10.9617775 14.0515644,10.6185969 C13.8151915,10.1367547 14.0118007,9.55376446 14.4903452,9.31590001 C15.1166228,9.0046755 15.5056991,8.37527949 15.5056991,7.67307918 C15.5056991,6.97115675 15.1163467,6.34148286 14.4900691,6.03053623 C14.0112484,5.79294966 13.8146392,5.20968157 14.0510121,4.72811721 C14.2871088,4.24599709 14.8667193,4.04786934 15.3452638,4.28628955 C16.636478,4.92707859 17.4386545,6.22505155 17.4386545,7.67307918 C17.4386545,9.12082893 16.6367542,10.418524 15.3460922,11.0598688 C15.2085762,11.1282271 15.0627762,11.1607389 14.9189091,11.1607389" id="Fill-4"></path>
                <path d="M12.2750291,0.453216046 C12.1013401,0.284029391 11.8618824,0.179308685 11.5970142,0.179308685 L11.5270603,0.179308685 C11.5130097,0.179308685 11.499557,0.181350593 11.4855064,0.181933995 C11.4849085,0.181933995 11.4843106,0.182225696 11.4840117,0.182517397 C11.2986637,0.190685029 11.1267684,0.248441853 10.9832732,0.344994927 L10.1193124,0.899810477 L5.38098086,3.78940187 L4.31522994,3.78940187 L3.78011237,3.78940187 L1.06566123,3.78940187 C0.477031904,3.78940187 -8.96845086e-05,4.25495688 -8.96845086e-05,4.8293164 L-8.96845086e-05,5.05130096 L-8.96845086e-05,11.0562604 L-8.96845086e-05,11.2776616 C-8.96845086e-05,11.8523128 0.477031904,12.3178678 1.06566123,12.3178678 L3.78011237,12.3178678 L4.31522994,12.3178678 L5.38098086,12.3178678 L10.1193124,15.2074592 L10.9832732,15.7622748 C11.1267684,15.8588278 11.2986637,15.9165847 11.4840117,15.9247523 C11.4843106,15.9247523 11.4849085,15.925044 11.4855064,15.925044 C11.499557,15.9259191 11.5130097,15.927961 11.5270603,15.927961 L11.5970142,15.927961 C11.8618824,15.927961 12.1013401,15.8232403 12.2750291,15.653762 C12.4484191,15.4845753 12.5557416,15.2509227 12.5557416,14.9924755 L12.5557416,1.11508591 C12.5557416,0.85663871 12.4484191,0.622694403 12.2750291,0.453216046" id="Fill-6"></path>
            </g>
        </g>
    </g>
</svg>