<svg width="20" height="17" xmlns="http://www.w3.org/2000/svg"><g fill="#000" fill-rule="evenodd"><path d="M8.763 15.428a1.595 1.595 0 1 1-3.19.001 1.595 1.595 0 0 1 3.19 0M15.723 15.428a1.594 1.594 0 1 1-3.189.001 1.594 1.594 0 0 1 3.19 0M18.19 5.092H8.348s-.583.132-.583.771c0 .642.583.827.583.827h8.825l-.496 1.678H8.002s-.542.123-.542.717c0 .598.542.771.542.771h8.235l-.466 1.57H6.816L6.22 6.688 6.028 5.09s-.173-1.475-.27-2.084C5.66 2.394 4.13 1.63.84.078.067-.246-.58 1.17.84 1.91L3.434 3.12s.603.35.656.82c.051.473 1.104 8.276 1.104 8.276s.041 1.087 1.028 1.087h9.898c.829 0 .99-.866.99-.866l1.962-5.826s.583-1.52-.881-1.52Z"/></g></svg>