<svg xmlns="http://www.w3.org/2000/svg" width="42" height="51" viewBox="0 0 42 51">
  <g fill="none" fill-rule="evenodd" transform="translate(1 1)">
    <path fill="#5065A5" stroke="#FFF" stroke-width="2" d="M37,0 C38.6568542,-3.04359188e-16 40,1.34314575 40,3 L40,37 C40,38.6568542 38.6568542,40 37,40 L24,40 L20.5,47 L16.562,40 L3,40 C1.34314575,40 2.02906125e-16,38.6568542 0,37 L0,3 C-2.02906125e-16,1.34314575 1.34314575,3.04359188e-16 3,0 L37,0 Z"/>
    <path fill="#FFF" fill-rule="nonzero" d="M14,27.3717875 L14,11 L18.8617877,11 C22.8642827,11 26.3692925,12.1080353 26.3692925,16.2235952 C26.3692925,19.9999605 23.6105106,21.5150293 18.7261099,21.5150293 L17.5954616,21.5150293 L17.5954616,27.3717875 L14,27.3717875 Z M17.5954616,18.5979566 L18.9070137,18.5979566 C21.8693122,18.5979566 22.7738309,17.9421806 22.7738309,16.4044989 C22.7738309,14.5954616 21.5301177,14.1432023 18.8165618,14.1432023 L17.5954616,14.1432023 L17.5954616,18.5979566 Z"/>
  </g>
</svg>
