<svg xmlns="http://www.w3.org/2000/svg" viewBox="0 0 67.75 76.86"><ellipse cx="33.88" cy="75.25" rx="15.76" ry="1.61" style="opacity:0.15"/><path d="M73.72,35.36A33.88,33.88,0,1,0,35.58,69l4.26,7.39L44.1,69A33.88,33.88,0,0,0,73.72,35.36Z" transform="translate(-5.96 -1.49)" style="fill:#1a9cba"/><path d="M41.08,41.14H37.54V33.77h3.54a3.48,3.48,0,0,1,3.58,3.68A3.48,3.48,0,0,1,41.08,41.14Zm0.1-12H35a2.5,2.5,0,0,0-2.71,2.71V51.65a2.61,2.61,0,1,0,5.21,0V45.73h3.86c4.76,0,8.69-3.16,8.69-8.24S46.29,29.19,41.18,29.19Z" transform="translate(-5.96 -1.49)" style="fill:#fff"/><path d="M52.75,21.54L41.34,14.95a2.29,2.29,0,0,0-1-.3H40a2.29,2.29,0,0,0-1,.3L27.54,21.54a2.32,2.32,0,1,0,2.32,4l10.28-5.94,10.28,5.94A2.32,2.32,0,1,0,52.75,21.54Z" transform="translate(-5.96 -1.49)" style="fill:#fff"/></svg>