<?xml version="1.0" encoding="UTF-8"?>
<svg width="21px" height="16px" viewBox="0 0 21 16" version="1.1" xmlns="http://www.w3.org/2000/svg" xmlns:xlink="http://www.w3.org/1999/xlink">
    <!-- Generator: Sketch 50.2 (55047) - http://www.bohemiancoding.com/sketch -->
    <title>Group 25</title>
    <desc>Created with Sketch.</desc>
    <defs></defs>
    <g id="Symbols" stroke="none" stroke-width="1" fill="none" fill-rule="evenodd">
        <g id="label/video" transform="translate(-13.000000, -12.000000)" fill="#00AEAB">
            <g id="Group-25" transform="translate(13.000000, 12.000000)">
                <g id="Group">
                    <path d="M3.76510794,3.94499993e-05 C5.8445174,3.94499993e-05 7.53021587,1.68573792 7.53021587,3.76514739 C7.53021587,5.84455685 5.8445174,7.53025532 3.76510794,7.53025532 C1.68569847,7.53025532 0,5.84455685 0,3.76514739 C0,1.68573792 1.68569847,3.94499993e-05 3.76510794,3.94499993e-05" id="Fill-1"></path>
                    <path d="M17.1143565,13.0067831 L15.4030155,13.0067831 L15.4030155,14.3772761 C15.4030155,15.1327436 14.789568,15.7450076 14.0309446,15.7450076 L2.39871776,15.7450076 C1.64088327,15.7450076 1.02704128,15.1311656 1.02704128,14.3772761 L1.02704128,7.69799672 C1.80302277,8.23964521 2.74706125,8.55721771 3.76526574,8.55721771 C5.53893771,8.55721771 7.08735018,7.59345422 7.91619467,6.16102475 L8.51386216,6.16102475 C9.34231214,7.59345422 10.8911191,8.55721771 12.6647911,8.55721771 C13.6826011,8.55721771 14.6266396,8.23964521 15.4030155,7.69799672 L15.4030155,8.8992492 L17.1143565,8.8992492 L17.1143565,7.86960422 C17.1143565,7.49325122 17.4181215,7.18790823 17.798814,7.18790823 L19.852581,7.18790823 C20.230512,7.18790823 20.5370385,7.49246222 20.5370385,7.86960422 L20.5370385,14.0368226 C20.5370385,14.4131756 20.2332735,14.7181241 19.852581,14.7181241 L17.798814,14.7181241 C17.420883,14.7181241 17.1143565,14.4135701 17.1143565,14.0368226 L17.1143565,13.0067831 Z" id="Fill-3"></path>
                    <path d="M12.6646727,3.94499993e-05 C14.7440822,3.94499993e-05 16.4297807,1.68573792 16.4297807,3.76514739 C16.4297807,5.84455685 14.7440822,7.53025532 12.6646727,7.53025532 C10.5852633,7.53025532 8.8995648,5.84455685 8.8995648,3.76514739 C8.8995648,1.68573792 10.5852633,3.94499993e-05 12.6646727,3.94499993e-05" id="Fill-5"></path>
                </g>
            </g>
        </g>
    </g>
</svg>