<svg id="Layer_1" data-name="Layer 1" xmlns="http://www.w3.org/2000/svg" viewBox="0 0 735 265"><defs><style>.cls-1{fill:#f1efe6;}.cls-2{fill:#a9228c;}.cls-3{fill:#00aeab;}</style></defs><title>Logo_MKB(rgb_beigeachtergrond)</title><rect class="cls-1" x="-8.07" y="-3.96" width="751.87" height="270.45"/><path class="cls-2" d="M568,180.34H553.06a1.45,1.45,0,0,1-1.41-1.58l1.24-21.26a1.8,1.8,0,0,0-1.63-1.7c-5.27-.88-20.06-.19-23.93,3.2a2.41,2.41,0,0,0-.75,1.69l-1,18.22a1.49,1.49,0,0,1-1.44,1.44h-8.27a1.48,1.48,0,0,0-1.44,1.44l-1.06,21.71a1.46,1.46,0,0,0,1.41,1.59h7.79a1.45,1.45,0,0,1,1.41,1.58l-1.12,20.77c-.78,13.48,1.85,20.14,5.8,24.58,4.53,5.08,8.82,7.68,18.21,8.09a42.93,42.93,0,0,0,17.84-3.6,1.5,1.5,0,0,0,.87-1.32l1.09-20.67a1.42,1.42,0,0,0-1.86-1.51,30.06,30.06,0,0,1-8.95,1.88c-5.57,0-7.17-3.48-6.81-9.67l1-18.7a1.49,1.49,0,0,1,1.44-1.44h15.4a1.48,1.48,0,0,0,1.44-1.44l1.06-21.71A1.46,1.46,0,0,0,568,180.34Z"/><path class="cls-2" d="M651.25,189.41c-7.48-7.24-17.38-10.82-29.43-10.65s-22.09,4-30,11.45-12.07,17.49-12.35,29.61,3.41,22,11,29.37h0c7.54,7.13,17.48,10.66,29.57,10.49s22.05-3.92,29.86-11.29,12.06-17.49,12.35-29.61S658.84,196.76,651.25,189.41Zm-30.94,48.28a13.92,13.92,0,0,1-10.26-3.86c-3.27-3.23-5-8.32-4.84-14.31.29-11.09,6.8-18.63,16.2-18.76a13.9,13.9,0,0,1,10.22,3.88c3.3,3.26,5,8.33,4.88,14.29C636.22,230,629.72,237.56,620.31,237.69Z"/><path class="cls-2" d="M57.54,178c-6.23,0-12.87,1.6-17.83,5.1l-.32-.16,2.09-42a1.33,1.33,0,0,0-1.32-1.39H16.85a1.32,1.32,0,0,0-1.33,1.26L9.84,257.26a1.52,1.52,0,0,0,1.77,1.57l14.71-3.43a1.48,1.48,0,0,1,.92.15,43.63,43.63,0,0,0,19.66,4.23c24.79,0,44-17.19,45.22-42.49C93.31,192.48,76.1,178,57.54,178Zm9.69,41c-.44,11.09-7.06,18.54-16.47,18.54a14,14,0,0,1-10.22-4c-3.23-3.28-4.87-8.39-4.63-14.39C36.35,208,43,200.59,52.38,200.59a13.91,13.91,0,0,1,10.17,4C65.81,207.93,67.47,213,67.23,219Z"/><path class="cls-2" d="M240.62,179.28,222.81,183a1.48,1.48,0,0,1-1-.17A36.81,36.81,0,0,0,204,178.5c-22,0-40.5,17.75-41.63,42.62-1.07,23.6,14.33,38.81,32.37,38.8,6.47,0,13-1.9,17.71-5.7l.28.32-.09,2.06a1.47,1.47,0,0,0,1.43,1.58h23.35a1.46,1.46,0,0,0,1.42-1.44l3.44-75.89A1.46,1.46,0,0,0,240.62,179.28Zm-22.2,41c-.44,11.09-7.06,18.54-16.47,18.54a14,14,0,0,1-10.22-4c-3.23-3.28-4.88-8.39-4.64-14.39.45-11.09,7.07-18.54,16.48-18.54a13.91,13.91,0,0,1,10.17,4C217,209.23,218.66,214.33,218.42,220.29Z"/><path class="cls-2" d="M425.64,137.17c-5-.83-20.32-.21-23.94,3a1.78,1.78,0,0,0-.66,1.3s-1.56,26-2.29,39.91A41.17,41.17,0,0,0,364,183a40.23,40.23,0,0,0-12.3,10.2c-7.07,8.72-9.77,19.79-8.76,31a40.55,40.55,0,0,0,5,16.52c.59,1,1.24,2,1.93,3a39.19,39.19,0,0,0,22.34,14.71,50,50,0,0,0,27-1.18,21.6,21.6,0,0,1,6.18-1.43,18.12,18.12,0,0,1,4.26.62c3.45.79,5.66,1.57,9.11,2.36a2.31,2.31,0,0,0,1.64,0c.66-.37.77-1.25.81-2,.48-9.42,5.94-117.9,5.94-117.9A1.72,1.72,0,0,0,425.64,137.17Zm-27,81.82c-.42,11.09-7,18.54-16.43,18.54a14,14,0,0,1-10.22-4c-3.24-3.28-4.9-8.39-4.67-14.39.41-11.09,7-18.54,16.42-18.54a14,14,0,0,1,10.19,4C397.23,207.93,398.9,213,398.68,219Z"/><path class="cls-3" d="M346,97a15.11,15.11,0,0,0-10.58,3.86A14.17,14.17,0,0,0,331,111.16a13.27,13.27,0,0,0,3.71,10.36h0A14.23,14.23,0,0,0,345,125.35a15,15,0,0,0,10.52-3.82A14.12,14.12,0,0,0,360,111.21a13.28,13.28,0,0,0-3.71-10.35A14,14,0,0,0,346,97Z"/><path class="cls-2" d="M111.08,44.08c-10.4,0-17.42,4.31-23.29,12.75-3.63-8.44-11.12-12.72-22.31-12.72-7.83,0-15,3.82-20.2,10.34l.43-8.36a1.72,1.72,0,0,0-1.55-1.6c-5-.83-20.27-.18-23.87,3a1.94,1.94,0,0,0-.69,1.58l-3.36,72.65a1.54,1.54,0,0,0,1.53,1.59H40.82a1.39,1.39,0,0,0,1.4-1.34L44,83.49c.46-11,4.73-17.29,12-17.29a7.31,7.31,0,0,1,5.57,2.1c2.2,2.29,3.35,6.57,3.1,12.72l-1.84,40.71a1.54,1.54,0,0,0,1.53,1.59l23.11,0A1.4,1.4,0,0,0,88.83,122l1.75-38.49c.45-11,4.71-17.28,12-17.28a7.09,7.09,0,0,1,5.4,2c2.21,2.29,3.36,6.59,3.11,12.76l-2.78,65.23a1.54,1.54,0,0,0,1.52,1.59H132.9a1.39,1.39,0,0,0,1.4-1.35L138,76.69c.48-11.73-2.78-20.41-8-25.8C125.67,46.37,119.3,44.08,111.08,44.08Z"/><path class="cls-2" d="M724.83,137.47c-9.78-3-21.39-2.94-30,3-9.93,6.87-12.78,18.89-13.13,30.38l-.24,8a1.44,1.44,0,0,1-1.4,1.45l-7.51,0a1.44,1.44,0,0,0-1.4,1.45l-.66,21.71a1.51,1.51,0,0,0,1.45,1.6l7.23,0a1.52,1.52,0,0,1,1.45,1.6L679.45,257a1.52,1.52,0,0,0,1.45,1.6l23,.06a1.46,1.46,0,0,0,1.41-1.45l1.21-50a1.43,1.43,0,0,1,1.4-1.45l13.52,0a1.44,1.44,0,0,0,1.4-1.45l.66-21.71A1.52,1.52,0,0,0,722,181l-13.24,0a1.54,1.54,0,0,1-1.45-1.61l.27-9.17c.18-5.75,1.78-9.1,7.2-9.09a53.9,53.9,0,0,1,8.14,1,1.42,1.42,0,0,0,1.64-1.43L725.89,139A1.56,1.56,0,0,0,724.83,137.47Z"/><path class="cls-2" d="M483.4,210.63a98.15,98.15,0,0,0-10-2.35c-5.12-1-7.43-1.65-7.27-5.16.09-1.85,1.27-4.06,6.4-4.06,4.81,0,14.63,1.33,25.41,6.56a1.37,1.37,0,0,0,2-1.15l1-19.05a1.39,1.39,0,0,0-.84-1.35,66,66,0,0,0-25.92-5.42c-20.41,0-34.71,10.72-35.58,26.68-.5,11.08,5.7,18.2,19.52,22.39a93.21,93.21,0,0,0,9.83,2.33c5.4,1.06,7.29,1.76,7.12,5.51-.2,4.23-5.11,4.23-6.72,4.23-5.15,0-16.69-1.75-27.44-7a1.37,1.37,0,0,0-2,1.15l-1,19.15a1.39,1.39,0,0,0,.83,1.34,75.11,75.11,0,0,0,27.94,5.74c21.31,0,35.65-10.67,36.54-27.18C503.74,221.7,497.82,215,483.4,210.63Z"/><path class="cls-2" d="M233.18,48a1.72,1.72,0,0,0-1.35-2.8H203.2a1.7,1.7,0,0,0-1.39.71L181,74.48a.78.78,0,0,1-1.41-.5L183.05,4.3a1.68,1.68,0,0,0-1.54-1.61,26.25,26.25,0,0,0-2.72-.26,51.53,51.53,0,0,0-7.92.12c-5.46.38-11.11,1.37-13.12,3.16a2,2,0,0,0-.69,1.59l-5.67,114.23a1.73,1.73,0,0,0,1.73,1.81h22.44a1.73,1.73,0,0,0,1.72-1.65l1.36-28.26a.78.78,0,0,1,1.47-.32l15.27,29.3a1.73,1.73,0,0,0,1.53.92h30.25a1.72,1.72,0,0,0,1.49-2.59L206.78,83.28a1.71,1.71,0,0,1,.14-1.94Z"/><path class="cls-2" d="M289.87,43.51c-6.24,0-12.87,1.59-17.84,5.09l-.31-.16,2.33-44a1.7,1.7,0,0,0-1.52-1.61c-4.93-.84-20.12-.2-23.73,3a2.22,2.22,0,0,0-.7,1.59l-5.73,115.38a1.52,1.52,0,0,0,1.77,1.57l14.49-3.43a1.46,1.46,0,0,1,.92.15,43.75,43.75,0,0,0,19.68,4.23c24.79,0,44-17.2,45.23-42.5C325.65,58,308.43,43.5,289.87,43.51Zm9.69,41c-.44,11.09-7.06,18.54-16.47,18.54a13.91,13.91,0,0,1-10.22-4c-3.23-3.28-4.88-8.39-4.64-14.39.44-11.09,7.06-18.55,16.48-18.55a13.91,13.91,0,0,1,10.18,4C298.14,73.44,299.8,78.55,299.56,84.51Z"/><path class="cls-2" d="M155.42,179.93a24,24,0,0,0-4-.38c-7.88,0-14.62,4-19.55,9.69l-.28-.15.33-7.58a1.77,1.77,0,0,0-1.57-1.62c-5-.84-20.34-.19-23.92,3a2,2,0,0,0-.67,1.6l-3.48,72.31a1.44,1.44,0,0,0,1.39,1.53h23.19a1.43,1.43,0,0,0,1.39-1.4l2.17-42.84a1.54,1.54,0,0,1,.48-1c4.9-4.43,10.7-7.21,16.64-7.21a36.14,36.14,0,0,1,6.31.6,1.4,1.4,0,0,0,1.6-1.37l1.13-23.67A1.43,1.43,0,0,0,155.42,179.93Z"/><path class="cls-2" d="M328.8,195.84a26.07,26.07,0,0,0-4.21-7.79,23,23,0,0,0-15.39-8.66,26.21,26.21,0,0,0-23.95,10.06l.43-8.36a1.69,1.69,0,0,0-1.55-1.6c-3.29-.55-11.05-.45-17,.6-3.07.54-5.67,1.32-6.9,2.4a2,2,0,0,0-.69,1.59l-3.36,72.65a1.51,1.51,0,0,0,.46,1.14,1.54,1.54,0,0,0,1.12.5l23.15,0a1.4,1.4,0,0,0,1.41-1.34l1.75-38.49c.46-11,4.72-17.28,12-17.28a7.1,7.1,0,0,1,5.41,2.05c2.21,2.29,3.37,6.58,3.11,12.76l-1.81,40.69a1.91,1.91,0,0,0,.06.33,1.52,1.52,0,0,0,1.47,1.26l23.15,0a1.39,1.39,0,0,0,1.41-1.34q.28-6.44.56-12.86l1-22.5C330.79,213.05,331.58,203.91,328.8,195.84Z"/></svg>