<?xml version="1.0" encoding="UTF-8"?>
<svg width="253px" height="248px" viewBox="0 0 253 248" version="1.1" xmlns="http://www.w3.org/2000/svg" xmlns:xlink="http://www.w3.org/1999/xlink">
    <!-- Generator: Sketch 46.1 (44463) - http://www.bohemiancoding.com/sketch -->
    <title>Group 4</title>
    <desc>Created with Sketch.</desc>
    <defs>
        <polygon id="path-1" points="75.6839275 0.371854647 75.6839275 92.4803717 0.797488923 92.4803717 0.797488923 0.371854647"></polygon>
        <polygon id="path-3" points="70.2533961 93.3104649 0.000726751752 93.3104649 0.000726751752 0.497483072 70.2533961 0.497483072"></polygon>
    </defs>
    <g id="Flow-V3" stroke="none" stroke-width="1" fill="none" fill-rule="evenodd">
        <g id="03" transform="translate(-256.000000, -428.000000)">
            <g id="Group-4" transform="translate(256.000000, 428.000000)">
                <path d="M130.784545,0 C94.3540706,0 63.3712495,11.2389876 38.9865173,33.7623728 C14.4889973,56.3765781 1.52967388,86.8126647 0.119825811,123.912676 C-1.27874347,161.103508 9.57144725,191.539595 32.354592,214.369498 L32.3771496,214.403555 C54.9911126,236.575012 85.1167461,247.814 121.908141,247.814 C158.327336,247.814 189.163533,236.7453 213.243738,214.528433 C237.752537,191.92558 250.700582,161.466788 252.099151,124.366777 C253.49772,87.1872977 242.658808,56.7512111 219.875664,33.921308 C197.430882,11.4092753 167.451873,0 130.784545,0" id="Fill-11" fill="#F1EFE6"></path>
                <g id="Page-1" transform="translate(84.000000, 66.000000)">
                    <g id="Group-3" transform="translate(7.267518, 0.883388)">
                        <mask id="mask-2" fill="white">
                            <use xlink:href="#path-1"></use>
                        </mask>
                        <g id="Clip-2"></g>
                        <path d="M65.095639,0.371854647 L10.6764677,0.371854647 C6.14395931,0.371854647 2.30913257,3.23283405 0.797488923,7.23481369 L55.8150191,7.23481369 C62.0408591,7.23481369 67.1038963,12.3002734 67.1038963,18.5236909 L67.1038963,92.4803717 C71.9900906,91.5404395 75.684412,87.2550266 75.684412,82.0926667 L75.684412,10.9606277 C75.684412,5.11269858 70.9435681,0.371854647 65.095639,0.371854647" id="Fill-1" fill="#A9228C" mask="url(#mask-2)"></path>
                    </g>
                    <g id="Group-6" transform="translate(0.000000, 11.740675)">
                        <mask id="mask-4" fill="white">
                            <use xlink:href="#path-3"></use>
                        </mask>
                        <g id="Clip-5"></g>
                        <path d="M54.0201845,23.5960763 L16.2315159,23.5960763 C14.3395388,23.5960763 12.8036701,22.0602076 12.8036701,20.1682305 C12.8036701,18.2738309 14.3395388,16.7403847 16.2315159,16.7403847 L54.0201845,16.7403847 C55.9145841,16.7403847 57.4480303,18.2738309 57.4480303,20.1682305 C57.4480303,22.0602076 55.9145841,23.5960763 54.0201845,23.5960763 M54.0201845,37.8282981 L16.2315159,37.8282981 C14.3395388,37.8282981 12.8036701,36.2924294 12.8036701,34.4004523 C12.8036701,32.5060528 14.3395388,30.9726066 16.2315159,30.9726066 L54.0201845,30.9726066 C55.9145841,30.9726066 57.4480303,32.5060528 57.4480303,34.4004523 C57.4480303,36.2924294 55.9145841,37.8282981 54.0201845,37.8282981 M54.0201845,52.0605199 L16.2315159,52.0605199 C14.3395388,52.0605199 12.8036701,50.5246512 12.8036701,48.6326741 C12.8036701,46.7382746 14.3395388,45.2048284 16.2315159,45.2048284 L54.0201845,45.2048284 C55.9145841,45.2048284 57.4480303,46.7382746 57.4480303,48.6326741 C57.4480303,50.5246512 55.9145841,52.0605199 54.0201845,52.0605199 M63.0827789,0.497483072 L7.16892154,0.497483072 C3.22750453,0.497483072 0.000726751752,3.72426085 0.000726751752,7.66810036 L0.000726751752,86.1403321 C0.000726751752,90.0841716 3.22750453,93.3109494 7.16892154,93.3109494 L63.0827789,93.3109494 C67.0266184,93.3109494 70.2533961,90.0841716 70.2533961,86.1403321 L70.2533961,7.66810036 C70.2533961,3.72426085 67.0266184,0.497483072 63.0827789,0.497483072" id="Fill-4" fill="#00AEAB" mask="url(#mask-4)"></path>
                    </g>
                </g>
            </g>
        </g>
    </g>
</svg>