<?xml version="1.0" encoding="UTF-8"?>
<svg width="253px" height="248px" viewBox="0 0 253 248" version="1.1" xmlns="http://www.w3.org/2000/svg" xmlns:xlink="http://www.w3.org/1999/xlink">
    <!-- Generator: Sketch 46.1 (44463) - http://www.bohemiancoding.com/sketch -->
    <title>Group 11</title>
    <desc>Created with Sketch.</desc>
    <defs>
        <polygon id="path-1" points="103.352014 52.6924507 0 52.6924507 0 26.521379 0 0.350307219 103.352014 0.350307219"></polygon>
    </defs>
    <g id="Flow-V3" stroke="none" stroke-width="1" fill="none" fill-rule="evenodd">
        <g id="03" transform="translate(-932.000000, -428.000000)">
            <g id="Group-11" transform="translate(932.000000, 428.000000)">
                <g id="Group-7" fill="#F1EFE6">
                    <path d="M130.784545,0 C94.3540706,0 63.3712495,11.2389876 38.9865173,33.7623728 C14.4889973,56.3765781 1.52967388,86.8126647 0.119825811,123.912676 C-1.27874347,161.103508 9.57144725,191.539595 32.354592,214.369498 L32.3771496,214.403555 C54.9911126,236.575012 85.1167461,247.814 121.908141,247.814 C158.327336,247.814 189.163533,236.7453 213.243738,214.528433 C237.752537,191.92558 250.700582,161.466788 252.099151,124.366777 C253.49772,87.1872977 242.658808,56.7512111 219.875664,33.921308 C197.430882,11.4092753 167.451873,0 130.784545,0" id="Fill-11"></path>
                </g>
                <g id="Page-1" transform="translate(60.000000, 68.000000)">
                    <path d="M107.188089,0.000130104817 L22.5061167,0.000130104817 C17.505538,0.000130104817 13.1710961,4.33392155 13.1710961,9.3351507 L13.1710961,32.0137213 L116.52311,32.0137213 L116.52311,9.3351507 C116.52311,4.33392155 112.188668,0.000130104817 107.188089,0.000130104817" id="Fill-1" fill="#A32B86"></path>
                    <path d="M13.1707708,24.3383828 L13.1707708,67.345831 C13.1707708,72.3464096 17.5045622,76.6808516 22.5057914,76.6808516 L107.187764,76.6808516 C112.188343,76.6808516 116.522785,72.3464096 116.522785,67.345831 L116.522785,24.3383828 L13.1707708,24.3383828 Z" id="Fill-3" fill="#A32B86"></path>
                    <path d="M100.682848,6.50537094 L16.0008758,6.50537094 C11.0002972,6.50537094 6.66585523,10.8391624 6.66585523,15.8403915 L6.66585523,44.7223598 L110.017869,44.7223598 L110.017869,15.8403915 C110.017869,10.8391624 105.683427,6.50537094 100.682848,6.50537094" id="Fill-5" fill="#F1EFE6"></path>
                    <path d="M6.66552997,30.8436236 L6.66552997,73.8510718 C6.66552997,78.8516504 10.9993214,83.1860924 16.0005506,83.1860924 L100.682523,83.1860924 C105.683102,83.1860924 110.017544,78.8516504 110.017544,73.8510718 L110.017544,30.8436236 L6.66552997,30.8436236 Z" id="Fill-7" fill="#F1EFE6"></path>
                    <path d="M94.0173184,13.0106118 L9.33534586,13.0106118 C4.33476723,13.0106118 0.000325262042,17.3444032 0.000325262042,22.3456324 L0.000325262042,32.0137213 L103.352339,32.0137213 L103.352339,22.3456324 C103.352339,17.3444032 99.017897,13.0106118 94.0173184,13.0106118 L94.0173184,13.0106118 Z M17.6711615,25.0127811 C17.6711615,26.3463555 16.6706554,27.6799298 15.0040127,27.6799298 C13.6704383,27.6799298 12.336864,26.6794238 12.336864,25.0127811 L12.336864,20.011552 C12.336864,18.6779776 13.3367195,17.3444032 15.0040127,17.3444032 C16.3375871,17.3444032 17.6711615,18.3449093 17.6711615,20.011552 L17.6711615,25.0127811 Z M28.3397564,25.0127811 C28.3397564,26.3463555 27.3392504,27.6799298 25.6726077,27.6799298 C24.3390333,27.6799298 23.0054589,26.6794238 23.0054589,25.0127811 L23.0054589,20.011552 C23.0054589,18.6779776 24.0053145,17.3444032 25.6726077,17.3444032 C27.3392504,17.6781221 28.3397564,18.6779776 28.3397564,20.011552 L28.3397564,25.0127811 Z M39.3407692,25.0127811 C39.3407692,26.3463555 38.3409137,27.6799298 36.6736205,27.6799298 C35.3400461,27.6799298 34.0064717,26.6794238 34.0064717,25.0127811 L34.0064717,20.011552 C34.0064717,18.6779776 35.0069778,17.3444032 36.6736205,17.3444032 C38.0071948,17.3444032 39.3407692,18.3449093 39.3407692,20.011552 L39.3407692,25.0127811 Z" id="Fill-9" fill="#00AEAB"></path>
                    <g id="Group-13" transform="translate(0.000000, 36.998557)">
                        <mask id="mask-2" fill="white">
                            <use xlink:href="#path-1"></use>
                        </mask>
                        <g id="Clip-12"></g>
                        <path d="M0,0.350307219 L0,43.3577554 C0,48.358334 4.33379144,52.692776 9.3350206,52.692776 L94.0169931,52.692776 C99.0175718,52.692776 103.352014,48.358334 103.352014,43.3577554 L103.352014,0.350307219 L0,0.350307219 Z" id="Fill-11" fill="#00AEAB" mask="url(#mask-2)"></path>
                    </g>
                </g>
            </g>
        </g>
    </g>
</svg>