<?xml version="1.0" encoding="UTF-8"?>
<svg width="16px" height="16px" viewBox="0 0 16 16" version="1.1" xmlns="http://www.w3.org/2000/svg" xmlns:xlink="http://www.w3.org/1999/xlink">
    <g id="2.-groeifactor" stroke="none" stroke-width="1" fill="none" fill-rule="evenodd">
        <g id="Groeifactor---video" transform="translate(-224.000000, -767.000000)" fill="#413c37">
            <g id="Group-18" transform="translate(224.000000, 759.000000)">
                <path d="M10.2336251,23.6472205 C9.70982514,24.1671714 8.86478468,24.1671714 8.34419229,23.6472205 L0.98485057,16.7446401 C0.572674829,16.3587666 0.0827149506,15.6275957 0.0475918038,15.0641819 C-0.0463906803,13.5412166 0.0200065013,10.6250332 0.0663562247,9.07961471 C0.0833564692,8.51507829 0.556316103,8.04340169 1.12149405,8.03089208 C3.09673001,7.98454235 7.281677,7.93562655 7.67075807,8.32470762 L15.7741011,15.6571056 C16.2942123,16.177698 15.8230169,17.4945754 15.2993773,18.0188565 L10.2336251,23.6472205 Z M3.78459839,10.2699526 C3.34227128,9.83019154 2.62874214,9.83019154 2.18769806,10.2699526 C1.7472955,10.7122797 1.7472955,11.4251673 2.18769806,11.8655699 C2.63002518,12.306614 3.34355431,12.306614 3.78459839,11.8655699 C4.22500096,11.4245258 4.22500096,10.7116382 3.78459839,10.2699526 Z" id="Fill-1"></path>
            </g>
        </g>
    </g>
</svg>
