<svg id="Layer_1" data-name="Layer 1" xmlns="http://www.w3.org/2000/svg" viewBox="0 0 109.29 144.23"><defs><style>.cls-1{fill:#01afab;}.cls-2{fill:#fff;}</style></defs><title>veiligbetalen</title><path class="cls-1" d="M3.59,88.19V28A5.16,5.16,0,0,1,7,23.19L56.45,5A5.16,5.16,0,0,1,60,5l49.48,18.14A5.16,5.16,0,0,1,112.88,28V88.19c0,24.75-26.84,42.32-51.67,59.83a5.15,5.15,0,0,1-5.94,0C30.42,130.51,3.59,112.94,3.59,88.19Z" transform="translate(-3.59 -4.73)"/><path class="cls-2" d="M80.56,63.3a.87.87,0,0,0-.27-.62,2.45,2.45,0,0,0-.63-.38l-.07,0c-1.3-.65-6.36-1.08-6.36-1.08V53.7a14.79,14.79,0,0,0-26.31-9.13,14.56,14.56,0,0,0-3.28,9.29h0v7.37h0a25.08,25.08,0,0,0-5.07.64,4.91,4.91,0,0,0-2,.81.87.87,0,0,0-.27.62l-.88,17.85-.43,8.77,0,.32a.58.58,0,0,0,0,.21l0,.7a.6.6,0,0,0,.64.54L68,92.19v0l12.84.24a.77.77,0,0,0,.72-.63C81.71,90.66,80.56,63.3,80.56,63.3Zm-29.28-11a7.15,7.15,0,0,1,7.85-5.81,7.4,7.4,0,0,1,6.7,7.29v7.45H51V59A47.47,47.47,0,0,1,51.27,52.32Z" transform="translate(-3.59 -4.73)"/></svg>