<svg xmlns="http://www.w3.org/2000/svg" viewBox="0 0 1452.49 257.63"><title>line-banner-tomdenken-header</title><path d="M1458.5,180.6l2.85-1.93,0.89,1.28-3,1.94Z" transform="translate(-9.76 -17.85)" style="fill:#fce338"/><path d="M1382.57,215.77l-0.31-1.47c2.26-.43,4.62-0.87,6.87-1.4l0.31,1.47C1387.19,214.9,1384.83,215.34,1382.57,215.77Zm13.17-4.64c2.23-.63,4.45-1.35,6.67-2.08l0.51,1.44c-2.22.73-4.44,1.45-6.67,2.08Zm-20.18,5.76-7.07.72-0.12-1.5c2.3-.13,4.69-0.38,7-0.71l0.22,1.48h0Zm33.58-10.23c2.11-.81,4.31-1.64,6.5-2.56l0.61,1.43c-2.18,1-4.38,1.85-6.58,2.67Zm-47.58,11.25c-2.32,0-4.65,0-7.09-.08l0.08-1.53c2.33,0.07,4.67.13,7,.1l0,1.51h0Zm60.35-16.54c2.08-1,4.25-2,6.33-3l0.7,1.31c-2.08,1-4.25,2-6.33,3Zm12.63-6.28c2-1.09,4-2.2,6.07-3.41l0.79,1.3c-2,1.21-4.11,2.31-6.17,3.42Zm-87,22.23c-2.26-.28-4.63-0.54-6.92-1l0.19-1.44c2.28,0.38,4.64.64,6.9,0.92l-0.18,1.54h0Zm99.24-29.15c1.95-1.19,4-2.4,5.93-3.69l0.79,1.3c-1.95,1.19-4,2.5-5.93,3.69Zm-113.11,26.92c-2.31-.57-4.61-1.15-6.82-1.74l0.39-1.47c2.22,0.69,4.53,1.26,6.72,1.75l-0.29,1.46h0Zm-13.6-3.89c-2.12-.7-4.37-1.59-6.61-2.38l0.61-1.4c2.14,0.8,4.39,1.69,6.51,2.39l-0.51,1.39h0ZM1307,206h0c-2.05-.91-4.23-2-6.41-3.11l0.72-1.32c2.08,1.11,4.25,2.11,6.3,3L1307,206h0Zm-12.54-6.36c-2-1.13-4-2.35-6.07-3.56l0.82-1.33c2,1.23,4,2.45,6,3.58l-0.72,1.32h0Zm-12-7.36c-1.9-1.24-3.81-2.58-5.82-3.9l0.83-1.23c2,1.32,3.92,2.66,5.82,3.9l-0.83,1.23h0Zm-11.59-8.12c-1.71-1.37-3.64-2.81-5.58-4.34l0.94-1.15c1.83,1.45,3.75,2.89,5.57,4.24l-0.93,1.25h0Zm-11-8.6c-1.83-1.45-3.67-3-5.4-4.47l0.94-1.15c1.74,1.57,3.57,3,5.4,4.47l-0.94,1.15h0Zm-10.81-9c-1.73-1.47-3.47-3-5.21-4.6l0.94-1.15c1.74,1.57,3.47,3,5.21,4.6l-0.94,1.15h0Zm-10.54-9.28q-2.59-2.2-5.23-4.7l1-1.16,5.23,4.7-1,1.16h0Zm-15.69-14.09,1-1.16,5.23,4.7-1,1.16Zm-196.42,44a28,28,0,0,1-7.08.62l0-1.51a30.72,30.72,0,0,0,6.79-.58l0.31,1.47h0Zm6.26-3.54a26.31,26.31,0,0,0,5.62-3.75l1,1.07a25.9,25.9,0,0,1-6,4Zm185-45.14-5.23-4.7,1-1.16,5.23,4.7-1,1.16h0Zm-205.53,48.72h0a53.05,53.05,0,0,1-6.83-1.84l0.51-1.39a35.16,35.16,0,0,0,6.62,1.77l-0.29,1.46h0Zm30.72-12.54a56.68,56.68,0,0,0,4-5.64l1.23,0.83a59,59,0,0,1-4.12,5.75Zm-44.05,7.71h0a59.55,59.55,0,0,1-6-3.78l0.93-1.25a55.93,55.93,0,0,0,5.79,3.71l-0.72,1.32h0Zm208.31-53.27c-1.63-1.48-3.47-3-5.31-4.58l0.94-1.15c1.83,1.45,3.57,3,5.31,4.58l-0.94,1.15h0Zm-157,33.89a44.17,44.17,0,0,0,2.29-6.5l1.47,0.39a37.79,37.79,0,0,1-2.36,6.71Zm-62.7,10.82h0a39.38,39.38,0,0,1-4.47-5.72l1.3-.79a35.58,35.58,0,0,0,4.23,5.45l-1.06,1.06h0Zm209-53.78h0c-1.74-1.57-3.57-3-5.4-4.47l0.94-1.15c1.83,1.45,3.56,2.92,5.4,4.47l-0.94,1.15h0Zm-143,29.75a30.84,30.84,0,0,0-.18-6.84l1.48-.22a33.59,33.59,0,0,1,.23,7.14Zm-73.74,12h0c-0.37-1.16-.75-2.42-1.14-3.67-0.26-1.07-.41-2.16-0.57-3.25l1.48-.22c0.14,1,.3,2.08.54,3.05a23.76,23.76,0,0,0,1.13,3.58l-1.44.51h0Zm205.87-50.59c-1.83-1.45-3.75-2.89-5.55-4.15l0.93-1.25c1.81,1.35,3.64,2.81,5.57,4.24l-0.94,1.15h0Zm-133.7,25a38.2,38.2,0,0,0-2.45-6.42l1.33-.6a57.27,57.27,0,0,1,2.57,6.6l-1.46.41h0Zm122.5-33.24c-1.93-1.44-3.92-2.66-5.82-3.9l0.83-1.23c1.9,1.24,3.91,2.57,5.82,3.9l-0.83,1.23h0ZM977.89,147.68a41.23,41.23,0,0,1,1.41-7l1.47,0.39a28.75,28.75,0,0,0-1.36,6.66Zm68.17-23.94h0a51.23,51.23,0,0,0-4-5.69l1.19-.88a46.55,46.55,0,0,1,4.07,5.78l-1.3.79h0ZM1162.67,95.2c-2-1.13-4.08-2.34-6-3.58l0.72-1.32c2,1.13,4.08,2.34,6.07,3.56l-0.82,1.33h0ZM982,134.05a59.86,59.86,0,0,1,3.66-6.09l1.23,0.83a45.13,45.13,0,0,0-3.58,6ZM1150.5,88.58h0c-2.18-1.1-4.25-2.11-6.29-2.93l0.61-1.4c2.17,1,4.23,2,6.4,3l-0.72,1.32h0Zm-112.89,24.26c-1.56-1.69-3.22-3.37-5-4.94l1.06-1.06c1.74,1.57,3.4,3.25,5,4.94l-1.06,1.06h0ZM990,122.48c1.57-1.74,3.13-3.49,4.91-5.16l1.06,1.06c-1.69,1.56-3.26,3.3-4.83,5ZM1137.66,83c-2.24-.79-4.37-1.59-6.58-2.18l0.39-1.47c2.22,0.69,4.46,1.48,6.69,2.26L1137.66,83h0Zm-137.58,29.56c1.71-1.46,3.61-2.95,5.53-4.34l0.88,1.19c-1.92,1.39-3.73,2.86-5.44,4.33Zm27.46-9.24h0L1022.16,99l0.83-1.23q2.89,2.16,5.48,4.36l-0.94,1.15h0Zm96.79-24.45c-2.19-.49-4.5-1.06-6.78-1.44l0.29-1.46q3.42,0.57,6.88,1.43l-0.39,1.47h0ZM1011.5,104.2c1.84-1.28,3.87-2.58,5.92-3.79l0.79,1.3c-2,1.21-4.1,2.41-5.93,3.69Zm12.08-7.31q2.95-1.64,6.19-3.32l0.7,1.31q-3.24,1.68-6.19,3.32Zm87.16-20.53c-2.36-.26-4.61-0.44-7-0.61l0.08-1.53c2.35,0.16,4.7.33,7.06,0.59l-0.18,1.54h0Zm-74.65,14.07c2-1,4.17-1.92,6.34-2.94l0.6,1.33c-2.18,1-4.27,1.93-6.34,2.94Zm60.72-14.67c-2.22,0-4.64.07-6.93,0.3l-0.12-1.5c2.29-.23,4.71-0.28,7-0.31l0,1.51h0Zm-80.4,19c-1.9-1.24-3.81-2.58-5.82-3.9l0.83-1.23c2,1.32,3.92,2.66,5.82,3.9l-0.83,1.23h0Zm32.49-10.07c2.19-.92,4.39-1.75,6.6-2.57L1056,83.6c-2.12.71-4.32,1.54-6.51,2.46Zm34.11-8c-2.28.33-4.64,0.77-6.8,1.19l-0.31-1.47c2.25-.53,4.62-0.87,6.9-1.2l0.22,1.48h0ZM1062.34,80c2.13-.61,4.45-1.35,6.7-1.88l0.31,1.47q-3.37.79-6.7,1.88Zm-57.74,7.37c-2-1.13-4-2.35-6.06-3.47l0.72-1.32c2.08,1.11,4.08,2.34,6.06,3.47l-0.72,1.32h0ZM992.4,80.5c-2.07-1-4.15-2.13-6.31-3.13l0.72-1.32c2.17,1,4.25,2.11,6.31,3.13L992.4,80.5h0Zm-12.63-6.25c-2.05-.91-4.2-1.82-6.38-2.91l0.61-1.4c2.17,1,4.32,1.9,6.38,2.91l-0.61,1.4h0Zm-12.84-5.61c-2.14-.8-4.29-1.7-6.55-2.69l0.61-1.4c2.25,0.89,4.4,1.79,6.55,2.69l-0.61,1.4h0Zm-13-5.19c-2.22-.69-4.47-1.57-6.62-2.47l0.51-1.39c2.24,0.79,4.49,1.67,6.62,2.47l-0.51,1.39h0ZM940.73,58.7c-2.22-.69-4.44-1.38-6.69-2.26L934.54,55c2.24,0.79,4.46,1.48,6.69,2.26l-0.51,1.39h0Zm-13.36-4.33h0c-2.11-.6-4.34-1.39-6.55-2l0.39-1.47L927.88,53l-0.51,1.39h0ZM9.76,274.42c1.58-1.64,3.15-3.39,4.83-5l1.06,1.06c-1.58,1.64-3.15,3.39-4.83,5ZM907.2,48.4l0.39-1.47c2.32,0.67,4.53,1.26,6.75,2L914,50.35C911.75,49.77,909.52,49.08,907.2,48.4ZM19.44,264.53c1.58-1.64,3.26-3.3,4.94-5l1.06,1.06c-1.58,1.64-3.26,3.3-4.94,5Zm881-217.88h0c-2.21-.59-4.51-1.16-6.72-1.75l0.39-1.47c2.31,0.57,4.61,1.15,6.82,1.74l-0.49,1.49h0ZM29.42,254.6c1.68-1.66,3.37-3.22,5.05-4.88l1.06,1.06c-1.68,1.66-3.37,3.22-5.05,4.88ZM886.86,43.27c-2.21-.59-4.5-1.06-6.71-1.65l0.29-1.46c2.31,0.57,4.5,1.06,6.81,1.64l-0.39,1.47h0ZM39.73,244.91c1.68-1.66,3.47-3.23,5.17-4.79l1,1.07c-1.79,1.57-3.47,3.23-5.17,4.79ZM873.16,40.11c-2.19-.49-4.49-1-6.78-1.44l0.29-1.46,6.88,1.43-0.39,1.47h0ZM50.06,235.33c1.79-1.57,3.49-3.13,5.28-4.71l1,1.17c-1.79,1.57-3.59,3.15-5.28,4.71ZM852.64,35.91l0.29-1.46c2.28,0.38,4.57.85,6.86,1.33l-0.29,1.46C857.21,36.76,854.92,36.29,852.64,35.91ZM60.57,226.23c1.69-1.56,3.49-3.13,5.29-4.61l1,1.17c-1.81,1.47-3.51,2.94-5.31,4.51ZM838.74,33.38L839,31.92c2.38,0.36,4.67.84,6.95,1.22l-0.29,1.46C843.39,34.12,841.11,33.74,838.74,33.38ZM71.25,217l5.42-4.42,1,1.17-5.42,4.42ZM825.06,31l0.19-1.44c2.28,0.38,4.65.74,6.93,1.12l-0.29,1.46Zm-743,177.13c1.91-1.49,3.73-2.86,5.53-4.34L88.51,205c-1.92,1.39-3.73,2.86-5.53,4.34ZM811.12,29l0.19-1.44c2.28,0.38,4.64.64,6.92,1L818,30C815.76,29.64,813.48,29.26,811.12,29ZM797.2,27.08l0.19-1.44,7,0.9L804.2,28ZM93.26,199.46c1.82-1.38,3.73-2.86,5.55-4.24l0.88,1.19c-1.82,1.38-3.74,2.77-5.55,4.24Zm690.06-174,0.18-1.54,7,0.8-0.18,1.54ZM104.36,191c1.92-1.39,3.74-2.77,5.66-4.16L110.9,188c-1.92,1.39-3.74,2.77-5.66,4.16ZM769.28,24.06l0.18-1.54,7.07,0.69-0.18,1.54ZM115.6,182.78c1.82-1.38,3.74-2.77,5.68-4.06l0.88,1.19c-1.92,1.39-3.76,2.67-5.68,4.06ZM755.36,22.84l0.08-1.53,7,0.61-0.08,1.53ZM127,174.65c1.92-1.39,3.85-2.68,5.79-4l0.89,1.28c-1.92,1.39-3.85,2.68-5.79,4ZM741.36,21.74l0.08-1.53,7,0.49-0.08,1.53ZM138.75,166.89l5.8-3.87,0.79,1.3-5.8,3.87ZM727.4,20.94l0.08-1.53,7,0.39-0.08,1.53ZM150.48,159.22c1.95-1.19,4-2.5,5.93-3.69l0.79,1.3c-1.95,1.19-4,2.4-5.93,3.69ZM713.34,20.15l0.08-1.53,7,0.39-0.08,1.53ZM162.24,151.86c2-1.21,4-2.4,6-3.61l0.79,1.3c-1.95,1.19-4,2.4-5.95,3.59Zm537.1-132.1,0.08-1.53,7,0.2L706.34,20Zm-525,124.89c2.06-1.11,4-2.3,6.06-3.51l0.79,1.3c-2,1.21-4,2.3-6.06,3.51Zm511-125.18,0-1.51,7,0.1,0,1.51ZM186.55,137.62c2-1.09,4-2.3,6.07-3.41l0.7,1.31c-2,1.09-4,2.2-6.07,3.41ZM671.39,19.37l0-1.51h7l0,1.51h-7Zm-14.13.13,0-1.51,7.06-.11,0,1.51ZM198.71,130.9l6.19-3.32,0.7,1.31-6.19,3.32ZM643.26,19.81l0-1.51,7-.21,0,1.51ZM211.1,124.36l6.2-3.22,0.7,1.31-6.2,3.22ZM629.16,20.14l0-1.51,7-.21,0,1.51ZM223.41,118c2.16-1.12,4.24-2.13,6.31-3.14l0.7,1.31c-2.08,1-4.14,2.12-6.22,3.12ZM615.21,20.75l-0.12-1.5,7-.31,0.12,1.5Zm-379,91.08,6.33-3,0.6,1.33-6.33,3Zm365-90.25-0.12-1.5,7-.41,0.12,1.5ZM248.84,105.94c2.08-1,4.25-2,6.34-2.94l0.6,1.33-6.36,2.84ZM587.28,22.58l-0.12-1.5,7-.51,0.12,1.5ZM261.54,100.16L268,97.4l0.6,1.33-6.37,2.74ZM573.3,23.7l-0.12-1.5,7-.61,0.12,1.5ZM274.46,94.45l6.49-2.66,0.61,1.43-6.49,2.66ZM559.24,25l-0.12-1.5,7.07-.72,0.12,1.5ZM287.46,89.33l6.49-2.66,0.51,1.44L288,90.67Zm258-62.79L545.2,25l7.06-.82,0.12,1.5ZM300.54,84.09l6.51-2.46,0.51,1.44-6.51,2.46ZM531.42,28.26l-0.22-1.48,6.94-.91,0.22,1.48ZM313.57,79.17l6.63-2.38,0.51,1.44-6.63,2.38Zm204-49-0.22-1.48,6.93-1,0.22,1.48ZM326.73,74.43l6.64-2.28,0.51,1.44-6.64,2.28Zm177-42.35-0.22-1.48,6.93-1,0.22,1.48ZM340,69.88l6.66-2.18,0.51,1.44-6.66,2.18ZM489.85,34.29l-0.22-1.48,6.91-1.1,0.22,1.48ZM353.42,65.51l6.67-2.08,0.41,1.46L353.83,67ZM476.07,36.8l-0.31-1.47,6.9-1.2,0.22,1.48ZM366.78,61.45l6.68-2,0.41,1.46-6.68,2Zm95.43-22-0.31-1.47,6.88-1.3,0.31,1.47Zm-13.74,2.8-0.31-1.47,6.87-1.4,0.31,1.47Zm-68.2,15.35,6.7-1.88,0.31,1.47L380.57,59Zm54.49-12.35-0.31-1.47,6.86-1.5,0.31,1.47Zm-41,8.58,6.81-1.8,0.31,1.47-6.81,1.8Zm27.41-5.39-0.31-1.47,6.84-1.6L428,46.8ZM407.3,50.31l6.83-1.7,0.31,1.47-6.83,1.7Z" transform="translate(-9.76 -17.85)" style="fill:#fce338"/></svg>