<?xml version="1.0" encoding="utf-8"?>
<!-- Generator: Adobe Illustrator 19.2.0, SVG Export Plug-In . SVG Version: 6.00 Build 0)  -->
<svg version="1.1" id="Laag_1" xmlns="http://www.w3.org/2000/svg" xmlns:xlink="http://www.w3.org/1999/xlink" x="0px" y="0px"
	 viewBox="0 0 1427.3 208.4" style="enable-background:new 0 0 1427.3 208.4;" xml:space="preserve">
<style type="text/css">
	.st0{fill:#FCE338;}
</style>
<title>line-banner-services</title>
<path class="st0" d="M1426.6,208.4c-0.1,0-0.2,0-0.2,0c-2.2-0.7-4.5-1.4-6.7-2.2c-0.4-0.1-0.6-0.5-0.5-0.9s0.5-0.6,0.9-0.5
	c0,0,0,0,0.1,0c2.2,0.8,4.4,1.5,6.6,2.2c0.4,0.2,0.5,0.6,0.4,1C1427.1,208.3,1426.8,208.4,1426.6,208.4z M1413.3,203.9
	c-0.1,0-0.2,0-0.3,0c-2.2-0.8-4.4-1.6-6.6-2.5c-0.4-0.2-0.6-0.6-0.4-1c0.2-0.4,0.6-0.6,1-0.4c2.1,0.8,4.3,1.7,6.5,2.5
	c0.4,0.2,0.5,0.6,0.3,1C1413.8,203.8,1413.6,203.9,1413.3,203.9z M1400.3,198.8c-0.1,0-0.2,0-0.3-0.1c-2.2-0.9-4.3-1.9-6.4-2.8
	c-0.4-0.2-0.5-0.6-0.4-1s0.6-0.5,1-0.4l0,0c2.1,0.9,4.2,1.9,6.4,2.8c0.4,0.2,0.6,0.6,0.4,1C1400.9,198.6,1400.6,198.8,1400.3,198.8
	L1400.3,198.8z M1387.5,193.1c-0.1,0-0.2,0-0.3-0.1c-2.1-1-4.2-2.1-6.3-3.1c-0.4-0.2-0.5-0.6-0.3-1c0.2-0.4,0.6-0.5,1-0.3
	c2,1,4.2,2.1,6.3,3.1c0.4,0.2,0.5,0.6,0.4,1C1388.1,192.9,1387.8,193.1,1387.5,193.1L1387.5,193.1z M1375.1,186.7
	c-0.1,0-0.2,0-0.4-0.1c-2.1-1.1-4.1-2.3-6.1-3.4c-0.4-0.2-0.5-0.7-0.3-1c0.2-0.4,0.7-0.5,1-0.3l0,0c2,1.1,4,2.3,6.1,3.4
	c0.4,0.2,0.5,0.7,0.3,1C1375.6,186.5,1375.3,186.7,1375.1,186.7L1375.1,186.7z M1362.9,179.7c-0.1,0-0.3,0-0.4-0.1
	c-2-1.2-4-2.5-5.9-3.7c-0.3-0.2-0.4-0.7-0.2-1c0.2-0.3,0.6-0.4,1-0.2c1.9,1.3,3.9,2.5,5.9,3.7c0.4,0.2,0.5,0.6,0.3,1
	C1363.5,179.6,1363.2,179.7,1362.9,179.7L1362.9,179.7z M1351.2,172.1c-0.1,0-0.3,0-0.4-0.1c-1.9-1.3-3.9-2.7-5.7-4
	c-0.4-0.2-0.5-0.7-0.2-1c0.2-0.4,0.7-0.5,1-0.2c0,0,0.1,0,0.1,0.1c1.9,1.4,3.8,2.7,5.7,4c0.3,0.3,0.4,0.7,0.1,1.1
	C1351.6,172,1351.4,172.1,1351.2,172.1L1351.2,172.1z M1339.8,163.9c-0.2,0-0.3-0.1-0.5-0.2c-1.8-1.4-3.7-2.9-5.5-4.4
	c-0.3-0.3-0.4-0.7-0.1-1.1c0.3-0.3,0.7-0.4,1.1-0.1c0,0,0,0,0,0c1.8,1.5,3.6,2.9,5.5,4.3c0.3,0.2,0.4,0.7,0.2,1
	C1340.3,163.8,1340.1,163.9,1339.8,163.9z M616.6,157.1L616.6,157.1c-2.3,0-4.7,0-7-0.1c-0.4,0-0.7-0.4-0.7-0.8c0,0,0,0,0,0
	c0-0.4,0.4-0.7,0.8-0.7c2.3,0.1,4.6,0.1,7,0.1c0.4,0.1,0.7,0.4,0.6,0.8C617.3,156.8,617,157.1,616.6,157.1L616.6,157.1z
	 M623.6,157.1c-0.4,0-0.8-0.3-0.8-0.8s0.3-0.8,0.8-0.8c2.3,0,4.7-0.1,7-0.2c0.4,0,0.8,0.3,0.8,0.7c0,0,0,0,0,0
	c0,0.4-0.3,0.8-0.7,0.8c0,0,0,0,0,0C628.4,157,626,157,623.6,157.1L623.6,157.1L623.6,157.1z M602.6,156.8L602.6,156.8
	c-2.3-0.1-4.7-0.2-7-0.4c-0.4,0-0.7-0.4-0.7-0.8s0.4-0.7,0.8-0.7l0,0c2.3,0.1,4.7,0.3,7,0.4c0.4,0.1,0.7,0.5,0.6,0.9
	C603.3,156.5,603,156.8,602.6,156.8L602.6,156.8z M637.6,156.5c-0.4,0-0.8-0.3-0.8-0.8s0.3-0.8,0.8-0.8c2.3-0.1,4.7-0.3,7-0.5
	c0.4-0.1,0.8,0.2,0.9,0.6c0.1,0.4-0.2,0.8-0.6,0.9c0,0-0.1,0-0.1,0c-2.3,0.2-4.7,0.4-7,0.5l0,0L637.6,156.5z M588.7,155.9
	L588.7,155.9c-2.4-0.2-4.7-0.4-7.1-0.7c-0.4,0-0.7-0.4-0.7-0.8c0-0.4,0.4-0.7,0.8-0.7c0,0,0,0,0.1,0c2.3,0.2,4.7,0.5,7,0.7
	c0.4,0.1,0.7,0.5,0.6,0.9C589.3,155.6,589,155.9,588.7,155.9L588.7,155.9z M651.6,155.4c-0.4,0-0.8-0.3-0.8-0.7
	c0-0.4,0.3-0.8,0.7-0.8c2.3-0.2,4.7-0.5,6.9-0.8c0.4-0.1,0.8,0.2,0.8,0.6c0.1,0.4-0.2,0.8-0.7,0.8l0,0
	C656.3,154.8,654,155.1,651.6,155.4L651.6,155.4L651.6,155.4z M1329,155c-0.2,0-0.4-0.1-0.5-0.2c-1.8-1.5-3.5-3.1-5.2-4.7
	c-0.3-0.3-0.2-0.8,0.1-1.1c0.3-0.2,0.6-0.2,0.9,0c1.7,1.6,3.4,3.1,5.2,4.7c0.3,0.3,0.3,0.8,0,1.1C1329.4,154.9,1329.2,155,1329,155
	L1329,155z M574.8,154.4L574.8,154.4c-2.4-0.3-4.7-0.6-7-0.9c-0.4,0-0.7-0.4-0.7-0.8s0.4-0.7,0.8-0.7c0,0,0.1,0,0.1,0
	c2.3,0.3,4.7,0.7,6.9,0.9c0.4,0.1,0.6,0.5,0.5,0.9C575.3,154.2,575.1,154.4,574.8,154.4L574.8,154.4z M665.5,153.6
	c-0.4,0-0.7-0.3-0.7-0.8c0-0.4,0.3-0.7,0.6-0.7c2.3-0.3,4.6-0.7,6.9-1.1c0.4-0.1,0.8,0.2,0.9,0.6c0.1,0.4-0.2,0.8-0.6,0.9
	c-2.3,0.4-4.6,0.8-6.9,1.1L665.5,153.6L665.5,153.6z M560.9,152.4h-0.1c-2.3-0.4-4.6-0.8-6.9-1.2c-0.4,0-0.7-0.4-0.7-0.8
	c0-0.4,0.4-0.7,0.8-0.7c0,0,0.1,0,0.1,0c2.3,0.4,4.6,0.8,6.9,1.2c0.4,0.1,0.6,0.6,0.5,0.9C561.5,152.2,561.2,152.4,560.9,152.4
	L560.9,152.4z M679.3,151.3c-0.4,0-0.8-0.3-0.8-0.7c0-0.4,0.3-0.7,0.6-0.8c2.2-0.4,4.5-0.9,6.8-1.4c0.4-0.1,0.8,0.2,0.9,0.6
	c0.1,0.4-0.2,0.8-0.6,0.9c-2.3,0.5-4.6,0.9-6.9,1.4L679.3,151.3L679.3,151.3z M547.2,149.9H547c-2.3-0.5-4.6-1-6.8-1.5
	c-0.4-0.1-0.7-0.4-0.6-0.9c0.1-0.4,0.4-0.7,0.9-0.6c0,0,0.1,0,0.1,0c2.3,0.5,4.5,1,6.8,1.5c0.4,0.2,0.6,0.6,0.4,1
	C547.7,149.6,547.4,149.8,547.2,149.9L547.2,149.9z M693,148.4c-0.4,0-0.7-0.3-0.7-0.8c0-0.3,0.2-0.6,0.6-0.7
	c2.2-0.5,4.5-1.1,6.8-1.6c0.4-0.1,0.8,0.1,0.9,0.5c0.1,0.4-0.1,0.8-0.5,0.9c-2.3,0.6-4.6,1.1-6.8,1.6L693,148.4z M533.5,146.8h-0.2
	c-2.3-0.6-4.5-1.1-6.8-1.7c-0.4-0.1-0.7-0.5-0.6-0.9c0.1-0.4,0.5-0.7,0.9-0.6c0,0,0,0,0.1,0c2.3,0.6,4.5,1.2,6.8,1.7
	c0.4,0.2,0.6,0.6,0.4,1C534,146.6,533.8,146.7,533.5,146.8L533.5,146.8z M1318.8,145.5c-0.2,0-0.4-0.1-0.5-0.2
	c-1.7-1.7-3.3-3.4-4.9-5c-0.2-0.3-0.1-0.8,0.2-1c0.3-0.2,0.7-0.2,0.9,0c1.6,1.7,3.2,3.4,4.9,5c0.2,0.3,0.2,0.8-0.2,1
	C1319,145.4,1318.9,145.4,1318.8,145.5L1318.8,145.5z M706.6,145c-0.4,0-0.7-0.3-0.7-0.8c0-0.3,0.2-0.6,0.5-0.7
	c2.2-0.6,4.5-1.2,6.7-1.9c0.4-0.1,0.8,0.1,0.9,0.5s-0.1,0.8-0.5,0.9c0,0,0,0,0,0c-2.3,0.7-4.5,1.3-6.8,1.9L706.6,145z M520,143.3
	h-0.2c-2.3-0.6-4.5-1.3-6.7-1.9c-0.4-0.1-0.6-0.5-0.5-0.9s0.5-0.6,0.9-0.5c2.2,0.7,4.5,1.3,6.7,1.9c0.4,0.2,0.5,0.6,0.4,1
	C520.4,143.1,520.2,143.2,520,143.3L520,143.3z M720,141.1c-0.4,0-0.8-0.3-0.8-0.7c0-0.3,0.2-0.6,0.5-0.7c2.2-0.7,4.4-1.4,6.7-2.1
	c0.4-0.2,0.8,0,1,0.4c0.2,0.4,0,0.8-0.4,1c0,0-0.1,0-0.1,0c-2.2,0.7-4.5,1.5-6.7,2.1C720.1,141.1,720.1,141.1,720,141.1L720,141.1z
	 M506.6,139.3c-0.1,0-0.1,0-0.2,0c-2.2-0.7-4.4-1.4-6.6-2.1c-0.4-0.1-0.6-0.5-0.5-0.9c0.1-0.4,0.5-0.6,0.9-0.5c0,0,0.1,0,0.1,0
	c2.2,0.7,4.4,1.4,6.6,2.1c0.4,0.2,0.5,0.7,0.3,1C507,139.1,506.8,139.2,506.6,139.3L506.6,139.3z M733.3,136.7
	c-0.4,0-0.8-0.3-0.8-0.7c0-0.3,0.2-0.6,0.5-0.7c2.2-0.8,4.4-1.6,6.6-2.4c0.4-0.1,0.8,0.1,1,0.4c0.1,0.4-0.1,0.8-0.4,1l0,0
	c-2.2,0.8-4.4,1.6-6.6,2.4C733.4,136.7,733.3,136.7,733.3,136.7L733.3,136.7z M1309.2,135.3c-0.2,0-0.4-0.1-0.6-0.3
	c-1.6-1.8-3.1-3.6-4.5-5.4c-0.3-0.3-0.2-0.8,0.1-1.1c0.3-0.3,0.8-0.2,1.1,0.1c1.4,1.8,2.9,3.6,4.4,5.4c0.2,0.3,0.2,0.8-0.1,1.1
	C1309.5,135.2,1309.4,135.2,1309.2,135.3L1309.2,135.3z M493.4,134.9c-0.1,0-0.2,0-0.2,0c-2.2-0.8-4.4-1.5-6.6-2.3
	c-0.4-0.1-0.6-0.6-0.5-0.9c0.1-0.4,0.6-0.6,0.9-0.5c0,0,0,0,0,0c2.2,0.8,4.4,1.6,6.6,2.3c0.4,0.2,0.5,0.7,0.3,1
	C493.8,134.7,493.5,134.9,493.4,134.9L493.4,134.9z M746.4,131.8c-0.4,0-0.8-0.3-0.8-0.7c0-0.3,0.2-0.6,0.5-0.7l1.7-0.7l4.8-1.9
	c0.4-0.1,0.8,0,1,0.4s0,0.8-0.4,1l0,0l-4.8,1.9l-1.7,0.7C746.6,131.8,746.5,131.8,746.4,131.8L746.4,131.8z M480.2,130.2
	c-0.1,0-0.2,0-0.3,0c-2.2-0.8-4.4-1.7-6.5-2.5c-0.4-0.1-0.6-0.6-0.4-1s0.6-0.6,1-0.4c2.2,0.8,4.3,1.7,6.5,2.5c0.4,0.2,0.5,0.7,0.2,1
	C480.6,130,480.4,130.1,480.2,130.2L480.2,130.2z M759.5,126.8c-0.4,0-0.8-0.3-0.8-0.7c0-0.3,0.2-0.6,0.5-0.7
	c2.2-0.8,4.4-1.6,6.6-2.4c0.4-0.1,0.8,0.1,1,0.4c0.1,0.4-0.1,0.8-0.4,1l-6.5,2.4C759.6,126.8,759.5,126.8,759.5,126.8L759.5,126.8z
	 M467.2,125.1c-0.1,0-0.2,0-0.3-0.1c-2.2-0.9-4.3-1.8-6.5-2.6c-0.4-0.2-0.5-0.6-0.3-1c0.2-0.3,0.6-0.5,0.9-0.4
	c2.1,0.9,4.3,1.8,6.5,2.6c0.4,0.2,0.5,0.6,0.3,1C467.7,124.9,467.4,125.1,467.2,125.1L467.2,125.1z M1287.3,124.8L1287.3,124.8
	c-2.3,0-4.7-0.1-7-0.1c-0.4,0-0.7-0.4-0.7-0.8c0,0,0,0,0,0c0-0.4,0.4-0.7,0.8-0.7c0,0,0,0,0,0c2.3,0.1,4.7,0.1,7,0.1
	c0.4,0.1,0.6,0.5,0.5,0.9C1287.8,124.5,1287.6,124.7,1287.3,124.8L1287.3,124.8z M1294.3,124.7c-0.4,0-0.8-0.3-0.8-0.8
	s0.3-0.8,0.8-0.8c1.7,0,3.3-0.1,4.9-0.2c-1.1-1.6-2.2-3.2-3.2-4.8c-0.2-0.3-0.2-0.8,0.2-1c0.3-0.2,0.8-0.2,1,0.2c0,0,0,0,0,0.1
	c1.2,1.8,2.4,3.7,3.7,5.5h0.3c0.4,0,0.8,0.3,0.8,0.7c0,0.4-0.3,0.8-0.7,0.8C1299.1,124.5,1296.8,124.6,1294.3,124.7L1294.3,124.7
	L1294.3,124.7z M1273.3,124.3L1273.3,124.3c-2.3-0.1-4.7-0.3-7-0.6c-0.4-0.1-0.7-0.5-0.6-0.9c0.1-0.4,0.4-0.6,0.8-0.6
	c2.3,0.2,4.7,0.4,7,0.6c0.4,0.1,0.6,0.6,0.5,0.9C1273.9,124,1273.6,124.2,1273.3,124.3L1273.3,124.3z M1308.3,123.7
	c-0.4,0-0.8-0.3-0.8-0.7c0-0.4,0.3-0.8,0.7-0.8l0,0c2.4-0.3,4.7-0.6,6.9-0.9c0.4-0.1,0.8,0.2,0.9,0.6s-0.2,0.8-0.6,0.9c0,0,0,0,0,0
	C1313.2,123.1,1310.8,123.4,1308.3,123.7L1308.3,123.7L1308.3,123.7z M1259.4,123L1259.4,123c-2.4-0.3-4.7-0.6-7.1-0.9
	c-0.4-0.1-0.7-0.5-0.6-0.9c0.1-0.4,0.4-0.6,0.8-0.6c2.3,0.3,4.6,0.7,6.9,0.9c0.4,0.1,0.6,0.5,0.5,0.9
	C1259.9,122.7,1259.6,122.9,1259.4,123L1259.4,123z M772.6,122c-0.4,0-0.8-0.3-0.8-0.7c0-0.3,0.2-0.6,0.5-0.7l6.6-2.3
	c0.4-0.1,0.8,0.1,1,0.5c0.1,0.4-0.1,0.8-0.5,1c-2.2,0.8-4.4,1.5-6.6,2.3C772.8,122,772.7,122,772.6,122L772.6,122z M1322.1,121.5
	c-0.4,0-0.7-0.3-0.7-0.8c0-0.3,0.2-0.6,0.6-0.7c2.3-0.5,4.6-1.1,6.7-1.7c0.4-0.1,0.8,0.1,0.9,0.5c0.1,0.4-0.1,0.8-0.5,0.9
	c-2.2,0.6-4.4,1.2-6.8,1.8L1322.1,121.5z M1245.6,121h-0.1c-2.3-0.4-4.6-0.9-6.9-1.3c-0.4-0.1-0.7-0.5-0.6-0.9s0.5-0.7,0.9-0.6
	c2.3,0.5,4.6,0.9,6.9,1.3c0.4,0.2,0.5,0.6,0.4,1C1246,120.7,1245.8,120.9,1245.6,121L1245.6,121z M454.3,119.8c-0.1,0-0.2,0-0.3-0.1
	c-2.1-0.9-4.3-1.8-6.4-2.8c-0.4-0.2-0.5-0.6-0.3-1c0.2-0.3,0.6-0.5,0.9-0.4c2.1,0.9,4.3,1.9,6.4,2.8c0.3,0.2,0.4,0.7,0.2,1
	C454.7,119.6,454.5,119.7,454.3,119.8L454.3,119.8z M1231.9,118.1h-0.2c-2.3-0.5-4.6-1.1-6.8-1.7c-0.4-0.1-0.6-0.5-0.5-0.9
	c0.1-0.4,0.5-0.6,0.9-0.5l0,0c2.2,0.6,4.5,1.2,6.8,1.7c0.4,0.2,0.5,0.7,0.3,1C1232.2,117.9,1232,118.1,1231.9,118.1L1231.9,118.1z
	 M1335.5,117.5c-0.4,0-0.8-0.3-0.8-0.7c0-0.3,0.2-0.6,0.5-0.7c2.1-0.9,4.2-1.9,6.2-3c0.3-0.2,0.8-0.1,1,0.2c0.2,0.3,0.1,0.8-0.2,1
	c0,0-0.1,0-0.1,0.1c-2.1,1.2-4.2,2.2-6.4,3.1C1335.7,117.4,1335.6,117.4,1335.5,117.5L1335.5,117.5z M785.9,117.4
	c-0.4,0-0.7-0.3-0.7-0.8c0-0.3,0.2-0.6,0.5-0.7c2.2-0.8,4.4-1.5,6.6-2.2c0.4-0.2,0.8,0,1,0.4c0.2,0.4,0,0.8-0.4,1c0,0-0.1,0-0.1,0
	c-2.2,0.7-4.4,1.5-6.6,2.2C786,117.3,785.9,117.3,785.9,117.4L785.9,117.4z M1218.3,114.5c-0.1,0-0.1,0-0.2,0
	c-2.1-0.6-4.3-1.3-6.7-2c-0.4-0.1-0.7-0.5-0.6-0.9c0.1-0.4,0.5-0.7,0.9-0.6c0,0,0.1,0,0.1,0c2.4,0.7,4.6,1.4,6.7,2
	c0.3,0.2,0.4,0.7,0.2,1C1218.6,114.3,1218.5,114.4,1218.3,114.5L1218.3,114.5z M441.6,114.2c-0.1,0-0.2,0-0.3-0.1
	c-2.1-1-4.2-1.9-6.4-2.9c-0.4-0.2-0.6-0.6-0.4-1c0.2-0.4,0.6-0.6,1-0.4c0,0,0,0,0.1,0c2.1,1,4.2,1.9,6.4,2.9c0.3,0.2,0.4,0.7,0.2,1
	C441.9,114,441.7,114.1,441.6,114.2L441.6,114.2z M799.2,112.9c-0.4,0-0.7-0.3-0.7-0.8c0-0.3,0.2-0.6,0.5-0.7
	c2.2-0.7,4.5-1.4,6.7-2.1c0.4-0.1,0.8,0.1,0.9,0.5c0.1,0.4-0.1,0.8-0.5,0.9c-2.2,0.7-4.4,1.4-6.7,2.1
	C799.3,112.9,799.2,112.9,799.2,112.9L799.2,112.9z M1293.1,112.5c-0.3,0-0.5-0.1-0.7-0.4c-1.2-2.1-2.2-4.2-3.2-6.3
	c-0.2-0.4,0-0.8,0.3-1c0.4-0.2,0.8,0,1,0.3c0,0,0,0,0,0.1c0.9,2,2,4.1,3.2,6.2c0.2,0.4,0,0.8-0.4,1
	C1293.2,112.4,1293.1,112.4,1293.1,112.5L1293.1,112.5z M1347.6,110.5c-0.4,0-0.8-0.3-0.8-0.7c0-0.2,0.1-0.4,0.3-0.6
	c1.7-1.5,3.3-3.1,4.6-5c0.2-0.4,0.7-0.5,1-0.3c0.4,0.2,0.5,0.7,0.3,1c0,0,0,0,0,0.1c-1.4,2-3,3.8-4.8,5.3
	C1347.9,110.4,1347.7,110.5,1347.6,110.5L1347.6,110.5z M1204.8,110.3c-0.1,0-0.1,0-0.2,0l-6.7-2.1c-0.4-0.1-0.6-0.6-0.4-1
	c0.1-0.3,0.5-0.5,0.9-0.5l6.7,2.1c0.4,0.2,0.5,0.6,0.4,1C1205.3,110.1,1205.1,110.3,1204.8,110.3z M812.4,108.7
	c-0.4,0-0.8-0.3-0.8-0.7c0-0.3,0.2-0.6,0.5-0.7c2.2-0.7,4.5-1.3,6.7-2c0.4-0.1,0.8,0.1,0.9,0.5c0.1,0.4-0.1,0.8-0.5,0.9
	c-2.2,0.7-4.5,1.3-6.7,2C812.6,108.7,812.5,108.7,812.4,108.7L812.4,108.7z M428.8,108.3c-0.1,0-0.2,0-0.3-0.1l-6.3-3
	c-0.4-0.2-0.6-0.6-0.4-1c0.2-0.4,0.6-0.6,1-0.4c0,0,0,0,0.1,0l6.3,3c0.4,0.2,0.5,0.6,0.3,1C429.3,108.1,429,108.2,428.8,108.3
	L428.8,108.3z M1191.5,106.2c-0.1,0-0.1,0-0.2,0c-2.2-0.7-4.4-1.3-6.7-2c-0.4-0.1-0.6-0.5-0.5-0.9s0.5-0.6,0.9-0.5l6.7,2
	c0.4,0.2,0.6,0.6,0.4,1C1192,106,1191.8,106.2,1191.5,106.2L1191.5,106.2z M825.8,104.8c-0.4,0-0.7-0.3-0.7-0.8
	c0-0.3,0.2-0.6,0.5-0.7c2.3-0.7,4.5-1.3,6.8-1.9c0.4-0.1,0.8,0.1,0.9,0.5c0.1,0.4-0.1,0.8-0.5,0.9l0,0c-2.2,0.6-4.5,1.2-6.7,1.9
	C826,104.8,825.9,104.8,825.8,104.8z M1178.1,102.2c-0.1,0-0.1,0-0.2,0c-2.2-0.6-4.4-1.3-6.7-1.9c-0.4-0.1-0.6-0.5-0.5-0.9
	s0.5-0.6,0.9-0.5l0,0c2.3,0.7,4.6,1.3,6.8,1.9c0.4,0.2,0.6,0.6,0.4,1C1178.6,102,1178.4,102.2,1178.1,102.2L1178.1,102.2z
	 M416.2,102.2c-0.1,0-0.2,0-0.3-0.1l-6.3-3.1c-0.4-0.2-0.6-0.6-0.4-1s0.6-0.6,1-0.4c0,0,0,0,0.1,0l6.3,3.1c0.4,0.2,0.5,0.6,0.3,1
	C416.7,102.1,416.4,102.2,416.2,102.2L416.2,102.2z M839.3,101.1c-0.4,0-0.8-0.3-0.8-0.7c0-0.4,0.2-0.7,0.6-0.7
	c2.3-0.6,4.5-1.2,6.8-1.8c0.4-0.1,0.8,0.1,0.9,0.5c0.1,0.4-0.1,0.8-0.5,0.9c-2.2,0.6-4.5,1.1-6.8,1.8L839.3,101.1z M1287.1,99.7
	c-0.3,0-0.6-0.2-0.7-0.5c-0.8-2.2-1.5-4.5-2.1-6.8c-0.1-0.4,0.2-0.8,0.6-0.9c0.4-0.1,0.8,0.2,0.9,0.6l0,0c0.5,2.2,1.2,4.4,2,6.6
	c0.1,0.4-0.1,0.8-0.5,1C1287.3,99.7,1287.2,99.7,1287.1,99.7L1287.1,99.7z M1355.1,99c-0.1,0-0.2,0-0.2,0c-0.4-0.1-0.6-0.5-0.5-0.9
	c0,0,0,0,0-0.1c0.7-2.2,1.3-4.4,1.7-6.7c0.1-0.4,0.5-0.7,0.9-0.6c0.4,0.1,0.7,0.5,0.6,0.9l0,0c-0.4,2.3-1,4.6-1.7,6.9
	C1355.7,98.7,1355.5,98.9,1355.1,99L1355.1,99z M1164.5,98.5h-0.2c-2.2-0.6-4.5-1.2-6.8-1.8c-0.4-0.1-0.7-0.5-0.6-0.9
	s0.5-0.7,0.9-0.6c0,0,0.1,0,0.1,0c2.3,0.6,4.6,1.2,6.8,1.8c0.4,0.1,0.6,0.6,0.4,1C1165.1,98.3,1164.8,98.5,1164.5,98.5L1164.5,98.5z
	 M852.9,97.7c-0.4,0-0.8-0.3-0.8-0.7c0-0.4,0.2-0.7,0.6-0.7c2.3-0.6,4.6-1.1,6.8-1.6c0.4-0.1,0.8,0.2,0.9,0.6
	c0.1,0.4-0.2,0.8-0.5,0.9c-2.3,0.5-4.5,1.1-6.8,1.6L852.9,97.7z M403.6,96c-0.1,0-0.2,0-0.3-0.1l-6.2-3.2c-0.4-0.2-0.5-0.6-0.3-1
	c0.2-0.4,0.6-0.5,1-0.3l6.2,3.1c0.4,0.2,0.5,0.6,0.3,1C404.2,95.9,403.9,96,403.6,96L403.6,96z M1150.9,95h-0.2
	c-2.2-0.5-4.5-1.1-6.8-1.6c-0.4-0.1-0.7-0.5-0.6-0.9s0.5-0.7,0.9-0.6c0,0,0,0,0.1,0c2.3,0.5,4.6,1.1,6.8,1.6
	c0.4,0.1,0.7,0.5,0.6,0.9C1151.6,94.8,1151.4,95,1150.9,95L1150.9,95z M866.5,94.5c-0.4,0-0.7-0.3-0.7-0.8c0-0.3,0.2-0.6,0.6-0.7
	c2.3-0.5,4.6-1,6.8-1.5c0.4-0.1,0.8,0.2,0.9,0.6c0.1,0.4-0.2,0.8-0.6,0.9l0,0c-2.3,0.5-4.5,1-6.8,1.5L866.5,94.5z M1137.3,91.9h-0.2
	c-2.2-0.5-4.5-1-6.8-1.5c-0.4-0.1-0.7-0.5-0.6-0.9s0.5-0.7,0.9-0.6c2.3,0.5,4.6,1,6.9,1.5c0.4,0.1,0.7,0.5,0.6,0.9
	C1138,91.6,1137.7,91.9,1137.3,91.9L1137.3,91.9z M880.3,91.6c-0.4,0-0.8-0.3-0.8-0.7c0-0.4,0.3-0.7,0.6-0.8
	c2.3-0.5,4.6-0.9,6.9-1.4c0.4-0.1,0.8,0.1,0.9,0.5c0.1,0.4-0.1,0.8-0.5,0.9c0,0-0.1,0-0.1,0c-2.3,0.4-4.6,0.9-6.9,1.4L880.3,91.6
	L880.3,91.6z M391.2,89.7c-0.1,0-0.3,0-0.4-0.1l-6.2-3.2c-0.4-0.2-0.5-0.6-0.4-1c0.2-0.4,0.6-0.5,1-0.4c0,0,0,0,0.1,0l6.2,3.2
	c0.4,0.1,0.6,0.6,0.4,1C391.8,89.5,391.5,89.7,391.2,89.7z M1123.7,89.1h-0.1c-2.3-0.4-4.6-0.9-6.9-1.3c-0.4-0.1-0.7-0.5-0.6-0.9
	c0.1-0.4,0.5-0.7,0.9-0.6c2.3,0.4,4.6,0.9,6.9,1.3c0.4,0.1,0.7,0.5,0.6,0.9C1124.3,88.8,1124,89.1,1123.7,89.1L1123.7,89.1z
	 M894,88.9c-0.4,0-0.8-0.3-0.8-0.7c0-0.4,0.3-0.7,0.6-0.7c2.3-0.4,4.6-0.8,6.9-1.2c0.4-0.1,0.8,0.2,0.9,0.6s-0.2,0.8-0.6,0.9
	c-2.3,0.4-4.6,0.8-6.9,1.2L894,88.9L894,88.9z M1109.8,86.6h-0.1c-2.3-0.4-4.6-0.8-6.9-1.1c-0.4-0.1-0.7-0.5-0.6-0.9
	c0.1-0.4,0.4-0.6,0.8-0.6c2.3,0.4,4.6,0.7,6.9,1.1c0.4,0.1,0.7,0.5,0.6,0.9C1110.5,86.3,1110.2,86.6,1109.8,86.6z M907.8,86.5
	c-0.4,0-0.7-0.3-0.7-0.8c0-0.4,0.3-0.7,0.6-0.7c2.3-0.4,4.6-0.7,6.9-1.1c0.4,0,0.8,0.3,0.8,0.7c0,0.4-0.2,0.7-0.6,0.8
	c-2.3,0.3-4.6,0.7-6.9,1.1L907.8,86.5L907.8,86.5z M1284,86.2c-0.4,0-0.7-0.3-0.8-0.7c-0.1-1.4-0.2-2.8-0.2-4.1c0-1,0-2,0.1-3
	c0-0.4,0.4-0.7,0.8-0.7c0.4,0,0.7,0.4,0.7,0.8c0,0,0,0,0,0c-0.1,0.9-0.1,1.9-0.1,2.9c0,1.3,0.1,2.6,0.2,4
	C1284.8,85.7,1284.5,86.1,1284,86.2L1284,86.2L1284,86.2z M1357.6,85.2L1357.6,85.2c-0.4,0-0.7-0.4-0.7-0.8c0,0,0,0,0,0
	c0-0.5,0-0.9,0-1.4c0-1.8-0.1-3.7-0.3-5.5c-0.1-0.4,0.2-0.8,0.6-0.8c0.4-0.1,0.8,0.2,0.8,0.6c0,0,0,0,0,0c0.2,1.9,0.3,3.8,0.3,5.6
	c0,0.5,0,1,0,1.4C1358.4,84.9,1358,85.2,1357.6,85.2C1357.6,85.2,1357.6,85.2,1357.6,85.2L1357.6,85.2z M921.7,84.4
	c-0.4,0-0.7-0.4-0.7-0.8c0-0.4,0.3-0.7,0.6-0.7c2.3-0.3,4.6-0.6,6.9-0.9c0.4-0.1,0.8,0.2,0.8,0.6c0.1,0.4-0.2,0.8-0.7,0.8
	c-2.3,0.3-4.6,0.6-6.9,0.9L921.7,84.4L921.7,84.4z M1096.1,84.4h-0.1c-2.3-0.3-4.6-0.7-6.9-1c-0.4-0.1-0.7-0.4-0.6-0.8
	c0.1-0.4,0.4-0.7,0.8-0.6c2.3,0.3,4.7,0.6,6.9,1c0.4,0.1,0.7,0.4,0.6,0.9C1096.8,84.1,1096.4,84.4,1096.1,84.4L1096.1,84.4z
	 M378.9,83.3c-0.1,0-0.2,0-0.4-0.1l-6.2-3.2c-0.4-0.2-0.5-0.7-0.3-1c0.2-0.3,0.6-0.5,1-0.3l6.2,3.2c0.4,0.2,0.5,0.6,0.3,1
	C379.4,83.2,379.1,83.3,378.9,83.3z M935.6,82.6c-0.4,0-0.8-0.3-0.8-0.7c0-0.4,0.3-0.8,0.7-0.8c2.3-0.3,4.7-0.5,7-0.8
	c0.4,0,0.8,0.3,0.8,0.7c0,0.4-0.3,0.7-0.6,0.8c-2.3,0.2-4.6,0.5-7,0.8L935.6,82.6L935.6,82.6z M1082.2,82.5L1082.2,82.5
	c-2.4-0.3-4.7-0.5-7-0.8c-0.4,0-0.7-0.4-0.7-0.8c0-0.4,0.4-0.7,0.8-0.7c0,0,0,0,0,0c2.3,0.3,4.7,0.5,7,0.8c0.4,0.1,0.7,0.4,0.6,0.8
	C1082.9,82.3,1082.6,82.6,1082.2,82.5L1082.2,82.5z M949.5,81.1c-0.4,0-0.8-0.3-0.8-0.7c0-0.4,0.3-0.8,0.7-0.8
	c2.3-0.2,4.7-0.4,7-0.6c0.4,0,0.8,0.3,0.8,0.7c0,0.4-0.3,0.7-0.6,0.7C954.2,80.7,951.9,80.9,949.5,81.1L949.5,81.1L949.5,81.1z
	 M1068.3,81L1068.3,81c-2.4-0.2-4.7-0.4-7.1-0.6c-0.4,0-0.7-0.3-0.7-0.8c0-0.4,0.3-0.7,0.8-0.7c0,0,0.1,0,0.1,0
	c2.3,0.2,4.7,0.4,7,0.6c0.4,0.1,0.7,0.4,0.6,0.9C1068.9,80.7,1068.6,81,1068.3,81L1068.3,81z M963.4,79.9c-0.4,0-0.8-0.3-0.8-0.7
	c0-0.4,0.3-0.8,0.7-0.8c2.3-0.2,4.7-0.3,7-0.5c0.4,0,0.8,0.3,0.8,0.7s-0.3,0.8-0.7,0.8C968.1,79.6,965.8,79.8,963.4,79.9L963.4,79.9
	L963.4,79.9z M1054.3,79.8L1054.3,79.8c-2.4-0.2-4.7-0.3-7.1-0.5c-0.4,0-0.7-0.4-0.7-0.8c0-0.4,0.4-0.7,0.8-0.7
	c2.4,0.1,4.7,0.3,7,0.5c0.4,0.1,0.7,0.5,0.6,0.9C1054.9,79.5,1054.6,79.8,1054.3,79.8L1054.3,79.8z M977.4,79.1
	c-0.4,0-0.8-0.3-0.8-0.8s0.3-0.8,0.8-0.8c2.3-0.1,4.7-0.2,7-0.3c0.4,0,0.8,0.3,0.8,0.7c0,0,0,0,0,0c0,0.4-0.3,0.8-0.7,0.8
	c0,0,0,0,0,0C982.1,78.8,979.8,78.9,977.4,79.1L977.4,79.1L977.4,79.1z M1040.4,78.9L1040.4,78.9c-2.3-0.1-4.6-0.2-7-0.3
	c-0.4,0-0.7-0.4-0.7-0.8s0.4-0.7,0.8-0.7l0,0c2.4,0.1,4.7,0.2,7,0.3c0.4,0,0.7,0.4,0.7,0.8S1040.8,79,1040.4,78.9L1040.4,78.9z
	 M991.4,78.5c-0.4,0-0.8-0.3-0.8-0.8s0.3-0.8,0.8-0.8c2.4-0.1,4.7-0.1,7-0.2c0.4,0,0.7,0.3,0.8,0.7c0,0,0,0,0,0
	c0,0.4-0.3,0.8-0.7,0.8c0,0,0,0,0,0C996.1,78.3,993.8,78.4,991.4,78.5L991.4,78.5L991.4,78.5z M1026.4,78.4L1026.4,78.4
	c-2.3-0.1-4.6-0.1-7-0.1c-0.4,0-0.8-0.3-0.8-0.8s0.3-0.8,0.8-0.8l0,0c2.4,0,4.7,0.1,7,0.1c0.4,0,0.7,0.3,0.7,0.8
	S1026.8,78.4,1026.4,78.4L1026.4,78.4z M1005.4,78.2c-0.4,0-0.8-0.3-0.8-0.8s0.3-0.8,0.8-0.8h4.8h2.3c0.4,0,0.8,0.3,0.8,0.8
	s-0.3,0.8-0.8,0.8h-2.2H1005.4L1005.4,78.2L1005.4,78.2z M366.4,76.8c-0.1,0-0.2,0-0.4-0.1l-6.2-3.2c-0.4-0.2-0.5-0.6-0.3-1
	c0.2-0.4,0.6-0.5,1-0.3l0,0l6.2,3.2c0.4,0.2,0.5,0.7,0.3,1C366.9,76.7,366.7,76.8,366.4,76.8L366.4,76.8z M1285.1,72.3
	c-0.4,0-0.8-0.3-0.8-0.7c0-0.1,0-0.2,0-0.3c0.7-2.3,1.8-4.5,3.1-6.5c0.2-0.3,0.7-0.4,1-0.2c0.3,0.2,0.4,0.7,0.2,1l0,0
	c-1.2,1.9-2.2,4-2.9,6.1C1285.8,72.1,1285.5,72.3,1285.1,72.3L1285.1,72.3z M1355.9,71.3c-0.3,0-0.6-0.2-0.7-0.6
	c-0.6-2.2-1.4-4.4-2.4-6.4c-0.2-0.4,0-0.8,0.3-1s0.8,0,1,0.3l0,0c1,2.1,1.9,4.4,2.5,6.7c0.1,0.4-0.1,0.8-0.5,0.9L1355.9,71.3z
	 M353.9,70.3c-0.1,0-0.2,0-0.4-0.1l-6.2-3.2c-0.4-0.2-0.5-0.7-0.3-1c0.2-0.3,0.6-0.5,1-0.3l6.2,3.2c0.4,0.2,0.5,0.6,0.4,1
	C354.5,70.1,354.3,70.3,353.9,70.3L353.9,70.3z M341.5,63.8c-0.1,0-0.2,0-0.4-0.1l-6.2-3.2c-0.4-0.2-0.5-0.6-0.4-1
	c0.2-0.4,0.6-0.5,1-0.4c0,0,0,0,0.1,0l6.2,3.2c0.4,0.2,0.5,0.6,0.4,1C342.1,63.7,341.9,63.8,341.5,63.8L341.5,63.8z M1292.6,60.7
	c-0.4,0-0.8-0.3-0.8-0.7c0-0.2,0.1-0.4,0.3-0.6c1.8-1.6,3.7-3,5.8-4.1c0.4-0.2,0.8-0.1,1,0.3c0.2,0.4,0.1,0.8-0.3,1
	c-2,1.1-3.9,2.4-5.6,3.9C1293,60.6,1292.9,60.7,1292.6,60.7L1292.6,60.7z M1349.7,58.9c-0.2,0-0.4-0.1-0.6-0.3
	c-1.4-1.8-3-3.4-4.9-4.7c-0.3-0.2-0.4-0.7-0.2-1.1c0.2-0.3,0.7-0.4,1.1-0.1c1.9,1.4,3.6,3.1,5.1,5c0.3,0.3,0.2,0.8-0.1,1.1
	C1350.1,58.8,1349.9,58.9,1349.7,58.9L1349.7,58.9z M329.2,57.4c-0.1,0-0.2,0-0.3-0.1l-6.2-3.2c-0.4-0.2-0.5-0.6-0.3-1
	c0.2-0.4,0.6-0.5,1-0.3l6.2,3.2c0.4,0.2,0.5,0.7,0.3,1C329.7,57.3,329.4,57.4,329.2,57.4z M1304.7,53.7c-0.4,0-0.7-0.3-0.7-0.8
	c0-0.3,0.2-0.6,0.5-0.7c2.2-1,4.5-1.8,6.6-2.5c0.4-0.1,0.8,0.1,0.9,0.5c0.1,0.4-0.1,0.8-0.5,0.9c-2.1,0.7-4.3,1.5-6.5,2.4
	C1304.9,53.7,1304.8,53.7,1304.7,53.7z M316.7,51.1c-0.1,0-0.2,0-0.3-0.1l-6.3-3.1c-0.4-0.2-0.6-0.6-0.4-1c0.2-0.4,0.6-0.6,1-0.4
	c0,0,0,0,0.1,0l6.3,3.1c0.4,0.2,0.5,0.7,0.3,1C317.2,50.9,317,51.1,316.7,51.1L316.7,51.1z M1338.7,50.6c-0.1,0-0.2,0-0.3,0
	c-2.1-0.8-4.3-1.4-6.6-1.7c-0.4,0-0.7-0.4-0.7-0.8s0.4-0.7,0.8-0.7c0,0,0.1,0,0.1,0c2.4,0.3,4.7,0.9,6.9,1.8c0.4,0.2,0.5,0.6,0.3,1
	C1339.2,50.4,1338.9,50.6,1338.7,50.6L1338.7,50.6z M1318,49.4c-0.4,0-0.8-0.3-0.8-0.7c0-0.4,0.3-0.7,0.6-0.8c2.3-0.5,4.6-0.8,7-0.9
	c0.4,0,0.8,0.3,0.8,0.7c0,0,0,0,0,0c0,0.4-0.3,0.8-0.7,0.8c0,0,0,0,0,0c-2.3,0.1-4.6,0.4-6.8,0.9L1318,49.4L1318,49.4z M304.1,44.9
	c-0.1,0-0.2,0-0.3-0.1c-2.1-1-4.2-2-6.3-3c-0.4-0.2-0.5-0.7-0.3-1c0.2-0.3,0.6-0.5,1-0.3l6.3,3c0.4,0.2,0.5,0.6,0.4,1
	C304.7,44.7,304.4,44.9,304.1,44.9z M291.5,38.9c-0.1,0-0.2,0-0.3-0.1c-2.1-1-4.2-2-6.4-2.9c-0.4-0.2-0.5-0.6-0.4-1
	c0.2-0.4,0.6-0.5,1-0.4c2.1,1,4.2,1.9,6.4,2.9c0.4,0.2,0.5,0.6,0.3,1C292,38.7,291.8,38.8,291.5,38.9L291.5,38.9z M278.8,33.1
	c-0.1,0-0.2,0-0.3-0.1c-2.1-0.9-4.3-1.9-6.4-2.8c-0.4-0.2-0.6-0.6-0.4-1c0.2-0.4,0.6-0.6,1-0.4l0,0c2.1,0.9,4.3,1.8,6.4,2.8
	c0.4,0.2,0.6,0.6,0.4,1C279.3,32.9,279,33,278.8,33.1L278.8,33.1z M0.8,30.8c-0.4,0-0.7-0.3-0.7-0.8c0-0.3,0.2-0.6,0.4-0.7
	c2.1-1,4.3-1.9,6.4-2.8c0.4-0.2,0.8,0,1,0.4c0.2,0.4,0,0.8-0.4,1l0,0c-2.1,0.9-4.3,1.8-6.4,2.8C1,30.8,0.9,30.8,0.8,30.8z
	 M265.9,27.5c-0.1,0-0.2,0-0.3-0.1c-2.2-0.9-4.3-1.8-6.5-2.6c-0.4-0.2-0.5-0.6-0.3-1c0.2-0.3,0.5-0.5,0.9-0.4
	c2.2,0.9,4.3,1.7,6.5,2.6c0.4,0.2,0.6,0.6,0.4,1C266.4,27.3,266.1,27.5,265.9,27.5z M13.6,25.3c-0.4,0-0.8-0.3-0.8-0.7
	c0-0.3,0.2-0.6,0.5-0.7c2.2-0.9,4.4-1.7,6.5-2.5c0.4-0.2,0.8,0,1,0.4c0.2,0.4,0,0.8-0.4,1c0,0-0.1,0-0.1,0c-2.2,0.8-4.4,1.7-6.5,2.5
	C13.8,25.3,13.7,25.3,13.6,25.3z M252.9,22.3c-0.1,0-0.2,0-0.3,0c-2.2-0.8-4.4-1.6-6.6-2.4c-0.4-0.1-0.6-0.6-0.5-0.9
	c0.1-0.4,0.6-0.6,0.9-0.5c0,0,0,0,0,0c2.2,0.8,4.4,1.6,6.6,2.4c0.4,0.2,0.5,0.6,0.4,1C253.4,22.2,253.1,22.3,252.9,22.3L252.9,22.3z
	 M26.7,20.4c-0.4,0-0.8-0.3-0.8-0.7c0-0.3,0.2-0.6,0.5-0.7c2.2-0.8,4.4-1.5,6.7-2.2c0.4-0.1,0.8,0.1,0.9,0.5
	c0.1,0.4-0.1,0.8-0.5,0.9c-2.2,0.7-4.4,1.5-6.6,2.2C26.9,20.4,26.8,20.4,26.7,20.4z M239.7,17.6c-0.1,0-0.2,0-0.2,0
	c-2.2-0.8-4.4-1.5-6.6-2.2c-0.4-0.1-0.6-0.6-0.5-0.9s0.6-0.6,0.9-0.5l0,0c2.2,0.7,4.4,1.4,6.7,2.2c0.4,0.2,0.5,0.6,0.3,1
	C240.2,17.4,240,17.6,239.7,17.6L239.7,17.6z M40,16.1c-0.4,0-0.8-0.3-0.8-0.7c0-0.4,0.2-0.7,0.6-0.7c2.2-0.7,4.5-1.3,6.7-2
	c0.4-0.1,0.8,0.1,0.9,0.5S47.4,13.9,47,14l0,0c-2.3,0.6-4.5,1.3-6.7,2C40.2,16,40.1,16.1,40,16.1z M226.4,13.3c-0.1,0-0.1,0-0.2,0
	c-2.2-0.7-4.5-1.3-6.7-1.9c-0.4-0.1-0.6-0.5-0.5-0.9c0.1-0.4,0.5-0.6,0.9-0.5l0,0c2.2,0.6,4.5,1.3,6.7,1.9c0.4,0.2,0.6,0.6,0.4,1
	C226.9,13.1,226.6,13.3,226.4,13.3z M53.5,12.3c-0.4,0-0.8-0.3-0.8-0.7c0-0.4,0.2-0.7,0.6-0.7c2.2-0.6,4.5-1.1,6.8-1.7
	c0.4-0.2,0.8,0,1,0.3c0.2,0.4,0,0.8-0.3,1c-0.1,0.1-0.2,0.1-0.3,0.1c-2.3,0.5-4.6,1.1-6.8,1.7L53.5,12.3z M212.9,9.6h-0.2
	c-2.3-0.6-4.6-1.1-6.8-1.6c-0.4-0.1-0.6-0.5-0.5-0.9c0.1-0.4,0.5-0.6,0.8-0.5c2.2,0.5,4.6,1.1,6.8,1.6c0.4,0.1,0.6,0.6,0.4,1
	C213.4,9.4,213.1,9.6,212.9,9.6z M67.2,9.1c-0.4,0-0.7-0.3-0.7-0.8c0-0.3,0.2-0.6,0.6-0.7c2.3-0.5,4.6-0.9,6.9-1.4
	c0.4-0.1,0.8,0.1,0.9,0.5c0.1,0.4-0.1,0.8-0.5,0.9c0,0-0.1,0-0.1,0c-2.3,0.4-4.6,0.9-6.8,1.4L67.2,9.1z M199.2,6.5h-0.1
	c-2.3-0.4-4.6-0.9-6.9-1.3c-0.4-0.1-0.7-0.5-0.6-0.9c0.1-0.4,0.5-0.7,0.9-0.6c2.3,0.4,4.6,0.8,6.9,1.3c0.4,0.1,0.6,0.5,0.5,0.9
	C199.8,6.3,199.5,6.5,199.2,6.5z M80.9,6.5c-0.4,0-0.7-0.3-0.7-0.8c0-0.4,0.3-0.7,0.6-0.7c2.3-0.4,4.6-0.8,6.9-1.1
	c0.4,0,0.8,0.3,0.8,0.7c0,0.4-0.2,0.7-0.6,0.8c-2.3,0.3-4.6,0.7-6.9,1.1L80.9,6.5L80.9,6.5z M94.7,4.5c-0.4,0-0.7-0.4-0.7-0.8
	C94,3.3,94.3,3,94.7,3c2.3-0.3,4.7-0.6,7-0.8c0.4,0,0.8,0.3,0.8,0.7c0,0.4-0.3,0.7-0.6,0.8c-2.3,0.2-4.6,0.5-6.9,0.8H94.7L94.7,4.5z
	 M185.4,4.2h-0.1c-2.3-0.3-4.6-0.6-6.9-0.9c-0.4,0-0.7-0.4-0.7-0.8c0-0.4,0.4-0.7,0.8-0.7c0,0,0,0,0,0c2.3,0.2,4.6,0.6,6.9,0.9
	c0.4,0.1,0.6,0.5,0.5,0.9C186,3.9,185.7,4.1,185.4,4.2L185.4,4.2z M108.7,3c-0.4,0-0.8-0.3-0.8-0.7c0-0.4,0.3-0.8,0.7-0.8
	c2.3-0.2,4.7-0.4,7-0.6c0.4,0,0.8,0.3,0.8,0.7c0,0.4-0.3,0.8-0.7,0.8C113.4,2.6,111,2.8,108.7,3L108.7,3L108.7,3z M171.6,2.6
	L171.6,2.6l-3.5-0.2l-3.5-0.2c-0.4,0-0.7-0.4-0.7-0.8c0-0.4,0.4-0.7,0.8-0.7l3.5,0.2l3.5,0.3c0.4,0.1,0.6,0.5,0.5,0.9
	C172,2.3,171.8,2.5,171.6,2.6z M122.6,1.9c-0.4,0-0.8-0.3-0.8-0.8s0.3-0.8,0.8-0.8c2.3-0.1,4.6-0.2,7-0.3c0.4,0,0.8,0.3,0.8,0.7
	c0,0,0,0,0,0c0,0.4-0.3,0.8-0.7,0.8c0,0,0,0,0,0C127.3,1.7,124.9,1.8,122.6,1.9L122.6,1.9L122.6,1.9z M157.6,1.8L157.6,1.8
	c-2.3-0.1-4.7-0.2-7-0.2c-0.4,0-0.7-0.3-0.7-0.7c0-0.4,0.4-0.7,0.8-0.7c2.3,0.1,4.7,0.1,7,0.2c0.4,0,0.7,0.3,0.7,0.8
	C158.4,1.5,158,1.8,157.6,1.8L157.6,1.8z M136.6,1.5c-0.4,0-0.8-0.3-0.8-0.8s0.3-0.8,0.8-0.8c1.7,0,3.4,0,5.2,0h1.9
	c0.4,0,0.8,0.3,0.8,0.8s-0.3,0.8-0.8,0.8h-1.9C140,1.5,138.3,1.5,136.6,1.5L136.6,1.5L136.6,1.5z"/>
</svg>
