<svg xmlns="http://www.w3.org/2000/svg" viewBox="0 0 1194.8 419.35"><defs><style>.a{fill:#fce338;}</style></defs><title>line-banner-discussion-header</title><path class="a" d="M374.9,33.87c-2.2-.81-4.45-1.55-6.69-2.21a0.75,0.75,0,1,0-.42,1.44c2.22,0.65,4.43,1.38,6.6,2.17A0.75,0.75,0,0,0,374.9,33.87Z" transform="translate(0 1)"/><path class="a" d="M389.07,133.61a0.75,0.75,0,0,0,.7-0.75,39.36,39.36,0,0,1,.61-6.82,0.75,0.75,0,0,0-1.48-.27,40.83,40.83,0,0,0-.64,7.08h0a0.75,0.75,0,0,0,.75.75h0.05Z" transform="translate(0 1)"/><path class="a" d="M387.48,40.94h0a0.75,0.75,0,0,0,.32-1.42c-2.09-1.08-4.23-2.1-6.36-3a0.75,0.75,0,1,0-.6,1.38c2.1,0.92,4.24,1.92,6.27,3A0.75,0.75,0,0,0,387.48,40.94Z" transform="translate(0 1)"/><path class="a" d="M394,153.08V153a0.75,0.75,0,1,0-1.4.56v0.1a25.42,25.42,0,0,0,3.49,6.16,0.75,0.75,0,0,0,.62.29l0,0a0.75,0.75,0,0,0,.54-1.26A23.92,23.92,0,0,1,394,153.08Z" transform="translate(0 1)"/><path class="a" d="M390.26,139.68a0.75,0.75,0,0,0-1.48.22,57,57,0,0,0,1.49,7,0.75,0.75,0,0,0,.75.55l0.17-.06h0a0.75,0.75,0,0,0,.52-0.92A55.6,55.6,0,0,1,390.26,139.68Z" transform="translate(0 1)"/><path class="a" d="M404.26,103a0.77,0.77,0,1,0-1-1.13,50.8,50.8,0,0,0-5,5,0.75,0.75,0,0,0,.58,1.24h0a0.75,0.75,0,0,0,.57-0.27A49.34,49.34,0,0,1,404.26,103Z" transform="translate(0 1)"/><polygon class="a" points="271.86 41.66 271.86 41.66 271.86 41.66 271.86 41.66"/><path class="a" d="M291.8,33.25c-2.2.57-4.48,1.18-6.77,1.84a0.75,0.75,0,0,0,.22,1.47l0.18,0c2.28-.65,4.56-1.27,6.74-1.83A0.75,0.75,0,0,0,291.8,33.25Z" transform="translate(0 1)"/><path class="a" d="M305.5,30.16c-2.24.43-4.56,0.91-6.87,1.44a0.75,0.75,0,0,0,.18,1.49v0H299c2.31-.51,4.6-1,6.82-1.43A0.75,0.75,0,0,0,305.5,30.16Z" transform="translate(0 1)"/><path class="a" d="M278.29,37.07q-3.34,1-6.68,2.12a0.75,0.75,0,0,0,.25,1.46,0.76,0.76,0,0,0,.21,0q3.34-1.09,6.66-2.11A0.75,0.75,0,1,0,278.29,37.07Z" transform="translate(0 1)"/><path class="a" d="M347.54,27.67c-2.3-.23-4.66-0.38-7-0.48a0.75,0.75,0,0,0-.06,1.5c2.32,0.1,4.66.25,6.94,0.47h0.09A0.75,0.75,0,0,0,347.54,27.67Z" transform="translate(0 1)"/><path class="a" d="M496.72,76.48c-2.36.07-4.72,0.18-7,.3a0.75,0.75,0,0,0,0,1.5c2.29-.12,4.64-0.24,7-0.3A0.75,0.75,0,1,0,496.72,76.48Z" transform="translate(0 1)"/><path class="a" d="M333.43,27.11c-2.28,0-4.63.14-7,.29a0.75,0.75,0,1,0,0,1.5c2.38-.17,4.71-0.23,7-0.29A0.75,0.75,0,0,0,333.43,27.11Z" transform="translate(0 1)"/><path class="a" d="M319.36,28c-2.28.25-4.63,0.57-7,.93a0.75,0.75,0,0,0,.13,1.49h0.11c2.33-.35,4.65-0.67,6.91-0.92h0.11A0.75,0.75,0,0,0,319.36,28Z" transform="translate(0 1)"/><path class="a" d="M392.28,119.49a37.3,37.3,0,0,1,3-6.09,0.75,0.75,0,0,0-1.28-.79,38.8,38.8,0,0,0-3.16,6.38,0.75,0.75,0,0,0,.72,1v0A0.75,0.75,0,0,0,392.28,119.49Z" transform="translate(0 1)"/><path class="a" d="M463,141.9a0.75,0.75,0,0,0-.85.63,32,32,0,0,1-1.7,6.61,0.75,0.75,0,0,0,.72,1h0.05a0.75,0.75,0,0,0,.61-0.47,33.57,33.57,0,0,0,1.81-6.91A0.75,0.75,0,0,0,463,141.9Z" transform="translate(0 1)"/><path class="a" d="M460.84,122.7l0.2,0h0a0.75,0.75,0,0,0,.49-0.94c-0.67-2.15-1.5-4.38-2.44-6.63a0.75,0.75,0,1,0-1.38.58c0.93,2.2,1.74,4.38,2.4,6.5A0.75,0.75,0,0,0,460.84,122.7Z" transform="translate(0 1)"/><path class="a" d="M458.43,154.88a0.75,0.75,0,0,0-1,.25,30.7,30.7,0,0,1-4.4,5.2,0.75,0.75,0,0,0,1,1.09,32.2,32.2,0,0,0,4.61-5.46l0-.06A0.75,0.75,0,0,0,458.43,154.88Z" transform="translate(0 1)"/><path class="a" d="M482.69,77.19c-2.36.17-4.7,0.38-7,.6a0.75,0.75,0,1,0,.09,1.5h0c2.29-.22,4.64-0.43,7-0.6a0.75,0.75,0,0,0,.69-0.8A0.76,0.76,0,0,0,482.69,77.19Z" transform="translate(0 1)"/><path class="a" d="M444.82,90.88a0.75,0.75,0,0,0-1.21.89c1.41,1.9,2.77,3.82,4,5.68a0.75,0.75,0,0,0,.64.33v0a0.75,0.75,0,0,0,.62-1.14C447.61,94.72,446.24,92.84,444.82,90.88Z" transform="translate(0 1)"/><path class="a" d="M462.35,128a0.75,0.75,0,0,0-.62.86,46.34,46.34,0,0,1,.78,6.83,0.75,0.75,0,0,0,.77.72h0a0.75,0.75,0,0,0,.72-0.78,47.83,47.83,0,0,0-.8-7.06A0.75,0.75,0,0,0,462.35,128Z" transform="translate(0 1)"/><path class="a" d="M468.8,78.53c-2.37.29-4.71,0.61-7,1A0.75,0.75,0,0,0,462,81h0.11c2.26-.35,4.58-0.67,6.92-1A0.75,0.75,0,0,0,468.8,78.53Z" transform="translate(0 1)"/><path class="a" d="M428.27,89.43a0.75,0.75,0,0,0-.53-1.41c-2.25.85-4.44,1.76-6.51,2.7a0.75,0.75,0,0,0,.33,1.43v0a0.75,0.75,0,0,0,.3,0C423.89,91.16,426.05,90.27,428.27,89.43Z" transform="translate(0 1)"/><polygon class="a" points="421.18 173.08 421.16 173.08 421.16 173.08 421.18 173.08"/><path class="a" d="M415.87,94.21a0.75,0.75,0,0,0-1-.34c-2.09,1.17-4.15,2.4-6,3.69a0.75,0.75,0,0,0,.45,1.37l0,0a0.75,0.75,0,0,0,.36-0.11c1.84-1.25,3.82-2.47,5.9-3.61A0.75,0.75,0,0,0,415.87,94.21Z" transform="translate(0 1)"/><path class="a" d="M421.22,170.59a42.43,42.43,0,0,1-6.78-1.11,0.75,0.75,0,0,0-.37,1.45,44,44,0,0,0,7,1.16h0.06A0.75,0.75,0,0,0,421.22,170.59Z" transform="translate(0 1)"/><path class="a" d="M447.61,164.56a38.57,38.57,0,0,1-6.13,3.09,0.75,0.75,0,0,0,.3,1.44h0A0.75,0.75,0,0,0,442,169a40.09,40.09,0,0,0,6.37-3.18A0.75,0.75,0,0,0,447.61,164.56Z" transform="translate(0 1)"/><path class="a" d="M439.36,86.19a0.75,0.75,0,0,0,1.25-.81l0.94-.26a0.75,0.75,0,1,0-.39-1.45l-1.57.42c-1.15-1.41-2.35-2.83-3.57-4.24a0.75,0.75,0,0,0-1.13,1l3.1,3.72c-1.23.36-2.43,0.73-3.61,1.1a0.75,0.75,0,0,0,.25,1.46,0.74,0.74,0,0,0,.24,0c1.36-.43,2.76-0.85,4.19-1.25Z" transform="translate(0 1)"/><path class="a" d="M408,167.2a30.87,30.87,0,0,1-5.85-3.5,0.75,0.75,0,1,0-.91,1.2,32.35,32.35,0,0,0,6.1,3.67,0.75,0.75,0,0,0,.33.07h0A0.75,0.75,0,0,0,408,167.2Z" transform="translate(0 1)"/><path class="a" d="M435,169.66a45.71,45.71,0,0,1-6.82,1,0.75,0.75,0,1,0,0,1.5h0.07a47.24,47.24,0,0,0,7-1l0.07,0A0.75,0.75,0,0,0,435,169.66Z" transform="translate(0 1)"/><path class="a" d="M361.4,29.93c-2.28-.52-4.6-1-6.92-1.33l-0.1,0a0.75,0.75,0,0,0-.14,1.49c2.29,0.37,4.58.8,6.83,1.31h0.18A0.75,0.75,0,0,0,361.4,29.93Z" transform="translate(0 1)"/><path class="a" d="M265,41.43q-3.31,1.14-6.62,2.32a0.75,0.75,0,0,0,.27,1.45,0.74,0.74,0,0,0,.24,0q3.3-1.22,6.6-2.31A0.75,0.75,0,0,0,265,41.43Z" transform="translate(0 1)"/><path class="a" d="M18,21.73a0.75,0.75,0,0,0-1.15,1c1.5,1.81,3,3.62,4.54,5.35a0.75,0.75,0,0,0,1.13-1C21,25.33,19.53,23.54,18,21.73Z" transform="translate(0 1)"/><path class="a" d="M37,42.1a0.75,0.75,0,1,0-1,1.1c1.73,1.62,3.48,3.21,5.21,4.71a0.74,0.74,0,1,0,.95-1.14C40.49,45.28,38.75,43.71,37,42.1Z" transform="translate(0 1)"/><path class="a" d="M47.59,51.24a0.76,0.76,0,0,0-1,1.18c1.84,1.47,3.72,2.9,5.59,4.26a0.76,0.76,0,1,0,.92-1.22C51.28,54.14,49.42,52.7,47.59,51.24Z" transform="translate(0 1)"/><path class="a" d="M9.44,10.71a0.77,0.77,0,1,0-1.26.9c1.41,1.9,2.84,3.77,4.25,5.59a0.77,0.77,0,0,0,1.22-.93C12.27,14.47,10.84,12.6,9.44,10.71Z" transform="translate(0 1)"/><path class="a" d="M77.09,69.47c-2.1-.93-4.24-2-6.26-3h0a0.75,0.75,0,0,0-.67,1.34c2.09,1.08,4.22,2.12,6.34,3.06A0.75,0.75,0,0,0,77.09,69.47Z" transform="translate(0 1)"/><path class="a" d="M64.73,63.05c-2-1.16-4-2.39-5.91-3.67A0.77,0.77,0,1,0,58,60.68c2,1.29,3.94,2.54,6,3.71A0.78,0.78,0,1,0,64.73,63.05Z" transform="translate(0 1)"/><path class="a" d="M27.22,32.21a0.75,0.75,0,1,0-1.1,1c1.6,1.73,3.24,3.43,4.86,5.07A0.76,0.76,0,1,0,32,37.24C30.43,35.61,28.8,33.91,27.22,32.21Z" transform="translate(0 1)"/><path class="a" d="M1.38-.67a0.75,0.75,0,0,0-1-.2,0.75,0.75,0,0,0-.2,1c1.31,1.94,2.66,3.88,4,5.77a0.76,0.76,0,0,0,1.24-.87C4,3.2,2.69,1.3,1.38-.67Z" transform="translate(0 1)"/><path class="a" d="M448.15,83.54h0.14c2.22-.5,4.53-1,6.83-1.4a0.75,0.75,0,0,0-.27-1.47c-2.33.42-4.65,0.9-6.88,1.4A0.75,0.75,0,0,0,448.15,83.54Z" transform="translate(0 1)"/><path class="a" d="M430.23,75.68a0.75,0.75,0,0,0,1.11-1c-1.54-1.68-3.15-3.39-4.81-5.11l-0.09-.1a0.75,0.75,0,1,0-1,1.13C427.13,72.3,428.7,74,430.23,75.68Z" transform="translate(0 1)"/><path class="a" d="M451.62,102.27a0.75,0.75,0,0,0-.26,1c1.23,2,2.33,4.1,3.39,6.07a0.76,0.76,0,0,0,1.34-.7c-1-2-2.2-4.08-3.44-6.15A0.75,0.75,0,0,0,451.62,102.27Z" transform="translate(0 1)"/><path class="a" d="M415.46,60.85q2.5,2.28,5.05,4.79l1-1.1c-1.69-1.65-3.39-3.28-5.07-4.8A0.75,0.75,0,1,0,415.46,60.85Z" transform="translate(0 1)"/><path class="a" d="M393.19,44.22c2,1.16,3.95,2.41,5.88,3.71a0.75,0.75,0,0,0,.84-1.24c-2-1.32-3.92-2.58-6-3.76A0.75,0.75,0,1,0,393.19,44.22Z" transform="translate(0 1)"/><path class="a" d="M410.22,56.28a0.74,0.74,0,0,0,.5.18,0.75,0.75,0,0,0,.46-1.32c-1.81-1.46-3.67-3-5.52-4.36a0.75,0.75,0,0,0-.9,1.19C406.58,53.38,408.42,54.79,410.22,56.28Z" transform="translate(0 1)"/><path class="a" d="M90,74.42c-2.19-.69-4.4-1.46-6.56-2.28a0.75,0.75,0,1,0-.53,1.41c2.19,0.83,4.43,1.61,6.65,2.31a0.75,0.75,0,0,0,.24,0l0.06,0A0.75,0.75,0,0,0,90,74.42Z" transform="translate(0 1)"/><path class="a" d="M185.87,69.83c-2.26.69-4.51,1.35-6.7,2a0.75,0.75,0,0,0,.22,1.47l0.19,0c2.18-.62,4.45-1.28,6.73-2A0.75,0.75,0,1,0,185.87,69.83Z" transform="translate(0 1)"/><path class="a" d="M199.2,65.58l-6.62,2.18a0.75,0.75,0,0,0,.25,1.46,0.76,0.76,0,0,0,.21,0L199.68,67l0.1,0A0.75,0.75,0,0,0,199.2,65.58Z" transform="translate(0 1)"/><path class="a" d="M225.48,56l-6.56,2.46a0.75,0.75,0,0,0,.28,1.45h0a0.74,0.74,0,0,0,.24,0L226,57.42A0.75,0.75,0,0,0,225.48,56Z" transform="translate(0 1)"/><path class="a" d="M212.38,60.89q-3.29,1.2-6.58,2.37a0.75,0.75,0,0,0,.27,1.45h0a0.75,0.75,0,0,0,.24-0.06q3.3-1.17,6.59-2.37l0.05,0A0.75,0.75,0,0,0,212.38,60.89Z" transform="translate(0 1)"/><path class="a" d="M238.58,51.05L232,53.53a0.75,0.75,0,0,0,.29,1.45h0a0.75,0.75,0,0,0,.21-0.06l6.55-2.48A0.75,0.75,0,0,0,238.58,51.05Z" transform="translate(0 1)"/><path class="a" d="M251.74,46.1l-6.57,2.48a0.75,0.75,0,0,0,.27,1.45,0.76,0.76,0,0,0,.24-0.09l6.58-2.44,0.05,0A0.75,0.75,0,0,0,251.74,46.1Z" transform="translate(0 1)"/><polygon class="a" points="245.44 51.03 245.44 51.03 245.44 51.03 245.44 51.03"/><path class="a" d="M152.11,79.42h0Z" transform="translate(0 1)"/><path class="a" d="M131.25,79.86H131c-2.27.06-4.54,0.07-6.75,0h0a0.74,0.74,0,0,0-.75.73v0a0.75,0.75,0,0,0,.73.77c2.24,0,4.54,0,6.83,0h0.21A0.78,0.78,0,1,0,131.25,79.86Z" transform="translate(0 1)"/><path class="a" d="M117.28,79.62c-2.33-.17-4.65-0.4-6.92-0.7a0.75,0.75,0,0,0-.19,1.49c2.32,0.3,4.67.53,7,.71h0.08l0,0A0.75,0.75,0,0,0,117.28,79.62Z" transform="translate(0 1)"/><path class="a" d="M145.16,78.88c-2.33.27-4.66,0.5-6.92,0.67a0.75,0.75,0,0,0,0,1.5h0.07c2.29-.16,4.64-0.4,7-0.67A0.75,0.75,0,0,0,145.16,78.88Z" transform="translate(0 1)"/><path class="a" d="M103.55,77.85c-2.27-.43-4.56-0.94-6.79-1.49l-0.1,0a0.75,0.75,0,1,0-.3,1.47c2.27,0.57,4.57,1.08,6.87,1.51h0.16l0,0A0.75,0.75,0,0,0,103.55,77.85Z" transform="translate(0 1)"/><path class="a" d="M172.45,73.65c-2.29.58-4.57,1.14-6.79,1.64a0.75,0.75,0,0,0,.19,1.49v0H166c2.23-.52,4.52-1.05,6.83-1.65l0.09,0A0.75,0.75,0,0,0,172.45,73.65Z" transform="translate(0 1)"/><path class="a" d="M158.84,76.74c-2.31.42-4.62,0.84-6.87,1.19a0.75,0.75,0,0,0,.1,1.48h0.09c2.32-.33,4.65-0.74,7-1.19A0.75,0.75,0,0,0,158.84,76.74Z" transform="translate(0 1)"/><path class="a" d="M965.95,223.05a0.75,0.75,0,0,0-.79,1.28l6,3.67a0.74,0.74,0,0,0,.41.11,0.75,0.75,0,0,0,.38-1.38Z" transform="translate(0 1)"/><path class="a" d="M1001.32,245.73a0.75,0.75,0,0,0-.84,1.24q2.91,2,5.8,3.91a0.75,0.75,0,0,0,.44.13l0,0a0.75,0.75,0,0,0,.37-1.33Q1004.22,247.65,1001.32,245.73Z" transform="translate(0 1)"/><path class="a" d="M989.61,238a0.75,0.75,0,1,0-.82,1.26l5.86,3.84a0.75,0.75,0,0,0,.43.13l0,0a0.75,0.75,0,0,0,.37-1.35Z" transform="translate(0 1)"/><path class="a" d="M1012.9,253.6a0.75,0.75,0,0,0-.85,1.23q2.89,2,5.75,4a0.75,0.75,0,0,0,.45.14l0,0a0.75,0.75,0,0,0,.36-1.32Z" transform="translate(0 1)"/><path class="a" d="M983.76,234.18l-5.91-3.75a0.75,0.75,0,0,0-.8,1.27l5.9,3.75A0.75,0.75,0,1,0,983.76,234.18Z" transform="translate(0 1)"/><path class="a" d="M1047.05,278.15l-0.1-.08a0.75,0.75,0,0,0-.8,1.27q2.8,2.1,5.58,4.23a0.75,0.75,0,0,0,.47.16l0,0a0.75,0.75,0,0,0,.44-1.32Q1049.85,280.26,1047.05,278.15Z" transform="translate(0 1)"/><path class="a" d="M1024.42,261.63a0.75,0.75,0,1,0-.87,1.22l5.69,4.07a0.74,0.74,0,0,0,.42.14l0,0a0.75,0.75,0,0,0,.42-1.31Q1027.28,263.65,1024.42,261.63Z" transform="translate(0 1)"/><path class="a" d="M1035.76,269.81a0.75,0.75,0,1,0-.89,1.21q2.83,2.06,5.64,4.15a0.75,0.75,0,0,0,.46.15l0,0a0.75,0.75,0,0,0,.4-1.31Q1038.59,271.87,1035.76,269.81Z" transform="translate(0 1)"/><path class="a" d="M923.6,198.44l-6.15-3.35a0.75,0.75,0,1,0-.71,1.32l6.09,3.35a0.75,0.75,0,0,0,.38.09h0A0.75,0.75,0,0,0,923.6,198.44Z" transform="translate(0 1)"/><path class="a" d="M911.23,191.77L905,188.49h0a0.75,0.75,0,1,0-.67,1.34l6.18,3.27a0.74,0.74,0,0,0,.33.08A0.75,0.75,0,0,0,911.23,191.77Z" transform="translate(0 1)"/><path class="a" d="M910.9,193.19h0Z" transform="translate(0 1)"/><path class="a" d="M898.83,185.25l-6.23-3.2a0.75,0.75,0,0,0-.68,1.34l6.22,3.21a0.75,0.75,0,0,0,.36.08h0A0.75,0.75,0,0,0,898.83,185.25Z" transform="translate(0 1)"/><path class="a" d="M959.95,219.41l-6-3.6a0.75,0.75,0,0,0-.76,1.29l6,3.59A0.75,0.75,0,0,0,959.95,219.41Z" transform="translate(0 1)"/><path class="a" d="M1058.24,286.66a0.77,0.77,0,1,0-1,1.19l5.51,4.31a0.75,0.75,0,0,0,.48.16v0a0.75,0.75,0,0,0,.5-1.31Q1061,288.81,1058.24,286.66Z" transform="translate(0 1)"/><path class="a" d="M886.34,178.91l-6.28-3.12a0.75,0.75,0,0,0-.66,1.35l6.27,3.11a0.74,0.74,0,0,0,.35.08h0A0.75,0.75,0,0,0,886.34,178.91Z" transform="translate(0 1)"/><path class="a" d="M935.74,205.27l-6.1-3.43a0.75,0.75,0,1,0-.73,1.31l6.1,3.43a0.75,0.75,0,0,0,.39.1h0A0.75,0.75,0,0,0,935.74,205.27Z" transform="translate(0 1)"/><path class="a" d="M947.88,212.27l-6.1-3.51a0.75,0.75,0,0,0-.74,1.3l6.1,3.5a0.75,0.75,0,0,0,.4.1h0A0.75,0.75,0,0,0,947.88,212.27Z" transform="translate(0 1)"/><path class="a" d="M1132.38,350.66l0,0a0.75,0.75,0,1,0-1,1.12l5,4.86a0.75,0.75,0,0,0,.55.22l0,0a0.75,0.75,0,0,0,.48-1.31Q1134.91,353.08,1132.38,350.66Z" transform="translate(0 1)"/><path class="a" d="M1152.27,370.4a0.75,0.75,0,0,0-1.07,1q2.45,2.5,4.87,5a0.75,0.75,0,0,0,.57.23h0a0.75,0.75,0,0,0,.49-1.26Q1154.72,372.9,1152.27,370.4Z" transform="translate(0 1)"/><path class="a" d="M1142.4,360.48a0.75,0.75,0,1,0-1.05,1l4.95,4.95a0.75,0.75,0,0,0,.56.22l0,0.06a0.75,0.75,0,0,0,.48-1.3Q1144.89,362.94,1142.4,360.48Z" transform="translate(0 1)"/><path class="a" d="M1162,380.51a0.75,0.75,0,1,0-1.09,1q2.4,2.54,4.78,5.1a0.75,0.75,0,0,0,.57.23h0a0.75,0.75,0,0,0,.52-1.26Q1164.39,383.05,1162,380.51Z" transform="translate(0 1)"/><path class="a" d="M1171.52,390.75a0.75,0.75,0,0,0-1.1,1l4.69,5.18a0.75,0.75,0,0,0,.58.24h0a0.75,0.75,0,0,0,.52-1.27Q1173.88,393.34,1171.52,390.75Z" transform="translate(0 1)"/><path class="a" d="M1194.63,417.12q-2.25-2.69-4.53-5.35a0.75,0.75,0,1,0-1.14,1q2.26,2.66,4.52,5.34A0.75,0.75,0,0,0,1194.63,417.12Z" transform="translate(0 1)"/><path class="a" d="M1180.91,401.16a0.76,0.76,0,1,0-1.12,1q2.31,2.62,4.61,5.26a0.75,0.75,0,0,0,.59.25h0a0.75,0.75,0,0,0,.55-1.29Q1183.23,403.79,1180.91,401.16Z" transform="translate(0 1)"/><path class="a" d="M1111.86,331.52a0.75,0.75,0,0,0-1,1.12l5.13,4.71a0.75,0.75,0,0,0,.53.2h0.05a0.75,0.75,0,0,0,.44-1.32Z" transform="translate(0 1)"/><path class="a" d="M1090.85,313.11a0.75,0.75,0,1,0-1,1.15q2.66,2.26,5.32,4.55a0.75,0.75,0,1,0,1-1.14Q1093.52,315.38,1090.85,313.11Z" transform="translate(0 1)"/><path class="a" d="M1080.11,304.13a0.75,0.75,0,0,0-1,1.16q2.7,2.22,5.38,4.46a0.75,0.75,0,1,0,1-1.15Z" transform="translate(0 1)"/><path class="a" d="M1085,309.93h0Z" transform="translate(0 1)"/><path class="a" d="M1122.16,341l0,0a0.75,0.75,0,0,0-1,1.13q2.6,2.38,5.13,4.78a0.75,0.75,0,0,0,.54.21l0,0a0.75,0.75,0,0,0,.45-1.33Z" transform="translate(0 1)"/><path class="a" d="M510.74,76.21q-3.53,0-7,.05A0.79,0.79,0,0,0,503,77h0a0.75,0.75,0,0,0,.76.74q3.47-.05,7-0.05v0A0.75,0.75,0,0,0,510.74,76.21Z" transform="translate(0 1)"/><path class="a" d="M1069.22,295.29a0.76,0.76,0,0,0-1,1.18q2.73,2.18,5.45,4.38a0.76,0.76,0,1,0,1-1.17Z" transform="translate(0 1)"/><path class="a" d="M1101.36,322.23a0.76,0.76,0,0,0-.15-0.13,0.75,0.75,0,1,0-.82,1.26q2.63,2.3,5.25,4.63a0.75,0.75,0,0,0,.52.19l0.05,0a0.75,0.75,0,0,0,.41-1.34Z" transform="translate(0 1)"/><path class="a" d="M635.92,90.59q-3.45-.72-6.87-1.39l-0.1,0a0.75,0.75,0,0,0-.19,1.49L635.62,92h0.17v0A0.75,0.75,0,0,0,635.92,90.59Z" transform="translate(0 1)"/><path class="a" d="M622.18,87.85q-3.47-.66-6.9-1.27a0.75,0.75,0,0,0-.27,1.48q3.42,0.62,6.88,1.27h0.16v0A0.75,0.75,0,0,0,622.18,87.85Z" transform="translate(0 1)"/><path class="a" d="M649.61,93.47L642.77,92a0.75,0.75,0,0,0-.32,1.47l6.8,1.56h0.18l0,0A0.76,0.76,0,1,0,649.61,93.47Z" transform="translate(0 1)"/><path class="a" d="M608.37,85.38q-3.48-.6-6.91-1.15a0.75,0.75,0,0,0-.24,1.48q3.44,0.55,6.9,1.14h0.15v0A0.75,0.75,0,0,0,608.37,85.38Z" transform="translate(0 1)"/><path class="a" d="M663.23,96.66l-6.82-1.61a0.77,0.77,0,1,0-.35,1.51l6.81,1.6h0.2l0,0A0.75,0.75,0,0,0,663.23,96.66Z" transform="translate(0 1)"/><path class="a" d="M703.9,107.43l-6.74-1.92a0.75,0.75,0,0,0-.4,1.44l6.76,2a0.75,0.75,0,0,0,.23,0v0A0.75,0.75,0,0,0,703.9,107.43Z" transform="translate(0 1)"/><path class="a" d="M676.86,100l-6.79-1.71a0.75,0.75,0,0,0-.36,1.46l6.78,1.72h0.21A0.75,0.75,0,0,0,676.86,100Z" transform="translate(0 1)"/><path class="a" d="M690.41,103.68l-6.77-1.82h0a0.75,0.75,0,0,0-.38,1.45l6.76,1.82a0.74,0.74,0,0,0,.22,0A0.75,0.75,0,0,0,690.41,103.68Z" transform="translate(0 1)"/><path class="a" d="M538.79,77.06q-3.55-.21-7-0.38a0.75,0.75,0,0,0-.07,1.5q3.5,0.16,7,.38h0A0.76,0.76,0,1,0,538.79,77.06Z" transform="translate(0 1)"/><path class="a" d="M873.74,172.73l-6.32-3a0.75,0.75,0,1,0-.64,1.36l6.31,3a0.74,0.74,0,0,0,.34.07A0.75,0.75,0,0,0,873.74,172.73Z" transform="translate(0 1)"/><path class="a" d="M552.74,78.1q-3.55-.3-7-0.56a0.75,0.75,0,0,0-.11,1.49q3.51,0.25,7,.56h0.09A0.75,0.75,0,0,0,552.74,78.1Z" transform="translate(0 1)"/><path class="a" d="M580.64,81.11q-3.5-.45-7-0.87h-0.11a0.75,0.75,0,1,0-.07,1.5q3.44,0.42,6.94.87h0.12v0A0.76,0.76,0,0,0,580.64,81.11Z" transform="translate(0 1)"/><path class="a" d="M566.78,79.43q-3.56-.38-7-0.72a0.75,0.75,0,1,0-.15,1.49q3.45,0.34,7,.72h0.1v0A0.77,0.77,0,1,0,566.78,79.43Z" transform="translate(0 1)"/><path class="a" d="M594.54,83.13q-3.5-.52-6.94-1a0.75,0.75,0,0,0-.21,1.49q3.44,0.49,6.92,1h0.13v0A0.75,0.75,0,0,0,594.54,83.13Z" transform="translate(0 1)"/><path class="a" d="M524.79,76.44q-3.53-.11-7-0.18h0A0.74,0.74,0,0,0,517,77h0a0.75,0.75,0,0,0,.74.76q3.47,0.07,7,.18v0A0.75,0.75,0,0,0,524.79,76.44Z" transform="translate(0 1)"/><path class="a" d="M835.58,155.12l-6.43-2.83-0.05,0a0.75,0.75,0,0,0-.54,1.4L835,156.5a0.75,0.75,0,0,0,.32.06h0A0.75,0.75,0,0,0,835.58,155.12Z" transform="translate(0 1)"/><polygon class="a" points="848.07 163.25 848.07 163.25 848.07 163.25 848.07 163.25"/><path class="a" d="M822.65,149.52l-6.47-2.7h0a0.75,0.75,0,0,0-.54,1.4l6.46,2.7a0.75,0.75,0,0,0,.31.06l0,0A0.75,0.75,0,0,0,822.65,149.52Z" transform="translate(0 1)"/><path class="a" d="M809.71,144.15l-6.49-2.62a0.75,0.75,0,1,0-.56,1.4l6.48,2.62a0.75,0.75,0,0,0,.3.05l0,0A0.76,0.76,0,1,0,809.71,144.15Z" transform="translate(0 1)"/><path class="a" d="M861.09,166.7l-6.35-3-0.07,0a0.75,0.75,0,0,0-.57,1.39l6.34,2.95A0.75,0.75,0,0,0,861.09,166.7Z" transform="translate(0 1)"/><path class="a" d="M848.36,160.81L842,158l-0.06,0a0.75,0.75,0,0,0-.55,1.4l6.38,2.83a0.74,0.74,0,0,0,.33.07A0.75,0.75,0,0,0,848.36,160.81Z" transform="translate(0 1)"/><polygon class="a" points="860.78 169.12 860.78 169.12 860.78 169.12 860.78 169.12"/><path class="a" d="M744,119.9l-6.65-2.19-0.1,0a0.75,0.75,0,0,0-.36,1.46l6.64,2.19a0.75,0.75,0,0,0,.26,0h0A0.75,0.75,0,0,0,744,119.9Z" transform="translate(0 1)"/><path class="a" d="M717.35,111.44l-6.72-2a0.75,0.75,0,1,0-.42,1.44l6.71,2a0.75,0.75,0,0,0,.24,0v0A0.75,0.75,0,0,0,717.35,111.44Z" transform="translate(0 1)"/><path class="a" d="M757.33,124.35l-6.62-2.28a0.75,0.75,0,1,0-.48,1.42l6.55,2.35a0.75,0.75,0,0,0,.27,0h0.05A0.76,0.76,0,1,0,757.33,124.35Z" transform="translate(0 1)"/><path class="a" d="M730.72,115.61l-6.68-2.1a0.75,0.75,0,0,0-.44,1.43l6.68,2.1A0.76,0.76,0,0,0,730.72,115.61Z" transform="translate(0 1)"/><path class="a" d="M796.7,139l-6.53-2.54a0.75,0.75,0,0,0-.54,1.4l6.51,2.52a0.75,0.75,0,0,0,.29.05h0.05A0.75,0.75,0,0,0,796.7,139Z" transform="translate(0 1)"/><path class="a" d="M770.52,129.09l-6.6-2.37a0.75,0.75,0,0,0-.5,1.41l6.54,2.35a0.75,0.75,0,0,0,.27,0h0.05A0.75,0.75,0,0,0,770.52,129.09Z" transform="translate(0 1)"/><path class="a" d="M783.62,133.94l-6.56-2.45-0.06,0a0.75,0.75,0,1,0-.46,1.43l6.55,2.45a0.75,0.75,0,0,0,.28.05h0.05A0.75,0.75,0,0,0,783.62,133.94Z" transform="translate(0 1)"/></svg>