<?xml version="1.0" encoding="utf-8"?>
<!-- Generator: Adobe Illustrator 19.2.0, SVG Export Plug-In . SVG Version: 6.00 Build 0)  -->
<svg version="1.1" id="Laag_1" xmlns="http://www.w3.org/2000/svg" xmlns:xlink="http://www.w3.org/1999/xlink" x="0px" y="0px"
	 viewBox="0 0 991.5 491.5" style="enable-background:new 0 0 991.5 491.5;" xml:space="preserve">
<style type="text/css">
	.st0{fill:#FCE338;}
</style>
<title>line-banner-tomdenken-related</title>
<path class="st0" d="M329.3,418.7l-2.5,1c-0.4,0.2-0.8,0-1-0.4c-0.2-0.4,0-0.8,0.4-1l0,0l2.5-1l4-1.6l0,0c0.4-0.2,0.8,0,1,0.4
	c0.2,0.4,0,0.8-0.4,1L329.3,418.7z M320.3,422.2L320.3,422.2l-6.5,2.5c-0.4,0.2-0.8,0-1-0.4c0,0,0,0,0,0c-0.1-0.4,0-0.8,0.4-1
	l6.5-2.5c0.4-0.2,0.8,0,1,0.4S320.7,422,320.3,422.2L320.3,422.2L320.3,422.2z M339.9,414.5c-0.4,0.1-0.8-0.1-1-0.5
	c-0.1-0.4,0-0.8,0.4-0.9l6.5-2.7c0.4-0.2,0.8,0,1,0.4c0.2,0.4,0,0.8-0.4,1c0,0,0,0,0,0L339.9,414.5L339.9,414.5L339.9,414.5z
	 M307.2,427.1L307.2,427.1l-6.6,2.4c-0.4,0.2-0.8,0-1-0.4c0,0,0,0,0,0c-0.2-0.4,0-0.8,0.4-1c0,0,0,0,0.1,0l6.6-2.4
	c0.4-0.2,0.8,0,1,0.4C307.8,426.5,307.6,427,307.2,427.1L307.2,427.1L307.2,427.1z M352.8,409.2c-0.4,0.1-0.8-0.1-1-0.5
	c-0.1-0.4,0-0.8,0.4-0.9l6.4-2.7c0.4-0.2,0.8,0,1,0.4c0.2,0.4,0,0.8-0.4,1L352.8,409.2L352.8,409.2L352.8,409.2z M294.1,431.9
	L294.1,431.9l-6.6,2.3c-0.4,0.2-0.8,0-1-0.4c0,0,0,0,0-0.1c-0.2-0.4,0-0.8,0.4-1c0,0,0,0,0.1,0l6.6-2.3c0.4-0.2,0.8,0,1,0.5
	S294.5,431.7,294.1,431.9L294.1,431.9z M365.7,403.7c-0.4,0.2-0.8,0-1-0.4s0-0.8,0.4-1l6.4-2.8c0.4-0.2,0.8,0,1,0.4
	c0.2,0.4,0,0.8-0.4,1L365.7,403.7L365.7,403.7L365.7,403.7z M280.8,436.5L280.8,436.5l-6.6,2.2c-0.4,0.1-0.8-0.1-0.9-0.5
	c0,0,0,0,0,0c-0.1-0.4,0.1-0.8,0.5-1l6.6-2.2c0.4-0.1,0.8,0.1,0.9,0.5C281.4,435.9,281.2,436.3,280.8,436.5z M378.5,398
	c-0.4,0.1-0.8-0.1-1-0.5c-0.1-0.4,0-0.7,0.4-0.9l6.4-2.9c0.4-0.2,0.8,0,1,0.3c0,0,0,0,0,0c0.2,0.4,0,0.8-0.4,1c0,0,0,0,0,0
	L378.5,398L378.5,398z M267.5,440.9L267.5,440.9l-6.7,2.1c-0.4,0.1-0.8-0.1-0.9-0.5c-0.1-0.4,0.1-0.8,0.5-0.9l6.6-2.1
	c0.4-0.1,0.8,0,1,0.4S267.9,440.7,267.5,440.9L267.5,440.9z M391.2,392.1c-0.4,0.2-0.8,0-1-0.4c-0.2-0.4,0-0.8,0.4-1l6.3-3
	c0.4-0.2,0.8,0,1,0.4c0.2,0.4,0,0.8-0.3,1L391.2,392.1L391.2,392.1z M254.2,445.1L254.2,445.1l-6.8,2c-0.4,0.1-0.8-0.1-0.9-0.5
	c0,0,0,0,0,0c-0.1-0.4,0.1-0.8,0.5-0.9l6.7-2c0.4-0.1,0.8,0.1,1,0.5C254.8,444.5,254.6,444.9,254.2,445.1L254.2,445.1L254.2,445.1z
	 M403.8,386.1c-0.4,0.1-0.8-0.1-1-0.5c-0.1-0.3,0-0.7,0.4-0.9l6.3-3.1c0.4-0.2,0.8,0,1,0.4c0.2,0.4,0,0.8-0.3,1L403.8,386.1
	L403.8,386.1z M240.8,449.2L240.8,449.2l-6.8,2c-0.4,0.1-0.8-0.1-0.9-0.5c-0.1-0.4,0.1-0.8,0.5-0.9l6.7-2c0.4-0.1,0.8,0.2,0.8,0.6
	C241.2,448.7,241.1,449,240.8,449.2L240.8,449.2z M416.4,379.9c-0.4,0.2-0.8,0-1-0.4c-0.2-0.4,0-0.8,0.4-1c2.1-1.1,4.2-2.1,6.2-3.2
	c0.4-0.2,0.8,0,1,0.4c0.2,0.4,0,0.8-0.3,1C420.6,377.7,418.5,378.8,416.4,379.9L416.4,379.9z M227.4,453.1L227.4,453.1l-6.8,1.9
	c-0.4,0.1-0.8-0.1-0.9-0.5c-0.1-0.4,0.1-0.8,0.5-0.9l6.7-1.9c0.4-0.1,0.8,0.2,0.8,0.6C227.8,452.6,227.6,452.9,227.4,453.1
	L227.4,453.1z M428.8,373.4c-0.4,0.1-0.8-0.1-1-0.5c-0.1-0.3,0-0.7,0.3-0.9c2.1-1.1,4.1-2.2,6.2-3.3c0.4-0.2,0.8-0.1,1,0.3
	c0.2,0.4,0.1,0.8-0.3,1c0,0,0,0-0.1,0C433,371.2,431,372.3,428.8,373.4L428.8,373.4z M213.9,456.8L213.9,456.8l-6.9,1.8
	c-0.4,0.1-0.8-0.2-0.9-0.6c-0.1-0.4,0.1-0.8,0.5-0.9l6.8-1.8c0.4-0.1,0.8,0.1,1,0.5C214.5,456.2,214.2,456.6,213.9,456.8z
	 M441.1,366.8c-0.4,0.2-0.8,0-1-0.4c-0.2-0.4,0-0.8,0.4-1c2.1-1.1,4.1-2.2,6.1-3.4c0.4-0.2,0.8-0.1,1,0.3c0.2,0.4,0.1,0.8-0.3,1
	C445.4,364.5,443.3,365.6,441.1,366.8L441.1,366.8z M200.3,460.3L200.3,460.3l-6.9,1.7c-0.4,0.1-0.8-0.1-0.9-0.5
	c-0.1-0.4,0.1-0.8,0.5-0.9l6.8-1.7c0.4-0.1,0.8,0.1,1,0.5S200.7,460.2,200.3,460.3L200.3,460.3z M453.4,360c-0.4,0.1-0.8-0.1-1-0.4
	c-0.1-0.3,0-0.7,0.3-0.9c2-1.2,4.1-2.3,6.1-3.5c0.4-0.2,0.8-0.1,1,0.3s0.1,0.8-0.3,1c-2,1.2-4,2.3-6.1,3.5L453.4,360z M186.7,463.7
	h-0.1l-6.8,1.6c-0.4,0.1-0.8-0.1-0.9-0.5s0.1-0.8,0.5-0.9c0,0,0,0,0.1,0l6.8-1.6c0.4-0.1,0.8,0.1,1,0.5
	C187.3,463.1,187.1,463.6,186.7,463.7z M465.5,353c-0.4,0.1-0.8-0.1-1-0.5c-0.1-0.3,0-0.7,0.3-0.9c2-1.2,4-2.4,6-3.6
	c0.4-0.2,0.8-0.1,1,0.3s0.1,0.8-0.3,1c-2,1.2-4,2.4-6,3.6L465.5,353z M173.1,466.9H173l-6.8,1.6c-0.4,0.1-0.8-0.2-0.8-0.6
	c0-0.4,0.2-0.7,0.5-0.8l6.8-1.5c0.4,0,0.8,0.3,0.8,0.7C173.5,466.4,173.4,466.7,173.1,466.9z M477.5,345.7c-0.4,0.2-0.8,0-1-0.4
	c-0.2-0.4,0-0.8,0.3-1c2-1.2,4-2.5,5.9-3.7c0.4-0.2,0.8-0.1,1,0.2c0.2,0.4,0.1,0.8-0.2,1C481.6,343.2,479.6,344.4,477.5,345.7
	L477.5,345.7z M159.4,469.9h-0.1l-6.9,1.4c-0.4,0.1-0.8-0.2-0.9-0.6c-0.1-0.4,0.2-0.8,0.6-0.9l6.9-1.4c0.4-0.1,0.8,0.2,0.9,0.6
	C160,469.4,159.8,469.8,159.4,469.9z M489.4,338.3c-0.4,0.2-0.8,0-1-0.4c-0.1-0.3,0-0.7,0.3-0.9c2-1.3,4-2.5,5.9-3.8
	c0.4-0.2,0.8-0.1,1,0.3c0.2,0.3,0.1,0.7-0.2,0.9c-1.9,1.3-3.9,2.5-5.9,3.8L489.4,338.3z M145.7,472.7h-0.1l-6.9,1.4
	c-0.4,0.1-0.8-0.1-0.9-0.5c-0.1-0.4,0.1-0.8,0.5-0.9c0,0,0,0,0.1,0l6.9-1.4c0.4-0.1,0.8,0.1,0.9,0.5
	C146.3,472.2,146.1,472.6,145.7,472.7L145.7,472.7z M501.1,330.6c-0.4,0.1-0.8,0-1-0.4c-0.1-0.3,0-0.7,0.3-0.9
	c2-1.3,3.9-2.6,5.8-3.9c0.3-0.2,0.8-0.1,1,0.2c0.2,0.3,0.1,0.8-0.2,1c-1.9,1.3-3.8,2.6-5.8,3.9L501.1,330.6z M132,475.4h-0.1
	l-6.9,1.3c-0.4,0.1-0.8-0.2-0.9-0.6c-0.1-0.4,0.2-0.8,0.6-0.9l6.9-1.3c0.4-0.1,0.8,0.1,0.9,0.5C132.6,474.8,132.4,475.3,132,475.4z
	 M118.2,477.9h-0.2l-6.9,1.2c-0.4,0.1-0.8-0.2-0.9-0.6c-0.1-0.4,0.2-0.8,0.6-0.9l6.9-1.2c0.4-0.1,0.8,0.2,0.9,0.6
	C118.8,477.4,118.6,477.8,118.2,477.9L118.2,477.9L118.2,477.9z M512.6,322.7c-0.4,0.1-0.8-0.1-1-0.4c-0.1-0.3,0-0.7,0.3-0.9
	c1.9-1.3,3.8-2.7,5.7-4c0.3-0.2,0.8-0.1,1,0.2c0.2,0.3,0.1,0.8-0.2,1c-1.9,1.3-3.8,2.7-5.7,4L512.6,322.7z M104.4,480.2h-0.2
	l-6.9,1.1c-0.4,0.1-0.8-0.2-0.9-0.6s0.2-0.8,0.6-0.9c0,0,0.1,0,0.1,0l6.9-1.1c0.4-0.1,0.8,0.1,0.9,0.5S104.8,480,104.4,480.2z
	 M524,314.5c-0.4,0.1-0.8,0-1-0.4c-0.1-0.3,0-0.7,0.3-0.9c1.9-1.4,3.8-2.8,5.6-4.2c0.3-0.2,0.8-0.2,1.1,0.1c0.2,0.3,0.2,0.8-0.2,1.1
	l0,0c-1.8,1.4-3.7,2.8-5.6,4.2L524,314.5z M90.5,482.3h-0.2l-6.9,1c-0.4,0.1-0.8-0.2-0.8-0.6c-0.1-0.4,0.2-0.8,0.6-0.9l6.9-1
	c0.4-0.1,0.8,0.1,0.9,0.5C91.2,481.7,90.9,482.2,90.5,482.3z M535.2,306.1c-0.4,0.1-0.8,0-1-0.4c-0.1-0.3,0-0.7,0.2-0.9
	c1.9-1.4,3.7-2.9,5.5-4.3c0.3-0.3,0.8-0.3,1.1,0c0.3,0.3,0.3,0.8,0,1.1c0,0-0.1,0.1-0.1,0.1c-1.8,1.4-3.6,2.9-5.5,4.3
	C535.3,306,535.2,306.1,535.2,306.1z M76.7,484.2h-0.2l-6.9,0.9c-0.4,0-0.8-0.2-0.8-0.7c0-0.4,0.2-0.8,0.7-0.8l0,0l6.9-0.9
	c0.4-0.1,0.8,0.1,0.9,0.6S77.1,484.1,76.7,484.2L76.7,484.2z M546.1,297.4c-0.4,0.2-0.8,0-1-0.4c-0.1-0.3,0-0.7,0.2-0.9
	c1.8-1.5,3.6-3,5.4-4.5c0.3-0.3,0.8-0.2,1.1,0.1s0.2,0.8-0.1,1.1c-1.8,1.5-3.6,3-5.4,4.5C546.3,297.3,546.2,297.3,546.1,297.4z
	 M62.8,485.9h-0.2l-7,0.8c-0.4,0.1-0.8-0.2-0.9-0.6c-0.1-0.4,0.2-0.8,0.6-0.9c0,0,0,0,0.1,0l7-0.8c0.4-0.1,0.8,0.2,0.9,0.6
	C63.4,485.4,63.2,485.8,62.8,485.9L62.8,485.9z M556.8,288.3c-0.4,0.2-0.8,0-1-0.4c-0.1-0.3,0-0.6,0.2-0.8c1.8-1.6,3.5-3.1,5.2-4.6
	c0.3-0.2,0.8-0.2,1.1,0.1c0.2,0.3,0.2,0.7-0.1,1c-1.7,1.6-3.5,3.1-5.2,4.7C556.9,288.2,556.9,288.3,556.8,288.3L556.8,288.3z
	 M48.8,487.5h-0.2l-7,0.7c-0.4,0.1-0.8-0.2-0.9-0.6c-0.1-0.4,0.2-0.8,0.6-0.9c0,0,0.1,0,0.1,0l7-0.7c0.4-0.1,0.8,0.2,0.9,0.6
	C49.5,486.9,49.3,487.4,48.8,487.5L48.8,487.5z M34.9,488.8c-0.1,0-0.1,0-0.2,0l-7,0.6c-0.4,0-0.8-0.3-0.8-0.7
	c0-0.4,0.3-0.8,0.7-0.8l7-0.6c0.4-0.1,0.8,0.2,0.9,0.6C35.6,488.3,35.3,488.7,34.9,488.8L34.9,488.8z M21.5,489.8
	c-0.1,0-0.1,0-0.2,0l-7,0.6c-0.4,0-0.8-0.3-0.8-0.7c0-0.4,0.3-0.8,0.7-0.8l7-0.6c0.4-0.1,0.8,0.2,0.9,0.6
	C22.1,489.3,21.9,489.7,21.5,489.8L21.5,489.8L21.5,489.8z M8,490.8c-0.1,0-0.1,0-0.2,0l-7,0.6c-0.4,0-0.8-0.3-0.8-0.7
	s0.3-0.8,0.7-0.8l7-0.6c0.4-0.1,0.8,0.2,0.9,0.6S8.4,490.7,8,490.8L8,490.8z M567.2,278.9c-0.4,0.2-0.8,0-1-0.4
	c-0.1-0.3,0-0.6,0.2-0.8c1.7-1.6,3.4-3.2,5-4.8c0.4-0.2,0.8-0.1,1,0.3c0.1,0.3,0.1,0.6,0,0.8c-1.7,1.6-3.4,3.2-5.1,4.9
	C567.3,278.8,567.2,278.9,567.2,278.9z M687.4,230.3L687.4,230.3l-0.4,0.2c-0.4,0.2-0.8,0-1-0.4c0,0,0,0,0,0c-0.2-0.4,0-0.8,0.4-1
	c0,0,0,0,0.1,0l0.4-0.2l0,0c2-0.8,4-1.6,6-2.6c0.4-0.2,0.8,0,1,0.4c0.2,0.4,0,0.8-0.4,1C691.5,228.7,689.5,229.6,687.4,230.3z
	 M680.4,232.8L680.4,232.8c-2.2,0.7-4.5,1.4-6.8,1.9c-0.4,0.1-0.8-0.1-0.9-0.6c-0.1-0.4,0.1-0.8,0.5-0.9c2.2-0.6,4.5-1.2,6.7-1.9
	c0.4-0.1,0.8,0.1,0.9,0.5C681,232.3,680.8,232.7,680.4,232.8L680.4,232.8z M699.7,224.6c-0.4,0.2-0.8,0-1-0.4c-0.2-0.4,0-0.8,0.4-1
	c2-1.1,4-2.3,6-3.5c0.4-0.2,0.8-0.1,1,0.2c0.2,0.4,0.1,0.8-0.2,1c-2,1.2-4,2.4-6.1,3.6L699.7,224.6z M666.9,236.2h-0.1
	c-2.3,0.4-4.6,0.8-7,1.1c-0.4,0.1-0.8-0.2-0.8-0.6c-0.1-0.4,0.2-0.8,0.7-0.8c2.3-0.3,4.6-0.7,6.9-1.1c0.4-0.1,0.8,0.1,1,0.5
	C667.5,235.7,667.2,236.1,666.9,236.2L666.9,236.2z M711.5,217.2c-0.4,0.2-0.8,0-1-0.4c-0.1-0.3,0-0.7,0.3-0.9
	c1.8-1.3,3.7-2.8,5.5-4.2c0.3-0.3,0.8-0.2,1.1,0.1c0.3,0.3,0.2,0.8-0.1,1.1c-1.8,1.5-3.7,2.9-5.6,4.3L711.5,217.2z M577.2,269.1
	c-0.4,0.1-0.8,0-1-0.4c-0.1-0.3,0-0.6,0.2-0.8c1.7-1.7,3.3-3.4,4.8-5c0.2-0.3,0.7-0.4,1-0.2c0.3,0.2,0.4,0.7,0.2,1
	c0,0.1-0.1,0.1-0.1,0.1c-1.6,1.7-3.2,3.4-4.9,5.1C577.4,269,577.3,269.1,577.2,269.1z M653,238.1c-0.1,0-0.1,0-0.2,0
	c-2.3,0.2-4.7,0.3-7,0.4c-0.4,0-0.8-0.3-0.8-0.8s0.3-0.8,0.8-0.8c2.3-0.1,4.7-0.2,7-0.4c0.4,0,0.8,0.3,0.8,0.7
	C653.6,237.6,653.3,238,653,238.1L653,238.1z M722.3,208.4c-0.4,0.1-0.8,0-1-0.4c-0.1-0.3,0-0.6,0.2-0.8c1.7-1.5,3.4-3.1,5-4.8
	c0.3-0.3,0.8-0.3,1.1,0c0.3,0.3,0.3,0.8,0,1.1c0,0,0,0,0,0c-1.7,1.7-3.4,3.3-5.1,4.9C722.5,208.4,722.4,208.4,722.3,208.4z
	 M639,238.4c-0.1,0-0.2,0.1-0.3,0.1c-2.3,0-4.7-0.1-7-0.3c-0.4,0-0.7-0.4-0.7-0.8c0-0.4,0.4-0.7,0.8-0.7c2.3,0.1,4.7,0.2,7,0.3
	c0.4,0,0.7,0.4,0.7,0.8C639.5,238.1,639.3,238.3,639,238.4z M586.8,258.9c-0.4,0.2-0.8,0-1-0.4c-0.1-0.3-0.1-0.6,0.1-0.8
	c1.6-1.8,3.1-3.5,4.6-5.3c0.3-0.3,0.8-0.4,1.1-0.1s0.4,0.8,0.1,1.1c-1.5,1.8-3,3.5-4.6,5.3C587,258.8,586.9,258.9,586.8,258.9
	L586.8,258.9z M732.3,198.5c-0.4,0.2-0.8,0-1-0.4c-0.1-0.3,0-0.6,0.1-0.8c1.5-1.7,3.1-3.4,4.6-5.2c0.3-0.3,0.8-0.4,1.1-0.1
	s0.4,0.8,0.1,1.1c-1.5,1.8-3.1,3.6-4.6,5.3C732.5,198.4,732.3,198.5,732.3,198.5L732.3,198.5z M625,237.7c-0.1,0-0.2,0-0.3,0
	c-2.4-0.2-4.7-0.4-7-0.7c-0.4,0-0.7-0.4-0.7-0.8c0-0.4,0.4-0.7,0.8-0.7c0,0,0,0,0.1,0c2.3,0.2,4.6,0.5,7,0.7
	c0.4-0.1,0.8,0.2,0.9,0.6C625.7,237.2,625.4,237.6,625,237.7z M595.8,248.2c-0.4,0.1-0.8,0-1-0.4c-0.1-0.2-0.1-0.5,0.1-0.7
	c1.5-1.9,2.9-3.7,4.2-5.6c0.2-0.4,0.7-0.5,1-0.2c0.4,0.2,0.5,0.7,0.2,1c0,0,0,0.1-0.1,0.1c-1.3,1.8-2.8,3.7-4.2,5.6
	C596,248,595.9,248.1,595.8,248.2L595.8,248.2z M741.2,187.8c-0.4,0.2-0.8,0-1-0.4c-0.1-0.2-0.1-0.5,0.1-0.7
	c1.4-1.8,2.8-3.7,4.2-5.6c0.2-0.4,0.7-0.5,1-0.2c0.4,0.2,0.5,0.7,0.2,1c0,0,0,0.1-0.1,0.1c-1.4,1.9-2.8,3.8-4.2,5.6
	C741.5,187.7,741.4,187.8,741.2,187.8L741.2,187.8z M611.1,236.2c-0.1,0-0.3,0-0.4,0c-1.9-0.3-3.7-0.6-5.5-0.9l-0.8,1.2
	c-0.2,0.3-0.7,0.4-1,0.2c-0.3-0.2-0.4-0.7-0.2-1l0.5-0.7c-0.4-0.2-0.5-0.6-0.3-1c0.1-0.3,0.5-0.5,0.8-0.4l0.4,0.1
	c0.8-1.3,1.6-2.6,2.4-3.9c0.2-0.3,0.7-0.4,1-0.2c0.3,0.2,0.4,0.6,0.2,0.9c-0.7,1.1-1.4,2.2-2.1,3.4c1.6,0.3,3.2,0.5,4.9,0.7
	c0.4,0,0.7,0.3,0.7,0.8C611.6,235.8,611.4,236.1,611.1,236.2z M749.5,176.4c-0.4,0.1-0.8,0-1-0.4c-0.1-0.2-0.1-0.5,0.1-0.7
	c1.3-1.9,2.6-3.8,3.9-5.8c0.2-0.3,0.7-0.4,1-0.2c0.3,0.2,0.4,0.6,0.2,1c-1.3,2-2.6,4-3.9,5.9C749.7,176.3,749.6,176.4,749.5,176.4z
	 M597.3,233.8c-0.1,0-0.3,0-0.4,0c-2.3-0.5-4.7-1.1-6.8-1.6c-0.4-0.1-0.6-0.5-0.5-0.9c0.1-0.4,0.5-0.6,0.9-0.5
	c2.2,0.6,4.5,1.1,6.8,1.6c0.4,0,0.7,0.4,0.7,0.8C597.8,233.4,597.6,233.7,597.3,233.8z M611.2,224.9c-0.4,0.1-0.8-0.1-1-0.5
	c-0.1-0.2-0.1-0.4,0-0.5c1.1-2.1,2.2-4.2,3.1-6.2c0.2-0.4,0.6-0.5,1-0.4s0.5,0.6,0.4,1c-0.9,2.1-2,4.2-3.1,6.3
	C611.5,224.7,611.4,224.8,611.2,224.9L611.2,224.9z M757.1,164.8c-0.4,0.1-0.8,0-1-0.4c-0.1-0.2-0.1-0.5,0.1-0.7c1.2-2,2.4-4,3.6-6
	c0.2-0.3,0.7-0.4,1-0.2c0.3,0.2,0.4,0.6,0.2,1c-1.2,2-2.4,4-3.6,6C757.4,164.6,757.2,164.7,757.1,164.8z M583.8,230.2
	c-0.2,0.1-0.3,0.1-0.5,0c-2.3-0.7-4.5-1.5-6.6-2.4c-0.4-0.2-0.6-0.6-0.4-1c0.2-0.4,0.6-0.6,1-0.4c2.1,0.8,4.3,1.6,6.5,2.3
	c0.4,0.1,0.6,0.5,0.5,0.9C584.2,229.9,584,230.1,583.8,230.2z M616.9,212.1c-0.4,0.2-0.8,0-1-0.4c-0.1-0.2-0.1-0.4,0-0.6
	c0.8-2.2,1.5-4.5,2-6.6c0.1-0.4,0.5-0.7,0.9-0.6c0.4,0.1,0.7,0.5,0.6,0.9c0,0,0,0.1,0,0.1c-0.6,2.2-1.3,4.5-2.1,6.7
	C617.2,211.8,617.1,212,616.9,212.1L616.9,212.1z M764.2,152.7c-0.4,0.2-0.8,0-1-0.4c-0.1-0.2-0.1-0.5,0-0.7c1.2-2,2.3-4,3.4-6.1
	c0.2-0.4,0.6-0.5,1-0.3s0.5,0.6,0.3,1c0,0,0,0,0,0c-1.1,2-2.3,4.1-3.5,6.1C764.5,152.5,764.4,152.6,764.2,152.7L764.2,152.7z
	 M570.8,225.1c-0.2,0.1-0.4,0.1-0.6,0c-2.2-1.1-4.3-2.2-6.2-3.4c-0.4-0.2-0.5-0.7-0.3-1s0.7-0.5,1-0.3c0,0,0,0,0,0
	c1.9,1.1,3.9,2.3,6.1,3.3c0.4,0.2,0.5,0.7,0.3,1C571,224.9,570.9,225,570.8,225.1z M771,140.4c-0.4,0.2-0.8,0-1-0.4
	c-0.1-0.2-0.1-0.4,0-0.6c1.1-2,2.2-4.1,3.3-6.2c0.2-0.4,0.7-0.5,1-0.3c0.3,0.2,0.5,0.6,0.3,1c-1.1,2.1-2.2,4.1-3.3,6.2
	C771.3,140.3,771.2,140.4,771,140.4z M620.3,198.6c-0.4,0.1-0.8-0.1-1-0.4c0-0.1-0.1-0.2,0-0.4c0.3-2.3,0.5-4.6,0.5-6.8
	c0-0.4,0.3-0.8,0.8-0.8s0.8,0.3,0.8,0.8c0,2.4-0.1,4.7-0.5,7.1C620.8,198.3,620.6,198.5,620.3,198.6z M558.8,217.8
	c-0.2,0.1-0.5,0.1-0.7-0.1c-1.9-1.5-3.6-3.1-5.3-4.8c-0.2-0.3-0.1-0.8,0.2-1c0.3-0.2,0.6-0.2,0.9,0c1.6,1.6,3.3,3.2,5.1,4.6
	c0.3,0.2,0.4,0.7,0.2,1C559.1,217.6,559,217.7,558.8,217.8z M777.7,128.1c-0.4,0.2-0.8,0-1-0.4c-0.1-0.2-0.1-0.4,0-0.6l3.3-6.2
	c0.2-0.4,0.6-0.6,1-0.4c0.4,0.2,0.6,0.6,0.4,1c0,0,0,0.1-0.1,0.1l-3.3,6.2C778,127.9,777.9,128,777.7,128.1L777.7,128.1z
	 M620.2,184.7H620c-0.4,0.1-0.8-0.2-0.9-0.6c0,0,0,0,0,0c-0.4-2.2-1-4.4-1.8-6.6c-0.1-0.4,0.1-0.8,0.4-1c0.4-0.1,0.8,0.1,1,0.4
	c0.8,2.2,1.4,4.5,1.8,6.8C620.7,184.2,620.5,184.6,620.2,184.7L620.2,184.7z M784.3,115.7c-0.4,0.2-0.8,0-1-0.4
	c-0.1-0.2-0.1-0.4,0-0.6c1.1-2.1,2.2-4.1,3.3-6.2c0.2-0.4,0.7-0.5,1-0.3c0.3,0.2,0.5,0.6,0.3,1c-1.1,2.1-2.2,4.1-3.3,6.2
	C784.6,115.5,784.4,115.7,784.3,115.7L784.3,115.7z M549.3,207.6c-0.3,0.1-0.7,0-0.9-0.3c-1.2-1.9-2.3-3.9-3.1-6l-0.1-0.4
	c-0.2-0.4,0-0.8,0.4-1c0.4-0.2,0.8,0,1,0.4c0,0,0,0.1,0,0.1l0.1,0.3c0.8,2,1.8,3.9,3,5.7c0.2,0.3,0.1,0.8-0.2,1L549.3,207.6z
	 M790.9,103.4c-0.4,0.2-0.8,0-1-0.4c-0.1-0.2-0.1-0.4,0-0.6c1.1-2,2.2-4.1,3.4-6.1c0.2-0.4,0.7-0.5,1-0.3c0.3,0.2,0.5,0.6,0.3,1
	c-1.1,2-2.3,4-3.4,6.1C791.2,103.2,791.1,103.3,790.9,103.4z M615.4,171.7c-0.3,0.1-0.7,0-0.9-0.3c-1.2-2-2.5-3.8-4-5.5
	c-0.3-0.3-0.2-0.8,0.1-1.1c0.3-0.3,0.8-0.2,1.1,0.1c1.6,1.8,3,3.7,4.2,5.8c0.2,0.3,0.1,0.8-0.3,1L615.4,171.7z M544.4,194.6h-0.2
	c-0.4,0.1-0.8-0.2-0.8-0.6c-0.3-2.4-0.4-4.8-0.2-7.1c0-0.4,0.3-0.7,0.8-0.7s0.7,0.3,0.7,0.8c0,0,0,0.1,0,0.1
	c-0.2,2.3-0.2,4.6,0.1,6.8C545,194.1,544.8,194.5,544.4,194.6L544.4,194.6z M797.7,91.2c-0.4,0.1-0.8,0-1-0.4
	c-0.1-0.2-0.1-0.4,0-0.6c1.2-2,2.3-4,3.5-6c0.2-0.4,0.7-0.5,1-0.3c0.4,0.2,0.5,0.7,0.3,1c-1.2,2-2.4,4-3.5,6
	C798,91,797.9,91.1,797.7,91.2L797.7,91.2z M991,10.2c-0.1,0-0.3,0-0.5,0c-2.3-0.6-4.5-1.2-6.8-1.7c-0.4-0.1-0.7-0.5-0.6-0.9
	c0.1-0.4,0.5-0.7,0.9-0.6c2.2,0.5,4.5,1.1,6.8,1.7c0.4,0.1,0.7,0.5,0.6,0.9C991.5,9.9,991.3,10.1,991,10.2z M606.2,161.2
	c-0.3,0.1-0.6,0.1-0.8-0.1c-1.8-1.5-3.6-2.9-5.5-4.1c-0.3-0.2-0.4-0.7-0.2-1c0.2-0.3,0.7-0.4,1-0.2c2,1.3,3.9,2.7,5.7,4.2
	c0.3,0.3,0.3,0.8,0,1.1C606.4,161.1,606.3,161.1,606.2,161.2L606.2,161.2z M804.9,79.2c-0.4,0.1-0.8,0-1-0.4
	c-0.1-0.2-0.1-0.5,0.1-0.7c1.3-2,2.5-4,3.8-5.9c0.2-0.3,0.7-0.4,1-0.2c0.3,0.2,0.4,0.7,0.2,1c-1.2,1.9-2.5,3.9-3.7,5.9
	C805.2,79.1,805.1,79.2,804.9,79.2L804.9,79.2z M545.6,180.8c-0.4,0.2-0.8,0-1-0.4c-0.1-0.2-0.1-0.3,0-0.5c0.7-2.3,1.6-4.5,2.7-6.6
	c0.2-0.4,0.6-0.5,1-0.3s0.5,0.6,0.3,1c-1,2-1.9,4.2-2.6,6.4C546,180.5,545.8,180.7,545.6,180.8z M977.4,7c-0.1,0-0.3,0-0.4,0
	c-2.3-0.5-4.6-1-6.8-1.4c-0.4,0-0.7-0.4-0.7-0.8c0-0.4,0.4-0.7,0.8-0.7c0,0,0.1,0,0.1,0c2.3,0.4,4.6,0.9,6.9,1.4
	c0.4,0.1,0.7,0.4,0.6,0.8C977.9,6.7,977.7,6.9,977.4,7z M594,153.4c-2-1-4.2-1.8-6.4-2.2c-0.4-0.1-0.7-0.4-0.6-0.9
	c0.1-0.4,0.4-0.7,0.9-0.6c0,0,0,0,0.1,0c2.4,0.5,4.6,1.3,6.8,2.4L594,153.4z M812.6,67.4c-0.4,0.1-0.8,0-1-0.4
	c-0.1-0.2-0.1-0.5,0.1-0.7c1.3-2,2.7-3.9,4-5.7c0.3-0.3,0.7-0.4,1.1-0.1c0.3,0.2,0.4,0.7,0.2,1c-1.3,1.8-2.7,3.7-4,5.7
	C812.8,67.3,812.7,67.4,812.6,67.4z M551.9,168.3c-0.4,0.2-0.8,0-1-0.4c-0.1-0.2-0.1-0.5,0.1-0.7c1.4-1.9,2.9-3.7,4.6-5.4
	c0.3-0.3,0.8-0.3,1.1,0s0.3,0.8,0,1.1c-1.6,1.6-3.1,3.4-4.5,5.2C552.2,168.2,552,168.3,551.9,168.3z M963.6,4.3c-0.1,0-0.3,0-0.4,0
	c-2.3-0.4-4.6-0.7-6.9-1c-0.4-0.1-0.7-0.4-0.6-0.8c0.1-0.4,0.4-0.7,0.8-0.6l0,0c2.3,0.3,4.6,0.6,6.9,1c0.4,0,0.8,0.3,0.8,0.7
	S964.1,4.3,963.6,4.3L963.6,4.3z M561.7,158.4c-0.4,0.1-0.8,0-1-0.4c-0.1-0.3,0-0.7,0.3-0.9c1.9-1.4,3.9-2.7,6-3.8
	c0.4-0.2,0.8-0.1,1,0.3c0.2,0.4,0.1,0.8-0.3,1c0,0,0,0-0.1,0c-2,1.1-4,2.3-5.8,3.6C561.8,158.4,561.8,158.4,561.7,158.4z M581,150.8
	c-0.1,0-0.1,0-0.2,0.1c-2.3,0.2-4.5,0.6-6.7,1.2c-0.4,0.1-0.8-0.1-0.9-0.5s0.1-0.8,0.5-0.9l0,0c2.3-0.7,4.6-1.1,7-1.3
	c0.4,0,0.8,0.3,0.8,0.7C581.4,150.4,581.3,150.7,581,150.8L581,150.8z M820.8,56.1c-0.4,0.2-0.8,0-1-0.4c-0.1-0.2-0.1-0.5,0.1-0.7
	c1.5-1.9,2.9-3.7,4.4-5.5c0.3-0.3,0.8-0.4,1.1-0.1s0.4,0.8,0.1,1.1c-1.5,1.7-2.9,3.6-4.4,5.4C821,56,820.9,56.1,820.8,56.1z
	 M949.8,2.5c-0.1,0-0.2,0-0.3,0c-2.3-0.2-4.7-0.4-7-0.6c-0.4,0-0.7-0.4-0.7-0.8s0.4-0.7,0.8-0.7c2.3,0.2,4.7,0.4,7,0.6
	c0.4,0,0.8,0.3,0.8,0.7C950.5,2.1,950.2,2.5,949.8,2.5L949.8,2.5z M829.8,45.5c-0.4,0.2-0.8,0-1-0.4c-0.1-0.3,0-0.6,0.1-0.8
	c1.6-1.8,3.2-3.5,4.8-5.1c0.3-0.3,0.8-0.3,1.1,0c0.3,0.3,0.3,0.7,0,1c-1.6,1.6-3.2,3.3-4.8,5.1C830,45.3,829.9,45.4,829.8,45.5z
	 M935.8,1.6c-0.1,0-0.2,0.1-0.3,0.1c-2.3-0.1-4.7-0.1-7-0.1c-0.4,0-0.8-0.3-0.8-0.8s0.3-0.8,0.8-0.8c2.3,0,4.7,0,7,0.1
	c0.4,0,0.7,0.4,0.7,0.8C936.2,1.2,936,1.4,935.8,1.6L935.8,1.6z M839.5,35.5c-0.4,0.2-0.8,0-1-0.4c-0.1-0.3,0-0.6,0.2-0.8
	c1.7-1.6,3.5-3.2,5.3-4.7c0.3-0.3,0.8-0.2,1.1,0.1c0.3,0.3,0.2,0.8-0.1,1.1c-1.8,1.5-3.5,3-5.2,4.6
	C839.7,35.4,839.6,35.4,839.5,35.5z M921.8,1.6c-0.1,0-0.2,0-0.2,0.1c-2.3,0.1-4.7,0.3-7,0.5c-0.4,0-0.8-0.3-0.8-0.7
	c0-0.4,0.3-0.7,0.6-0.8c2.3-0.2,4.7-0.4,7-0.5c0.4,0,0.8,0.3,0.8,0.7C922.3,1.2,922.1,1.5,921.8,1.6z M850.2,26.5
	c-0.4,0.2-0.8,0-1-0.4c-0.1-0.3,0-0.7,0.3-0.9c1.9-1.4,3.8-2.8,5.7-4.1c0.3-0.2,0.8-0.1,1,0.2c0.2,0.3,0.1,0.8-0.2,1l0,0
	c-1.9,1.3-3.8,2.6-5.7,4C850.4,26.4,850.3,26.4,850.2,26.5z M907.9,2.9h-0.2c-2.3,0.3-4.6,0.7-6.9,1.1c-0.4,0.1-0.8-0.1-0.9-0.5
	c-0.1-0.4,0.1-0.8,0.5-0.9c0,0,0.1,0,0.1,0c2.3-0.4,4.6-0.8,6.9-1.2c0.4-0.1,0.8,0.1,0.9,0.5C908.5,2.4,908.3,2.8,907.9,2.9
	L907.9,2.9z M861.9,18.7c-0.4,0.1-0.8-0.1-1-0.5c-0.1-0.3,0-0.7,0.3-0.9c2-1.2,4.1-2.3,6.2-3.4c0.4-0.2,0.8-0.1,1,0.2
	c0.2,0.4,0.1,0.8-0.2,1c0,0-0.1,0-0.1,0.1c-2.1,1-4.1,2.2-6.1,3.4L861.9,18.7z M894.2,5.6L894.2,5.6c-2.4,0.6-4.6,1.2-6.8,1.9
	c-0.4,0.1-0.8,0-1-0.4c-0.1-0.4,0-0.8,0.4-1c0,0,0.1,0,0.1,0c2.2-0.7,4.5-1.3,6.8-1.9c0.4-0.1,0.8,0.1,1,0.5S894.6,5.4,894.2,5.6z
	 M874.3,12.3c-0.4,0.1-0.8-0.1-1-0.5c-0.1-0.4,0-0.7,0.4-0.9c2.1-0.9,4.3-1.8,6.5-2.6c0.4-0.2,0.8,0,1,0.4c0,0,0,0,0,0
	c0.2,0.4,0,0.8-0.4,1c0,0,0,0,0,0C878.6,10.5,876.5,11.4,874.3,12.3L874.3,12.3L874.3,12.3z"/>
</svg>
