<?xml version="1.0" encoding="utf-8"?>
<!-- Generator: Adobe Illustrator 19.2.0, SVG Export Plug-In . SVG Version: 6.00 Build 0)  -->
<svg version="1.1" id="Laag_1" xmlns="http://www.w3.org/2000/svg" xmlns:xlink="http://www.w3.org/1999/xlink" x="0px" y="0px"
	 viewBox="0 0 1432.8 331.4" style="enable-background:new 0 0 1432.8 331.4;" xml:space="preserve">
<style type="text/css">
	.st0{fill:#FCE338;}
</style>
<path class="st0" d="M704.7,0h2.7c0.4,0,0.8,0.3,0.8,0.8s-0.3,0.8-0.8,0.8h-7c-0.4,0-0.8-0.3-0.8-0.8s0.3-0.8,0.8-0.8H704.7L704.7,0
	z M714.3,0L714.3,0l7,0.1c0.4,0,0.7,0.3,0.7,0.8c0,0,0,0,0,0c0,0.4-0.4,0.7-0.8,0.7l-7-0.1c-0.4-0.1-0.6-0.5-0.5-0.9
	C713.8,0.3,714.1,0.1,714.3,0L714.3,0z M693.3,0c0.4,0,0.8,0.3,0.8,0.8s-0.3,0.8-0.8,0.8l-7,0.1c-0.4,0-0.7-0.3-0.8-0.7
	c0-0.4,0.3-0.8,0.7-0.8c0,0,0,0,0,0L693.3,0L693.3,0L693.3,0z M728.3,0.2L728.3,0.2l7,0.2c0.4,0,0.7,0.4,0.7,0.8c0,0,0,0,0,0
	c0,0.4-0.3,0.7-0.7,0.7c0,0,0,0,0,0l-7-0.2c-0.4-0.1-0.6-0.5-0.5-0.9C727.9,0.5,728.1,0.3,728.3,0.2L728.3,0.2z M679.3,0.2
	c0.4,0,0.8,0.3,0.8,0.8s-0.3,0.8-0.8,0.8l-7,0.2c-0.4,0-0.8-0.3-0.8-0.8s0.3-0.8,0.8-0.8L679.3,0.2L679.3,0.2z M742.3,0.6L742.3,0.6
	l7,0.3c0.4,0,0.7,0.4,0.7,0.8c0,0,0,0,0,0c0,0.4-0.4,0.7-0.8,0.7c0,0,0,0,0,0l-7-0.3c-0.4-0.1-0.6-0.6-0.5-0.9
	C741.9,0.9,742.1,0.7,742.3,0.6L742.3,0.6z M665.3,0.6c0.4,0,0.8,0.3,0.8,0.8s-0.3,0.8-0.8,0.8l-7,0.3c-0.4,0-0.8-0.3-0.8-0.7
	c0-0.4,0.3-0.8,0.7-0.8L665.3,0.6L665.3,0.6L665.3,0.6z M756.3,1.1L756.3,1.1l7,0.4c0.4,0,0.7,0.4,0.7,0.8c0,0,0,0,0,0
	c0,0.4-0.4,0.7-0.8,0.7l-7-0.4c-0.4-0.2-0.6-0.6-0.4-1C756,1.5,756.1,1.3,756.3,1.1L756.3,1.1z M651.3,1.3c0.4,0,0.7,0.3,0.7,0.8
	c0,0.4-0.3,0.7-0.7,0.7l-7,0.4c-0.4,0-0.8-0.3-0.8-0.7c0,0,0,0,0,0c0-0.4,0.3-0.8,0.7-0.8L651.3,1.3L651.3,1.3L651.3,1.3z M770.3,2
	L770.3,2l7,0.4c0.4,0,0.7,0.4,0.7,0.8s-0.4,0.7-0.8,0.7l0,0l-7-0.4c-0.4,0-0.7-0.4-0.7-0.8C769.5,2.3,769.9,2,770.3,2z M637.4,2.2
	c0.4,0,0.7,0.3,0.7,0.8c0,0.4-0.3,0.7-0.7,0.7l-7,0.5c-0.4,0-0.8-0.3-0.8-0.7s0.3-0.8,0.7-0.8l7-0.5l0,0L637.4,2.2z M784.3,2.9
	L784.3,2.9l7.1,0.5c0.4,0,0.7,0.4,0.7,0.8c0,0,0,0,0,0c0,0.4-0.4,0.7-0.8,0.7l-7-0.5c-0.4,0-0.7-0.4-0.7-0.8
	C783.5,3.2,783.9,2.9,784.3,2.9z M623.4,3.2c0.4,0,0.8,0.3,0.8,0.7c0,0.4-0.3,0.8-0.7,0.8l-7,0.6c-0.4,0-0.8-0.3-0.8-0.7
	c0-0.4,0.3-0.7,0.6-0.7L623.4,3.2L623.4,3.2L623.4,3.2z M798.2,4.1L798.2,4.1l7.1,0.6c0.4,0.1,0.7,0.5,0.6,0.9
	c-0.1,0.4-0.4,0.6-0.8,0.6l-7-0.6c-0.4,0-0.7-0.4-0.7-0.8C797.4,4.4,797.8,4,798.2,4.1z M609.5,4.4c0.4,0,0.8,0.3,0.8,0.7
	c0,0.4-0.3,0.8-0.7,0.8l-7,0.7c-0.4,0.1-0.8-0.2-0.9-0.6c-0.1-0.4,0.2-0.8,0.6-0.9c0,0,0.1,0,0.1,0L609.5,4.4L609.5,4.4L609.5,4.4z
	 M812.2,5.3L812.2,5.3l7,0.7c0.4,0,0.7,0.4,0.7,0.8c0,0.4-0.4,0.7-0.8,0.7c0,0,0,0-0.1,0l-7-0.7c-0.4-0.1-0.7-0.4-0.6-0.9
	C811.5,5.6,811.8,5.3,812.2,5.3z M595.6,5.8c0.4,0,0.8,0.3,0.8,0.7c0,0.4-0.3,0.8-0.7,0.8l0,0l-7,0.8c-0.4,0.1-0.8-0.2-0.9-0.7
	c-0.1-0.4,0.2-0.8,0.7-0.9L595.6,5.8L595.6,5.8L595.6,5.8z M826.1,6.8L826.1,6.8l7.1,0.8c0.4,0,0.7,0.4,0.7,0.8
	c0,0.4-0.4,0.7-0.8,0.7l-7-0.8c-0.4,0-0.7-0.3-0.7-0.8C825.3,7.2,825.7,6.8,826.1,6.8L826.1,6.8z M581.7,7.5c0.4,0,0.7,0.4,0.7,0.8
	c0,0.4-0.3,0.7-0.6,0.7l-6.9,0.9c-0.4,0.1-0.8-0.2-0.8-0.6c-0.1-0.4,0.2-0.8,0.6-0.8L581.7,7.5L581.7,7.5L581.7,7.5z M840,8.5
	L840,8.5l7,0.9c0.4,0.1,0.7,0.4,0.6,0.8c-0.1,0.4-0.4,0.7-0.8,0.6l0,0l-6.9-0.9c-0.4,0-0.7-0.4-0.7-0.8C839.2,8.8,839.6,8.5,840,8.5
	L840,8.5z M567.8,9.4c0.4,0,0.7,0.4,0.7,0.8c0,0.4-0.3,0.7-0.6,0.7c-2.3,0.3-4.6,0.7-6.9,1c-0.4,0.1-0.8-0.2-0.9-0.6
	c-0.1-0.4,0.2-0.8,0.6-0.9c0,0,0.1,0,0.1,0l6.9-1L567.8,9.4L567.8,9.4z M853.9,10.4L853.9,10.4l7,1c0.4,0.1,0.7,0.5,0.6,0.9
	c-0.1,0.4-0.4,0.6-0.8,0.6l-6.9-1c-0.4,0-0.8-0.4-0.7-0.8S853.5,10.3,853.9,10.4L853.9,10.4z M553.9,11.5c0.4,0,0.7,0.3,0.7,0.8
	c0,0.4-0.3,0.7-0.6,0.7c-2.3,0.4-4.6,0.8-6.9,1.1c-0.4,0.1-0.8-0.2-0.9-0.6s0.2-0.8,0.6-0.9c2.3-0.4,4.6-0.8,6.9-1.1L553.9,11.5
	L553.9,11.5z M867.7,12.3h0.1l6.9,1.1c0.4,0,0.7,0.4,0.7,0.8c0,0.4-0.4,0.7-0.8,0.7c0,0-0.1,0-0.1,0l-6.9-1.1
	c-0.4-0.1-0.7-0.5-0.6-0.9C867.1,12.6,867.4,12.3,867.7,12.3z M540.1,13.8c0.4,0,0.8,0.3,0.8,0.7c0,0.4-0.3,0.7-0.6,0.7
	c-2.3,0.4-4.6,0.8-6.9,1.3c-0.4,0-0.8-0.2-0.8-0.7c0-0.4,0.2-0.7,0.6-0.8c2.3-0.4,4.6-0.8,6.9-1.3L540.1,13.8L540.1,13.8z
	 M881.6,14.5h0.1l6.9,1.2c0.4,0.1,0.7,0.5,0.6,0.9s-0.5,0.7-0.9,0.6l-6.9-1.2c-0.4-0.1-0.7-0.5-0.6-0.9
	C881,14.8,881.2,14.5,881.6,14.5z M526.4,16.4c0.4,0,0.8,0.3,0.8,0.7c0,0.4-0.3,0.7-0.6,0.8c-2.3,0.5-4.6,0.9-6.8,1.4
	c-0.4,0.1-0.8-0.2-0.9-0.6c-0.1-0.4,0.2-0.8,0.6-0.9l0,0c2.3-0.5,4.6-0.9,6.9-1.4L526.4,16.4L526.4,16.4z M895.4,16.9h0.1l6.9,1.2
	c0.4,0,0.7,0.4,0.7,0.8c0,0.4-0.4,0.7-0.8,0.7c0,0-0.1,0-0.1,0l-6.9-1.2c-0.4-0.1-0.7-0.4-0.6-0.9C894.6,17.1,895,16.8,895.4,16.9
	L895.4,16.9z M512.7,19.2c0.4,0,0.7,0.3,0.7,0.8c0,0.3-0.2,0.6-0.6,0.7c-2.3,0.5-4.6,1-6.8,1.5c-0.4,0.1-0.8-0.1-0.9-0.5
	c-0.1-0.4,0.1-0.8,0.5-0.9c0,0,0,0,0.1,0c2.3-0.5,4.5-1,6.8-1.5L512.7,19.2z M909.1,19.4h0.1l6.9,1.3c0.4,0.1,0.7,0.4,0.6,0.9
	c-0.1,0.4-0.4,0.7-0.9,0.6c0,0,0,0-0.1,0l-6.9-1.3c-0.4-0.1-0.6-0.5-0.5-0.9C908.6,19.7,908.8,19.4,909.1,19.4z M922.9,22.1h0.2
	l6.9,1.5c0.4,0.1,0.7,0.5,0.6,0.9c-0.1,0.4-0.5,0.7-0.9,0.6l0,0l-6.8-1.5c-0.4-0.1-0.6-0.5-0.5-0.9
	C922.3,22.4,922.6,22.2,922.9,22.1L922.9,22.1z M499,22.4c0.4,0,0.8,0.3,0.8,0.7c0,0.4-0.2,0.7-0.6,0.7c-2.3,0.6-4.6,1.1-6.8,1.7
	c-0.4,0.1-0.8-0.2-0.9-0.6c-0.1-0.4,0.1-0.7,0.5-0.8c2.2-0.6,4.5-1.1,6.8-1.7L499,22.4z M936.6,25.1h0.2l6.8,1.6
	c0.4,0.1,0.6,0.5,0.5,0.9c-0.1,0.4-0.5,0.6-0.8,0.5l-6.8-1.5c-0.4-0.1-0.7-0.4-0.6-0.8C935.8,25.3,936.2,25,936.6,25.1L936.6,25.1z
	 M485.4,25.8c0.4,0,0.7,0.4,0.7,0.8c0,0.3-0.2,0.6-0.5,0.7c-2.3,0.6-4.5,1.2-6.8,1.8c-0.4,0.1-0.8-0.2-0.9-0.6
	c-0.1-0.4,0.1-0.7,0.5-0.8c2.2-0.6,4.5-1.2,6.8-1.8L485.4,25.8z M950.2,28.2h0.2l6.8,1.6c0.4,0.1,0.7,0.5,0.6,0.9
	c-0.1,0.4-0.5,0.7-0.9,0.6l0,0l-6.8-1.6c-0.4-0.1-0.6-0.6-0.5-1C949.7,28.4,949.9,28.2,950.2,28.2z M471.9,29.6
	c0.4,0,0.8,0.3,0.8,0.8c0,0.3-0.2,0.6-0.5,0.7c-2.3,0.7-4.5,1.3-6.7,2c-0.4,0.1-0.8-0.2-0.9-0.6c-0.1-0.4,0.1-0.7,0.5-0.9
	c2.2-0.7,4.5-1.3,6.7-2C471.8,29.6,471.9,29.6,471.9,29.6z M963.8,31.5h0.2l6.8,1.7c0.4,0.1,0.6,0.6,0.5,0.9
	c-0.1,0.4-0.5,0.6-0.8,0.5l-6.8-1.7c-0.4,0-0.7-0.4-0.7-0.8S963.4,31.4,963.8,31.5L963.8,31.5z M458.6,33.7c0.4,0,0.7,0.3,0.7,0.8
	c0,0.3-0.2,0.6-0.5,0.7c-2.2,0.7-4.4,1.5-6.6,2.2c-0.4,0.1-0.8-0.1-0.9-0.5c-0.1-0.4,0.1-0.8,0.5-0.9c2.2-0.7,4.4-1.5,6.7-2.2
	C458.4,33.7,458.5,33.7,458.6,33.7z M977.4,34.9h0.2l6.8,1.8c0.4,0.1,0.6,0.5,0.5,0.9c-0.1,0.4-0.5,0.6-0.9,0.5l0,0l-6.8-1.8
	c-0.4-0.1-0.7-0.5-0.6-0.9C976.7,35.2,977,34.9,977.4,34.9z M445.3,38.2c0.4,0,0.8,0.3,0.8,0.7c0,0.3-0.2,0.6-0.5,0.7
	c-2.2,0.8-4.4,1.6-6.6,2.4c-0.4,0.2-0.8,0-1-0.4c-0.2-0.4,0-0.8,0.4-1c0,0,0.1,0,0.1,0c2.2-0.8,4.4-1.6,6.6-2.4
	C445.1,38.2,445.2,38.2,445.3,38.2z M990.9,38.6h0.2l6.7,1.9c0.4,0.1,0.7,0.5,0.6,0.9c-0.1,0.4-0.5,0.7-0.9,0.6c0,0-0.1,0-0.1,0
	l-6.7-1.9c-0.4-0.2-0.6-0.6-0.4-1C990.4,38.8,990.6,38.7,990.9,38.6z M1004.4,42.5c0.1,0,0.1,0,0.2,0l6.7,2c0.4,0.1,0.6,0.5,0.5,0.9
	c-0.1,0.4-0.5,0.6-0.9,0.5l0,0l-6.7-2c-0.4-0.1-0.7-0.4-0.6-0.8S1004,42.4,1004.4,42.5L1004.4,42.5z M432.2,43.2
	c0.4,0,0.8,0.3,0.8,0.7c0,0.3-0.2,0.6-0.5,0.7c-2.2,0.9-4.3,1.8-6.5,2.7c-0.4,0.2-0.8,0-1-0.3s0-0.8,0.3-1c0,0,0.1,0,0.1,0
	c2.1-0.9,4.3-1.8,6.5-2.7C432,43.2,432.1,43.2,432.2,43.2z M302.5,44.4h0.5c0.4,0,0.8,0.3,0.8,0.8c0,0.4-0.3,0.7-0.7,0.8
	c0,0,0,0,0,0h-0.5c-2.1,0-4.3,0.1-6.5,0.2c-0.4,0-0.8-0.3-0.8-0.7c0-0.4,0.3-0.8,0.7-0.8l0,0C298.1,44.5,300.4,44.4,302.5,44.4z
	 M310,44.7L310,44.7c2.4,0.2,4.7,0.4,7,0.7c0.4,0.1,0.7,0.4,0.6,0.8c-0.1,0.4-0.4,0.7-0.8,0.7c-2.3-0.3-4.6-0.5-6.9-0.7
	c-0.4,0-0.7-0.4-0.7-0.8C309.2,45,309.6,44.7,310,44.7z M289.1,45.3c0.4,0,0.7,0.4,0.7,0.8c0,0.4-0.3,0.7-0.6,0.7
	c-2.3,0.3-4.6,0.7-6.9,1.1c-0.4,0.1-0.8-0.1-0.9-0.5c-0.1-0.4,0.1-0.8,0.5-0.9c0,0,0.1,0,0.1,0c2.3-0.4,4.6-0.8,6.9-1.1L289.1,45.3
	L289.1,45.3z M1017.8,46.5c0.1,0,0.1,0,0.2,0l6.7,2.1c0.4,0.1,0.6,0.5,0.5,0.9c-0.1,0.4-0.5,0.6-0.9,0.5c0,0,0,0,0,0l-6.7-2.1
	c-0.4-0.2-0.5-0.6-0.4-1C1017.3,46.7,1017.5,46.5,1017.8,46.5L1017.8,46.5z M323.9,46.5h0.1c2.3,0.4,4.6,0.9,6.9,1.5
	c0.4,0.1,0.6,0.5,0.6,0.9c-0.1,0.4-0.5,0.6-0.9,0.6c-2.3-0.6-4.5-1.1-6.8-1.5c-0.4-0.1-0.6-0.5-0.5-0.9
	C323.3,46.7,323.6,46.5,323.9,46.5L323.9,46.5z M275.3,47.8c0.4,0,0.8,0.3,0.8,0.7c0,0.4-0.2,0.7-0.6,0.7c-2.2,0.6-4.5,1.2-6.7,1.9
	c-0.4,0.1-0.8-0.1-0.9-0.5c-0.1-0.4,0.1-0.8,0.5-0.9c2.2-0.7,4.5-1.4,6.8-1.9L275.3,47.8z M419.3,48.6c0.4,0,0.7,0.3,0.7,0.8
	c0,0.3-0.2,0.6-0.4,0.7c-2.1,1-4.3,2-6.3,2.9c-0.4,0.2-0.8,0.1-1-0.3s-0.1-0.8,0.3-1c0,0,0,0,0.1,0c2.1-1,4.2-2,6.4-2.9
	C419.1,48.6,419.2,48.6,419.3,48.6L419.3,48.6z M337.5,49.8c0.1,0,0.1,0,0.2,0c2.2,0.7,4.5,1.4,6.7,2.2c0.4,0.1,0.6,0.6,0.5,0.9
	c-0.1,0.4-0.6,0.6-0.9,0.5c0,0,0,0,0,0c-2.2-0.8-4.4-1.5-6.6-2.2c-0.4-0.2-0.5-0.6-0.4-1C337,50.1,337.2,49.9,337.5,49.8L337.5,49.8
	z M1031.1,50.7c0.1,0,0.2,0,0.2,0l6.7,2.2c0.4,0.1,0.6,0.5,0.5,0.9c-0.1,0.4-0.5,0.6-0.9,0.5c0,0-0.1,0-0.1,0l-6.7-2.2
	c-0.4-0.2-0.5-0.6-0.3-1C1030.7,50.9,1030.9,50.7,1031.1,50.7L1031.1,50.7z M262,52.1c0.4,0,0.8,0.3,0.8,0.7c0,0.3-0.2,0.6-0.5,0.7
	c-2.1,0.8-4.3,1.7-6.4,2.6c-0.4,0.2-0.8,0.1-1-0.3c-0.2-0.4-0.1-0.8,0.3-1c0,0,0.1,0,0.1,0c2.2-1,4.4-1.8,6.5-2.7
	C261.9,52.1,261.9,52.1,262,52.1L262,52.1z M350.6,54.6c0.1,0,0.2,0,0.3,0.1c2.1,0.9,4.3,1.8,6.4,2.8c0.4,0.2,0.5,0.6,0.3,1
	c-0.2,0.3-0.6,0.5-1,0.4c-2.1-1-4.3-1.9-6.4-2.8c-0.4-0.1-0.6-0.6-0.4-1C350,54.8,350.3,54.6,350.6,54.6z M406.7,54.6
	c0.4,0,0.8,0.3,0.8,0.7c0,0.3-0.2,0.5-0.4,0.7c-2.1,1.1-4.2,2.2-6.2,3.2c-0.4,0.2-0.8,0.1-1-0.3c-0.2-0.4-0.1-0.8,0.3-1
	c2-1.1,4.1-2.2,6.2-3.3C406.4,54.6,406.6,54.6,406.7,54.6z M1044.4,55.1c0.1,0,0.2,0,0.2,0l6.6,2.3c0.4,0.1,0.6,0.6,0.5,1
	c-0.1,0.4-0.6,0.6-1,0.5l-6.6-2.2c-0.4-0.1-0.6-0.6-0.5-0.9C1043.8,55.3,1044.1,55.1,1044.4,55.1L1044.4,55.1z M249.2,57.6
	c0.4,0,0.7,0.3,0.7,0.8c0,0.3-0.2,0.5-0.4,0.7c-2,1-4.1,2.1-6.2,3.2c-0.4,0.2-0.8,0.1-1-0.3c-0.2-0.4-0.1-0.8,0.3-1
	c2.1-1.1,4.2-2.2,6.2-3.2C249,57.6,249.1,57.6,249.2,57.6z M1057.6,59.7c0.1,0,0.2,0,0.2,0l6.6,2.4c0.4,0.2,0.6,0.6,0.4,1
	c-0.1,0.4-0.6,0.6-0.9,0.4l-6.6-2.4c-0.3-0.2-0.4-0.7-0.2-1C1057.3,59.9,1057.4,59.8,1057.6,59.7L1057.6,59.7z M363.4,60.4
	c0.1,0,0.2,0,0.3,0.1c2.1,1,4.2,2.1,6.3,3.2c0.4,0.2,0.5,0.6,0.3,1s-0.6,0.5-1,0.3c-2-1.1-4.1-2.1-6.2-3.2c-0.4-0.2-0.5-0.7-0.2-1
	C362.9,60.6,363.1,60.4,363.4,60.4L363.4,60.4z M394.4,61.3c0.4,0,0.8,0.3,0.8,0.7c0,0.3-0.1,0.5-0.4,0.7c-2,1.2-4,2.4-6,3.6
	c-0.4,0.2-0.8,0.1-1-0.2c-0.2-0.4-0.1-0.8,0.2-1c1.9-1.2,3.9-2.5,6-3.7C394.1,61.3,394.2,61.3,394.4,61.3L394.4,61.3z M236.9,64.3
	c0.4,0,0.8,0.3,0.8,0.7c0,0.3-0.1,0.5-0.4,0.7c-1.9,1.2-3.9,2.4-5.9,3.7c-0.3,0.2-0.8,0.2-1-0.2s-0.2-0.8,0.2-1c0,0,0,0,0.1,0
	c2-1.3,4-2.5,6-3.7C236.6,64.4,236.8,64.3,236.9,64.3L236.9,64.3z M1070.7,64.5c0.1,0,0.2,0,0.3,0l6.6,2.5c0.4,0.1,0.6,0.6,0.4,1
	c-0.1,0.4-0.6,0.6-1,0.4l-6.5-2.5c-0.3-0.2-0.4-0.7-0.2-1C1070.4,64.7,1070.6,64.6,1070.7,64.5L1070.7,64.5z M375.7,66.9
	c0.1,0,0.3,0,0.4,0.1c1.6,0.9,3.3,1.9,4.9,2.8l1.2-0.8c0.3-0.3,0.8-0.2,1.1,0.1c0.3,0.3,0.2,0.8-0.1,1.1c0,0-0.1,0-0.1,0.1l-0.7,0.5
	c0.3,0.3,0.3,0.8,0.1,1.1c-0.3,0.3-0.8,0.3-1.1,0.1l-0.3-0.2c-1.2,0.9-2.5,1.8-3.6,2.7c-0.3,0.3-0.8,0.2-1.1-0.1
	c-0.3-0.3-0.2-0.8,0.1-1.1c0,0,0,0,0.1,0c1-0.8,2.1-1.6,3.2-2.3c-1.4-0.8-2.8-1.7-4.3-2.5c-0.4-0.2-0.5-0.7-0.3-1
	C375.2,67.1,375.5,66.9,375.7,66.9L375.7,66.9z M1083.8,69.5c0.1,0,0.2,0,0.3,0.1l6.5,2.6c0.4,0.1,0.6,0.6,0.5,1
	c-0.1,0.4-0.6,0.6-1,0.5c0,0,0,0-0.1,0l-6.5-2.6c-0.4-0.2-0.5-0.7-0.3-1C1083.4,69.7,1083.6,69.6,1083.8,69.5L1083.8,69.5z
	 M225.1,71.9c0.4,0,0.7,0.3,0.7,0.8c0,0.2-0.1,0.5-0.3,0.6c-1.9,1.3-3.8,2.6-5.7,4c-0.3,0.3-0.8,0.2-1.1-0.1
	c-0.3-0.3-0.2-0.8,0.1-1.1c0,0,0,0,0.1,0c1.9-1.4,3.9-2.7,5.8-4C224.8,71.9,224.9,71.9,225.1,71.9z M387.7,74.2c0.1,0,0.3,0,0.4,0.1
	c2,1.3,3.9,2.7,5.8,4c0.3,0.2,0.4,0.7,0.2,1.1c-0.2,0.3-0.7,0.4-1.1,0.2l0,0c-1.8-1.3-3.7-2.7-5.7-4c-0.3-0.3-0.4-0.7-0.1-1.1
	C387.2,74.3,387.5,74.2,387.7,74.2L387.7,74.2z M1096.8,74.7c0.1,0,0.2,0,0.3,0.1l6.4,2.7c0.4,0.2,0.5,0.6,0.3,1
	c-0.2,0.3-0.6,0.5-0.9,0.4l-6.4-2.7c-0.4-0.1-0.6-0.6-0.4-1C1096.2,74.9,1096.4,74.7,1096.8,74.7L1096.8,74.7z M371.5,77.4
	c0.4,0,0.8,0.3,0.8,0.7c0,0.2-0.1,0.4-0.3,0.6c-1.8,1.6-3.5,3.1-5.1,4.7c-0.4,0.2-0.8,0.1-1-0.3c-0.1-0.3-0.1-0.6,0-0.8
	c1.6-1.6,3.4-3.2,5.2-4.8C371.2,77.5,371.3,77.4,371.5,77.4z M213.7,80c0.4,0,0.8,0.3,0.8,0.8c0,0.2-0.1,0.5-0.3,0.6
	c-1.9,1.4-3.7,2.8-5.6,4.2c-0.3,0.2-0.8,0.1-1-0.2c-0.2-0.3-0.2-0.7,0.1-1c1.9-1.4,3.7-2.9,5.6-4.3C213.4,80.1,213.6,80,213.7,80z
	 M1109.6,80.1c0.1,0,0.2,0,0.3,0.1l6.4,2.8c0.4,0.2,0.6,0.6,0.4,1c-0.2,0.4-0.6,0.6-1,0.4l-6.4-2.8c-0.4-0.1-0.6-0.6-0.4-1
	C1109,80.3,1109.3,80.1,1109.6,80.1L1109.6,80.1z M399,82.5c0.2,0,0.3,0.1,0.5,0.2c1.9,1.5,3.7,3.1,5.3,4.6c0.3,0.2,0.4,0.7,0.2,1
	c-0.2,0.3-0.7,0.4-1,0.2c-0.1,0-0.1-0.1-0.1-0.1c-1.6-1.5-3.4-3-5.2-4.6c-0.3-0.3-0.4-0.7-0.1-1.1C398.5,82.6,398.7,82.5,399,82.5z
	 M1122.4,85.6c0.1,0,0.2,0,0.3,0.1l6.4,2.9c0.4,0.2,0.5,0.6,0.4,1c-0.2,0.4-0.6,0.5-1,0.4c-2.1-1-4.2-1.9-6.3-2.9
	c-0.4-0.2-0.6-0.6-0.4-1C1121.8,85.8,1122.1,85.6,1122.4,85.6z M361.5,87.1c0.4,0,0.7,0.3,0.7,0.8c0,0.2-0.1,0.3-0.2,0.5
	c-1.6,1.8-3,3.6-4.3,5.4c-0.2,0.3-0.7,0.4-1,0.2c-0.3-0.2-0.4-0.7-0.2-1c1.3-1.8,2.8-3.7,4.4-5.5C361.1,87.2,361.3,87.2,361.5,87.1
	L361.5,87.1z M202.7,88.6c0.4,0,0.7,0.3,0.7,0.8c0,0.2-0.1,0.4-0.3,0.6c-1.8,1.5-3.6,2.9-5.4,4.4c-0.3,0.3-0.8,0.2-1.1-0.1
	s-0.2-0.8,0.1-1.1c1.8-1.5,3.6-3,5.4-4.4C202.3,88.7,202.5,88.6,202.7,88.6z M1135.1,91.4c0.1,0,0.2,0,0.3,0.1c2.1,1,4.2,2,6.3,3
	c0.4,0.1,0.6,0.6,0.4,1c-0.1,0.4-0.6,0.6-1,0.4c0,0-0.1,0-0.1-0.1c-2.1-1-4.2-2-6.3-3c-0.4-0.2-0.5-0.6-0.3-1
	C1134.6,91.6,1134.8,91.4,1135.1,91.4z M409.2,92c0.2,0,0.4,0.1,0.5,0.2c1.6,1.8,3.2,3.6,4.5,5.4c0.3,0.3,0.2,0.8-0.1,1.1
	c-0.3,0.3-0.8,0.2-1.1-0.1c0,0,0,0,0-0.1c-1.3-1.8-2.8-3.5-4.5-5.3c-0.3-0.3-0.3-0.8,0-1.1C408.8,92.1,409,92,409.2,92z
	 M1147.7,97.4c0.1,0,0.2,0,0.3,0.1c2.1,1,4.2,2,6.3,3.1c0.4,0.2,0.6,0.6,0.4,1c-0.2,0.4-0.6,0.6-1,0.4c0,0,0,0-0.1,0
	c-2.1-1-4.2-2-6.2-3.1c-0.4-0.2-0.5-0.6-0.4-1C1147.1,97.6,1147.4,97.4,1147.7,97.4L1147.7,97.4z M191.9,97.5c0.4,0,0.7,0.3,0.7,0.8
	c0,0.2-0.1,0.4-0.3,0.6l-5.4,4.5c-0.3,0.3-0.8,0.2-1.1-0.1c-0.3-0.3-0.2-0.8,0.1-1.1l5.4-4.5C191.5,97.6,191.7,97.5,191.9,97.5
	L191.9,97.5z M353.4,98.5c0.4,0,0.7,0.3,0.7,0.8c0,0.1,0,0.3-0.1,0.4c-1.1,2-2.1,4.1-2.9,6.2c-0.1,0.4-0.6,0.6-1,0.4
	c-0.4-0.1-0.6-0.6-0.4-1c0.9-2.2,1.9-4.3,3-6.4C352.9,98.7,353.1,98.5,353.4,98.5L353.4,98.5z M417.6,103.2c0.3,0,0.5,0.1,0.6,0.4
	c1.2,2,2.3,4.2,3.1,6.4c0.2,0.4,0,0.8-0.4,1c-0.4,0.2-0.8,0-1-0.4c0,0,0,0,0-0.1c-0.9-2.1-1.9-4.2-3.1-6.2c-0.2-0.4-0.1-0.8,0.3-1
	C417.3,103.2,417.5,103.2,417.6,103.2L417.6,103.2z M1160.2,103.6c0.1,0,0.2,0,0.3,0.1c2.1,1.1,4.2,2.1,6.2,3.2
	c0.4,0.2,0.5,0.7,0.3,1c-0.2,0.3-0.6,0.5-1,0.3c-2.1-1.1-4.1-2.1-6.2-3.2c-0.4-0.2-0.5-0.7-0.3-1
	C1159.7,103.8,1159.9,103.6,1160.2,103.6z M181.2,106.6c0.4,0,0.8,0.3,0.8,0.7c0,0.2-0.1,0.4-0.3,0.6l-5.3,4.6
	c-0.3,0.3-0.8,0.2-1.1-0.1c-0.3-0.3-0.2-0.8,0.1-1.1l5.3-4.6C180.8,106.7,181,106.6,181.2,106.6L181.2,106.6z M1172.7,110
	c0.1,0,0.2,0,0.3,0.1c2.1,1.1,4.1,2.2,6.2,3.3c0.4,0.2,0.5,0.6,0.3,1c-0.2,0.4-0.6,0.5-1,0.3c0,0,0,0-0.1,0
	c-2.1-1.1-4.1-2.2-6.2-3.3c-0.4-0.2-0.6-0.6-0.4-1C1172.1,110.2,1172.3,110,1172.7,110L1172.7,110z M348.5,111.5h0.1
	c0.4,0.1,0.7,0.5,0.6,0.9c0,0,0,0,0,0c-0.5,2.2-0.7,4.5-0.8,6.8c0,0.4-0.3,0.8-0.8,0.8s-0.8-0.3-0.8-0.8c0.1-2.4,0.3-4.7,0.8-7
	C347.8,111.8,348.1,111.5,348.5,111.5L348.5,111.5z M170.5,115.7c0.4,0,0.8,0.3,0.8,0.7c0,0.2-0.1,0.4-0.3,0.6l-5.3,4.5
	c-0.3,0.3-0.8,0.2-1.1-0.1c-0.3-0.3-0.2-0.8,0.1-1.1l5.3-4.5C170.1,115.8,170.3,115.7,170.5,115.7L170.5,115.7z M422.8,116.1
	c0.4,0,0.7,0.3,0.7,0.6c0.5,2.2,0.7,4.5,0.7,6.7v0.4c0,0.4-0.3,0.8-0.8,0.8s-0.8-0.3-0.8-0.8v-0.4c0-2.2-0.2-4.3-0.7-6.4
	c-0.1-0.4,0.2-0.8,0.6-0.9L422.8,116.1z M1185,116.6c0.1,0,0.2,0,0.4,0.1c2,1.1,4.1,2.2,6.1,3.4c0.4,0.2,0.5,0.7,0.3,1
	c-0.2,0.3-0.6,0.5-1,0.3c-2-1.1-4.1-2.3-6.1-3.4c-0.4-0.2-0.5-0.7-0.3-1C1184.4,116.8,1184.7,116.6,1185,116.6z M1197.2,123.4
	c0.1,0,0.3,0,0.4,0.1c2,1.2,4,2.3,6.1,3.5c0.4,0.2,0.5,0.7,0.3,1c-0.2,0.4-0.7,0.5-1,0.3c-2-1.2-4-2.3-6.1-3.5
	c-0.4-0.2-0.5-0.7-0.3-1C1196.7,123.6,1196.9,123.4,1197.2,123.4L1197.2,123.4z M159.8,124.7c0.4,0,0.8,0.3,0.8,0.7
	c0,0.2-0.1,0.4-0.3,0.6c-1.8,1.5-3.6,3-5.4,4.5c-0.3,0.3-0.8,0.2-1.1-0.1s-0.2-0.8,0.1-1.1c1.8-1.5,3.6-3,5.4-4.4
	C159.4,124.8,159.6,124.7,159.8,124.7L159.8,124.7z M348.2,125.3c0.4,0,0.7,0.3,0.7,0.6c0.4,2.3,1,4.5,1.8,6.6c0.2,0.4,0,0.8-0.4,1
	c-0.4,0.2-0.8,0-1-0.4c0,0,0-0.1,0-0.1c-0.8-2.2-1.4-4.5-1.8-6.9c-0.1-0.4,0.2-0.8,0.6-0.9H348.2z M422.6,130h0.2
	c0.4,0.1,0.6,0.5,0.6,0.9c0,0,0,0,0,0c-0.6,2.3-1.4,4.6-2.5,6.7c-0.2,0.4-0.7,0.5-1,0.3c-0.3-0.2-0.5-0.6-0.3-1c1-2,1.8-4.2,2.4-6.4
	C421.9,130.2,422.2,130,422.6,130L422.6,130z M1209.3,130.5c0.1,0,0.3,0,0.4,0.1c2,1.2,4,2.4,6,3.6c0.4,0.2,0.5,0.7,0.3,1
	s-0.7,0.5-1,0.3c0,0,0,0,0,0c-2-1.2-4-2.4-6-3.6c-0.3-0.2-0.4-0.7-0.2-1C1208.8,130.6,1209,130.5,1209.3,130.5L1209.3,130.5z
	 M149,133.6c0.4,0,0.8,0.3,0.8,0.7c0,0.2-0.1,0.5-0.3,0.6c-1.8,1.5-3.7,2.9-5.5,4.3c-0.3,0.3-0.8,0.2-1.1-0.1
	c-0.3-0.3-0.2-0.8,0.1-1.1c1.8-1.4,3.7-2.9,5.5-4.3C148.6,133.7,148.8,133.6,149,133.6z M1221.3,137.7c0.1,0,0.3,0,0.4,0.1
	c2,1.2,4,2.5,6,3.7c0.4,0.2,0.5,0.7,0.2,1c-0.2,0.4-0.7,0.5-1,0.2l0,0c-2-1.2-4-2.5-5.9-3.7c-0.4-0.2-0.5-0.7-0.3-1
	C1220.8,137.9,1221,137.7,1221.3,137.7L1221.3,137.7z M352.8,138.5c0.3,0,0.5,0.1,0.7,0.4c1.1,2,2.3,4,3.7,5.9
	c0.3,0.3,0.2,0.8-0.1,1.1s-0.8,0.2-1.1-0.1c0,0,0,0,0-0.1c-1.4-1.9-2.6-3.9-3.8-6c-0.2-0.4-0.1-0.8,0.3-1
	C352.6,138.5,352.7,138.5,352.8,138.5L352.8,138.5z M137.9,142.2c0.4,0,0.8,0.3,0.8,0.8c0,0.2-0.1,0.5-0.3,0.6
	c-1.9,1.4-3.8,2.8-5.7,4.1c-0.3,0.2-0.8,0.1-1-0.2c-0.2-0.3-0.1-0.8,0.2-1c1.8-1.3,3.7-2.7,5.6-4.1
	C137.6,142.2,137.8,142.2,137.9,142.2L137.9,142.2z M416.4,142.4c0.4,0,0.7,0.3,0.7,0.8c0,0.2-0.1,0.3-0.2,0.5
	c-1.5,1.9-3.1,3.6-4.9,5.2c-0.3,0.3-0.8,0.2-1.1-0.1s-0.2-0.8,0.1-1.1c1.7-1.5,3.3-3.2,4.7-5C415.9,142.5,416.2,142.4,416.4,142.4
	L416.4,142.4z M1233.2,145.2c0.1,0,0.3,0,0.4,0.1c2,1.3,3.9,2.5,5.9,3.8c0.3,0.2,0.4,0.7,0.2,1c-0.2,0.3-0.7,0.4-1,0.2l0,0
	c-2-1.3-3.9-2.5-5.9-3.8c-0.4-0.2-0.5-0.7-0.3-1C1232.6,145.3,1232.9,145.1,1233.2,145.2L1233.2,145.2z M361.5,150.2
	c1.5,1.7,3.2,3.2,5.1,4.4c0.3,0.2,0.4,0.7,0.2,1c-0.2,0.3-0.6,0.4-1,0.2c-2-1.3-3.8-2.9-5.4-4.6L361.5,150.2z M126.5,150.3
	c0.4,0,0.7,0.3,0.7,0.8c0,0.2-0.1,0.5-0.3,0.6c-2,1.3-3.9,2.6-5.9,3.9c-0.4,0.2-0.8,0.1-1-0.3c-0.2-0.3-0.1-0.8,0.2-1
	c1.9-1.2,3.9-2.5,5.8-3.8C126.2,150.3,126.4,150.3,126.5,150.3L126.5,150.3z M406,151.7c0.4,0,0.7,0.3,0.7,0.8
	c0,0.3-0.1,0.5-0.3,0.6c-2,1.3-4.1,2.4-6.3,3.4c-0.4,0.2-0.8,0-1-0.4c-0.2-0.4,0-0.8,0.4-1c2.1-0.9,4.1-2,6.1-3.2
	C405.7,151.8,405.9,151.7,406,151.7L406,151.7z M1244.9,152.8c0.1,0,0.3,0,0.4,0.1c1.9,1.3,3.9,2.6,5.8,3.9c0.3,0.3,0.4,0.7,0.1,1.1
	c-0.2,0.3-0.7,0.4-1,0.2c-1.9-1.3-3.9-2.6-5.8-3.9c-0.4-0.2-0.5-0.7-0.2-1C1244.3,152.9,1244.6,152.8,1244.9,152.8L1244.9,152.8z
	 M393.2,157.3c0.4,0,0.7,0.4,0.7,0.8c0,0.3-0.2,0.6-0.5,0.7c-2.3,0.6-4.6,1.1-7,1.3c-0.4,0-0.8-0.3-0.8-0.7c0-0.4,0.3-0.7,0.6-0.8
	c2.3-0.2,4.5-0.7,6.8-1.3L393.2,157.3z M372.5,157.3c0.1,0,0.2,0,0.2,0c2.2,0.7,4.4,1.1,6.7,1.3c0.4,0.1,0.7,0.5,0.6,0.9
	c-0.1,0.4-0.4,0.6-0.7,0.6c-2.4-0.2-4.7-0.7-7-1.4c-0.4-0.2-0.5-0.6-0.3-1C372.1,157.5,372.3,157.4,372.5,157.3L372.5,157.3z
	 M114.7,157.8c0.4,0,0.7,0.3,0.7,0.8c0,0.3-0.1,0.5-0.4,0.6c-2,1.2-4.1,2.4-6.1,3.5c-0.4,0.2-0.8,0.1-1-0.3s-0.1-0.8,0.3-1
	c2-1.1,4-2.3,6.1-3.5C114.4,157.8,114.6,157.8,114.7,157.8L114.7,157.8z M1256.4,160.6c0.2,0,0.3,0,0.4,0.1c1.9,1.3,3.8,2.7,5.8,4
	c0.3,0.2,0.4,0.7,0.2,1c-0.2,0.3-0.7,0.4-1,0.2l0,0c-1.9-1.3-3.8-2.7-5.7-4c-0.3-0.2-0.4-0.7-0.2-1
	C1256,160.7,1256.2,160.6,1256.4,160.6z M102.4,164.5c0.4,0,0.8,0.3,0.8,0.7c0,0.3-0.2,0.5-0.4,0.7c-2.1,1.1-4.2,2.1-6.3,3
	c-0.4,0.2-0.8,0-1-0.4c-0.2-0.4,0-0.8,0.4-1c2.1-0.9,4.2-1.9,6.3-3C102.2,164.5,102.3,164.5,102.4,164.5L102.4,164.5z M1267.9,168.7
	c0.2,0,0.3,0,0.4,0.1c1.9,1.3,3.8,2.7,5.7,4.1c0.3,0.2,0.4,0.7,0.2,1.1c-0.2,0.3-0.7,0.4-1.1,0.2c-1.9-1.4-3.8-2.7-5.7-4.1
	c-0.3-0.3-0.4-0.7-0.1-1.1C1267.5,168.8,1267.7,168.7,1267.9,168.7L1267.9,168.7z M89.7,170.2c0.4,0,0.8,0.3,0.8,0.7
	c0,0.3-0.2,0.6-0.5,0.7c-2.2,0.9-4.4,1.7-6.6,2.4c-0.4,0.1-0.8-0.1-0.9-0.5c-0.1-0.4,0.1-0.8,0.5-0.9c2.2-0.7,4.4-1.5,6.5-2.4
	C89.5,170.2,89.6,170.2,89.7,170.2z M0.8,171.6c0.1,0,0.2,0,0.2,0c2.2,0.8,4.4,1.5,6.6,2.1c0.4,0.1,0.6,0.5,0.5,0.9
	c-0.1,0.4-0.5,0.6-0.9,0.5c-2.2-0.6-4.5-1.4-6.7-2.1c-0.4-0.2-0.5-0.6-0.3-1C0.3,171.8,0.5,171.6,0.8,171.6z M76.4,174.7
	c0.4,0,0.7,0.3,0.7,0.8c0,0.3-0.2,0.6-0.5,0.7c-2.3,0.6-4.6,1.2-6.8,1.7c-0.4,0.1-0.8-0.2-0.8-0.6c0-0.4,0.2-0.7,0.5-0.8
	c2.2-0.5,4.5-1.1,6.8-1.7L76.4,174.7z M14.2,175.5h0.2c2.3,0.5,4.6,1,6.8,1.4c0.4,0.1,0.6,0.5,0.5,0.9c-0.1,0.4-0.4,0.6-0.8,0.6
	c-2.3-0.4-4.6-0.9-6.9-1.5c-0.4-0.1-0.6-0.6-0.4-1C13.7,175.7,13.9,175.6,14.2,175.5z M1279.2,177c0.2,0,0.3,0.1,0.4,0.1
	c1.9,1.4,3.7,2.8,5.6,4.2c0.3,0.3,0.4,0.7,0.1,1.1c-0.2,0.3-0.7,0.4-1,0.1c-1.9-1.4-3.7-2.8-5.6-4.2c-0.3-0.2-0.4-0.7-0.2-1.1
	C1278.8,177.1,1279,177,1279.2,177L1279.2,177z M62.8,177.6c0.4,0,0.7,0.3,0.7,0.8c0,0.4-0.3,0.7-0.6,0.7c-2.3,0.4-4.7,0.7-7,0.9
	c-0.4,0.1-0.8-0.2-0.9-0.6c-0.1-0.4,0.2-0.8,0.6-0.9c0,0,0.1,0,0.1,0c2.3-0.2,4.6-0.5,6.9-0.9L62.8,177.6L62.8,177.6z M27.9,178
	L27.9,178c2.4,0.3,4.7,0.6,7,0.7c0.4,0,0.7,0.4,0.7,0.8c0,0.4-0.4,0.7-0.8,0.7c-2.3-0.2-4.7-0.4-7-0.7c-0.4-0.1-0.6-0.6-0.5-0.9
	C27.5,178.3,27.7,178.1,27.9,178L27.9,178z M48.9,179c0.4,0,0.8,0.3,0.8,0.8s-0.3,0.8-0.8,0.8c-2.3,0.1-4.7,0.1-7,0.1
	c-0.4,0-0.7-0.3-0.7-0.8c0,0,0,0,0,0c0-0.4,0.4-0.7,0.8-0.7C44.2,179.1,46.5,179.1,48.9,179L48.9,179L48.9,179z M1290.3,185.4
	c0.2,0,0.3,0.1,0.5,0.2c1.8,1.4,3.7,2.9,5.5,4.3c0.3,0.3,0.4,0.7,0.1,1.1s-0.7,0.4-1.1,0.1c-1.8-1.4-3.7-2.9-5.5-4.3
	c-0.3-0.3-0.4-0.7-0.1-1.1C1289.9,185.5,1290.1,185.4,1290.3,185.4L1290.3,185.4z M1301.3,194.1c0.2,0,0.3,0.1,0.5,0.2
	c1.8,1.5,3.6,2.9,5.4,4.4c0.3,0.3,0.4,0.8,0.1,1.1c-0.3,0.3-0.8,0.4-1.1,0.1c-1.8-1.5-3.6-2.9-5.4-4.4c-0.3-0.3-0.4-0.7-0.1-1.1
	C1300.9,194.2,1301.1,194.1,1301.3,194.1L1301.3,194.1z M1312.2,203c0.2,0,0.3,0.1,0.5,0.2c1.8,1.5,3.6,3,5.4,4.5
	c0.3,0.3,0.3,0.8,0.1,1.1c-0.3,0.3-0.8,0.3-1.1,0.1c-1.8-1.5-3.6-3-5.3-4.5c-0.3-0.3-0.3-0.8,0-1.1
	C1311.8,203.1,1312,203,1312.2,203L1312.2,203z M1322.8,212c0.2,0,0.4,0.1,0.5,0.2c1.8,1.5,3.5,3.1,5.3,4.6c0.3,0.3,0.3,0.8,0.1,1.1
	c-0.3,0.3-0.8,0.3-1.1,0.1l0,0c-1.7-1.5-3.5-3.1-5.3-4.6c-0.3-0.3-0.3-0.8,0-1.1C1322.5,212.1,1322.6,212.1,1322.8,212L1322.8,212z
	 M1333.3,221.3c0.2,0,0.4,0.1,0.5,0.2c1.7,1.6,3.5,3.1,5.2,4.7c0.3,0.3,0.3,0.8,0,1.1c-0.3,0.2-0.7,0.3-1,0.1
	c-1.7-1.6-3.4-3.1-5.2-4.7c-0.3-0.3-0.3-0.8,0-1.1C1332.9,221.4,1333.1,221.3,1333.3,221.3L1333.3,221.3z M1343.6,230.8
	c0.2,0,0.4,0.1,0.5,0.2c1.7,1.6,3.4,3.2,5.1,4.8c0.3,0.2,0.4,0.7,0.2,1c-0.2,0.3-0.7,0.4-1,0.2c-0.1,0-0.1-0.1-0.2-0.2
	c-1.7-1.6-3.4-3.2-5.1-4.8c-0.3-0.3-0.3-0.8,0-1.1C1343.3,230.9,1343.4,230.8,1343.6,230.8L1343.6,230.8z M1353.8,240.4
	c0.2,0,0.4,0.1,0.5,0.2c1.7,1.6,3.3,3.3,5,4.9c0.3,0.3,0.3,0.8,0,1.1c-0.3,0.3-0.8,0.3-1.1,0l0,0c-1.7-1.6-3.3-3.3-5-4.9
	c-0.3-0.3-0.3-0.8,0-1.1C1353.4,240.5,1353.6,240.4,1353.8,240.4L1353.8,240.4z M1363.7,250.3c0.2,0,0.4,0.1,0.5,0.2
	c1.6,1.7,3.3,3.3,4.9,5c0.3,0.2,0.4,0.7,0.2,1c-0.2,0.3-0.7,0.4-1,0.2c-0.1-0.1-0.1-0.1-0.2-0.2c-1.6-1.7-3.3-3.3-4.9-5
	c-0.3-0.3-0.2-0.8,0.1-1.1C1363.4,250.4,1363.6,250.3,1363.7,250.3L1363.7,250.3z M1373.5,260.3c0.2,0,0.4,0.1,0.5,0.2
	c1.6,1.7,3.2,3.4,4.8,5.1c0.3,0.3,0.4,0.7,0.1,1.1c-0.3,0.3-0.7,0.4-1.1,0.1c-0.1,0-0.1-0.1-0.1-0.1c-1.6-1.7-3.2-3.4-4.8-5.1
	c-0.2-0.3-0.2-0.8,0.2-1C1373.2,260.4,1373.3,260.3,1373.5,260.3L1373.5,260.3z M1383,270.5c0.2,0,0.4,0.1,0.6,0.2
	c1.6,1.7,3.2,3.4,4.7,5.2c0.2,0.3,0.2,0.8-0.1,1.1c-0.3,0.2-0.7,0.2-1-0.1c-1.6-1.7-3.1-3.5-4.7-5.2c-0.2-0.3-0.2-0.8,0.1-1.1
	C1382.7,270.6,1382.9,270.6,1383,270.5L1383,270.5z M1392.4,280.9c0.2,0,0.4,0.1,0.6,0.2c1.5,1.7,3.1,3.5,4.6,5.3
	c0.3,0.3,0.2,0.8-0.1,1.1c-0.3,0.3-0.8,0.2-1.1-0.1c-1.5-1.8-3.1-3.5-4.6-5.3c-0.3-0.3-0.2-0.8,0.1-1.1
	C1392.1,281,1392.2,281,1392.4,280.9L1392.4,280.9z M1401.6,291.5c0.2,0,0.4,0.1,0.6,0.3c1.5,1.8,3,3.6,4.5,5.4
	c0.3,0.3,0.2,0.8-0.1,1.1c-0.3,0.3-0.8,0.2-1.1-0.1c-1.5-1.8-3-3.6-4.5-5.4c-0.3-0.3-0.2-0.8,0.1-1.1
	C1401.2,291.6,1401.4,291.5,1401.6,291.5L1401.6,291.5z M1410.6,302.2c0.2,0,0.4,0.1,0.6,0.3c1.5,1.8,2.9,3.6,4.4,5.5
	c0.3,0.3,0.2,0.8-0.1,1.1s-0.8,0.2-1.1-0.1c-1.5-1.8-2.9-3.6-4.4-5.4c-0.2-0.3-0.2-0.8,0.2-1
	C1410.3,302.4,1410.4,302.3,1410.6,302.2L1410.6,302.2z M1419.3,313.2c0.2,0,0.4,0.1,0.6,0.3c1.4,1.8,2.9,3.7,4.3,5.5
	c0.3,0.3,0.2,0.8-0.1,1.1c-0.3,0.3-0.8,0.2-1.1-0.1c-1.4-1.8-2.9-3.7-4.3-5.5c-0.2-0.3-0.1-0.8,0.2-1
	C1419,313.3,1419.2,313.2,1419.3,313.2L1419.3,313.2z M1427.9,324.2c0.2,0,0.5,0.1,0.6,0.3c1.4,1.9,2.8,3.7,4.2,5.6
	c0.2,0.3,0.2,0.8-0.2,1c-0.3,0.2-0.8,0.2-1-0.2c-1.4-1.9-2.8-3.7-4.2-5.6c-0.2-0.4-0.1-0.8,0.2-1
	C1427.6,324.3,1427.7,324.3,1427.9,324.2L1427.9,324.2z"/>
</svg>
