<?xml version="1.0" encoding="UTF-8"?>
<svg width="24px" height="26px" viewBox="0 0 24 26" version="1.1" xmlns="http://www.w3.org/2000/svg" xmlns:xlink="http://www.w3.org/1999/xlink">
    <!-- Generator: sketchtool 55.2 (78181) - https://sketchapp.com -->
    <title>BA3DF6CB-4BD7-4CDF-B7ED-CF9A770C73DC</title>
    <desc>Created with sketchtool.</desc>
    <defs>
        <path d="M3.125,3.33333333 L26.875,3.33333333 L26.875,28.6666667 L3.125,28.6666667 L3.125,3.33333333 Z M3.8671875,4.125 L3.8671875,27.875 L26.1328125,27.875 L26.1328125,4.125 L3.8671875,4.125 Z M10.9615104,8.72933333 L10.9615104,9.89334722 L12.3385156,9.89334722 L12.3385156,10.4942222 L10.9615104,10.4942222 L10.9615104,11.6814583 L12.7086198,11.6814583 L12.7086198,12.3055556 L10.2267448,12.3055556 L10.2267448,8.10813889 L12.7086198,8.10813889 L12.7086198,8.72933333 L10.9615104,8.72933333 Z M15.4789583,8.87156944 C15.4571874,8.91220854 15.4340561,8.94171982 15.4095638,8.96010417 C15.3850715,8.97848852 15.3546833,8.98768056 15.3183984,8.98768056 C15.2802993,8.98768056 15.2390258,8.97268302 15.1945768,8.9426875 C15.1501278,8.91269198 15.0970619,8.87931037 15.0353776,8.84254167 C14.9736933,8.80577296 14.9015781,8.77239135 14.8190299,8.74239583 C14.7364818,8.71240031 14.6389676,8.69740278 14.5264844,8.69740278 C14.4248866,8.69740278 14.33599,8.71046515 14.2597917,8.73659028 C14.1835934,8.76271541 14.1196422,8.79899977 14.0679362,8.84544444 C14.0162302,8.89188912 13.9776781,8.94752514 13.9522786,9.01235417 C13.9268792,9.07718319 13.9141797,9.14830054 13.9141797,9.22570833 C13.9141797,9.32440327 13.9400323,9.40664782 13.9917383,9.47244444 C14.0434443,9.53824107 14.111931,9.59436088 14.1972005,9.64080556 C14.28247,9.68725023 14.3795307,9.7288563 14.4883854,9.765625 C14.5972401,9.8023937 14.7088145,9.84158081 14.823112,9.8831875 C14.9374094,9.92479419 15.0489838,9.97317334 15.1578385,10.0283264 C15.2666933,10.0834794 15.3637539,10.1531454 15.4490234,10.2373264 C15.534293,10.3215074 15.6027797,10.4245549 15.6544857,10.5464722 C15.7061917,10.6683895 15.7320443,10.8164297 15.7320443,10.9905972 C15.7320443,11.1802463 15.7016561,11.3577978 15.6408789,11.5232569 C15.5801017,11.6887161 15.491205,11.832886 15.3741862,11.9557708 C15.2571674,12.0786557 15.1142977,12.175414 14.9455729,12.2460486 C14.7768481,12.3166832 14.5836339,12.352 14.3659245,12.352 C14.2407416,12.352 14.1173747,12.3389376 13.9958203,12.3128125 C13.8742659,12.2866874 13.7577024,12.2494354 13.6461263,12.2010556 C13.5345502,12.1526757 13.4297791,12.0946207 13.3318099,12.0268889 C13.2338407,11.9591571 13.1467582,11.8836856 13.0705599,11.8004722 L13.2855469,11.4260139 C13.3036893,11.3989212 13.3272742,11.376183 13.3563021,11.3577986 C13.38533,11.3394143 13.4161717,11.3302222 13.4488281,11.3302222 C13.4941843,11.3302222 13.5431681,11.3500577 13.5957812,11.3897292 C13.6483944,11.4294007 13.7109849,11.4734257 13.7835547,11.5218056 C13.8561245,11.5701854 13.9409392,11.6142104 14.0380013,11.6538819 C14.1350634,11.6935534 14.2516269,11.7133889 14.3876953,11.7133889 C14.5963335,11.7133889 14.7577989,11.6606556 14.8720964,11.5551875 C14.9863938,11.4497194 15.0435417,11.2982927 15.0435417,11.1009028 C15.0435417,10.9905967 15.0176891,10.9006115 14.9659831,10.8309444 C14.9142771,10.7612774 14.8457904,10.7027387 14.7605208,10.6553264 C14.6752513,10.6079141 14.5781906,10.5677594 14.4693359,10.5348611 C14.3604812,10.5019628 14.2498139,10.4661622 14.1373307,10.4274583 C14.0248475,10.3887544 13.9141802,10.3423105 13.8053255,10.288125 C13.6964708,10.2339395 13.5994101,10.163306 13.5141406,10.0762222 C13.4288711,9.98913845 13.3603844,9.88028538 13.3086784,9.74965972 C13.2569724,9.61903407 13.2311198,9.45793151 13.2311198,9.26634722 C13.2311198,9.11346683 13.2596937,8.96445906 13.3168424,8.81931944 C13.3739912,8.67417983 13.4569916,8.5454913 13.5658464,8.43325 C13.6747011,8.3210087 13.8089532,8.23102349 13.9686068,8.16329167 C14.1282603,8.09555985 14.3114964,8.06169444 14.5183203,8.06169444 C14.7505437,8.06169444 14.9646214,8.10039776 15.1605599,8.17780556 C15.3564984,8.25521335 15.5234064,8.36358264 15.6612891,8.50291667 L15.4789583,8.87156944 Z M19.1446224,8.74965278 L17.958112,8.74965278 L17.958112,12.3055556 L17.2260677,12.3055556 L17.2260677,8.74965278 L16.0395573,8.74965278 L16.0395573,8.10813889 L19.1446224,8.10813889 L19.1446224,8.74965278 Z M19.1255729,11.9107778 C19.1255729,11.8507867 19.1360047,11.7936993 19.1568685,11.7395139 C19.1777323,11.6853284 19.2063062,11.6388845 19.2425911,11.6001806 C19.278876,11.5614767 19.3224173,11.530514 19.3732161,11.5072917 C19.424015,11.4840693 19.4784415,11.4724583 19.5364974,11.4724583 C19.5945532,11.4724583 19.6485262,11.4840693 19.698418,11.5072917 C19.7483097,11.530514 19.7918509,11.5614767 19.829043,11.6001806 C19.866235,11.6388845 19.895716,11.6853284 19.917487,11.7395139 C19.9392579,11.7936993 19.9501432,11.8507867 19.9501432,11.9107778 C19.9501432,11.972704 19.9392579,12.0302752 19.917487,12.0834931 C19.895716,12.1367109 19.866235,12.1826711 19.829043,12.221375 C19.7918509,12.2600789 19.7483097,12.2905578 19.698418,12.3128125 C19.6485262,12.3350672 19.5945532,12.3461944 19.5364974,12.3461944 C19.4784415,12.3461944 19.424015,12.3350672 19.3732161,12.3128125 C19.3224173,12.2905578 19.278876,12.2600789 19.2425911,12.221375 C19.2063062,12.1826711 19.1777323,12.1367109 19.1568685,12.0834931 C19.1360047,12.0302752 19.1255729,11.972704 19.1255729,11.9107778 Z M9.45684896,21.6649028 L9.45684896,22.3333333 L6.19320312,22.3333333 L6.19320312,21.6649028 L7.47174479,21.6649028 L7.47174479,17.4434722 C7.47174479,17.3088882 7.47595048,17.1698202 7.48436198,17.0262639 L6.45816406,17.9548889 C6.41891039,17.9877872 6.37965731,18.0087222 6.34040365,18.0176944 C6.30114998,18.0266667 6.26399974,18.0281621 6.22895182,18.0221806 C6.1939039,18.016199 6.1630622,18.0034885 6.13642578,17.9840486 C6.10978936,17.9646087 6.08805998,17.9444214 6.07123698,17.9234861 L5.8146875,17.5421667 L7.62315104,15.8778194 L8.29186198,15.8778194 L8.29186198,21.6649028 L9.45684896,21.6649028 Z M12.9770443,19.7852222 C13.0863938,19.6326937 13.1887322,19.4831581 13.2840625,19.3366111 C13.1326555,19.4592321 12.9637271,19.5519441 12.7772721,19.61475 C12.5908172,19.6775559 12.392449,19.7089583 12.1821615,19.7089583 C11.9606586,19.7089583 11.7482714,19.6685837 11.5449935,19.5878333 C11.3417156,19.5070829 11.1622729,19.3882022 11.0066602,19.2311875 C10.8510474,19.0741728 10.7269796,18.8805243 10.6344531,18.6502361 C10.5419266,18.4199479 10.4956641,18.15527 10.4956641,17.8561944 C10.4956641,17.5750634 10.5447304,17.3103855 10.6428646,17.0621528 C10.7409988,16.8139201 10.8790855,16.5978412 11.0571289,16.4139097 C11.2351723,16.2299782 11.4482605,16.0849288 11.6963997,15.9787569 C11.944539,15.8725851 12.2172077,15.8195 12.5144141,15.8195 C12.8088166,15.8195 13.0758777,15.8703421 13.3156055,15.9720278 C13.5553332,16.0737135 13.7593091,16.2165199 13.9275391,16.4004514 C14.0957691,16.5843829 14.2261454,16.8049478 14.3186719,17.0621528 C14.4111984,17.3193578 14.4574609,17.6019799 14.4574609,17.9100278 C14.4574609,18.0984454 14.4413391,18.277888 14.4090951,18.4483611 C14.376851,18.6188342 14.3305884,18.7848186 14.270306,18.9463194 C14.2100236,19.1078203 14.137125,19.2670756 14.0516081,19.4240903 C13.9660912,19.581105 13.8686594,19.7418557 13.7593099,19.9063472 L12.3083333,22.1269722 C12.2690797,22.1867873 12.2123029,22.2361341 12.1380013,22.2750139 C12.0636997,22.3138937 11.978885,22.3333333 11.8835547,22.3333333 L11.1307292,22.3333333 L12.9770443,19.7852222 Z M11.319987,17.7933889 C11.319987,18.1911594 11.4209235,18.4977073 11.6227995,18.7130417 C11.8246755,18.9283761 12.1050546,19.0360417 12.4639453,19.0360417 C12.6574098,19.0360417 12.8284411,19.0023962 12.9770443,18.9351042 C13.1256474,18.8678122 13.2511171,18.7780908 13.353457,18.6659375 C13.455797,18.5537842 13.5336022,18.4236882 13.586875,18.2756458 C13.6401478,18.1276034 13.6667839,17.9728341 13.6667839,17.8113333 C13.6667839,17.6169342 13.638045,17.44123 13.5805664,17.2842153 C13.5230878,17.1272006 13.4424788,16.994114 13.338737,16.8849514 C13.2349951,16.7757888 13.1123293,16.6920489 12.9707357,16.6337292 C12.8291421,16.5754094 12.6728307,16.54625 12.5017969,16.54625 C12.3251554,16.54625 12.1639374,16.5769048 12.018138,16.6382153 C11.8723387,16.6995258 11.74757,16.7855087 11.6438281,16.8961667 C11.5400863,17.0068246 11.4601782,17.1384159 11.4041016,17.2909444 C11.3480249,17.443473 11.319987,17.6109528 11.319987,17.7933889 Z M18.3435547,18.9732361 C18.7192684,19.0928663 19.0045541,19.2857672 19.1994206,19.5519444 C19.394287,19.8181217 19.4917187,20.1545767 19.4917187,20.5613194 C19.4917187,20.8424505 19.4419515,21.0966609 19.3424154,21.3239583 C19.2428793,21.5512558 19.1026897,21.7449043 18.9218424,21.9049097 C18.7409952,22.0649152 18.5244023,22.188282 18.2720573,22.2750139 C18.0197123,22.3617458 17.7421369,22.4051111 17.4393229,22.4051111 C17.1365089,22.4051111 16.8589336,22.3617458 16.6065885,22.2750139 C16.3542435,22.188282 16.1376506,22.0649152 15.9568034,21.9049097 C15.7759561,21.7449043 15.6357666,21.5512558 15.5362305,21.3239583 C15.4366944,21.0966609 15.3869271,20.8424505 15.3869271,20.5613194 C15.3869271,20.1545767 15.4843588,19.8181217 15.6792253,19.5519444 C15.8740917,19.2857672 16.1593775,19.0928663 16.5350911,18.9732361 C16.2238656,18.8476244 15.989749,18.6599573 15.8327344,18.4102292 C15.6757197,18.1605011 15.5972135,17.863673 15.5972135,17.5197361 C15.5972135,17.2804757 15.6413733,17.05692 15.729694,16.8490625 C15.8180148,16.641205 15.9427835,16.4610147 16.1040039,16.3084861 C16.2652243,16.1559576 16.4593869,16.0363291 16.6864974,15.9495972 C16.9136079,15.8628653 17.1645472,15.8195 17.4393229,15.8195 C17.7140986,15.8195 17.9650379,15.8628653 18.1921484,15.9495972 C18.4192589,16.0363291 18.6134215,16.1559576 18.7746419,16.3084861 C18.9358624,16.4610147 19.0606311,16.641205 19.1489518,16.8490625 C19.2372726,17.05692 19.2814323,17.2804757 19.2814323,17.5197361 C19.2814323,17.863673 19.2029261,18.1605011 19.0459115,18.4102292 C18.8888968,18.6599573 18.6547802,18.8476244 18.3435547,18.9732361 Z M17.4393229,21.7097639 C17.6299836,21.7097639 17.799613,21.6813521 17.9482161,21.6245278 C18.0968193,21.5677034 18.2229899,21.4877019 18.3267318,21.3845208 C18.4304736,21.2813398 18.5089798,21.1579729 18.5622526,21.0144167 C18.6155254,20.8708604 18.6421615,20.7138481 18.6421615,20.543375 C18.6421615,20.3340221 18.6099179,20.1538318 18.5454297,20.0027986 C18.4809415,19.8517654 18.394024,19.7276509 18.2846745,19.6304514 C18.175325,19.5332518 18.0477525,19.4614748 17.9019531,19.4151181 C17.7561538,19.3687613 17.6019453,19.3455833 17.4393229,19.3455833 C17.2738967,19.3455833 17.1182863,19.3687613 16.972487,19.4151181 C16.8266876,19.4614748 16.6991151,19.5332518 16.5897656,19.6304514 C16.4804161,19.7276509 16.3941995,19.8517654 16.3311133,20.0027986 C16.268027,20.1538318 16.2364844,20.3340221 16.2364844,20.543375 C16.2364844,20.7138481 16.2631204,20.8708604 16.3163932,21.0144167 C16.3696661,21.1579729 16.4481722,21.2813398 16.5519141,21.3845208 C16.6556559,21.4877019 16.7818265,21.5677034 16.9304297,21.6245278 C17.0790329,21.6813521 17.2486622,21.7097639 17.4393229,21.7097639 Z M17.4393229,16.4924167 C17.2654852,16.4924167 17.1133796,16.5200807 16.9830013,16.5754097 C16.852623,16.6307387 16.7439761,16.7062542 16.6570573,16.8019583 C16.5701385,16.8976625 16.5049503,17.0083188 16.4614909,17.1339306 C16.4180315,17.2595423 16.3963021,17.3941243 16.3963021,17.5376806 C16.3963021,17.6782461 16.4152277,17.8150711 16.4530794,17.9481597 C16.4909312,18.0812484 16.5512127,18.1993814 16.6339258,18.3025625 C16.7166389,18.4057436 16.8238839,18.4887358 16.9556641,18.5515417 C17.0874442,18.6143475 17.2486622,18.64575 17.4393229,18.64575 C17.6271798,18.64575 17.7876968,18.6143475 17.9208789,18.5515417 C18.054061,18.4887358 18.162007,18.4057436 18.2447201,18.3025625 C18.3274331,18.1993814 18.3877147,18.0812484 18.4255664,17.9481597 C18.4634182,17.8150711 18.4823438,17.6782461 18.4823438,17.5376806 C18.4823438,17.3941243 18.4606144,17.2595423 18.4171549,17.1339306 C18.3736955,17.0083188 18.3085074,16.8976625 18.2215885,16.8019583 C18.1346697,16.7062542 18.0260228,16.6307387 17.8956445,16.5754097 C17.7652663,16.5200807 17.6131606,16.4924167 17.4393229,16.4924167 Z M22.8184505,19.7852222 C22.9278,19.6326937 23.0301384,19.4831581 23.1254687,19.3366111 C22.9740617,19.4592321 22.8051333,19.5519441 22.6186784,19.61475 C22.4322235,19.6775559 22.2338552,19.7089583 22.0235677,19.7089583 C21.8020649,19.7089583 21.5896777,19.6685837 21.3863997,19.5878333 C21.1831218,19.5070829 21.0036792,19.3882022 20.8480664,19.2311875 C20.6924536,19.0741728 20.5683859,18.8805243 20.4758594,18.6502361 C20.3833329,18.4199479 20.3370703,18.15527 20.3370703,17.8561944 C20.3370703,17.5750634 20.3861367,17.3103855 20.4842708,17.0621528 C20.582405,16.8139201 20.7204917,16.5978412 20.8985352,16.4139097 C21.0765786,16.2299782 21.2896667,16.0849288 21.537806,15.9787569 C21.7859453,15.8725851 22.058614,15.8195 22.3558203,15.8195 C22.6502228,15.8195 22.917284,15.8703421 23.1570117,15.9720278 C23.3967395,16.0737135 23.6007153,16.2165199 23.7689453,16.4004514 C23.9371753,16.5843829 24.0675516,16.8049478 24.1600781,17.0621528 C24.2526046,17.3193578 24.2988672,17.6019799 24.2988672,17.9100278 C24.2988672,18.0984454 24.2827454,18.277888 24.2505013,18.4483611 C24.2182572,18.6188342 24.1719947,18.7848186 24.1117122,18.9463194 C24.0514298,19.1078203 23.9785312,19.2670756 23.8930143,19.4240903 C23.8074974,19.581105 23.7100657,19.7418557 23.6007161,19.9063472 L22.1497396,22.1269722 C22.1104859,22.1867873 22.0537091,22.2361341 21.9794076,22.2750139 C21.905106,22.3138937 21.8202913,22.3333333 21.7249609,22.3333333 L20.9721354,22.3333333 L22.8184505,19.7852222 Z M21.1613932,17.7933889 C21.1613932,18.1911594 21.2623297,18.4977073 21.4642057,18.7130417 C21.6660817,18.9283761 21.9464609,19.0360417 22.3053516,19.0360417 C22.4988161,19.0360417 22.6698473,19.0023962 22.8184505,18.9351042 C22.9670537,18.8678122 23.0925234,18.7780908 23.1948633,18.6659375 C23.2972032,18.5537842 23.3750084,18.4236882 23.4282812,18.2756458 C23.4815541,18.1276034 23.5081901,17.9728341 23.5081901,17.8113333 C23.5081901,17.6169342 23.4794512,17.44123 23.4219727,17.2842153 C23.3644941,17.1272006 23.2838851,16.994114 23.1801432,16.8849514 C23.0764014,16.7757888 22.9537355,16.6920489 22.8121419,16.6337292 C22.6705483,16.5754094 22.514237,16.54625 22.3432031,16.54625 C22.1665616,16.54625 22.0053436,16.5769048 21.8595443,16.6382153 C21.7137449,16.6995258 21.5889762,16.7855087 21.4852344,16.8961667 C21.3814925,17.0068246 21.3015845,17.1384159 21.2455078,17.2909444 C21.1894311,17.443473 21.1613932,17.6109528 21.1613932,17.7933889 Z" id="path-1"></path>
    </defs>
    <g id="Flow" stroke="none" stroke-width="1" fill="none" fill-rule="evenodd">
        <g id="App-modal-Live---step-1" transform="translate(-871.000000, -244.000000)">
            <g id="Stacked-Group-2" transform="translate(447.000000, 231.125000)">
                <g transform="translate(80.000000, 10.000000)" id="Group-2">
                    <g transform="translate(341.000000, 0.000000)">
                        <g id="Group">
                            <g id="Stacked-Group">
                                <g id="icon/sketch/est-1989">
                                    <mask id="mask-2" fill="white">
                                        <use xlink:href="#path-1"></use>
                                    </mask>
                                    <g id="Combined-Shape"></g>
                                    <g id="color/flat/old_blue" mask="url(#mask-2)" fill="#00C5E8" fill-rule="evenodd">
                                        <rect id="Rectangle-3" x="0" y="0" width="30" height="32"></rect>
                                    </g>
                                </g>
                            </g>
                        </g>
                    </g>
                </g>
            </g>
        </g>
    </g>
</svg>