<svg xmlns="http://www.w3.org/2000/svg" width="24" height="20" viewBox="0 0 24 20" xmlns:xlink="http://www.w3.org/1999/xlink">
  <defs>
    <polygon id="a" points="19.968 0 0 0 0 19.967 19.968 19.967 19.968 0"/>
  </defs>
  <g fill="none" fill-rule="evenodd">
    <g transform="translate(2)">
      <mask id="b" fill="white">
        <use xlink:href="#a"/>
      </mask>
      <path fill="#FFFFFF" d="M15.9735686,18.6359608 L15.9735686,17.3049804 L16.6033725,17.3049804 L16.1598431,18.6359608 L15.9735686,18.6359608 Z M13.3116078,18.6359608 L14.6425882,18.6359608 L14.6425882,17.3049804 L13.3116078,17.3049804 L13.3116078,18.6359608 Z M10.6492549,18.6359608 L11.9802353,18.6359608 L11.9802353,17.3049804 L10.6492549,17.3049804 L10.6492549,18.6359608 Z M7.98690196,18.6359608 L9.31788235,18.6359608 L9.31788235,17.3049804 L7.98690196,17.3049804 L7.98690196,18.6359608 Z M5.32454902,18.6359608 L6.65552941,18.6359608 L6.65552941,17.3049804 L5.32454902,17.3049804 L5.32454902,18.6359608 Z M3.80847059,18.6359608 L3.36494118,17.3049804 L3.99317647,17.3049804 L3.99317647,18.6359608 L3.80847059,18.6359608 Z M3.99317647,11.9802745 L3.99317647,13.3112549 L2.03239216,13.3112549 L1.5892549,11.9802745 L3.99317647,11.9802745 Z M5.32454902,13.3112549 L6.65552941,13.3112549 L6.65552941,11.9802745 L5.32454902,11.9802745 L5.32454902,13.3112549 Z M7.98690196,13.3112549 L9.31788235,13.3112549 L9.31788235,11.9802745 L7.98690196,11.9802745 L7.98690196,13.3112549 Z M10.6488627,13.3112549 L11.9798431,13.3112549 L11.9798431,11.9802745 L10.6488627,11.9802745 L10.6488627,13.3112549 Z M15.9735686,14.6426275 L17.4912157,14.6426275 L17.0476863,15.9736078 L15.9735686,15.9736078 L15.9735686,14.6426275 Z M13.3116078,13.3112549 L14.6425882,13.3112549 L14.6425882,11.9802745 L13.3116078,11.9802745 L13.3116078,13.3112549 Z M13.3112157,15.9736078 L14.6421961,15.9736078 L14.6421961,14.6426275 L13.3112157,14.6426275 L13.3112157,15.9736078 Z M10.6488627,15.9736078 L11.9798431,15.9736078 L11.9798431,14.6426275 L10.6488627,14.6426275 L10.6488627,15.9736078 Z M7.98690196,15.9736078 L9.31788235,15.9736078 L9.31788235,14.6426275 L7.98690196,14.6426275 L7.98690196,15.9736078 Z M5.32454902,15.9736078 L6.65552941,15.9736078 L6.65552941,14.6426275 L5.32454902,14.6426275 L5.32454902,15.9736078 Z M2.47709804,14.6426275 L3.99317647,14.6426275 L3.99317647,15.9736078 L2.92023529,15.9736078 L2.47709804,14.6426275 Z M17.9355294,13.3112549 L15.9735686,13.3112549 L15.9735686,11.9802745 L18.3790588,11.9802745 L17.9355294,13.3112549 Z M19.8418039,10.9261569 C19.7167059,10.7516471 19.5159216,10.6492941 19.3014118,10.6492941 L10.6488627,10.6492941 L10.6488627,-0.000117647059 L9.31788235,-0.000117647059 L9.31788235,10.6492941 L0.665333333,10.6492941 C0.451215686,10.6492941 0.251607843,10.7516471 0.126509804,10.9261569 C-0.000156862745,11.099098 -0.0334901961,11.3226275 0.0343529412,11.5249804 L2.69670588,19.5120392 C2.78729412,19.7834118 3.04141176,19.9669412 3.32768627,19.9669412 L3.99317647,19.9669412 L15.9735686,19.9669412 L16.6390588,19.9669412 C16.9253333,19.9669412 17.179451,19.7834118 17.2716078,19.5120392 L19.9335686,11.5249804 C20.0014118,11.3226275 19.966902,11.099098 19.8418039,10.9261569 L19.8418039,10.9261569 Z" mask="url(#b)"/>
    </g>
  </g>
</svg>
