<svg xmlns="http://www.w3.org/2000/svg" width="16" height="15" viewBox="0 0 16 15" xmlns:xlink="http://www.w3.org/1999/xlink">
  <defs>
    <rect id="a" width="16" height="6"/>
    <rect id="c" width="10" height="5"/>
  </defs>
  <g fill="none" fill-rule="evenodd">
    <path fill="#FFFFFF" d="M0,4.9955775 C0,4.44573523 0.444630861,4 1.00087166,4 L14.9991283,4 C15.5518945,4 16,4.44483697 16,4.9955775 L16,14.0044225 C16,14.5542648 15.5553691,15 14.9991283,15 L1.00087166,15 C0.448105505,15 0,14.555163 0,14.0044225 L0,4.9955775 Z M1,5 L15,5 L15,14 L1,14 L1,5 Z"/>
    <g transform="translate(0 5)">
      <mask id="b" fill="white">
        <use xlink:href="#a"/>
      </mask>
      <use fill="#D8D8D8" fill-opacity="0" xlink:href="#a"/>
      <path fill="#FFFFFF" d="M8,5 C12.418278,5 16,1.418278 16,-3 C16,-7.418278 12.418278,-11 8,-11 C3.581722,-11 -8.52651283e-14,-7.418278 -8.52651283e-14,-3 C-8.52651283e-14,1.418278 3.581722,5 8,5 Z M8,4 C11.8659932,4 15,0.865993249 15,-3 C15,-6.86599325 11.8659932,-10 8,-10 C4.13400675,-10 1,-6.86599325 1,-3 C1,0.865993249 4.13400675,4 8,4 Z" mask="url(#b)"/>
    </g>
    <path fill="#FFFFFF" d="M7.99928619,11 C7.97063113,11 7.94189395,10.9917391 7.91717998,10.9752969 C7.3118109,10.5727392 6.81966629,10.1235553 6.49403306,9.67635728 C6.17381884,9.23511657 6.00303793,8.79387585 6,8.40021446 C6.00139581,7.99511498 6.17948417,7.65491084 6.51505225,7.4147901 C6.88921025,7.14933079 7.41641422,7.00214464 7.99994304,7 L8.00051779,7 C8.58347187,7 9.11198954,7.14821875 9.48852862,7.41725247 C9.82409669,7.65443425 10.0011177,7.99424123 9.99996819,8.39957901 C10.0026777,8.7843441 9.83222521,9.22622026 9.50708462,9.67596013 C9.1920431,10.10894 8.72600825,10.5396958 8.15569852,10.9256523 C8.14149415,10.9353429 8.12737188,10.9449541 8.1130854,10.9545653 C8.10265791,10.9615553 8.09223042,10.9685452 8.08172083,10.9755352 C8.05700686,10.9918186 8.028516,11 7.99994304,11 L7.99953251,11 L7.99928619,11 Z"/>
    <g transform="translate(3)">
      <mask id="d" fill="white">
        <use xlink:href="#c"/>
      </mask>
      <use fill="#D8D8D8" fill-opacity="0" xlink:href="#c"/>
      <path fill="#FFFFFF" d="M5,8 C7.209139,8 9,6.209139 9,4 C9,1.790861 7.209139,0 5,0 C2.790861,0 1,1.790861 1,4 C1,6.209139 2.790861,8 5,8 Z M5,7 C6.65685425,7 8,5.65685425 8,4 C8,2.34314575 6.65685425,1 5,1 C3.34314575,1 2,2.34314575 2,4 C2,5.65685425 3.34314575,7 5,7 Z" mask="url(#d)"/>
    </g>
  </g>
</svg>
