<?xml version="1.0" encoding="UTF-8"?>
<svg width="14px" height="14px" viewBox="0 0 14 14" version="1.1" xmlns="http://www.w3.org/2000/svg" xmlns:xlink="http://www.w3.org/1999/xlink">
    <!-- Generator: Sketch 48.2 (47327) - http://www.bohemiancoding.com/sketch -->
    <title>white tick@2x</title>
    <desc>Created with Sketch.</desc>
    <defs></defs>
    <g id="Page-1" stroke="none" stroke-width="1" fill="none" fill-rule="evenodd">
        <g id="white-tick" fill="#FFFFFF">
            <path d="M0,7.19792 C0,6.96468 0.08232,6.76672 0.245,6.60306 L1.4357,5.41334 C1.59838,5.24968 1.79732,5.16834 2.02958,5.16834 C2.2638,5.16834 2.46176,5.24968 2.62542,5.41334 L5.19792,7.99368 L10.93778,2.245 C11.10046,2.08232 11.2994,2 11.53362,2 C11.76588,2 11.96482,2.08232 12.1275,2.245 L13.3182,3.4357 C13.48088,3.59838 13.5632,3.79732 13.5632,4.03056 C13.5632,4.2638 13.48088,4.46274 13.3182,4.62542 L6.9825,10.96112 L5.79278,12.15084 C5.62912,12.3145 5.43116,12.39584 5.19792,12.39584 C4.9637,12.39584 4.76574,12.3145 4.60208,12.15084 L3.41236,10.96112 L0.245,7.79278 C0.08232,7.62912 0,7.43116 0,7.19792" id="Fill-3"></path>
        </g>
    </g>
</svg>