<svg xmlns="http://www.w3.org/2000/svg" width="24" height="19" viewBox="0 0 24 19">
  <path fill="#FFFFFF" fill-rule="evenodd" d="M0,2.5 C0,1.67157288 0.666946292,1 1.50130749,1 L22.4986925,1 C23.3278417,1 24,1.66579723 24,2.5 L24,2.5 C24,3.32842712 23.3330537,4 22.4986925,4 L1.50130749,4 C0.672158257,4 0,3.33420277 0,2.5 L0,2.5 Z M0,10.5 C0,9.67157288 0.666946292,9 1.50130749,9 L22.4986925,9 C23.3278417,9 24,9.66579723 24,10.5 L24,10.5 C24,11.3284271 23.3330537,12 22.4986925,12 L1.50130749,12 C0.672158257,12 0,11.3342028 0,10.5 L0,10.5 Z M0,18.5 C0,17.6715729 0.666946292,17 1.50130749,17 L22.4986925,17 C23.3278417,17 24,17.6657972 24,18.5 L24,18.5 C24,19.3284271 23.3330537,20 22.4986925,20 L1.50130749,20 C0.672158257,20 0,19.3342028 0,18.5 L0,18.5 Z" transform="translate(0 -1)"/>
</svg>
