<?xml version="1.0" encoding="UTF-8"?>
<svg width="291px" height="237px" viewBox="0 0 291 237" version="1.1" xmlns="http://www.w3.org/2000/svg" xmlns:xlink="http://www.w3.org/1999/xlink">
    <!-- Generator: Sketch 48.2 (47327) - http://www.bohemiancoding.com/sketch -->
    <title>Group 9</title>
    <desc>Created with Sketch.</desc>
    <defs></defs>
    <g id="Page-1" stroke="none" stroke-width="1" fill="none" fill-rule="evenodd">
        <g id="Group-9">
            <g id="TICK" transform="translate(0.000000, 187.000000)" fill="#ffffff">
                <g id="Group-5" transform="translate(241.000000, 10.000000)">
                    <path d="M43.2659,25.2308 L34.7829,33.7148 C34.5939,33.9028 34.3279,34.0118 34.0619,34.0118 C33.8139,34.0118 33.5459,33.9028 33.3599,33.7148 L27.7049,28.0588 C27.5159,27.8718 27.4229,27.6218 27.4229,27.3558 C27.4229,27.0898 27.5159,26.8248 27.7049,26.6368 L29.1239,25.2308 C29.3139,25.0438 29.5629,24.9338 29.8279,24.9338 C30.0929,24.9338 30.3439,25.0438 30.5309,25.2308 L34.0619,28.7618 L40.4389,22.4028 C40.6259,22.2148 40.8729,22.1058 41.1409,22.1058 C41.4059,22.1058 41.6549,22.2148 41.8419,22.4028 L43.2659,23.8088 C43.4529,23.9968 43.5449,24.2618 43.5449,24.5278 C43.5449,24.7938 43.4529,25.0438 43.2659,25.2308 Z M31.3769,15.7968 C31.3049,15.8238 31.2329,15.8478 31.1609,15.8768 C31.2329,15.8488 31.3049,15.8228 31.3769,15.7968 Z M37.2609,15.2058 C37.2529,15.2038 37.2449,15.2028 37.2369,15.2018 C37.2449,15.2028 37.2529,15.2038 37.2609,15.2058 Z M38.5289,15.4638 L38.4819,15.4528 L38.5289,15.4638 Z M39.7309,15.8468 C39.7169,15.8418 39.7029,15.8368 39.6889,15.8328 C39.7029,15.8368 39.7169,15.8418 39.7309,15.8468 Z M23.8499,29.9428 C23.8659,30.0058 23.8819,30.0708 23.8989,30.1338 C23.8819,30.0708 23.8659,30.0058 23.8499,29.9428 Z M40.8629,16.3438 C48.0029,16.0468 48.1109,11.7508 48.1109,11.5618 C48.1109,11.1028 47.8379,0.3358 24.0559,0.3358 C0.2749,0.3358 0.0019,11.1028 0.0019,11.5618 C0.0019,11.7568 0.0929,16.3728 8.0199,16.3728 C10.3809,16.3728 12.0409,15.6258 12.9539,14.1538 C14.5469,11.5748 12.8589,8.0318 12.6619,7.6368 L9.7889,9.0668 C10.2439,9.9898 10.6949,11.7088 10.2219,12.4698 C9.8459,13.0748 8.6809,13.1658 8.0199,13.1658 C4.3929,13.1658 3.2849,12.0578 3.2089,11.5938 C3.2119,11.5148 3.7949,3.5438 24.0559,3.5438 C44.2639,3.5438 44.8969,11.4718 44.9069,11.4718 C44.8279,12.0578 43.7189,13.1658 40.0919,13.1658 C39.4319,13.1658 38.2659,13.0748 37.8909,12.4698 C37.4169,11.7088 37.8689,9.9898 38.3229,9.0668 L35.4509,7.6368 C35.2529,8.0318 33.5649,11.5748 35.1599,14.1538 C35.3769,14.5048 35.6409,14.8138 35.9439,15.0828 C35.7899,15.0768 35.6399,15.0588 35.4859,15.0588 C34.5639,15.0588 33.6689,15.1728 32.8069,15.3708 C32.0769,13.9538 32.0309,12.7658 32.0309,12.4988 L32.0309,11.6378 L28.8239,11.6378 L28.8239,12.4988 C28.8239,12.8748 28.8879,14.5298 29.8009,16.4918 C26.0419,18.5178 23.4859,22.4908 23.4859,27.0588 C23.4859,27.7908 23.5619,28.5028 23.6879,29.1988 L9.6229,29.1988 L9.6229,23.3158 C19.0069,20.4978 19.2889,13.3358 19.2889,12.4988 L19.2889,11.6378 L16.0819,11.6378 L16.0819,12.4988 C16.0819,13.1138 15.8439,18.5628 7.6469,20.5288 C6.9239,20.7008 6.4159,21.3458 6.4159,22.0878 L6.4159,30.8018 C6.4159,31.6878 7.1329,32.4058 8.0199,32.4058 L24.7549,32.4058 C26.7229,36.3448 30.7839,39.0578 35.4859,39.0578 C42.1089,39.0578 47.4849,33.6838 47.4849,27.0588 C47.4849,22.3698 44.7859,18.3178 40.8629,16.3438 Z" id="Fill-1"></path>
                    <polygon id="Fill-4" points="9.623 38.82 16.038 38.82 16.038 35.613 9.623 35.613"></polygon>
                </g>
                <g id="Group-6" transform="translate(167.000000, 0.000000)">
                    <path d="M38.7386,35.2308 L30.2546,43.7148 C30.0656,43.9028 29.8006,44.0118 29.5336,44.0118 C29.2856,44.0118 29.0176,43.9028 28.8316,43.7148 L23.1766,38.0588 C22.9876,37.8718 22.8946,37.6218 22.8946,37.3558 C22.8946,37.0898 22.9876,36.8248 23.1766,36.6368 L24.5966,35.2308 C24.7856,35.0438 25.0346,34.9338 25.3006,34.9338 C25.5646,34.9338 25.8156,35.0438 26.0036,35.2308 L29.5336,38.7618 L35.9106,32.4028 C36.0976,32.2148 36.3456,32.1058 36.6126,32.1058 C36.8786,32.1058 37.1266,32.2148 37.3136,32.4028 L38.7386,33.8088 C38.9246,33.9968 39.0166,34.2618 39.0166,34.5278 C39.0166,34.7938 38.9246,35.0438 38.7386,35.2308 Z M23.8126,46.6818 C23.8426,46.7038 23.8706,46.7258 23.8996,46.7478 C23.8706,46.7258 23.8426,46.7038 23.8126,46.6818 Z M24.6196,47.2338 L24.7216,47.2948 L24.6196,47.2338 Z M14.9336,46.1448 C13.2736,46.1448 11.9266,44.7978 11.9266,43.1378 C11.9266,41.4788 13.2736,40.1308 14.9336,40.1308 C16.5936,40.1308 17.9406,41.4788 17.9406,43.1378 C17.9406,44.7978 16.5936,46.1448 14.9336,46.1448 Z M20.6726,43.2138 C20.6676,43.2078 20.6626,43.1998 20.6586,43.1918 C20.6626,43.1998 20.6676,43.2078 20.6726,43.2138 Z M3.7086,3.9198 L26.1596,3.9198 L26.1596,26.0648 C21.9226,27.9178 18.9586,32.1408 18.9586,37.0588 C18.9586,37.2398 18.9766,37.4158 18.9846,37.5948 L3.7086,37.5948 L3.7086,3.9198 Z M27.7666,25.5018 C27.7416,25.5088 27.7156,25.5148 27.6896,25.5218 C27.7156,25.5148 27.7416,25.5088 27.7666,25.5018 Z M30.9576,25.0588 C30.4166,25.0588 29.8876,25.1078 29.3656,25.1768 L29.3666,25.1768 L29.3666,2.3168 C29.3666,1.4298 28.6486,0.7128 27.7626,0.7128 L2.1046,0.7128 C1.2186,0.7128 0.5016,1.4298 0.5016,2.3168 L0.5016,47.2158 C0.5016,48.1028 1.2186,48.8198 2.1046,48.8198 L27.7626,48.8198 C27.9316,48.8198 28.0916,48.7868 28.2446,48.7388 C29.1176,48.9408 30.0226,49.0578 30.9576,49.0578 C37.5816,49.0578 42.9576,43.6838 42.9576,37.0588 C42.9576,30.4348 37.5816,25.0588 30.9576,25.0588 Z" id="Fill-6"></path>
                </g>
                <g id="Group-7" transform="translate(74.000000, 13.000000)">
                    <path d="M59.7786,22.2308 L51.2946,30.7148 C51.1066,30.9028 50.8406,31.0118 50.5736,31.0118 C50.3266,31.0118 50.0586,30.9028 49.8726,30.7148 L44.2166,25.0588 C44.0286,24.8718 43.9356,24.6218 43.9356,24.3558 C43.9356,24.0898 44.0286,23.8248 44.2166,23.6368 L45.6366,22.2308 C45.8256,22.0438 46.0746,21.9338 46.3406,21.9338 C46.6056,21.9338 46.8566,22.0438 47.0436,22.2308 L50.5736,25.7618 L56.9516,19.4028 C57.1386,19.2148 57.3856,19.1058 57.6536,19.1058 C57.9186,19.1058 58.1676,19.2148 58.3546,19.4028 L59.7786,20.8088 C59.9656,20.9968 60.0576,21.2618 60.0576,21.5278 C60.0576,21.7938 59.9656,22.0438 59.7786,22.2308 M47.5776,35.2068 C47.7846,35.2888 47.9946,35.3658 48.2076,35.4368 C47.9946,35.3658 47.7846,35.2888 47.5776,35.2068 M46.3406,34.6388 C46.6236,34.7908 46.9136,34.9288 47.2086,35.0578 C46.9136,34.9288 46.6226,34.7908 46.3406,34.6388 M45.4686,34.1178 C45.6476,34.2338 45.8306,34.3428 46.0156,34.4498 C45.8306,34.3428 45.6476,34.2338 45.4686,34.1178 M44.6346,33.5178 C44.7786,33.6308 44.9256,33.7418 45.0756,33.8478 C44.9256,33.7418 44.7786,33.6308 44.6346,33.5178 M43.5916,32.6148 C43.8066,32.8248 44.0296,33.0268 44.2586,33.2198 C44.0296,33.0268 43.8066,32.8248 43.5916,32.6148 M48.5906,35.5598 C48.8526,35.6368 49.1176,35.7048 49.3856,35.7638 C49.1176,35.7048 48.8526,35.6368 48.5906,35.5598 M40.4116,27.1338 C40.3946,27.0708 40.3786,27.0058 40.3616,26.9428 C40.3786,27.0058 40.3946,27.0708 40.4116,27.1338 M39.9986,24.0588 C39.9986,24.7908 40.0746,25.5028 40.1996,26.1988 L7.0826,26.1988 L7.0826,3.7508 L48.7906,3.7508 L48.7906,12.5058 C43.7236,13.9118 39.9986,18.5468 39.9986,24.0588 M50.5276,12.1588 C50.3656,12.1778 50.2076,12.2058 50.0476,12.2318 C50.2066,12.2048 50.3666,12.1788 50.5276,12.1588 M63.9976,24.0588 C63.9976,17.4348 58.6216,12.0588 51.9986,12.0588 C51.6486,12.0588 51.3056,12.0828 50.9646,12.1118 C51.3046,12.0808 51.6486,12.0588 51.9976,12.0588 L51.9976,2.1468 C51.9976,1.2608 51.2806,0.5438 50.3946,0.5438 L5.4786,0.5438 C4.5926,0.5438 3.8756,1.2608 3.8756,2.1468 L3.8756,27.8018 C3.8756,28.6878 4.5926,29.4058 5.4786,29.4058 L41.2676,29.4058 C41.8646,30.6008 42.6476,31.6858 43.5906,32.6128 L0.6696,32.6128 L0.6696,35.8198 L49.6166,35.8198 C50.3866,35.9748 51.1826,36.0578 51.9986,36.0578 C52.8136,36.0578 53.6086,35.9748 54.3786,35.8198 L55.1926,35.8198 L55.1926,35.6148 C60.2646,34.2128 63.9976,29.5758 63.9976,24.0588" id="Fill-7"></path>
                </g>
                <g id="Group-8" transform="translate(0.000000, 1.000000)">
                    <path d="M49.5115,34.3129 L41.0275,42.7969 C40.8385,42.9839 40.5735,43.0939 40.3065,43.0939 C40.0585,43.0939 39.7905,42.9839 39.6045,42.7969 L33.9495,37.1409 C33.7615,36.9539 33.6685,36.7039 33.6685,36.4379 C33.6685,36.1719 33.7615,35.9069 33.9495,35.7189 L35.3695,34.3129 C35.5585,34.1259 35.8075,34.0159 36.0735,34.0159 C36.3385,34.0159 36.5885,34.1259 36.7765,34.3129 L40.3065,37.8439 L46.6835,31.4849 C46.8715,31.2969 47.1185,31.1879 47.3855,31.1879 C47.6515,31.1879 47.8995,31.2969 48.0875,31.4849 L49.5115,32.8909 C49.6975,33.0789 49.7905,33.3439 49.7905,33.6099 C49.7905,33.8759 49.6975,34.1259 49.5115,34.3129 M41.7305,24.1409 C35.1045,24.1409 29.7315,29.5159 29.7315,36.1409 C29.7315,36.8429 29.8035,37.5289 29.9205,38.1989 L3.2075,38.1989 L3.2075,15.7509 L44.9135,15.7509 L44.9135,24.4999 C46.0615,24.8159 47.1385,25.2959 48.1205,25.9169 L48.1205,14.1469 C48.1205,13.2609 47.4035,12.5429 46.5175,12.5429 L25.8585,12.5429 L35.9315,2.4939 L33.6675,0.2229 L23.9765,9.8919 L14.3485,0.2949 L12.0835,2.5659 L22.0935,12.5429 L1.6035,12.5429 C0.7175,12.5429 -0.0005,13.2609 -0.0005,14.1469 L-0.0005,39.8019 C-0.0005,40.6879 0.7175,41.4059 1.6035,41.4059 L30.9615,41.4059 C31.5445,42.5969 32.3085,43.6839 33.2355,44.6129 L12.8355,44.6129 L12.8355,47.8199 L35.2855,47.8199 L35.2855,46.2509 C37.1485,47.4409 39.3565,48.1399 41.7305,48.1399 C48.3545,48.1399 53.7305,42.7649 53.7305,36.1409 C53.7305,29.5159 48.3545,24.1409 41.7305,24.1409" id="Fill-15"></path>
                </g>
            </g>
            <g id="CROSS" transform="translate(0.000000, 0.000000)" fill="#ffffff">
                <g id="Group" transform="translate(241.000000, 10.000000)">
                    <path d="M41.1419,30.2181 C41.3289,30.4051 41.4379,30.6551 41.4379,30.9211 C41.4379,31.1861 41.3289,31.4521 41.1419,31.6401 L39.7359,33.0461 C39.5469,33.2341 39.2819,33.3431 39.0149,33.3431 C38.7509,33.3431 38.4989,33.2341 38.3129,33.0461 L35.4849,30.2181 L32.6559,33.0461 C32.4689,33.2341 32.2199,33.3431 31.9529,33.3431 C31.6869,33.3431 31.4209,33.2341 31.2349,33.0461 L29.8289,31.6401 C29.6409,31.4521 29.5309,31.1861 29.5309,30.9211 C29.5309,30.6551 29.6409,30.4051 29.8289,30.2181 L32.6559,27.3901 L29.8289,24.5621 C29.6409,24.3751 29.5309,24.1241 29.5309,23.8591 C29.5309,23.5931 29.6409,23.3281 29.8289,23.1401 L31.2349,21.7341 C31.4209,21.5471 31.6869,21.4371 31.9529,21.4371 C32.2199,21.4371 32.4689,21.5471 32.6559,21.7341 L35.4849,24.5621 L38.3129,21.7341 C38.4989,21.5471 38.7509,21.4371 39.0149,21.4371 C39.2819,21.4371 39.5469,21.5471 39.7359,21.7341 L41.1419,23.1401 C41.3289,23.3281 41.4379,23.5931 41.4379,23.8591 C41.4379,24.1241 41.3289,24.3751 41.1419,24.5621 L38.3129,27.3901 L41.1419,30.2181 Z M35.4849,15.3901 C28.8599,15.3901 23.4849,20.7661 23.4849,27.3901 C23.4849,28.1061 23.5589,28.8031 23.6789,29.4851 L9.6229,29.4851 L9.6229,23.6031 C19.0069,20.7841 19.2889,13.6231 19.2889,12.7851 L19.2889,11.9251 L16.0819,11.9251 L16.0819,12.7851 C16.0819,13.4001 15.8439,18.8501 7.6469,20.8161 C6.9239,20.9881 6.4159,21.6331 6.4159,22.3751 L6.4159,31.0891 C6.4159,31.9751 7.1329,32.6921 8.0199,32.6921 L24.7329,32.6921 C26.6929,36.6551 30.7649,39.3891 35.4849,39.3891 C42.1099,39.3891 47.4839,34.0151 47.4839,27.3901 C47.4839,20.7661 42.1099,15.3901 35.4849,15.3901 Z" id="Fill-8"></path>
                    <polygon id="Fill-9" points="9.623 39.107 16.038 39.107 16.038 35.9 9.623 35.9"></polygon>
                    <path d="M28.8235,11.9252 L28.8235,12.7852 C28.8235,13.1612 28.8875,14.8162 29.8015,16.7782 C30.7345,16.2752 31.7455,15.9002 32.8065,15.6572 C32.0765,14.2402 32.0305,13.0532 32.0305,12.7852 L32.0305,11.9252 L28.8235,11.9252 Z" id="Fill-10"></path>
                    <path d="M12.9534,14.4403 C14.5474,11.8613 12.8584,8.3183 12.6614,7.9243 L9.7894,9.3543 C10.2434,10.2763 10.6944,11.9953 10.2224,12.7563 C9.8464,13.3613 8.6814,13.4523 8.0194,13.4523 C4.3924,13.4523 3.2844,12.3453 3.2094,11.8813 C3.2124,11.8013 3.7954,3.8303 24.0564,3.8303 C44.2644,3.8303 44.8964,11.7593 44.9064,11.7593 C44.8284,12.3453 43.7194,13.4523 40.0924,13.4523 C39.4324,13.4523 38.2654,13.3613 37.8904,12.7563 C37.4174,11.9953 37.8684,10.2763 38.3224,9.3543 L35.4504,7.9243 C35.2534,8.3183 33.5644,11.8613 35.1594,14.4403 C35.3774,14.7923 35.6404,15.1003 35.9434,15.3693 C37.7084,15.4363 39.3724,15.8813 40.8624,16.6303 C48.0034,16.3343 48.1104,12.0373 48.1104,11.8483 C48.1104,11.3893 47.8384,0.6233 24.0564,0.6233 C0.2744,0.6233 0.0024,11.3893 0.0024,11.8483 C0.0024,12.0443 0.0934,16.6593 8.0194,16.6593 C10.3814,16.6593 12.0414,15.9123 12.9534,14.4403" id="Fill-11"></path>
                </g>
                <g id="Group-2" transform="translate(167.000000, 0.000000)">
                    <path d="M36.6136,39.2181 C36.8006,39.4051 36.9096,39.6551 36.9096,39.9211 C36.9096,40.1861 36.8006,40.4521 36.6136,40.6401 L35.2076,42.0461 C35.0186,42.2341 34.7536,42.3431 34.4866,42.3431 C34.2226,42.3431 33.9706,42.2341 33.7856,42.0461 L30.9566,39.2181 L28.1276,42.0461 C27.9416,42.2341 27.6926,42.3431 27.4246,42.3431 C27.1586,42.3431 26.8926,42.2341 26.7066,42.0461 L25.3006,40.6401 C25.1126,40.4521 25.0036,40.1861 25.0036,39.9211 C25.0036,39.6551 25.1126,39.4051 25.3006,39.2181 L28.1276,36.3901 L25.3006,33.5621 C25.1126,33.3751 25.0036,33.1241 25.0036,32.8591 C25.0036,32.5931 25.1126,32.3281 25.3006,32.1401 L26.7066,30.7341 C26.8926,30.5471 27.1586,30.4371 27.4246,30.4371 C27.6926,30.4371 27.9416,30.5471 28.1276,30.7341 L30.9566,33.5621 L33.7856,30.7341 C33.9706,30.5471 34.2226,30.4371 34.4866,30.4371 C34.7536,30.4371 35.0186,30.5471 35.2076,30.7341 L36.6136,32.1401 C36.8006,32.3281 36.9096,32.5931 36.9096,32.8591 C36.9096,33.1241 36.8006,33.3751 36.6136,33.5621 L33.7856,36.3901 L36.6136,39.2181 Z M14.9336,45.4321 C13.2736,45.4321 11.9266,44.0851 11.9266,42.4251 C11.9266,40.7651 13.2736,39.4191 14.9336,39.4191 C16.5936,39.4191 17.9406,40.7651 17.9406,42.4251 C17.9406,44.0851 16.5936,45.4321 14.9336,45.4321 Z M30.9566,24.3901 C24.3316,24.3901 18.9566,29.7661 18.9566,36.3901 C18.9566,36.5561 18.9746,36.7171 18.9816,36.8821 L3.7086,36.8821 L3.7086,3.2071 L26.1596,3.2071 L26.1596,25.3511 C27.1636,24.9121 28.2406,24.6141 29.3666,24.4641 L29.3666,1.6031 C29.3666,0.7171 28.6486,0.0001 27.7626,0.0001 L2.1046,0.0001 C1.2186,0.0001 0.5016,0.7171 0.5016,1.6031 L0.5016,46.5031 C0.5016,47.3891 1.2186,48.1071 2.1046,48.1071 L27.7626,48.1071 C27.8946,48.1071 28.0176,48.0751 28.1396,48.0431 C29.0456,48.2611 29.9846,48.3891 30.9566,48.3891 C37.5816,48.3891 42.9556,43.0151 42.9556,36.3901 C42.9556,29.7661 37.5816,24.3901 30.9566,24.3901 Z" id="Fill-12"></path>
                </g>
                <g id="Group-3" transform="translate(74.000000, 13.000000)">
                    <path d="M55.1927,36.1068 L55.1927,35.9008 C54.9237,35.9758 54.6547,36.0508 54.3787,36.1068 L55.1927,36.1068 Z" id="Fill-13"></path>
                    <path d="M57.3138,27.2181 C57.4998,27.4051 57.6088,27.6551 57.6088,27.9211 C57.6088,28.1861 57.4998,28.4521 57.3138,28.6401 L55.9078,30.0461 C55.7188,30.2341 55.4538,30.3431 55.1868,30.3431 C54.9228,30.3431 54.6708,30.2341 54.4848,30.0461 L51.6558,27.2181 L48.8268,30.0461 C48.6408,30.2341 48.3918,30.3431 48.1238,30.3431 C47.8588,30.3431 47.5928,30.2341 47.4058,30.0461 L45.9998,28.6401 C45.8128,28.4521 45.7028,28.1861 45.7028,27.9211 C45.7028,27.6551 45.8128,27.4051 45.9998,27.2181 L48.8268,24.3901 L45.9998,21.5621 C45.8128,21.3751 45.7028,21.1241 45.7028,20.8591 C45.7028,20.5931 45.8128,20.3281 45.9998,20.1401 L47.4058,18.7341 C47.5928,18.5471 47.8588,18.4371 48.1238,18.4371 C48.3918,18.4371 48.6408,18.5471 48.8268,18.7341 L51.6558,21.5621 L54.4848,18.7341 C54.6708,18.5471 54.9228,18.4371 55.1868,18.4371 C55.4538,18.4371 55.7188,18.5471 55.9078,18.7341 L57.3138,20.1401 C57.4998,20.3281 57.6088,20.5931 57.6088,20.8591 C57.6088,21.1241 57.4998,21.3751 57.3138,21.5621 L54.4848,24.3901 L57.3138,27.2181 Z M39.6568,24.3901 C39.6568,25.1061 39.7308,25.8031 39.8508,26.4851 L7.0828,26.4851 L7.0828,4.0371 L48.7908,4.0371 L48.7908,12.7491 C43.5508,14.0371 39.6568,18.7551 39.6568,24.3901 Z M51.9978,12.3461 L51.9978,2.4341 C51.9978,1.5481 51.2808,0.8301 50.3948,0.8301 L5.4788,0.8301 C4.5928,0.8301 3.8758,1.5481 3.8758,2.4341 L3.8758,28.0891 C3.8758,28.9751 4.5928,29.6921 5.4788,29.6921 L40.9048,29.6921 C41.4948,30.8851 42.2658,31.9711 43.1998,32.9001 L0.6698,32.9001 L0.6698,36.1071 L49.0878,36.1071 C49.9168,36.2871 50.7738,36.3891 51.6558,36.3891 C58.2808,36.3891 63.6558,31.0151 63.6558,24.3901 C63.6558,17.8921 58.4838,12.5961 52.0338,12.3961 C52.0338,12.3961 52.0018,12.4041 51.9978,12.3461 Z" id="Fill-14"></path>
                </g>
                <g id="Group-4" transform="translate(0.000000, 2.000000)">
                    <path d="M47.5311,39.2181 C47.7171,39.4051 47.8261,39.6551 47.8261,39.9211 C47.8261,40.1861 47.7171,40.4521 47.5311,40.6401 L46.1251,42.0461 C45.9361,42.2341 45.6711,42.3431 45.4041,42.3431 C45.1401,42.3431 44.8881,42.2341 44.7021,42.0461 L41.8731,39.2181 L39.0441,42.0461 C38.8581,42.2341 38.6091,42.3431 38.3411,42.3431 C38.0761,42.3431 37.8101,42.2341 37.6231,42.0461 L36.2171,40.6401 C36.0301,40.4521 35.9201,40.1861 35.9201,39.9211 C35.9201,39.6551 36.0301,39.4051 36.2171,39.2181 L39.0441,36.3901 L36.2171,33.5621 C36.0301,33.3751 35.9201,33.1241 35.9201,32.8591 C35.9201,32.5931 36.0301,32.3281 36.2171,32.1401 L37.6231,30.7341 C37.8101,30.5471 38.0761,30.4371 38.3411,30.4371 C38.6091,30.4371 38.8581,30.5471 39.0441,30.7341 L41.8731,33.5621 L44.7021,30.7341 C44.8881,30.5471 45.1401,30.4371 45.4041,30.4371 C45.6711,30.4371 45.9361,30.5471 46.1251,30.7341 L47.5311,32.1401 C47.7171,32.3281 47.8261,32.5931 47.8261,32.8591 C47.8261,33.1241 47.7171,33.3751 47.5311,33.5621 L44.7021,36.3901 L47.5311,39.2181 Z M44.9601,24.7971 C43.9751,24.5341 42.9411,24.3901 41.8731,24.3901 C35.2481,24.3901 29.8741,29.7661 29.8741,36.3901 C29.8741,40.4371 31.8851,44.0101 34.9571,46.1841 C34.3971,45.7961 33.8611,45.3761 33.3761,44.9001 L12.8881,44.9001 L12.8881,48.1071 L35.3391,48.1071 L35.3391,46.4551 C35.3041,46.4331 35.2731,46.4061 35.2391,46.3841 C37.1401,47.6491 39.4201,48.3891 41.8731,48.3891 C48.4981,48.3891 53.8721,43.0151 53.8721,36.3901 C53.8721,32.0791 51.5891,28.3091 48.1741,26.1931 L48.1741,14.4341 C48.1741,13.5481 47.4571,12.8301 46.5711,12.8301 L26.5671,12.8301 L36.4671,2.9531 L34.2021,0.6821 L24.5121,10.3511 L14.8841,0.7541 L12.6191,3.0251 L22.4561,12.8301 L1.6561,12.8301 C0.7701,12.8301 0.0531,13.5481 0.0531,14.4341 L0.0531,40.0891 C0.0531,40.9751 0.7701,41.6921 1.6561,41.6921 L31.3601,41.6921 C30.8611,40.6941 30.4961,39.6181 30.2921,38.4851 L3.2601,38.4851 L3.2601,16.0371 L44.9671,16.0371 L44.9671,24.7871 L44.9601,24.7971 Z" id="Fill-16"></path>
                </g>
            </g>
            <g id="QUESTION-MARKS" transform="translate(0.000000, 93.000000)">
                <g id="Phone-QM" transform="translate(240.000000, 10.000000)" fill="#ffffff">
                    <polygon id="Fill-1" points="10.571 39.1063 16.985 39.1063 16.985 35.8993 10.571 35.8993"></polygon>
                    <path d="M33.7533,15.6575 C33.0243,14.2405 32.9773,13.0535 32.9773,12.7845 L32.9773,11.9255 L29.7703,11.9255 L29.7703,12.7845 C29.7703,13.1615 29.8343,14.8165 30.7483,16.7785 C31.6823,16.2755 32.6923,15.8995 33.7533,15.6575" id="Fill-2"></path>
                    <path d="M24.6342,29.4852 L10.5712,29.4852 L10.5712,23.6032 C19.9542,20.7842 20.2362,13.6232 20.2362,12.7852 L20.2362,11.9252 L17.0292,11.9252 L17.0292,12.7852 C17.0292,13.4012 16.7902,18.8502 8.5942,20.8162 C7.8702,20.9882 7.3632,21.6332 7.3632,22.3752 L7.3632,31.0892 C7.3632,31.9752 8.0802,32.6932 8.9672,32.6932 L25.7022,32.6932 C25.2032,31.6932 24.8392,30.6182 24.6342,29.4852" id="Fill-4"></path>
                    <path d="M10.7367,9.3538 C11.1907,10.2758 11.6417,11.9958 11.1687,12.7568 C10.7937,13.3618 9.6277,13.4528 8.9667,13.4528 C5.3407,13.4528 4.2307,12.3448 4.1557,11.8818 C4.1597,11.8018 4.7417,3.8308 25.0037,3.8308 C45.2117,3.8308 45.8437,11.7598 45.8527,11.7598 C45.7747,12.3448 44.6667,13.4528 41.0397,13.4528 C40.3787,13.4528 39.2137,13.3618 38.8377,12.7568 C38.3647,11.9958 38.8157,10.2758 39.2697,9.3538 L36.3977,7.9238 C36.2007,8.3188 34.5117,11.8608 36.1057,14.4398 C36.3247,14.7928 36.5887,15.1008 36.8907,15.3698 C38.6557,15.4368 40.3197,15.8808 41.8097,16.6308 C48.9507,16.3338 49.0567,12.0378 49.0567,11.8488 C49.0567,11.3898 48.7847,0.6238 25.0037,0.6238 C1.2207,0.6238 0.9487,11.3898 0.9487,11.8488 C0.9487,12.0438 1.0397,16.6598 8.9667,16.6598 C11.3287,16.6598 12.9887,15.9128 13.8997,14.4398 C15.4947,11.8608 13.8057,8.3188 13.6087,7.9238 L10.7367,9.3538 Z" id="Fill-6"></path>
                    <path d="M38.8734,28.0677 C38.2684,28.4167 37.8894,29.1247 37.8894,29.4217 C37.8894,29.6477 37.7144,29.9147 37.4784,29.9147 L35.0174,29.9147 C34.7914,29.9147 34.6464,29.5657 34.6464,29.3397 L34.6464,28.8787 C34.6464,27.6367 35.8784,26.5697 36.7804,26.1597 C37.5704,25.8007 37.8984,25.4617 37.8984,24.8047 C37.8984,24.2307 37.1494,23.7177 36.3194,23.7177 C35.8564,23.7177 35.4374,23.8607 35.2114,24.0157 C34.9644,24.1897 34.7194,24.4357 34.1124,25.1947 C34.0314,25.2967 33.9084,25.3597 33.7954,25.3597 C33.7044,25.3597 33.6214,25.3287 33.5384,25.2767 L31.8564,23.9947 C31.6814,23.8607 31.6414,23.6357 31.7534,23.4507 C32.8624,21.6147 34.4214,20.7217 36.5144,20.7217 C38.7094,20.7217 41.1724,22.4757 41.1724,24.8257 C41.1724,26.7747 39.8484,27.5247 38.8734,28.0677 Z M37.9294,33.4427 C37.9294,33.6697 37.7464,33.8537 37.5194,33.8537 L35.0574,33.8537 C34.8324,33.8537 34.6464,33.6697 34.6464,33.4427 L34.6464,30.9817 C34.6464,30.7557 34.8324,30.5707 35.0574,30.5707 L37.5194,30.5707 C37.7464,30.5707 37.9294,30.7557 37.9294,30.9817 L37.9294,33.4427 Z M36.4314,15.2887 C29.8064,15.2887 24.4324,20.6637 24.4324,27.2877 C24.4324,33.9127 29.8064,39.2877 36.4314,39.2877 C43.0564,39.2877 48.4314,33.9127 48.4314,27.2877 C48.4314,20.6637 43.0564,15.2887 36.4314,15.2887 Z" id="Fill-18"></path>
                </g>
                <g id="Mobile-QM" transform="translate(167.000000, 0.000000)">
                    <polygon id="Clip-9" points="0.4482 1.0003 29.3142 1.0003 29.3142 49.1064 0.4482 49.1064"></polygon>
                    <path d="M14.8812,46.4324 C13.2212,46.4324 11.8742,45.0854 11.8742,43.4254 C11.8742,41.7654 13.2212,40.4184 14.8812,40.4184 C16.5402,40.4184 17.8882,41.7654 17.8882,43.4254 C17.8882,45.0854 16.5402,46.4324 14.8812,46.4324 M18.9322,37.8814 L3.6552,37.8814 L3.6552,4.2074 L26.1062,4.2074 L26.1062,26.3514 C27.1102,25.9114 28.1882,25.6134 29.3142,25.4644 L29.3142,2.6034 C29.3142,1.7174 28.5962,0.9994 27.7092,0.9994 L2.0522,0.9994 C1.1652,0.9994 0.4482,1.7174 0.4482,2.6034 L0.4482,47.5034 C0.4482,48.3904 1.1652,49.1064 2.0522,49.1064 L27.7092,49.1064 C27.8782,49.1064 28.0382,49.0734 28.1922,49.0254 C23.0422,47.8324 19.1732,43.3314 18.9322,37.8814" id="Fill-8" fill="#ffffff"></path>
                    <path d="M33.3607,38.0677 C32.7557,38.4167 32.3767,39.1247 32.3767,39.4217 C32.3767,39.6477 32.2007,39.9147 31.9647,39.9147 L29.5047,39.9147 C29.2787,39.9147 29.1327,39.5657 29.1327,39.3397 L29.1327,38.8787 C29.1327,37.6367 30.3647,36.5697 31.2677,36.1597 C32.0577,35.8007 32.3857,35.4617 32.3857,34.8047 C32.3857,34.2307 31.6367,33.7177 30.8067,33.7177 C30.3437,33.7177 29.9247,33.8607 29.6987,34.0157 C29.4517,34.1897 29.2067,34.4357 28.5997,35.1947 C28.5177,35.2967 28.3957,35.3597 28.2817,35.3597 C28.1917,35.3597 28.1087,35.3287 28.0257,35.2767 L26.3437,33.9947 C26.1687,33.8607 26.1287,33.6357 26.2407,33.4507 C27.3497,31.6147 28.9087,30.7217 31.0017,30.7217 C33.1957,30.7217 35.6597,32.4757 35.6597,34.8257 C35.6597,36.7747 34.3357,37.5247 33.3607,38.0677 Z M32.4167,43.4427 C32.4167,43.6697 32.2337,43.8537 32.0067,43.8537 L29.5447,43.8537 C29.3197,43.8537 29.1327,43.6697 29.1327,43.4427 L29.1327,40.9817 C29.1327,40.7557 29.3197,40.5707 29.5447,40.5707 L32.0067,40.5707 C32.2337,40.5707 32.4167,40.7557 32.4167,40.9817 L32.4167,43.4427 Z M30.9187,25.2887 C24.2937,25.2887 18.9197,30.6637 18.9197,37.2877 C18.9197,43.9127 24.2937,49.2877 30.9187,49.2877 C37.5437,49.2877 42.9187,43.9127 42.9187,37.2877 C42.9187,30.6637 37.5437,25.2887 30.9187,25.2887 Z" id="Fill-21" fill="#ffffff"></path>
                </g>
                <g id="Laptop-QM" transform="translate(74.000000, 13.000000)">
                    <polygon id="Clip-12" points="54.3251 35.9008 55.3251 35.9008 55.3251 36.2873 54.3251 36.2873"></polygon>
                    <path d="M54.3251,36.1068 L55.1391,36.1068 L55.1391,35.9008 C54.8701,35.9758 54.6011,36.0508 54.3251,36.1068" id="Fill-11" fill="#ffffff"></path>
                    <path d="M43.5375,32.8997 L0.6165,32.8997 L0.6165,36.1067 L49.5645,36.1067 C47.2415,35.6387 45.1635,34.4987 43.5375,32.8997" id="Fill-14" fill="#ffffff"></path>
                    <path d="M40.1469,26.4852 L7.0299,26.4852 L7.0299,4.0382 L48.7379,4.0382 L48.7379,12.7932 C49.7599,12.5092 50.8329,12.3462 51.9449,12.3462 L51.9449,2.4342 C51.9449,1.5482 51.2279,0.8302 50.3409,0.8302 L5.4259,0.8302 C4.5399,0.8302 3.8219,1.5482 3.8219,2.4342 L3.8219,28.0892 C3.8219,28.9752 4.5399,29.6932 5.4259,29.6932 L41.2149,29.6932 C40.7159,28.6932 40.3519,27.6182 40.1469,26.4852" id="Fill-16" fill="#ffffff"></path>
                    <path d="M54.183,25.0677 C53.578,25.4167 53.199,26.1247 53.199,26.4217 C53.199,26.6477 53.023,26.9147 52.788,26.9147 L50.327,26.9147 C50.101,26.9147 49.956,26.5657 49.956,26.3397 L49.956,25.8787 C49.956,24.6367 51.187,23.5697 52.09,23.1597 C52.881,22.8007 53.208,22.4617 53.208,21.8047 C53.208,21.2307 52.459,20.7177 51.629,20.7177 C51.167,20.7177 50.747,20.8607 50.521,21.0157 C50.274,21.1897 50.029,21.4357 49.423,22.1947 C49.341,22.2967 49.219,22.3597 49.104,22.3597 C49.014,22.3597 48.931,22.3287 48.849,22.2767 L47.166,20.9947 C46.991,20.8607 46.951,20.6357 47.063,20.4507 C48.172,18.6147 49.731,17.7217 51.824,17.7217 C54.018,17.7217 56.482,19.4757 56.482,21.8257 C56.482,23.7747 55.158,24.5247 54.183,25.0677 Z M53.239,30.4427 C53.239,30.6697 53.056,30.8537 52.829,30.8537 L50.367,30.8537 C50.142,30.8537 49.956,30.6697 49.956,30.4427 L49.956,27.9817 C49.956,27.7557 50.142,27.5707 50.367,27.5707 L52.829,27.5707 C53.056,27.5707 53.239,27.7557 53.239,27.9817 L53.239,30.4427 Z M51.741,12.2887 C45.116,12.2887 39.742,17.6637 39.742,24.2877 C39.742,30.9127 45.116,36.2877 51.741,36.2877 C58.366,36.2877 63.741,30.9127 63.741,24.2877 C63.741,17.6637 58.366,12.2887 51.741,12.2887 Z" id="Fill-24" fill="#ffffff"></path>
                </g>
                <g id="TV-QM" transform="translate(0.000000, 2.000000)" fill="#ffffff">
                    <path d="M33.3231,43.8997 L12.8351,43.8997 L12.8351,47.1067 L35.2861,47.1067 L35.2861,45.4557 C34.5781,45.0037 33.9191,44.4857 33.3231,43.8997" id="Fill-27"></path>
                    <path d="M29.9325,37.4852 L3.2075,37.4852 L3.2075,15.0382 L44.9135,15.0382 L44.9135,23.7872 C46.0615,24.1032 47.1385,24.5832 48.1205,25.2042 L48.1205,13.4342 C48.1205,12.5482 47.4035,11.8302 46.5175,11.8302 L1.6035,11.8302 C0.7175,11.8302 -0.0005,12.5482 -0.0005,13.4342 L-0.0005,39.0892 C-0.0005,39.9752 0.7175,40.6932 1.6035,40.6932 L31.0005,40.6932 C30.5015,39.6932 30.1375,38.6182 29.9325,37.4852" id="Fill-29"></path>
                    <path d="M44.2621,36.0677 C43.6571,36.4167 43.2781,37.1247 43.2781,37.4217 C43.2781,37.6477 43.1031,37.9147 42.8671,37.9147 L40.4061,37.9147 C40.1801,37.9147 40.0351,37.5657 40.0351,37.3397 L40.0351,36.8787 C40.0351,35.6367 41.2671,34.5697 42.1691,34.1597 C42.9601,33.8007 43.2881,33.4617 43.2881,32.8047 C43.2881,32.2307 42.5381,31.7177 41.7091,31.7177 C41.2461,31.7177 40.8261,31.8607 40.6001,32.0157 C40.3531,32.1897 40.1081,32.4357 39.5021,33.1947 C39.4201,33.2967 39.2981,33.3597 39.1841,33.3597 C39.0931,33.3597 39.0111,33.3287 38.9281,33.2767 L37.2451,31.9947 C37.0701,31.8607 37.0301,31.6357 37.1421,31.4507 C38.2511,29.6147 39.8101,28.7217 41.9031,28.7217 C44.0981,28.7217 46.5611,30.4757 46.5611,32.8257 C46.5611,34.7747 45.2371,35.5247 44.2621,36.0677 Z M43.3181,41.4427 C43.3181,41.6697 43.1351,41.8537 42.9081,41.8537 L40.4461,41.8537 C40.2211,41.8537 40.0351,41.6697 40.0351,41.4427 L40.0351,38.9817 C40.0351,38.7557 40.2211,38.5707 40.4461,38.5707 L42.9081,38.5707 C43.1351,38.5707 43.3181,38.7557 43.3181,38.9817 L43.3181,41.4427 Z M41.8201,23.2887 C35.1951,23.2887 29.8211,28.6637 29.8211,35.2877 C29.8211,41.9127 35.1951,47.2877 41.8201,47.2877 C48.4451,47.2877 53.8201,41.9127 53.8201,35.2877 C53.8201,28.6637 48.4451,23.2887 41.8201,23.2887 Z" id="Fill-32"></path>
                    <path d="M23.3309,13.9285 C22.9199,13.9285 22.5119,13.7715 22.1989,13.4605 L11.4379,2.7345 L13.7029,0.4635 L23.3309,10.0605 L33.0209,0.3915 L35.2859,2.6625 L24.4629,13.4605 C24.1499,13.7715 23.7409,13.9285 23.3309,13.9285" id="Fill-35"></path>
                </g>
            </g>
        </g>
    </g>
</svg>
