<?xml version="1.0" encoding="utf-8"?>
<!-- Generator: Adobe Illustrator 20.0.0, SVG Export Plug-In . SVG Version: 6.00 Build 0)  -->
<svg version="1.1" id="Layer_1" xmlns="http://www.w3.org/2000/svg" xmlns:xlink="http://www.w3.org/1999/xlink" x="0px" y="0px"
	 viewBox="0 0 41.9 41.9" style="enable-background:new 0 0 41.9 41.9;" xml:space="preserve">
<style type="text/css">
	.st0{fill:#ED0000;}
	.st1{fill:#FFFFFF;}
</style>
<circle class="st0" cx="20.9" cy="20.9" r="20.9"/>
<g>
	<g>
		<path class="st1" d="M11.9,31.4c-1.7,0-3.3-0.6-4.5-1.6c-2.2-1.9-3.5-5.1-3.5-8.9c0-3.8,1.3-7.1,3.5-8.9c0.9-0.7,2.3-1.6,4.5-1.6
			c2.5,0,7.6,1.2,13.5,9.4c0.3-0.4,0.6-0.8,0.9-1.1c1.6-2,4.4-4.1,6.9-4.1c0.4,0,0.7,0,1,0.1c2.8,0.7,3.8,3.6,3.8,6.2
			c0,2.6-1,5.6-3.8,6.2c-0.3,0.1-0.7,0.1-1,0.1c-2.5,0-5.3-2-6.9-4.1c-0.3-0.4-0.6-0.8-0.9-1.1C19.5,30.2,14.4,31.4,11.9,31.4z
			 M11.9,11.8c-1.8,0-3,0.7-3.7,1.2c-1.9,1.6-3,4.5-3,7.9c0,3.4,1.1,6.3,3,7.9c1,0.8,2.3,1.2,3.7,1.2c2.3,0,7-1.2,12.6-9l0.1-0.2
			l-0.1-0.2C18.8,13,14.2,11.8,11.9,11.8z M26.3,20.9l0.2,0.2c0.3,0.4,0.6,0.8,0.9,1.2c1.4,1.7,3.8,3.6,5.8,3.6c0.3,0,0.5,0,0.7-0.1
			c2-0.5,2.8-2.8,2.8-4.9c0-2.1-0.7-4.4-2.8-4.9C33.7,16,33.5,16,33.2,16c-2.1,0-4.5,1.8-5.8,3.6c-0.3,0.4-0.6,0.8-0.9,1.2
			L26.3,20.9z"/>
	</g>
</g>
</svg>
