<svg xmlns="http://www.w3.org/2000/svg" viewBox="0 0 29.83 29.83"><title>checkbox-selected</title><rect x="0.5" y="0.5" width="28.83" height="28.83" rx="8" ry="8" style="fill:#fff"/><path d="M21.42,29.92H8.58a8.51,8.51,0,0,1-8.5-8.5V8.58A8.51,8.51,0,0,1,8.58.08H21.42a8.51,8.51,0,0,1,8.5,8.5V21.42A8.51,8.51,0,0,1,21.42,29.92ZM8.58,1.08a7.51,7.51,0,0,0-7.5,7.5V21.42a7.51,7.51,0,0,0,7.5,7.5H21.42a7.51,7.51,0,0,0,7.5-7.5V8.58a7.51,7.51,0,0,0-7.5-7.5H8.58Z" transform="translate(-0.08 -0.08)" style="fill:#deddd8"/><path d="M13,23.77a0.24,0.24,0,0,1-.35,0h0L5.2,16.3a0.22,0.22,0,0,1,0-.31l2.38-2.64a0.24,0.24,0,0,1,.35,0h0l4.32,4.32a0.24,0.24,0,0,0,.35,0h0L21.7,7.74a0.24,0.24,0,0,1,.35,0h0L24.8,10.5a0.22,0.22,0,0,1,0,.31Z" transform="translate(-0.08 -0.08)" style="fill:#00aeaa"/></svg>