<svg xmlns="http://www.w3.org/2000/svg" viewBox="0 0 32 32">
    <path fill="#FFFFFF" d="M30.344.086c-.242.11-.512.422-.68.789-.11.227-.133.406-.133.938 0 .363.024.73.051.832.043.16.035.167-.125.125-.102-.028-.469-.051-.832-.051-.54 0-.707.023-.945.136-.95.434-1.336 1.403-1.078 2.708l.03.156h-.831c-.79 0-.852.011-1.188.176-.383.187-.656.46-.875.875-.133.238-.144.347-.144 1.125v.863l-.211-.04c-.332-.062-1.153-.05-1.422.024a1.95 1.95 0 0 0-1.305 1.278c-.101.343-.117 1.043-.039 1.468.051.254.047.27-.078.239-.426-.102-1.094-.11-1.477-.016-.707.184-1.125.562-1.167 1.082-.04.406.125.695.48.875.355.187.52.184.926-.023.324-.165.344-.168.781-.09 1.238.218 1.492.218 1.93-.004.133-.063.312-.23.406-.375.219-.324.258-.871.121-1.606-.125-.672-.133-1-.008-1.047.051-.023.45.028.883.102.86.156 1.188.145 1.578-.063.395-.199.633-.636.633-1.148 0-.144-.055-.582-.133-.969-.066-.39-.11-.746-.094-.797.047-.117.465-.109 1.079.016.98.203 1.68.016 1.953-.527.195-.38.215-.692.093-1.364a8.901 8.901 0 0 1-.117-.898c0-.273.008-.281.207-.3.114-.013.418.027.676.073.656.141 1.297.125 1.629-.015.414-.188.605-.547.633-1.133.02-.29-.02-.68-.074-.969-.141-.648-.125-.875.035-1.094.183-.25.187-.742.011-.98-.296-.395-.785-.55-1.18-.371ZM17.617.832a.99.99 0 0 0-.328.438c-.11.253-.113.332-.05.593.148.582.198 1.332.136 1.992-.18 1.758-.875 3.2-2.336 4.82-.445.49-.508.637-.457 1.012.043.344.25.602.574.72.48.187.668.113 1.313-.555 1.96-2.016 3.011-4.766 2.781-7.258-.074-.77-.188-1.274-.344-1.508-.261-.399-.886-.524-1.289-.254ZM22.582 2.695c-.809.168-.996 1.25-.293 1.688.375.23.98.11 1.234-.238.188-.25.207-.778.051-1.032a.909.909 0 0 0-.992-.418ZM12.992 4.145c-.765.511-.41 1.68.508 1.68.5 0 .863-.333.918-.833A.901.901 0 0 0 13.5 4c-.2 0-.363.043-.508.145ZM8.73 9.055c-.093.062-.21.172-.261.238-.043.07-1.895 4.934-4.102 10.809C1.22 28.492.355 30.844.355 31.082c-.003.316.114.531.418.754.395.297-.003.434 11.477-3.879 9.582-3.594 10.68-4.027 10.883-4.219.285-.281.36-.613.21-.965-.07-.18-1.874-2.015-6.706-6.855-3.63-3.645-6.719-6.7-6.848-6.8-.3-.223-.777-.25-1.059-.063Zm4.801 7.101c.352 2.696 1.426 5.45 2.95 7.574.183.258.331.477.331.48 0 .063-3.937 1.49-4.019 1.458-.156-.055-1.098-1.23-1.613-2-1.305-1.969-2.106-4.117-2.438-6.543-.043-.324-.078-1.156-.086-1.844v-1.25l.461-1.238.469-1.238 3.851 3.851Zm7.168 6.602c-.062.055-1.906.742-1.992.742-.039 0-.25-.242-.477-.55a15.088 15.088 0 0 1-2.46-5.106c-.02-.07 1.093 1 2.472 2.375 1.375 1.375 2.485 2.511 2.457 2.539ZM7.187 19.094c.493 2.281 1.727 4.836 3.243 6.738.246.3.445.566.445.594 0 .023-.863.363-1.914.754-1.656.62-1.91.703-1.98.62C6 26.563 5.604 25.993 5.081 25l-.32-.594 1.027-2.718c.563-1.493 1.066-2.836 1.125-2.989.055-.148.11-.262.125-.25.004.012.078.309.149.645Zm-2.93 8.187c.173.274.462.68.63.895.168.219.3.406.289.418-.043.039-2.258.851-2.27.832-.02-.028.98-2.684 1.008-2.664.004.011.16.246.344.52ZM29.219 9.313a.894.894 0 0 0-.73.906c0 .539.378.906.925.906.543 0 .898-.363.898-.906 0-.606-.511-1.031-1.093-.906ZM28 13.102c-1.367.253-2.008.46-3.008.968-.824.418-1.586.95-2.387 1.649-.613.539-.742.738-.742 1.133 0 .53.38.91.91.91.36 0 .446-.055 1.047-.606.91-.836 2.106-1.554 3.172-1.898 1.008-.328 2.258-.414 3.266-.219.625.117.781.094 1.086-.172a.89.89 0 0 0 .008-1.355c-.329-.285-.926-.407-2.165-.426-.57-.004-1.101 0-1.187.016ZM27.75 18.633c-.645.254-.8 1.094-.281 1.547.633.558 1.531.125 1.531-.73 0-.606-.676-1.044-1.25-.817Zm0 0"/>
</svg>