<?xml version="1.0" encoding="utf-8"?>
<!-- Generator: Adobe Illustrator 22.0.0, SVG Export Plug-In . SVG Version: 6.00 Build 0)  -->
<svg version="1.1" id="Layer_1" xmlns="http://www.w3.org/2000/svg" xmlns:xlink="http://www.w3.org/1999/xlink" x="0px" y="0px"
	 viewBox="0 0 32 27" style="enable-background:new 0 0 32 27;" xml:space="preserve">
<style type="text/css">
	.st0{fill:#413C37;}
</style>
<title>icon-notice</title>
<desc>Created with Sketch.</desc>
<g id="Clip-2">
</g>
<path class="st0" d="M31.8,26c-0.5-0.8-14-24.5-14.6-25.4c-0.4-0.5-1.3-0.5-1.7,0L0.1,25.9c-0.3,0.4-0.1,1,0.4,0.9l30.7-0.4
	c0.1,0,0.3,0,0.4-0.1C31.8,26.3,31.9,26.1,31.8,26z M17,21.9c-0.3,0.3-0.7,0.4-1.2,0.4c-0.5,0-0.9-0.1-1.1-0.4
	c-0.3-0.3-0.4-0.7-0.4-1.2c0-0.5,0.2-0.9,0.5-1.2c0.3-0.3,0.7-0.4,1.2-0.4c0.5,0,0.9,0.1,1.1,0.4l0,0c0.3,0.3,0.4,0.7,0.4,1.2
	C17.5,21.2,17.4,21.6,17,21.9z M17.5,17.2c0,0.1,0,0.1-0.1,0.2c-0.4,0.4-2.2,0.4-2.8,0.3c-0.1,0-0.2-0.1-0.2-0.2l0-0.9c0,0,0,0,0,0
	l0.1-2.8c0,0,0,0,0-0.1l0.2-4.4c0-0.1,0.1-0.2,0.2-0.2h2.7c0.1,0,0.2,0.1,0.2,0.2L17.5,17.2z"/>
</svg>
