<svg width="10" height="10" viewBox="0 0 10 10" fill="none" xmlns="http://www.w3.org/2000/svg">
<path fill-rule="evenodd" clip-rule="evenodd" d="M7.39314 0.296992C7.35109 0.256916 7.28673 0.257064 7.24508 0.297239L5.90934 1.57782L7.62477 3.55715L9.11672 2.12453C9.16363 2.07919 9.16329 2.00165 9.11596 1.95653L7.39314 0.296992ZM7.04934 4.10969L5.32453 2.13848L4.86807 2.57609L4.50699 2.9179L2.99928 4.36571L0.212321 7.04184C0.0362573 7.21163 0.0861719 8.43173 0.187733 8.9375C0.461172 8.99423 1.97615 9.11314 2.16988 8.92582L4.46092 6.59033L4.82205 6.24847C4.82205 6.24847 5.95388 5.17653 6.32976 4.80065L7.04934 4.10969Z" fill="white"/>
</svg>
