<?xml version="1.0" encoding="UTF-8"?>
<svg width="10px" height="10px" viewBox="0 0 10 10" version="1.1" xmlns="http://www.w3.org/2000/svg" xmlns:xlink="http://www.w3.org/1999/xlink">
    <!-- Generator: Sketch 46 (44423) - http://www.bohemiancoding.com/sketch -->
    <title>Fill 1</title>
    <desc>Created with Sketch.</desc>
    <defs></defs>
    <g id="Symbols" stroke="none" stroke-width="1" fill="none" fill-rule="evenodd">
        <g id="btn_anuleren" transform="translate(-241.000000, -9.000000)" fill="#FFFFFF">
            <path d="M245.164628,9.04470505 C245.106619,9.04609449 245.061253,9.09166844 245.060211,9.14946954 L244.990878,12.4383659 L244.977261,12.9348857 L241.118135,12.8566597 C241.053039,12.8554786 240.998503,12.9105703 241.000031,12.9758744 L241.044702,14.8353746 C241.046092,14.8933841 241.091666,14.9387497 241.149467,14.9397223 L244.438363,15.0090558 L244.934952,15.0226724 L244.856657,18.8817988 C244.855476,18.946964 244.910567,19.0014999 244.975872,18.999902 L246.835372,18.9553007 C246.893381,18.9539113 246.938747,18.9083373 246.939719,18.8504668 L247.009122,15.5616399 L247.022739,15.0650506 L250.881865,15.1433461 C250.946961,15.1444577 251.001497,15.0894355 250.999969,15.0241313 L250.955298,13.1646311 C250.953908,13.1066216 250.908334,13.0612561 250.850464,13.060214 L247.561637,12.9908805 L247.065048,12.9772639 L247.143343,9.11813745 C247.144455,9.05297227 247.089433,8.99843638 247.024128,9.00003425 L245.164628,9.04470505 Z" id="Fill-1" transform="translate(246.000000, 13.999968) rotate(-45.000000) translate(-246.000000, -13.999968) "></path>
        </g>
    </g>
</svg>