<?xml version="1.0" encoding="UTF-8"?>
<svg width="14px" height="18px" viewBox="0 0 14 18" version="1.1" xmlns="http://www.w3.org/2000/svg" xmlns:xlink="http://www.w3.org/1999/xlink">
    <!-- Generator: Sketch 50.2 (55047) - http://www.bohemiancoding.com/sketch -->
    <title>Group</title>
    <desc>Created with Sketch.</desc>
    <defs>
        <polygon id="path-1" points="0.000181818182 0.312363636 13.182 0.312363636 13.182 17.7272727 0.000181818182 17.7272727"></polygon>
    </defs>
    <g id="Symbols" stroke="none" stroke-width="1" fill="none" fill-rule="evenodd">
        <g id="label/lezen" transform="translate(-15.000000, -11.000000)">
            <g id="Group" transform="translate(15.000000, 11.000000)">
                <g id="Group-6" transform="translate(0.000000, 0.202955)">
                    <mask id="mask-2" fill="white">
                        <use xlink:href="#path-1"></use>
                    </mask>
                    <g id="Clip-5"></g>
                    <path d="M10.1360909,4.64645455 L3.04563636,4.64645455 C2.69063636,4.64645455 2.40245455,4.35827273 2.40245455,4.00327273 C2.40245455,3.64781818 2.69063636,3.36009091 3.04563636,3.36009091 L10.1360909,3.36009091 C10.4910909,3.36009091 10.7792727,3.64781818 10.7792727,4.00327273 C10.7792727,4.35827273 10.4910909,4.64645455 10.1360909,4.64645455 M10.1360909,7.31690909 L3.04563636,7.31690909 C2.69063636,7.31690909 2.40245455,7.02872727 2.40245455,6.67372727 C2.40245455,6.31827273 2.69063636,6.03054545 3.04563636,6.03054545 L10.1360909,6.03054545 C10.4910909,6.03054545 10.7792727,6.31827273 10.7792727,6.67372727 C10.7792727,7.02872727 10.4910909,7.31690909 10.1360909,7.31690909 M10.1360909,9.98736364 L3.04563636,9.98736364 C2.69063636,9.98736364 2.40245455,9.69918182 2.40245455,9.34418182 C2.40245455,8.98872727 2.69063636,8.701 3.04563636,8.701 L10.1360909,8.701 C10.4910909,8.701 10.7792727,8.98872727 10.7792727,9.34418182 C10.7792727,9.69918182 10.4910909,9.98736364 10.1360909,9.98736364 M11.8365455,0.312363636 L1.34518182,0.312363636 C0.605181818,0.312363636 0.000181818182,0.917818182 0.000181818182,1.65781818 L0.000181818182,16.3819091 C0.000181818182,17.1219091 0.605181818,17.7273636 1.34518182,17.7273636 L11.8365455,17.7273636 C12.5765455,17.7273636 13.182,17.1219091 13.182,16.3819091 L13.182,1.65781818 C13.182,0.917818182 12.5765455,0.312363636 11.8365455,0.312363636" id="Fill-4" fill="#00AEAB" mask="url(#mask-2)"></path>
                </g>
            </g>
        </g>
    </g>
</svg>