<?xml version="1.0" encoding="utf-8"?>
<!-- Generator: Adobe Illustrator 19.2.0, SVG Export Plug-In . SVG Version: 6.00 Build 0)  -->
<svg version="1.1" id="Laag_1" xmlns="http://www.w3.org/2000/svg" xmlns:xlink="http://www.w3.org/1999/xlink" x="0px" y="0px"
	 viewBox="0 0 1451 309.6" style="enable-background:new 0 0 1451 309.6;" xml:space="preserve">
<style type="text/css">
	.st0{fill:#FCE338;}
</style>
<title>line-banner-video</title>
<path class="st0" d="M3.2,287L0,285.5l0.7-1.4l3.1,1.5L3.2,287z"/>
<path class="st0" d="M77,309.1l0.1-1.5c2.3,0.2,4.7,0.3,7,0.4l-0.1,1.5C81.7,309.4,79.3,309.3,77,309.1z M70,308.3
	c-2.3-0.3-4.6-0.7-6.9-1.1l0.3-1.5c2.3,0.4,4.6,0.8,6.9,1.1L70,308.3z M91.1,309.6v-1.5c2.3,0,4.7-0.1,7-0.3l0.1,1.5L91.1,309.6
	L91.1,309.6z M56.1,305.9c-2.3-0.5-4.6-1-6.9-1.7l0.4-1.5c2.3,0.6,4.6,1.1,6.8,1.6L56.1,305.9z M105.1,308.6l-0.2-1.5
	c2.3-0.3,4.6-0.7,6.9-1.1l0.3,1.5C109.7,307.9,107.4,308.3,105.1,308.6C105.1,308.6,105.1,308.6,105.1,308.6z M42.5,302.3
	c-2.2-0.7-4.5-1.4-6.7-2.1l0.5-1.4c2.2,0.7,4.5,1.4,6.7,2.1L42.5,302.3z M29.1,297.9c-2.2-0.8-4.4-1.6-6.6-2.5l0.6-1.4
	c2.2,0.9,4.4,1.7,6.5,2.5L29.1,297.9z M118.9,306l-0.4-1.5c2.2-0.6,4.5-1.2,6.7-1.9l0.4,1.4C123.4,304.8,121.1,305.4,118.9,306
	L118.9,306z M15.9,292.8c-2.1-0.9-4.3-1.9-6.4-2.8l0.6-1.4c2.1,1,4.3,1.9,6.4,2.8L15.9,292.8z M132.3,301.8l-0.5-1.4
	c2.1-0.8,4.3-1.7,6.4-2.7l0.6,1.4C136.7,300,134.5,300.9,132.3,301.8L132.3,301.8z M145.2,296l-0.7-1.3c2-1,4.1-2.2,6.1-3.3l0.8,1.3
	C149.3,293.8,147.2,295,145.2,296L145.2,296z M157.4,289l-0.8-1.3c1.9-1.2,3.9-2.5,5.8-3.9l0.9,1.2
	C161.3,286.4,159.3,287.8,157.4,289L157.4,289L157.4,289z M168.9,280.9l-0.9-1.2c1.8-1.4,3.6-2.9,5.4-4.4l1,1.2
	C172.5,278,170.7,279.5,168.9,280.9L168.9,280.9z M179.7,271.9l-1-1.1c1.7-1.5,3.4-3.1,5.2-4.7l1,1.1
	C183.1,268.8,181.4,270.4,179.7,271.9L179.7,271.9z M190,262.2l-1.1-1.1c1.6-1.6,3.3-3.3,4.9-5l1.1,1
	C193.2,258.9,191.5,260.6,190,262.2L190,262.2z M199.7,252.1l-1.1-1c1.6-1.7,3.2-3.4,4.7-5.2l1.1,1
	C202.9,248.6,201.3,250.4,199.7,252.1L199.7,252.1z M209.1,241.6l-1.1-1c1.5-1.8,3-3.5,4.5-5.3l1.1,1
	C212.1,238.1,210.6,239.9,209.1,241.6L209.1,241.6z M218.2,230.9l-1.2-1l4.5-5.4l1.2,1C221.2,227.4,219.7,229.2,218.2,230.9
	L218.2,230.9z M227.2,220.1l-1.2-1l4.5-5.4l1.2,1L227.2,220.1z M432.4,230l0.1-1.5c2.3,0.1,4.6,0,6.8-0.4l0.2,1.5
	C437.2,230,434.8,230.2,432.4,230L432.4,230z M425.3,228.8c-2.3-0.7-4.5-1.8-6.5-3.1l0.8-1.2c1.9,1.2,3.9,2.2,6.1,2.9L425.3,228.8z
	 M236.1,209.3l-1.2-1l4.5-5.4l1.2,1L236.1,209.3L236.1,209.3z M446.5,228l-0.5-1.4c2.2-0.7,4.3-1.6,6.3-2.7l0.7,1.3
	C450.9,226.3,448.7,227.2,446.5,228L446.5,228L446.5,228z M413.3,221.1c-1.7-1.6-3.4-3.3-4.9-5.1l1.1-1c1.5,1.8,3.1,3.4,4.8,5
	L413.3,221.1z M459,221.3l-0.9-1.2c1.8-1.4,3.6-2.9,5.2-4.5l1.1,1.1C462.7,218.3,460.9,219.9,459,221.3L459,221.3L459,221.3z
	 M245.2,198.5l-1.1-1c1.5-1.8,3-3.6,4.6-5.3l1.1,1C248.2,195,246.6,196.8,245.2,198.5L245.2,198.5z M404.1,210.3
	c-1.3-2-2.4-4.1-3.3-6.3l1.4-0.6c0.9,2.1,2,4.2,3.2,6.1L404.1,210.3z M469,211.2l-1.2-0.9c1.3-1.9,2.5-3.9,3.4-6l1.4,0.6
	C471.6,207.1,470.4,209.2,469,211.2L469,211.2L469,211.2z M254.4,188l-1.1-1c1.6-1.8,3.1-3.5,4.7-5.2l1.1,1
	C257.5,184.5,255.9,186.2,254.4,188L254.4,188L254.4,188z M398.7,197.2c-0.5-2.3-0.8-4.7-0.8-7.1h1.5c0,2.3,0.3,4.6,0.8,6.8
	L398.7,197.2z M474.9,198.2l-1.5-0.3c0.3-1.2,0.5-2.5,0.6-3.7c0.1-1,0.1-2.1,0.1-3.1h1.5c0,1.1,0,2.2-0.1,3.3
	C475.3,195.7,475.1,197,474.9,198.2L474.9,198.2L474.9,198.2z M263.9,177.7l-1.1-1c1.7-1.7,3.3-3.4,4.9-5l1.1,1.1
	C267.2,174.3,265.5,176,263.9,177.7L263.9,177.7z M399.8,183.2l-1.5-0.2c0.4-2.3,0.9-4.6,1.6-6.9l1.4,0.4
	C400.6,178.7,400.1,180.9,399.8,183.2L399.8,183.2z M273.8,167.9l-1-1.1c1.7-1.6,3.5-3.2,5.2-4.7l1,1.1
	C277.3,164.7,275.5,166.2,273.8,167.9L273.8,167.9z M473.2,184.3c-0.5-2.2-1.3-4.4-2.3-6.4l1.4-0.6c1,2.2,1.8,4.4,2.4,6.7
	L473.2,184.3z M403.8,170.1l-1.4-0.6c0.9-2.2,2-4.3,3.2-6.3l1.3,0.7C405.7,165.9,404.7,168,403.8,170.1L403.8,170.1L403.8,170.1z
	 M284.3,158.6l-1-1.2c1.8-1.5,3.7-3,5.5-4.4l0.9,1.2C288,155.7,286.1,157.2,284.3,158.6L284.3,158.6z M467.5,172
	c-1.3-1.9-2.8-3.7-4.4-5.4l1.1-1c1.6,1.7,3.1,3.6,4.5,5.5L467.5,172z M295.4,150.3l-0.9-1.2c2-1.3,3.9-2.6,5.9-3.9l0.8,1.3
	C299.3,147.6,297.4,148.9,295.4,150.3L295.4,150.3L295.4,150.3z M410.6,158.1l-1.2-0.9c1.3-1.9,2.7-3.8,4.2-5.6l1.2,0.9
	C413.3,154.3,411.9,156.2,410.6,158.1L410.6,158.1z M458.1,161.9c-1.8-1.5-3.6-3-5.5-4.3l0.9-1.2c2,1.4,3.8,2.9,5.6,4.4L458.1,161.9
	z M307.3,142.9l-0.7-1.3c2.1-1.1,4.2-2.2,6.3-3.2l0.6,1.4C311.4,140.7,309.4,141.8,307.3,142.9L307.3,142.9z M446.9,153.7
	c-1.9-1.2-3.9-2.4-6-3.5l0.7-1.3c2.1,1.1,4.2,2.3,6.1,3.5L446.9,153.7z M419.2,147.2l-1.1-1c1.5-1.7,3.1-3.4,4.8-5.1l1,1.1
	L419.2,147.2L419.2,147.2L419.2,147.2z M319.9,136.9l-0.6-1.4c2.2-0.9,4.4-1.7,6.6-2.4l0.5,1.4C324.2,135.2,322,136.1,319.9,136.9
	L319.9,136.9z M434.6,147.1c-2-1-4.2-1.9-6.4-2.8l0.6-1.4c2.2,0.9,4.4,1.9,6.4,2.9L434.6,147.1z M421.7,141.7
	c-2.1-0.8-4.3-1.6-6.6-2.4l0.5-1.4c2.3,0.8,4.5,1.6,6.6,2.4L421.7,141.7z M333,132.5l-0.4-1.5c2.3-0.6,4.6-1.1,6.9-1.6l0.3,1.5
	C337.5,131.4,335.3,131.9,333,132.5L333,132.5z M408.5,137.1c-2.2-0.7-4.4-1.3-6.7-2l0.4-1.4c2.3,0.7,4.6,1.3,6.7,2L408.5,137.1z
	 M346.7,129.9l-0.2-1.5c2.3-0.3,4.7-0.6,7-0.7l0.1,1.5C351.3,129.3,348.9,129.6,346.7,129.9L346.7,129.9z M429,137.2l-1-1.1
	c1.7-1.5,3.4-3.1,5.2-4.7l1,1.1C432.4,134.1,430.7,135.7,429,137.2L429,137.2z M395,133.3c-2.3-0.6-4.6-1.1-6.8-1.5l0.3-1.5
	c2.3,0.5,4.6,1,6.9,1.6L395,133.3z M360.5,128.9v-1.5c2.3,0,4.7,0,7,0.2l-0.1,1.5C365.2,129,362.8,128.9,360.5,128.9L360.5,128.9z
	 M381.3,130.6c-2.3-0.4-4.6-0.7-6.9-0.9l0.1-1.5c2.3,0.2,4.7,0.6,6.9,0.9L381.3,130.6z M439.6,128.1l-0.9-1.2
	c1.8-1.4,3.6-2.9,5.5-4.3l0.9,1.2C443.2,125.2,441.4,126.7,439.6,128.1L439.6,128.1z M450.7,119.6l-0.9-1.2c1.9-1.3,3.8-2.7,5.8-4
	l0.9,1.2C454.5,116.9,452.6,118.3,450.7,119.6L450.7,119.6z M462.3,111.6l-0.8-1.3c1.9-1.3,3.9-2.5,5.9-3.8l0.8,1.3
	C466.2,109.2,464.2,110.4,462.3,111.6L462.3,111.6z M474.2,104.2l-0.8-1.3c2-1.2,4-2.4,6.1-3.6l0.8,1.3
	C478.2,101.9,476.2,103.1,474.2,104.2L474.2,104.2z M486.3,97.2l-0.7-1.3c2-1.1,4.1-2.3,6.2-3.4l0.7,1.3
	C490.5,95,488.4,96.2,486.3,97.2L486.3,97.2z M498.7,90.6l-0.7-1.3c2.1-1.1,4.2-2.1,6.3-3.2l0.7,1.3
	C502.9,88.6,500.8,89.6,498.7,90.6L498.7,90.6z M511.3,84.4l-0.7-1.3l6.3-3l0.6,1.4C515.4,82.4,513.3,83.5,511.3,84.4L511.3,84.4
	L511.3,84.4z M1450.1,171.6c-1.9-1.4-3.7-2.9-5.5-4.3l0.9-1.2c1.9,1.4,3.7,2.9,5.5,4.3L1450.1,171.6z M524,78.5l-0.6-1.4
	c2.1-1,4.2-1.9,6.4-2.9l0.6,1.4C528.2,76.6,526.1,77.6,524,78.5z M1439.1,163.2c-1.9-1.4-3.8-2.8-5.6-4.2l0.9-1.2
	c1.9,1.4,3.8,2.8,5.6,4.2L1439.1,163.2z M536.8,72.9l-0.7-1.4c2.1-0.9,4.3-1.8,6.5-2.7l0.6,1.4C541.1,71.1,538.9,72,536.8,72.9
	L536.8,72.9L536.8,72.9z M1427.8,154.8c-1.9-1.4-3.8-2.7-5.7-4.1l0.9-1.2c1.9,1.4,3.8,2.7,5.7,4.1L1427.8,154.8z M549.8,67.6
	l-0.6-1.4c2.2-0.9,4.3-1.7,6.5-2.6l0.5,1.4C554.1,65.9,551.9,66.7,549.8,67.6L549.8,67.6z M1416.3,146.7c-1.9-1.3-3.8-2.7-5.8-4
	l0.8-1.2c1.9,1.3,3.9,2.6,5.8,4L1416.3,146.7z M562.9,62.5l-0.6-1.4l6.6-2.4l0.5,1.4C567.2,60.9,565,61.7,562.9,62.5L562.9,62.5z
	 M1404.7,138.8c-1.9-1.3-3.9-2.6-5.9-3.9l0.8-1.3c2,1.3,3.9,2.6,5.9,3.9L1404.7,138.8z M576,57.7l-0.5-1.4c2.2-0.8,4.4-1.6,6.6-2.3
	l0.5,1.4C580.4,56.1,578.2,56.9,576,57.7z M1393,131.2c-2-1.3-3.9-2.5-5.9-3.7l0.8-1.3c2,1.2,4,2.5,5.9,3.8L1393,131.2z M589.3,53.1
	l-0.5-1.4c2.2-0.7,4.4-1.5,6.7-2.2l0.5,1.4C593.7,51.6,591.5,52.3,589.3,53.1z M1381.1,123.7l-6-3.6l0.8-1.3l6,3.6L1381.1,123.7z
	 M602.6,48.7l-0.5-1.4c2.2-0.7,4.5-1.4,6.7-2.1l0.4,1.4L602.6,48.7z M1369.2,116.5c-2-1.2-4-2.4-6.1-3.5l0.7-1.3
	c2,1.2,4,2.3,6.1,3.5L1369.2,116.5z M616,44.6l-0.4-1.4c2.2-0.7,4.5-1.3,6.7-2l0.4,1.4C620.4,43.2,618.2,43.9,616,44.6z M629.4,40.6
	l-0.4-1.4l6.8-1.9l0.4,1.4L629.4,40.6z M1356.9,109.5c-2-1.2-4.1-2.3-6.1-3.4l0.7-1.3c2,1.1,4.1,2.3,6.1,3.4L1356.9,109.5z
	 M642.9,36.9l-0.4-1.5l6.8-1.8l0.4,1.5L642.9,36.9z M1344.7,102.7c-2.1-1.1-4.1-2.2-6.2-3.3l0.7-1.3c2.1,1.1,4.1,2.2,6.2,3.3
	L1344.7,102.7z M656.5,33.4l-0.4-1.5l6.9-1.7l0.4,1.5L656.5,33.4z M1332.4,96.2c-2.1-1.1-4.1-2.1-6.2-3.2l0.7-1.3
	c2.1,1,4.2,2.1,6.2,3.2L1332.4,96.2z M670.2,30.1l-0.3-1.5l6.8-1.6l0.3,1.5L670.2,30.1z M1319.9,89.9c-2.1-1-4.2-2-6.3-3.1l0.7-1.4
	c2.1,1,4.2,2,6.3,3.1L1319.9,89.9z M683.8,26.9l-0.3-1.5l6.9-1.5l0.3,1.5L683.8,26.9z M1307.3,83.9l-6.3-3l0.6-1.4l6.3,3
	L1307.3,83.9z M697.5,24l-0.3-1.5l6.9-1.4l0.3,1.5L697.5,24z M1294.6,78c-2.1-1-4.3-1.9-6.4-2.8l0.6-1.4c2.1,0.9,4.3,1.9,6.4,2.8
	L1294.6,78z M711.3,21.2l-0.3-1.5l6.9-1.4l0.3,1.5L711.3,21.2z M1281.8,72.4c-2.1-0.9-4.3-1.8-6.4-2.7l0.6-1.4
	c2.2,0.9,4.3,1.8,6.5,2.7L1281.8,72.4z M725.1,18.6l-0.3-1.5l6.9-1.2l0.3,1.5L725.1,18.6z M1268.9,67c-2.2-0.9-4.3-1.7-6.5-2.6
	l0.6-1.4c2.2,0.9,4.3,1.8,6.5,2.6L1268.9,67z M738.9,16.2l-0.2-1.5l6.9-1.1l0.2,1.5L738.9,16.2z M1255.9,61.8
	c-2.2-0.9-4.4-1.7-6.5-2.5l0.5-1.4c2.2,0.8,4.4,1.7,6.5,2.5L1255.9,61.8z M752.7,14l-0.2-1.5l6.9-1l0.2,1.5L752.7,14z M766.6,12
	l-0.2-1.5l7-0.9l0.2,1.5L766.6,12z M1242.9,56.9l-6.6-2.4l0.5-1.4l6.6,2.4L1242.9,56.9z M780.5,10.2l-0.2-1.5l7-0.8l0.2,1.5
	L780.5,10.2z M1229.7,52.2l-6.6-2.3l0.5-1.4l6.6,2.3L1229.7,52.2z M794.5,8.5L794.3,7l7-0.8l0.2,1.5L794.5,8.5z M1216.5,47.7
	c-2.2-0.7-4.4-1.5-6.6-2.2l0.5-1.4c2.2,0.7,4.4,1.4,6.7,2.2L1216.5,47.7z M808.4,7l-0.1-1.5l7-0.7l0.1,1.5L808.4,7z M1203.2,43.4
	l-6.7-2.1l0.4-1.4l6.7,2.1L1203.2,43.4z M822.4,5.7l-0.1-1.5l7-0.6l0.1,1.5L822.4,5.7z M1189.8,39.3l-6.7-1.9l0.4-1.4
	c2.2,0.6,4.5,1.3,6.7,2L1189.8,39.3z M836.3,4.6l-0.1-1.5l7-0.5l0.1,1.5L836.3,4.6z M1176.3,35.5l-6.7-1.8l0.4-1.4l6.8,1.8
	L1176.3,35.5z M850.3,3.6l-0.1-1.5l7-0.4l0.1,1.5L850.3,3.6z M1162.8,31.8l-6.8-1.7l0.4-1.5l6.8,1.7L1162.8,31.8z M864.3,2.8
	l-0.1-1.5l7.1-0.3l0.1,1.5L864.3,2.8z M1149.3,28.5l-6.8-1.6l0.3-1.5l6.8,1.7L1149.3,28.5z M878.3,2.2l-0.1-1.5l7.1-0.2V2L878.3,2.2
	z M1135.6,25.3l-6.8-1.5l0.3-1.5l6.8,1.5L1135.6,25.3z M892.4,1.8V0.3l7-0.1v1.5L892.4,1.8z M1122,22.3l-6.9-1.4l0.3-1.5l6.9,1.4
	L1122,22.3z M906.4,1.6V0.1h7v1.5H906.4z M1108.3,19.5l-6.9-1.3l0.3-1.5l6.9,1.3L1108.3,19.5z M920.4,1.5V0h7v1.5H920.4z
	 M1094.5,16.9l-6.9-1.2l0.3-1.5l6.9,1.2L1094.5,16.9z M934.4,1.6V0.1l7,0.1v1.5L934.4,1.6z M1080.7,14.5l-6.9-1.1l0.2-1.5l6.9,1.1
	L1080.7,14.5z M948.5,2V0.5l7,0.2l-0.1,1.5L948.5,2z M1066.9,12.4l-6.9-1l0.2-1.5l6.9,1L1066.9,12.4z M962.5,2.5l0.1-1.5l7,0.3
	l-0.1,1.5L962.5,2.5z M976.5,3.2l0.1-1.5l7,0.4l-0.1,1.5L976.5,3.2z M1053.1,10.5l-6.9-0.9l0.1-1.5l6.9,0.9L1053.1,10.5z M990.5,4.1
	l0.1-1.5l7,0.5l-0.1,1.5L990.5,4.1z M1039.2,8.7l-7-0.8l0.1-1.5l7,0.8L1039.2,8.7z M1004.4,5.2l0.1-1.5l7,0.6l-0.1,1.5L1004.4,5.2z
	 M1025.3,7.2l-7-0.7l0.1-1.5l7,0.7L1025.3,7.2z"/>
</svg>
