<?xml version="1.0" encoding="utf-8"?>
<!-- Generator: Adobe Illustrator 19.2.0, SVG Export Plug-In . SVG Version: 6.00 Build 0)  -->
<svg version="1.1" id="Laag_1" xmlns="http://www.w3.org/2000/svg" xmlns:xlink="http://www.w3.org/1999/xlink" x="0px" y="0px"
	 viewBox="0 0 1169.5 320.2" style="enable-background:new 0 0 1169.5 320.2;" xml:space="preserve">
<style type="text/css">
	.st0{fill:#FCE338;}
</style>
<title>line-table-prices</title>
<path class="st0" d="M449.9,0h2.6c0.4,0,0.8,0.3,0.8,0.8s-0.3,0.8-0.8,0.8h-7c-0.4,0-0.8-0.3-0.8-0.8s0.3-0.8,0.8-0.8H449.9L449.9,0
	z M459.6,0L459.6,0l7,0.1c0.4,0,0.7,0.3,0.7,0.8c0,0,0,0,0,0c0,0.4-0.4,0.7-0.8,0.7l-7-0.1c-0.4,0-0.7-0.4-0.7-0.8
	C458.8,0.3,459.1,0,459.6,0L459.6,0z M438.6,0c0.4,0,0.8,0.3,0.8,0.8s-0.3,0.8-0.8,0.8l-7,0.1c-0.4,0-0.7-0.3-0.8-0.7
	c0-0.4,0.3-0.8,0.7-0.8c0,0,0,0,0,0L438.6,0L438.6,0L438.6,0z M473.6,0.2L473.6,0.2l7,0.2c0.4,0,0.7,0.4,0.7,0.8c0,0,0,0,0,0
	c0,0.4-0.3,0.7-0.7,0.7c0,0,0,0,0,0l-7-0.2c-0.4-0.1-0.6-0.6-0.5-0.9C473.1,0.5,473.3,0.3,473.6,0.2L473.6,0.2z M424.6,0.2
	c0.4,0,0.8,0.3,0.8,0.8s-0.3,0.8-0.8,0.8l-7,0.2c-0.4,0-0.8-0.3-0.8-0.8s0.3-0.8,0.8-0.8L424.6,0.2L424.6,0.2z M487.6,0.6L487.6,0.6
	l7,0.3c0.4,0,0.7,0.4,0.7,0.8c0,0,0,0,0,0c0,0.4-0.4,0.7-0.8,0.7c0,0,0,0,0,0l-7-0.3c-0.4-0.2-0.6-0.6-0.4-1
	C487.2,0.9,487.3,0.7,487.6,0.6L487.6,0.6z M410.6,0.6c0.4,0,0.8,0.3,0.8,0.8s-0.3,0.8-0.8,0.8l-7,0.3c-0.4,0-0.8-0.3-0.8-0.7
	s0.3-0.8,0.7-0.8L410.6,0.6L410.6,0.6L410.6,0.6z M501.6,1.1L501.6,1.1l7,0.4c0.4,0,0.7,0.4,0.7,0.8c0,0,0,0,0,0
	c0,0.4-0.4,0.7-0.8,0.7l-7-0.4c-0.4-0.2-0.6-0.6-0.4-1C501.2,1.5,501.3,1.3,501.6,1.1L501.6,1.1z M396.6,1.3c0.4,0,0.8,0.3,0.8,0.8
	s-0.3,0.8-0.8,0.8l-7,0.4c-0.4,0-0.8-0.3-0.8-0.7c0,0,0,0,0,0c0-0.4,0.3-0.8,0.7-0.8L396.6,1.3L396.6,1.3L396.6,1.3z M515.5,2
	L515.5,2l7,0.4c0.4,0,0.7,0.4,0.7,0.8s-0.4,0.7-0.8,0.7l-7-0.4c-0.4,0-0.7-0.4-0.7-0.8S515.1,2,515.5,2z M382.6,2.2
	c0.4,0,0.8,0.3,0.8,0.8s-0.3,0.8-0.8,0.8l-7,0.5c-0.4,0-0.8-0.3-0.8-0.7s0.3-0.8,0.7-0.8l7-0.5l0,0H382.6z M529.5,2.9L529.5,2.9
	l7.1,0.5c0.4,0,0.7,0.4,0.7,0.8c0,0,0,0,0,0c0,0.4-0.4,0.7-0.8,0.7l-7-0.5c-0.4,0-0.7-0.4-0.7-0.8C528.7,3.2,529.1,2.9,529.5,2.9z
	 M368.6,3.2c0.4,0,0.8,0.3,0.8,0.7c0,0.4-0.3,0.8-0.7,0.8l-7,0.6c-0.4,0-0.8-0.3-0.8-0.7c0-0.4,0.3-0.7,0.6-0.7L368.6,3.2L368.6,3.2
	L368.6,3.2z M543.5,4.1L543.5,4.1l7.1,0.6c0.4,0.1,0.7,0.5,0.6,0.9c-0.1,0.4-0.4,0.6-0.8,0.6l-7-0.6c-0.4-0.1-0.7-0.4-0.6-0.9
	C542.8,4.3,543.1,4.1,543.5,4.1z M354.7,4.4c0.4,0,0.8,0.3,0.8,0.7s-0.3,0.8-0.7,0.8l-7,0.7c-0.4,0.1-0.8-0.2-0.9-0.6
	c-0.1-0.4,0.2-0.8,0.6-0.9c0,0,0.1,0,0.1,0L354.7,4.4L354.7,4.4L354.7,4.4z M557.4,5.3L557.4,5.3l7.1,0.7c0.4,0,0.7,0.4,0.7,0.8
	c0,0.4-0.4,0.7-0.8,0.7c0,0,0,0-0.1,0l-7-0.7c-0.4-0.1-0.7-0.4-0.6-0.9C556.7,5.6,557,5.4,557.4,5.3L557.4,5.3z M340.8,5.8
	c0.4,0,0.8,0.3,0.8,0.7c0,0.4-0.3,0.8-0.7,0.8l-7,0.8c-0.4,0-0.8-0.2-0.8-0.7s0.2-0.8,0.7-0.8l0,0L340.8,5.8L340.8,5.8L340.8,5.8z
	 M571.3,6.8L571.3,6.8l7.1,0.8c0.4,0,0.7,0.4,0.7,0.8c0,0.4-0.4,0.7-0.8,0.7l0,0l-7-0.8c-0.4,0-0.7-0.4-0.7-0.8
	C570.6,7.1,570.9,6.8,571.3,6.8L571.3,6.8z M326.9,7.5c0.4,0,0.8,0.3,0.8,0.7c0,0.4-0.3,0.8-0.7,0.8l-6.9,0.9
	c-0.4,0.1-0.8-0.2-0.8-0.6s0.2-0.8,0.6-0.8L326.9,7.5L326.9,7.5L326.9,7.5z M585.2,8.5L585.2,8.5l7,0.9c0.4,0.1,0.7,0.4,0.6,0.8
	c-0.1,0.4-0.4,0.7-0.8,0.6l-6.9-0.9c-0.4,0-0.7-0.4-0.7-0.8S584.8,8.5,585.2,8.5L585.2,8.5z M313,9.4c0.4,0,0.7,0.4,0.7,0.8
	c0,0.4-0.3,0.7-0.6,0.7c-2.3,0.3-4.6,0.7-6.9,1c-0.4,0-0.8-0.3-0.8-0.7c0-0.4,0.2-0.7,0.6-0.8l6.9-1L313,9.4L313,9.4z M599.1,10.4
	L599.1,10.4l7,1c0.4,0,0.7,0.4,0.7,0.8c0,0.4-0.4,0.7-0.8,0.7c0,0-0.1,0-0.1,0l-6.9-1c-0.4,0-0.7-0.4-0.7-0.8
	C598.3,10.6,598.7,10.3,599.1,10.4L599.1,10.4z M299.1,11.5c0.4,0,0.7,0.3,0.7,0.8c0,0.4-0.3,0.7-0.6,0.7c-2.3,0.4-4.6,0.8-6.9,1.1
	c-0.4,0.1-0.8-0.2-0.9-0.6s0.2-0.8,0.6-0.9c2.3-0.4,4.6-0.8,6.9-1.1L299.1,11.5L299.1,11.5z M613,12.3h0.1l6.9,1.1
	c0.4,0.1,0.7,0.5,0.6,0.9c-0.1,0.4-0.4,0.6-0.8,0.6l-6.9-1.1c-0.4-0.1-0.7-0.5-0.6-0.9C612.3,12.6,612.6,12.3,613,12.3z M285.3,13.8
	c0.4,0,0.8,0.3,0.8,0.7c0,0.4-0.3,0.7-0.6,0.7c-2.3,0.4-4.6,0.8-6.9,1.3c-0.4,0-0.8-0.2-0.8-0.7c0-0.4,0.2-0.7,0.6-0.8
	c2.3-0.4,4.6-0.8,6.9-1.3L285.3,13.8L285.3,13.8z M626.8,14.5h0.1l6.9,1.2c0.4,0.1,0.7,0.5,0.6,0.9s-0.5,0.7-0.9,0.6l0,0l-6.9-1.1
	c-0.4,0-0.7-0.4-0.7-0.8S626.4,14.5,626.8,14.5z M271.6,16.4c0.4,0,0.8,0.3,0.8,0.7c0,0.4-0.3,0.7-0.6,0.8c-2.3,0.5-4.6,0.9-6.9,1.4
	c-0.4,0.1-0.8-0.2-0.9-0.6c-0.1-0.4,0.2-0.8,0.6-0.9c2.3-0.5,4.6-0.9,6.9-1.4L271.6,16.4L271.6,16.4z M640.6,16.9h0.1l6.9,1.2
	c0.4,0,0.7,0.4,0.7,0.8c0,0.4-0.4,0.7-0.8,0.7c0,0-0.1,0-0.1,0l-6.9-1.2c-0.4-0.1-0.6-0.5-0.5-0.9C640,17.1,640.3,16.9,640.6,16.9
	L640.6,16.9z M257.9,19.2c0.4,0,0.7,0.3,0.7,0.8c0,0.3-0.2,0.6-0.6,0.7c-2.3,0.5-4.6,1-6.8,1.5c-0.4,0.1-0.8-0.1-0.9-0.5
	c-0.1-0.4,0.1-0.8,0.5-0.9c0,0,0,0,0.1,0c2.3-0.5,4.5-1,6.8-1.5L257.9,19.2z M654.3,19.4h0.1l6.9,1.3c0.4,0.1,0.7,0.4,0.6,0.9
	c-0.1,0.4-0.4,0.7-0.9,0.6c0,0,0,0-0.1,0l-6.9-1.3c-0.4-0.1-0.7-0.5-0.6-0.9C653.7,19.7,654,19.4,654.3,19.4L654.3,19.4z
	 M668.1,22.2h0.2l6.9,1.4c0.4,0.1,0.7,0.5,0.6,0.9c-0.1,0.4-0.5,0.7-0.9,0.6l0,0l-6.8-1.4c-0.4-0.1-0.7-0.4-0.6-0.9
	C667.4,22.4,667.7,22.1,668.1,22.2L668.1,22.2z M244.2,22.4c0.4,0,0.8,0.3,0.8,0.7c0,0.4-0.2,0.7-0.6,0.7c-2.3,0.6-4.5,1.1-6.8,1.7
	c-0.4,0.1-0.8-0.2-0.9-0.6c-0.1-0.4,0.1-0.7,0.5-0.8c2.2-0.6,4.5-1.1,6.8-1.7L244.2,22.4z M681.8,25.1h0.2l6.8,1.5
	c0.4,0.1,0.7,0.4,0.6,0.9s-0.4,0.7-0.9,0.6c0,0-0.1,0-0.1,0l-6.8-1.5c-0.4-0.1-0.6-0.5-0.5-0.9C681.2,25.3,681.5,25.1,681.8,25.1
	L681.8,25.1z M230.6,25.8c0.4,0,0.7,0.4,0.7,0.8c0,0.3-0.2,0.6-0.5,0.7c-2.3,0.6-4.5,1.2-6.8,1.8c-0.4,0.1-0.8-0.2-0.9-0.6
	c-0.1-0.4,0.1-0.7,0.5-0.8c2.2-0.6,4.5-1.2,6.8-1.8L230.6,25.8z M695.4,28.2h0.2l6.8,1.6c0.4,0.1,0.7,0.5,0.6,0.9
	c-0.1,0.4-0.5,0.7-0.9,0.6l-6.8-1.6c-0.4-0.1-0.6-0.6-0.5-0.9C694.9,28.4,695.1,28.2,695.4,28.2L695.4,28.2z M217.2,29.6
	c0.4,0,0.8,0.3,0.8,0.7c0,0.3-0.2,0.6-0.5,0.7c-2.3,0.7-4.5,1.3-6.7,2c-0.4,0.1-0.8,0-1-0.4c-0.1-0.4,0-0.8,0.4-1c0,0,0.1,0,0.1,0
	c2.2-0.7,4.4-1.3,6.7-2C217,29.6,217.1,29.6,217.2,29.6z M709,31.5h0.2l6.8,1.7c0.4,0.1,0.7,0.5,0.6,0.9c-0.1,0.4-0.5,0.7-0.9,0.6
	c0,0-0.1,0-0.1,0l-6.8-1.7c-0.4-0.1-0.7-0.5-0.6-0.9C708.4,31.7,708.7,31.5,709,31.5z M203.8,33.7c0.4,0,0.7,0.3,0.7,0.8
	c0,0.3-0.2,0.6-0.5,0.7c-2.2,0.7-4.4,1.5-6.6,2.2c-0.4,0.1-0.8-0.1-0.9-0.5c-0.1-0.4,0.1-0.8,0.5-0.9c2.2-0.7,4.4-1.5,6.7-2.2
	C203.6,33.7,203.7,33.7,203.8,33.7z M722.6,34.9h0.2l6.8,1.8c0.4,0.1,0.6,0.5,0.5,0.9c-0.1,0.4-0.5,0.6-0.9,0.5l-6.8-1.8
	c-0.4-0.1-0.6-0.6-0.5-0.9C722,35.1,722.3,34.9,722.6,34.9z M190.5,38.2c0.4,0,0.8,0.3,0.8,0.7c0,0.3-0.2,0.6-0.5,0.7
	c-2.2,0.8-4.4,1.6-6.6,2.4c-0.4,0.1-0.8-0.1-0.9-0.5c-0.1-0.4,0.1-0.7,0.4-0.9c2.2-0.8,4.4-1.6,6.6-2.4
	C190.3,38.2,190.4,38.2,190.5,38.2z M736.1,38.6h0.2l6.7,1.9c0.4,0.1,0.6,0.6,0.5,1c-0.1,0.4-0.5,0.6-0.9,0.5l-6.7-1.9
	c-0.4-0.2-0.6-0.6-0.4-1C735.6,38.8,735.8,38.6,736.1,38.6z M749.6,42.4c0.1,0,0.1,0,0.2,0l6.7,2c0.4,0.1,0.6,0.5,0.5,0.9
	c-0.1,0.4-0.5,0.6-0.9,0.5l-6.7-2c-0.4-0.1-0.6-0.6-0.4-1C749,42.6,749.3,42.4,749.6,42.4L749.6,42.4z M177.4,43.2
	c0.4,0,0.8,0.3,0.8,0.7c0,0.3-0.2,0.6-0.5,0.7c-2.2,0.9-4.3,1.8-6.5,2.7c-0.4,0.1-0.8-0.1-1-0.5c-0.1-0.4,0-0.7,0.4-0.9
	c2.1-0.9,4.3-1.8,6.5-2.7C177.2,43.2,177.3,43.2,177.4,43.2L177.4,43.2z M47.7,44.4h0.5c0.4,0,0.8,0.3,0.8,0.8
	c0,0.4-0.3,0.7-0.7,0.8c0,0,0,0,0,0h-0.5c-2.2,0-4.3,0.1-6.5,0.2c-0.4,0-0.8-0.3-0.8-0.7c0-0.4,0.3-0.8,0.7-0.8
	C43.4,44.5,45.6,44.4,47.7,44.4z M55.2,44.7L55.2,44.7c2.4,0.2,4.7,0.4,7,0.7c0.4,0.1,0.7,0.4,0.7,0.8s-0.4,0.7-0.8,0.7
	c-2.3-0.3-4.6-0.5-6.9-0.7c-0.4,0-0.7-0.4-0.7-0.8C54.4,45,54.8,44.7,55.2,44.7z M34.3,45.3c0.4,0,0.7,0.4,0.7,0.8
	c0,0.4-0.3,0.7-0.6,0.7c-2.3,0.3-4.6,0.7-6.9,1.1c-0.4,0.1-0.8-0.1-0.9-0.5s0.1-0.8,0.5-0.9c0,0,0.1,0,0.1,0
	c2.3-0.4,4.6-0.8,6.9-1.1L34.3,45.3L34.3,45.3z M763,46.5c0.1,0,0.1,0,0.2,0l6.7,2.1c0.4,0.1,0.6,0.5,0.5,0.9
	c-0.1,0.4-0.5,0.6-0.9,0.5c0,0,0,0,0,0l-6.7-2.1c-0.4-0.2-0.5-0.6-0.4-1C762.5,46.7,762.7,46.5,763,46.5z M69.1,46.5h0.1
	c2.3,0.4,4.6,0.9,6.9,1.5c0.4,0.1,0.6,0.5,0.5,0.9c-0.1,0.4-0.5,0.6-0.9,0.5c-2.3-0.6-4.6-1.1-6.8-1.5c-0.4-0.1-0.6-0.5-0.5-0.9
	C68.5,46.7,68.8,46.5,69.1,46.5L69.1,46.5z M20.5,47.9c0.4,0,0.8,0.3,0.8,0.7c0,0.4-0.2,0.7-0.6,0.7c-2.2,0.6-4.5,1.2-6.7,1.9
	c-0.4,0.1-0.8-0.1-0.9-0.5c-0.1-0.4,0.1-0.8,0.5-0.9c2.2-0.7,4.5-1.4,6.8-1.9L20.5,47.9z M164.6,48.6c0.4,0,0.7,0.3,0.7,0.8
	c0,0.3-0.2,0.6-0.4,0.7c-2.1,1-4.3,2-6.3,2.9c-0.4,0.2-0.8,0.1-1-0.3c-0.2-0.4-0.1-0.8,0.3-1c0,0,0,0,0.1,0c2.1-1,4.2-2,6.4-2.9
	C164.3,48.7,164.4,48.6,164.6,48.6L164.6,48.6z M82.7,49.9c0.1,0,0.1,0,0.2,0c2.2,0.7,4.4,1.4,6.7,2.2c0.4,0.2,0.6,0.6,0.4,1
	c-0.2,0.4-0.6,0.6-1,0.4c-2.2-0.8-4.4-1.5-6.6-2.2c-0.4-0.1-0.6-0.5-0.5-0.9C82,50.1,82.3,49.8,82.7,49.9z M776.3,50.7
	c0.1,0,0.2,0,0.2,0l6.7,2.2c0.4,0.2,0.6,0.6,0.4,1c-0.1,0.3-0.5,0.5-0.9,0.4l-6.7-2.2c-0.4-0.2-0.5-0.6-0.4-1
	C775.8,50.9,776.1,50.7,776.3,50.7L776.3,50.7z M7.2,52.1c0.4,0,0.8,0.3,0.8,0.7c0,0.3-0.2,0.6-0.5,0.7c-2.1,0.8-4.3,1.7-6.4,2.6
	c-0.4,0.2-0.8,0.1-1-0.3S0,55,0.4,54.8c0,0,0.1,0,0.1,0c2.2-1,4.4-1.8,6.5-2.7C7.1,52.1,7.2,52.1,7.2,52.1z M95.8,54.6
	c0.1,0,0.2,0,0.3,0.1c2.1,0.9,4.3,1.8,6.4,2.8c0.4,0.2,0.5,0.6,0.3,1c-0.2,0.3-0.6,0.5-1,0.4c-2.1-1-4.3-1.9-6.4-2.8
	c-0.4-0.1-0.6-0.6-0.4-1C95.2,54.8,95.5,54.6,95.8,54.6z M151.9,54.7c0.4,0,0.8,0.3,0.8,0.7c0,0.3-0.2,0.5-0.4,0.7
	c-2.1,1.1-4.2,2.2-6.2,3.2c-0.4,0.2-0.8,0.1-1-0.3s-0.1-0.8,0.3-1c2-1.1,4.1-2.2,6.2-3.3C151.6,54.7,151.8,54.7,151.9,54.7z
	 M789.6,55.1c0.1,0,0.2,0,0.2,0l6.6,2.3c0.4,0.1,0.6,0.6,0.5,1c-0.1,0.4-0.6,0.6-1,0.5l-6.6-2.3c-0.4-0.2-0.5-0.6-0.3-1
	C789.1,55.3,789.4,55.1,789.6,55.1z M802.8,59.7c0.1,0,0.2,0,0.2,0l6.6,2.4c0.4,0.2,0.6,0.6,0.4,1c-0.1,0.4-0.6,0.6-0.9,0.4
	l-6.6-2.4c-0.4-0.2-0.5-0.6-0.3-1C802.4,59.9,802.6,59.8,802.8,59.7L802.8,59.7z M108.6,60.4c0.1,0,0.2,0,0.3,0.1
	c2.1,1,4.2,2.1,6.3,3.2c0.4,0.2,0.5,0.6,0.3,1s-0.6,0.5-1,0.3c-2-1.1-4.1-2.1-6.2-3.2c-0.4-0.2-0.5-0.6-0.4-1
	C108,60.6,108.3,60.4,108.6,60.4L108.6,60.4z M139.6,61.4c0.4,0,0.8,0.3,0.8,0.7c0,0.3-0.1,0.5-0.4,0.7c-2,1.2-4,2.4-6,3.6
	c-0.4,0.2-0.8,0.1-1-0.2c-0.2-0.4-0.1-0.8,0.2-1c1.9-1.2,3.9-2.4,6-3.7C139.3,61.4,139.4,61.3,139.6,61.4L139.6,61.4z M816,64.5
	c0.1,0,0.2,0,0.3,0l6.5,2.5c0.4,0.1,0.6,0.6,0.4,1c-0.1,0.4-0.6,0.6-1,0.4l0,0l-6.5-2.4c-0.4-0.1-0.6-0.5-0.5-0.9
	C815.3,64.7,815.6,64.5,816,64.5z M121,66.9c0.1,0,0.3,0,0.4,0.1c1.7,0.9,3.3,1.9,4.9,2.8l1.2-0.8c0.3-0.3,0.8-0.2,1.1,0.1
	c0.3,0.3,0.2,0.8-0.1,1.1c0,0-0.1,0-0.1,0.1l-0.7,0.5c0.3,0.3,0.3,0.8,0.1,1.1s-0.8,0.3-1.1,0.1l-0.3-0.2c-1.2,0.9-2.5,1.8-3.7,2.7
	c-0.3,0.3-0.8,0.2-1.1-0.1c-0.3-0.3-0.2-0.8,0.1-1.1c0,0,0,0,0.1,0c1-0.8,2.1-1.6,3.2-2.3c-1.4-0.8-2.8-1.7-4.3-2.5
	c-0.4-0.2-0.5-0.7-0.3-1C120.4,67.1,120.7,66.9,121,66.9L121,66.9z M829,69.5c0.1,0,0.2,0,0.3,0.1l6.5,2.6c0.4,0.1,0.6,0.6,0.5,1
	c-0.1,0.4-0.6,0.6-1,0.5c0,0,0,0-0.1,0l-6.4-2.5c-0.4-0.1-0.7-0.5-0.6-0.9C828.2,69.7,828.6,69.5,829,69.5z M132.9,74.2
	c0.1,0,0.3,0,0.4,0.1c2,1.3,3.9,2.7,5.8,4c0.3,0.2,0.4,0.7,0.2,1c-0.2,0.3-0.7,0.4-1.1,0.2c-1.8-1.3-3.7-2.7-5.7-4
	c-0.3-0.3-0.4-0.7-0.1-1.1C132.5,74.3,132.7,74.2,132.9,74.2z M842,74.7c0.1,0,0.2,0,0.3,0.1l6.5,2.7c0.4,0.2,0.5,0.6,0.3,1
	c-0.2,0.3-0.6,0.5-0.9,0.4l-6.4-2.7c-0.4-0.1-0.6-0.6-0.4-1C841.4,74.9,841.7,74.7,842,74.7z M116.7,77.4c0.4,0,0.8,0.3,0.8,0.7
	c0,0.2-0.1,0.4-0.3,0.6c-1.8,1.6-3.5,3.1-5.1,4.7c-0.4,0.2-0.8,0.1-1-0.3c-0.1-0.3-0.1-0.6,0-0.8c1.6-1.6,3.4-3.2,5.2-4.8
	C116.4,77.5,116.5,77.4,116.7,77.4z M854.8,80.1c0.1,0,0.2,0,0.3,0.1l6.4,2.8c0.4,0.2,0.6,0.6,0.4,1c-0.2,0.4-0.6,0.6-1,0.4
	l-6.4-2.8c-0.4-0.1-0.6-0.6-0.4-1C854.2,80.3,854.5,80.1,854.8,80.1z M144.2,82.5c0.2,0,0.3,0.1,0.5,0.2c1.9,1.5,3.7,3.1,5.3,4.6
	c0.3,0.2,0.4,0.7,0.2,1c-0.2,0.3-0.7,0.4-1,0.2c-0.1,0-0.1-0.1-0.1-0.1c-1.6-1.5-3.4-3-5.2-4.6c-0.3-0.3-0.4-0.7-0.1-1.1
	C143.8,82.6,144,82.5,144.2,82.5z M867.6,85.7c0.1,0,0.2,0,0.3,0.1l6.4,2.9c0.4,0.2,0.5,0.6,0.4,1c-0.2,0.4-0.6,0.5-1,0.4
	c-2.1-1-4.2-1.9-6.3-2.9c-0.4-0.2-0.6-0.6-0.4-1C867,85.8,867.3,85.7,867.6,85.7z M106.7,87.2c0.4,0,0.7,0.3,0.7,0.8
	c0,0.2-0.1,0.3-0.2,0.5c-1.6,1.8-3,3.6-4.3,5.4c-0.2,0.3-0.7,0.4-1,0.2c-0.3-0.2-0.4-0.7-0.2-1c1.3-1.8,2.8-3.7,4.4-5.5
	C106.3,87.3,106.5,87.2,106.7,87.2L106.7,87.2z M880.3,91.4c0.1,0,0.2,0,0.3,0.1c2.1,1,4.2,2,6.3,3c0.4,0.1,0.6,0.6,0.4,1
	c-0.1,0.4-0.6,0.6-1,0.4c0,0-0.1,0-0.1-0.1c-2.1-1-4.2-2-6.3-3c-0.4-0.2-0.5-0.6-0.3-1C879.8,91.6,880,91.4,880.3,91.4z M154.4,92
	c0.2,0,0.4,0.1,0.6,0.2c1.6,1.8,3.2,3.6,4.6,5.4c0.2,0.3,0.1,0.8-0.2,1c-0.3,0.2-0.7,0.2-1-0.1c-1.3-1.8-2.8-3.5-4.5-5.3
	c-0.3-0.3-0.3-0.8,0-1.1C154,92.1,154.2,92,154.4,92z M892.9,97.4c0.1,0,0.2,0,0.3,0.1c2.1,1,4.2,2,6.3,3.1c0.4,0.2,0.5,0.7,0.3,1
	c-0.2,0.3-0.6,0.5-1,0.3c-2.1-1-4.2-2-6.2-3.1c-0.4-0.2-0.5-0.6-0.3-1C892.4,97.6,892.6,97.4,892.9,97.4L892.9,97.4z M98.6,98.5
	c0.4,0,0.7,0.3,0.7,0.8c0,0.1,0,0.3-0.1,0.4c-1.1,2-2.1,4.1-2.9,6.2c-0.1,0.4-0.6,0.6-1,0.4s-0.6-0.6-0.4-1l0,0
	c0.9-2.2,1.9-4.3,3-6.4C98.1,98.7,98.3,98.5,98.6,98.5z M162.8,103.2c0.3,0,0.5,0.1,0.6,0.4c1.2,2,2.3,4.2,3.1,6.4
	c0.2,0.4,0,0.8-0.4,1c-0.4,0.2-0.8,0-1-0.4c0,0,0,0,0-0.1c-0.9-2.1-1.9-4.2-3.1-6.2c-0.2-0.4-0.1-0.8,0.3-1
	C162.6,103.2,162.7,103.1,162.8,103.2z M905.4,103.6c0.1,0,0.2,0,0.3,0.1c2.1,1.1,4.2,2.1,6.2,3.2c0.4,0.2,0.5,0.6,0.4,1
	c-0.2,0.4-0.6,0.5-1,0.4c0,0,0,0-0.1,0c-2.1-1.1-4.1-2.1-6.2-3.2c-0.4-0.2-0.5-0.7-0.3-1C904.9,103.8,905.1,103.6,905.4,103.6z
	 M917.8,110c0.1,0,0.2,0,0.3,0.1c2.1,1.1,4.1,2.2,6.2,3.3c0.4,0.2,0.5,0.6,0.3,1c-0.2,0.4-0.6,0.5-1,0.3c0,0,0,0-0.1,0
	c-2.1-1.1-4.1-2.2-6.2-3.3c-0.4-0.2-0.5-0.7-0.3-1C917.3,110.2,917.6,110,917.8,110z M93.7,111.5h0.2c0.4,0.1,0.7,0.5,0.6,0.9
	c0,0,0,0,0,0c-0.5,2.2-0.7,4.5-0.8,6.8c0,0.4-0.3,0.8-0.8,0.8s-0.8-0.3-0.8-0.8l0,0c0.1-2.4,0.3-4.7,0.8-7
	C93,111.8,93.3,111.5,93.7,111.5z M168,116.1c0.4,0,0.7,0.3,0.7,0.6c0.5,2.2,0.7,4.5,0.7,6.7v0.4c0,0.4-0.3,0.7-0.8,0.7
	s-0.8-0.3-0.8-0.7l0,0v-0.4c0-2.2-0.2-4.3-0.7-6.4c-0.1-0.4,0.2-0.8,0.6-0.9L168,116.1z M930.2,116.6c0.1,0,0.2,0,0.4,0.1
	c2,1.1,4.1,2.2,6.1,3.4c0.4,0.2,0.5,0.7,0.3,1c-0.2,0.3-0.6,0.5-1,0.3c-2-1.1-4.1-2.3-6.1-3.4c-0.4-0.2-0.5-0.6-0.3-1
	C929.7,116.8,929.9,116.6,930.2,116.6L930.2,116.6z M942.4,123.4c0.1,0,0.3,0,0.4,0.1c2,1.2,4,2.3,6.1,3.5c0.4,0.2,0.5,0.7,0.3,1
	c-0.2,0.4-0.7,0.5-1,0.3c-2-1.2-4-2.3-6.1-3.5c-0.4-0.2-0.5-0.6-0.3-1C941.9,123.6,942.1,123.5,942.4,123.4L942.4,123.4z
	 M93.4,125.3c0.4,0,0.7,0.3,0.7,0.6c0.4,2.3,1,4.5,1.8,6.6c0.2,0.4,0,0.8-0.4,1c-0.4,0.2-0.8,0-1-0.4c0,0,0-0.1,0-0.1
	c-0.8-2.2-1.4-4.5-1.8-6.9c-0.1-0.4,0.2-0.8,0.6-0.9H93.4L93.4,125.3z M167.8,130h0.2c0.4,0.1,0.6,0.5,0.6,0.9c0,0,0,0,0,0
	c-0.6,2.3-1.4,4.6-2.5,6.7c-0.2,0.4-0.7,0.5-1,0.3c-0.3-0.2-0.5-0.6-0.3-1c1-2,1.8-4.2,2.4-6.4C167.1,130.2,167.4,130,167.8,130z
	 M954.5,130.5c0.1,0,0.3,0,0.4,0.1c2,1.2,4,2.4,6,3.6c0.3,0.2,0.4,0.7,0.2,1c-0.2,0.3-0.6,0.4-1,0.2c-2-1.2-4-2.4-6-3.6
	c-0.4-0.2-0.5-0.6-0.3-1C953.9,130.6,954.2,130.4,954.5,130.5L954.5,130.5z M966.5,137.7c0.1,0,0.3,0,0.4,0.1c2,1.2,4,2.5,6,3.7
	c0.4,0.2,0.5,0.7,0.2,1c-0.2,0.4-0.7,0.5-1,0.2c-2-1.2-4-2.5-5.9-3.7c-0.4-0.2-0.5-0.6-0.4-1C965.9,137.9,966.2,137.7,966.5,137.7
	L966.5,137.7z M98,138.5c0.3,0,0.5,0.1,0.7,0.4c1.1,2,2.3,4,3.7,5.9c0.2,0.3,0.1,0.8-0.2,1c-0.3,0.2-0.8,0.1-1-0.2
	c-1.4-1.9-2.6-3.9-3.8-6c-0.2-0.4-0.1-0.8,0.3-1C97.7,138.5,97.9,138.5,98,138.5z M161.6,142.4c0.4,0,0.7,0.3,0.7,0.8
	c0,0.2-0.1,0.3-0.2,0.5c-1.5,1.9-3.1,3.6-4.9,5.2c-0.3,0.3-0.8,0.2-1.1-0.1s-0.2-0.8,0.1-1.1c1.7-1.5,3.3-3.2,4.7-5
	C161.1,142.5,161.3,142.4,161.6,142.4L161.6,142.4z M978.3,145.1c0.1,0,0.3,0,0.4,0.1c2,1.3,3.9,2.5,5.9,3.8c0.3,0.2,0.4,0.7,0.2,1
	c-0.2,0.3-0.7,0.4-1,0.2c-2-1.3-3.9-2.5-5.9-3.8c-0.4-0.2-0.5-0.7-0.3-1C977.8,145.3,978.1,145.1,978.3,145.1L978.3,145.1z
	 M106.6,150.1c1.5,1.7,3.2,3.2,5.1,4.4c0.3,0.2,0.4,0.7,0.2,1c-0.2,0.3-0.6,0.4-1,0.2c-2-1.3-3.8-2.9-5.4-4.6L106.6,150.1z
	 M151.2,151.7c0.4,0,0.7,0.3,0.7,0.8c0,0.3-0.1,0.5-0.3,0.6c-2,1.3-4.1,2.4-6.3,3.4c-0.4,0.2-0.8,0-1-0.4c-0.2-0.4,0-0.8,0.4-1
	c2.1-0.9,4.1-2,6.1-3.2C150.9,151.7,151.1,151.7,151.2,151.7L151.2,151.7z M990,152.8c0.1,0,0.3,0,0.4,0.1c1.9,1.3,3.9,2.6,5.8,3.9
	c0.4,0.2,0.5,0.7,0.3,1s-0.7,0.5-1,0.3c0,0,0,0-0.1,0c-1.9-1.3-3.9-2.6-5.8-3.9c-0.3-0.2-0.5-0.7-0.2-1
	C989.5,152.9,989.8,152.8,990,152.8L990,152.8z M138.4,157.3c0.4,0,0.7,0.4,0.7,0.8c0,0.3-0.2,0.6-0.5,0.7c-2.3,0.6-4.6,1.1-7,1.3
	c-0.4,0.1-0.8-0.2-0.9-0.6c-0.1-0.4,0.2-0.8,0.6-0.9c0,0,0.1,0,0.1,0c2.3-0.2,4.5-0.7,6.8-1.3L138.4,157.3z M117.7,157.3
	c0.1,0,0.2,0,0.2,0c2.2,0.7,4.4,1.1,6.7,1.3c0.4,0.1,0.7,0.5,0.6,0.9c-0.1,0.4-0.4,0.6-0.7,0.6c-2.4-0.2-4.7-0.7-7-1.4
	c-0.4-0.2-0.5-0.6-0.3-1C117.3,157.5,117.5,157.4,117.7,157.3L117.7,157.3z M1001.6,160.6c0.2,0,0.3,0,0.4,0.1
	c1.9,1.3,3.8,2.7,5.8,4c0.3,0.3,0.3,0.7,0.1,1.1c-0.2,0.3-0.6,0.3-0.9,0.2c-1.9-1.3-3.8-2.7-5.7-4c-0.3-0.2-0.4-0.7-0.2-1
	C1001.2,160.8,1001.4,160.6,1001.6,160.6L1001.6,160.6z M1013.1,168.7c0.2,0,0.3,0,0.4,0.1c1.9,1.3,3.8,2.7,5.7,4.1
	c0.3,0.2,0.4,0.7,0.2,1.1c-0.2,0.3-0.7,0.4-1,0.2c-1.9-1.4-3.8-2.7-5.7-4.1c-0.3-0.2-0.4-0.7-0.2-1
	C1012.6,168.8,1012.9,168.7,1013.1,168.7L1013.1,168.7z M1024.4,176.9c0.2,0,0.3,0.1,0.4,0.1c1.9,1.4,3.7,2.8,5.6,4.2
	c0.3,0.3,0.4,0.7,0.1,1.1c-0.2,0.3-0.7,0.4-1,0.1c-1.9-1.4-3.7-2.8-5.6-4.2c-0.3-0.3-0.3-0.8,0-1.1
	C1024,177.1,1024.2,177,1024.4,176.9L1024.4,176.9z M1035.5,185.4c0.2,0,0.3,0.1,0.5,0.2c1.8,1.4,3.7,2.9,5.5,4.3
	c0.3,0.3,0.4,0.7,0.1,1.1s-0.7,0.4-1.1,0.1c-1.8-1.4-3.7-2.9-5.5-4.3c-0.3-0.3-0.4-0.7-0.1-1.1
	C1035.1,185.5,1035.3,185.4,1035.5,185.4L1035.5,185.4z M1046.5,194.1c0.2,0,0.3,0.1,0.5,0.2c1.8,1.5,3.6,2.9,5.4,4.4
	c0.3,0.3,0.4,0.8,0.1,1.1c-0.3,0.3-0.8,0.4-1.1,0.1c-1.8-1.5-3.6-2.9-5.4-4.4c-0.3-0.3-0.4-0.7-0.1-1.1
	C1046.1,194.2,1046.3,194.1,1046.5,194.1L1046.5,194.1z M1057.4,203c0.2,0,0.3,0.1,0.5,0.2c1.8,1.5,3.6,3,5.4,4.5
	c0.3,0.3,0.3,0.8,0.1,1.1c-0.3,0.3-0.8,0.3-1.1,0.1c-1.8-1.5-3.6-3-5.3-4.5c-0.3-0.3-0.3-0.8,0-1.1
	C1057,203.1,1057.2,203,1057.4,203L1057.4,203z M1068,212c0.2,0,0.4,0.1,0.5,0.2c1.8,1.5,3.5,3.1,5.3,4.6c0.3,0.3,0.3,0.8,0.1,1.1
	c-0.3,0.3-0.8,0.3-1.1,0.1l0,0c-1.7-1.5-3.5-3.1-5.3-4.6c-0.3-0.3-0.3-0.8,0-1.1C1067.6,212.1,1067.8,212,1068,212z M1078.5,221.3
	c0.2,0,0.4,0.1,0.5,0.2c1.7,1.6,3.5,3.1,5.2,4.7c0.3,0.3,0.3,0.8,0,1.1c-0.3,0.2-0.7,0.3-1,0.1c-1.7-1.6-3.4-3.1-5.2-4.7
	c-0.3-0.3-0.3-0.8,0-1.1C1078.2,221.4,1078.3,221.3,1078.5,221.3L1078.5,221.3z M1088.8,230.7c0.2,0,0.4,0.1,0.5,0.2
	c1.7,1.6,3.4,3.2,5.1,4.8c0.3,0.2,0.4,0.7,0.2,1c-0.2,0.3-0.7,0.4-1,0.2c-0.1,0-0.1-0.1-0.2-0.2c-1.7-1.6-3.4-3.2-5.1-4.8
	c-0.3-0.3-0.3-0.8,0-1.1C1088.5,230.9,1088.7,230.8,1088.8,230.7L1088.8,230.7z M1098.9,240.4c0.2,0,0.4,0.1,0.5,0.2
	c1.7,1.6,3.3,3.3,5,4.9c0.3,0.3,0.3,0.8,0,1.1s-0.8,0.3-1.1,0l0,0c-1.7-1.6-3.3-3.3-5-4.9c-0.3-0.3-0.3-0.8,0.1-1.1
	C1098.6,240.5,1098.8,240.4,1098.9,240.4L1098.9,240.4z M1108.9,250.3c0.2,0,0.4,0.1,0.5,0.2c1.6,1.7,3.3,3.3,4.9,5
	c0.3,0.2,0.4,0.7,0.2,1c-0.2,0.3-0.7,0.4-1,0.2c-0.1-0.1-0.1-0.1-0.2-0.2c-1.6-1.7-3.3-3.3-4.9-5c-0.2-0.3-0.2-0.8,0.2-1
	C1108.6,250.3,1108.8,250.3,1108.9,250.3L1108.9,250.3z M1118.6,260.2c0.2,0,0.4,0.1,0.5,0.2c1.6,1.7,3.2,3.4,4.8,5.1
	c0.3,0.3,0.4,0.7,0.1,1.1c-0.3,0.3-0.7,0.4-1.1,0.1c-0.1,0-0.1-0.1-0.1-0.1c-1.6-1.7-3.2-3.4-4.8-5.1c-0.2-0.3-0.1-0.8,0.2-1
	C1118.4,260.4,1118.5,260.3,1118.6,260.2L1118.6,260.2z M1128.2,270.5c0.2,0,0.4,0.1,0.6,0.2c1.6,1.7,3.1,3.4,4.7,5.2
	c0.2,0.3,0.2,0.8-0.1,1.1c-0.3,0.2-0.7,0.2-1-0.1c-1.6-1.7-3.1-3.5-4.7-5.2c-0.2-0.3-0.1-0.8,0.2-1
	C1128,270.6,1128.1,270.6,1128.2,270.5L1128.2,270.5z M1137.6,280.9c0.2,0,0.4,0.1,0.6,0.2c1.5,1.7,3.1,3.5,4.6,5.3
	c0.3,0.3,0.2,0.8-0.1,1.1c-0.3,0.3-0.8,0.2-1.1-0.1l0,0c-1.5-1.8-3.1-3.5-4.6-5.3c-0.2-0.4-0.1-0.8,0.3-1c0.1-0.1,0.2-0.1,0.3-0.1
	L1137.6,280.9z M1146.7,291.4c0.2,0,0.4,0.1,0.6,0.3c1.5,1.8,3,3.6,4.5,5.4c0.3,0.3,0.2,0.8-0.1,1.1c-0.3,0.3-0.8,0.2-1.1-0.1
	c-1.5-1.8-3-3.6-4.5-5.4c-0.2-0.3-0.2-0.8,0.2-1C1146.5,291.6,1146.6,291.5,1146.7,291.4L1146.7,291.4z M1155.7,302.2
	c0.2,0,0.4,0.1,0.6,0.3c1.5,1.8,2.9,3.6,4.4,5.5c0.3,0.3,0.2,0.8-0.1,1.1s-0.8,0.2-1.1-0.1c-1.5-1.8-2.9-3.6-4.4-5.4
	c-0.2-0.3-0.1-0.8,0.2-1C1155.5,302.3,1155.6,302.3,1155.7,302.2L1155.7,302.2z M1164.5,313.1c0.2,0,0.4,0.1,0.6,0.3
	c1.4,1.8,2.9,3.7,4.3,5.5c0.3,0.3,0.2,0.8-0.1,1.1c-0.3,0.3-0.8,0.2-1.1-0.1c-1.4-1.8-2.9-3.7-4.3-5.5c-0.2-0.4-0.1-0.8,0.3-1
	C1164.3,313.3,1164.4,313.2,1164.5,313.1L1164.5,313.1z"/>
</svg>
