<?xml version="1.0" encoding="utf-8"?>
<!-- Generator: Adobe Illustrator 19.2.0, SVG Export Plug-In . SVG Version: 6.00 Build 0)  -->
<svg version="1.1" id="Laag_1" xmlns="http://www.w3.org/2000/svg" xmlns:xlink="http://www.w3.org/1999/xlink" x="0px" y="0px"
	 viewBox="0 0 1639.9 250.3" style="enable-background:new 0 0 1639.9 250.3;" xml:space="preserve">
<style type="text/css">
	.st0{fill:#FCE338;}
</style>
<title>line-banner-introduction-tom</title>
<path class="st0" d="M0.9,250.3L0,249.1l5.4-4.3l0.9,1.2L0.9,250.3z M11.8,241.6l-0.9-1.2l5.5-4.3l0.9,1.2L11.8,241.6z M22.8,233
	l-0.9-1.2l5.5-4.3l0.9,1.2L22.8,233z M33.9,224.4l-0.9-1.2l5.6-4.2l0.9,1.2L33.9,224.4z M45,216l-0.9-1.2l5.6-4.2l0.9,1.2L45,216z
	 M56.2,207.6l-0.9-1.2l5.6-4.1l0.9,1.2L56.2,207.6z M67.5,199.3l-0.9-1.2l5.7-4.1l0.9,1.2L67.5,199.3z M78.8,191.1l-0.9-1.2l5.7-4.1
	l0.9,1.2L78.8,191.1z M90.2,183l-0.9-1.2l5.8-4L96,179L90.2,183z M101.7,175l-0.8-1.2l5.8-4l0.8,1.2L101.7,175z M113.3,167.2
	l-0.9-1.3l5.8-3.9l0.8,1.2L113.3,167.2z M125,159.5l-0.8-1.3l5.9-3.8l0.8,1.3L125,159.5z M136.7,151.9l-0.8-1.3l5.9-3.8l0.8,1.3
	L136.7,151.9z M1639.9,150.3l-7-0.2v-1.5l7,0.2V150.3z M1625.9,149.9l-7-0.2l0.1-1.5l7,0.2L1625.9,149.9z M1611.9,149.4l-7-0.3
	l0.1-1.5l7,0.3L1611.9,149.4z M1597.9,148.8l-7-0.3l0.1-1.5l7,0.3L1597.9,148.8z M1583.9,148.2l-7-0.4l0.1-1.5l7,0.4L1583.9,148.2z
	 M1569.9,147.4l-7-0.4l0.1-1.5l7,0.4L1569.9,147.4z M1555.9,146.6l-7-0.4l0.1-1.5l7,0.4L1555.9,146.6z M1541.9,145.7l-7-0.5l0.1-1.5
	l7,0.5L1541.9,145.7z M1527.9,144.7l-7-0.5l0.1-1.5l7,0.5L1527.9,144.7z M148.4,144.4l-0.8-1.3l5.9-3.7l0.8,1.3L148.4,144.4z
	 M1513.9,143.6l-7-0.6l0.1-1.5l7,0.6L1513.9,143.6z M1499.9,142.5l-7-0.6l0.1-1.5l7,0.6L1499.9,142.5z M1486.2,141.2l-7-0.6l0.1-1.5
	l7,0.6L1486.2,141.2z M1472.2,139.9l-7-0.7l0.2-1.5l7,0.7L1472.2,139.9z M1458.3,138.6l-7-0.7l0.2-1.5l7,0.7L1458.3,138.6z
	 M1444.4,137.1l-7-0.8l0.2-1.5l7,0.8L1444.4,137.1z M160.5,137l-0.8-1.3l6-3.6l0.8,1.3L160.5,137z M1430.5,135.6l-7-0.8l0.2-1.5
	l7,0.8L1430.5,135.6z M1416.6,134l-7-0.8l0.2-1.5l6.9,0.8L1416.6,134z M1402.7,132.3l-6.9-0.9l0.2-1.5l6.9,0.9L1402.7,132.3z
	 M1388.8,130.5l-6.9-0.9l0.2-1.5l6.9,0.9L1388.8,130.5z M172.4,129.7l-0.8-1.3l6-3.6l0.8,1.3L172.4,129.7z M1374.9,128.7l-6.9-0.9
	l0.2-1.5l6.9,0.9L1374.9,128.7z M1361,126.8l-6.9-1l0.2-1.5l6.9,1L1361,126.8z M1347.2,124.8l-6.9-1l0.2-1.5l6.9,1L1347.2,124.8z
	 M1333.3,122.8l-6.9-1l0.2-1.5l6.9,1L1333.3,122.8z M184.5,122.6l-0.8-1.3l6.1-3.5l0.8,1.3L184.5,122.6z M1319.5,120.6l-6.9-1.1
	l0.2-1.5l6.9,1.1L1319.5,120.6z M1305.6,118.5l-6.9-1.1l0.2-1.5l6.9,1.1L1305.6,118.5z M1291.8,116.2l-6.9-1.2l0.2-1.5l6.9,1.2
	L1291.8,116.2z M196.6,115.7l-0.7-1.3l6.1-3.4l0.7,1.3L196.6,115.7z M1277.9,113.9l-6.9-1.2l0.2-1.5l6.9,1.2L1277.9,113.9z
	 M1264.1,111.6l-6.9-1.2l0.3-1.5l6.9,1.2L1264.1,111.6z M1250.4,109.1l-6.9-1.2l0.3-1.5l6.9,1.2L1250.4,109.1z M208.8,108.9
	l-0.7-1.3l6.2-3.4l0.7,1.3L208.8,108.9z M1236.6,106.7l-6.9-1.3l0.3-1.5l6.9,1.3L1236.6,106.7z M1222.8,104.1l-6.9-1.3l0.3-1.5
	l6.9,1.3L1222.8,104.1z M221.1,102.2l-0.7-1.3l6.2-3.3l0.7,1.3L221.1,102.2z M1209.1,101.5l-6.9-1.3l0.3-1.5l6.9,1.3L1209.1,101.5z
	 M1195.3,98.8l-6.9-1.3l0.3-1.5l6.9,1.3L1195.3,98.8z M1181.6,96.2l-6.9-1.4l0.3-1.5l6.9,1.4L1181.6,96.2z M233.6,95.8l-0.7-1.3
	l6.2-3.2l0.7,1.3L233.6,95.8z M1167.9,93.5l-6.9-1.4l0.3-1.5l6.9,1.4L1167.9,93.5z M1154.1,90.7l-6.9-1.4l0.3-1.5l6.9,1.4
	L1154.1,90.7z M246.1,89.5l-0.7-1.3l6.3-3.1l0.7,1.4L246.1,89.5z M1140.4,87.9l-6.8-1.4l0.3-1.5l6.8,1.4L1140.4,87.9z M1126.7,85.1
	l-6.8-1.4l0.3-1.5l6.8,1.4L1126.7,85.1z M258.6,83.4L258,82l6.3-3l0.6,1.4C262.8,81.4,260.7,82.4,258.6,83.4L258.6,83.4z M1113,82.2
	l-6.8-1.5l0.3-1.5l6.8,1.5L1113,82.2z M1099.3,79.2l-6.8-1.5l0.3-1.5l6.8,1.5L1099.3,79.2z M271.3,77.4l-0.6-1.4l6.4-2.9l0.6,1.4
	L271.3,77.4z M1085.6,76.3l-6.8-1.5l0.3-1.5l6.8,1.5L1085.6,76.3z M1071.9,73.3l-6.8-1.5l0.3-1.5l6.8,1.5L1071.9,73.3z M284,71.6
	l-0.6-1.4c2.1-0.9,4.3-1.9,6.4-2.8l0.6,1.4L284,71.6z M1058.3,70.3l-6.8-1.5l0.3-1.5l6.8,1.5L1058.3,70.3z M1044.6,67.3l-6.8-1.5
	l0.3-1.5l6.8,1.5L1044.6,67.3z M296.9,66l-0.6-1.4c2.2-0.9,4.3-1.8,6.5-2.7l0.6,1.4C301.1,64.2,299,65.2,296.9,66L296.9,66z
	 M1030.9,64.3l-6.8-1.5l0.3-1.5l6.8,1.5L1030.9,64.3z M1017.2,61.3l-6.8-1.5l0.3-1.5l6.8,1.5L1017.2,61.3z M309.8,60.6l-0.6-1.4
	l6.5-2.6l0.5,1.4L309.8,60.6z M1003.6,58.3l-6.8-1.5l0.3-1.5l6.8,1.5L1003.6,58.3z M322.8,55.5l-0.5-1.4c2.2-0.8,4.4-1.7,6.5-2.5
	l0.5,1.4L322.8,55.5z M989.9,55.4l-6.8-1.5l0.3-1.5l6.8,1.5L989.9,55.4z M976.2,52.4l-6.8-1.5l0.3-1.5l6.8,1.5L976.2,52.4z
	 M335.8,50.5l-0.5-1.3c2.2-0.8,4.4-1.6,6.6-2.4l0.5,1.4C340.2,49,338,49.8,335.8,50.5L335.8,50.5z M962.5,49.5l-6.8-1.5l0.3-1.5
	l6.8,1.5L962.5,49.5z M948.8,46.6l-6.8-1.5l0.3-1.5l6.8,1.5L948.8,46.6z M348.9,45.9l-0.5-1.4c2.2-0.8,4.4-1.5,6.6-2.3l0.5,1.4
	C353.4,44.3,351.2,45.1,348.9,45.9L348.9,45.9z M935.1,43.7l-6.8-1.4l0.3-1.5l6.9,1.5L935.1,43.7z M362.2,41.3l-0.5-1.4
	c2.2-0.7,4.4-1.5,6.7-2.2l0.5,1.4C366.6,39.9,364.4,40.6,362.2,41.3L362.2,41.3z M921.4,40.8l-6.8-1.4l0.3-1.5l6.8,1.4L921.4,40.8z
	 M907.7,38l-6.9-1.4l0.3-1.5l6.9,1.4L907.7,38z M375.5,37.1l-0.5-1.4c2.2-0.7,4.5-1.4,6.7-2.1l0.4,1.4
	C380,35.7,377.8,36.4,375.5,37.1L375.5,37.1z M894,35.2l-6.9-1.4l0.3-1.5l6.9,1.4L894,35.2z M388.9,33l-0.4-1.4
	c2.2-0.7,4.5-1.3,6.7-1.9l0.4,1.4C393.4,31.7,391.2,32.4,388.9,33L388.9,33z M880.2,32.5l-6.9-1.3l0.3-1.5l6.9,1.3L880.2,32.5z
	 M866.5,29.8l-6.9-1.3l0.3-1.5l6.9,1.3L866.5,29.8z M402.4,29.2l-0.4-1.5c2.3-0.6,4.5-1.2,6.8-1.8l0.4,1.5
	C406.9,28,404.6,28.6,402.4,29.2z M852.8,27.2l-6.9-1.3l0.3-1.5l6.9,1.3L852.8,27.2z M415.9,25.6l-0.4-1.5c2.3-0.6,4.5-1.1,6.8-1.7
	l0.4,1.5C420.4,24.5,418.1,25,415.9,25.6L415.9,25.6z M839,24.7l-6.9-1.2l0.3-1.5l6.9,1.2L839,24.7z M429.5,22.2l-0.3-1.5
	c2.3-0.5,4.6-1.1,6.8-1.6l0.3,1.5C434,21.2,431.7,21.7,429.5,22.2z M825.2,22.2l-6.9-1.2l0.2-1.5l6.9,1.2L825.2,22.2z M811.5,19.9
	l-6.9-1.1l0.2-1.5l6.9,1.1L811.5,19.9z M443.1,19.2l-0.3-1.5c2.3-0.5,4.6-1,6.9-1.5l0.3,1.5C447.7,18.2,445.4,18.7,443.1,19.2z
	 M797.6,17.7l-6.9-1.1l0.2-1.5l6.9,1.1L797.6,17.7z M456.8,16.4l-0.3-1.5c2.3-0.5,4.6-0.9,6.9-1.3l0.3,1.5
	C461.4,15.5,459.1,15.9,456.8,16.4L456.8,16.4z M783.8,15.6l-6.9-1l0.2-1.5l6.9,1L783.8,15.6z M470.5,13.8l-0.3-1.5
	c2.3-0.4,4.6-0.8,6.9-1.2l0.2,1.5C475.1,13,472.8,13.4,470.5,13.8L470.5,13.8z M769.9,13.6l-6.9-1l0.2-1.5l6.9,1L769.9,13.6z
	 M756.1,11.7l-6.9-0.9l0.2-1.5l7,0.9L756.1,11.7z M484.3,11.5l-0.2-1.5c2.3-0.4,4.6-0.7,6.9-1.1l0.2,1.5
	C488.9,10.7,486.6,11.1,484.3,11.5L484.3,11.5z M742.2,9.9l-7-0.8l0.2-1.5l7,0.8L742.2,9.9z M498.2,9.4l-0.2-1.5
	c2.3-0.3,4.6-0.6,6.9-1l0.2,1.5C502.8,8.7,500.5,9,498.2,9.4L498.2,9.4z M728.3,8.2l-7-0.8l0.2-1.5l7,0.8L728.3,8.2z M512,7.5
	L511.8,6c2.3-0.3,4.7-0.6,7-0.8l0.2,1.5C516.6,6.9,514.3,7.2,512,7.5L512,7.5z M714.4,6.8l-7-0.7l0.1-1.5l7,0.7L714.4,6.8z
	 M525.9,5.9l-0.2-1.5l7-0.7l0.1,1.5C530.6,5.5,528.2,5.7,525.9,5.9L525.9,5.9z M700.4,5.5l-7-0.6l0.1-1.5l7,0.6L700.4,5.5z
	 M539.8,4.6l-0.1-1.5c2.3-0.2,4.7-0.4,7-0.6l0.1,1.5C544.5,4.2,542.1,4.4,539.8,4.6L539.8,4.6z M686.4,4.3l-7-0.5l0.1-1.5l7,0.5
	L686.4,4.3z M553.7,3.5L553.6,2l7-0.5l0.1,1.5C558.4,3.2,556,3.3,553.7,3.5L553.7,3.5z M672.5,3.4l-7-0.4l0.1-1.5l7,0.4L672.5,3.4z
	 M567.7,2.7l-0.1-1.5l7-0.3l0.1,1.5L567.7,2.7z M658.5,2.7l-7-0.3l0.1-1.5l7,0.3L658.5,2.7z M581.6,2.1l0-1.5c2.3-0.1,4.7-0.2,7-0.2
	v1.5L581.6,2.1z M644.5,2.1l-7-0.2V0.4l7,0.2V2.1z M630.5,1.7l-7-0.1V0.1l7,0.1V1.7z M595.5,1.7V0.2l7-0.1v1.5L595.5,1.7z
	 M616.5,1.6h-7V0.1h7V1.6z"/>
</svg>
