<svg xmlns="http://www.w3.org/2000/svg" viewBox="0 0 1194.21 449.42"><defs><style>.a{fill:#fce338;}</style></defs><title>line-banner-discussion-answers</title><path class="a" d="M1047.66,150.2a0.75,0.75,0,0,0,1-1.1,57,57,0,0,0-5.49-4.48,0.75,0.75,0,0,0-.88,1.22A55.6,55.6,0,0,1,1047.66,150.2Z" transform="translate(-245.79 -3.58)"/><path class="a" d="M1058.8,167.24a37.3,37.3,0,0,1,1.46,6.68,0.75,0.75,0,0,0,1.49-.19,38.8,38.8,0,0,0-1.52-7A0.75,0.75,0,1,0,1058.8,167.24Z" transform="translate(-245.79 -3.58)"/><path class="a" d="M1052.44,154.2a0.75,0.75,0,0,0-.1,1,39.36,39.36,0,0,1,3.78,5.71,0.75,0.75,0,0,0,1.32-.71,40.83,40.83,0,0,0-3.93-5.93,0.75,0.75,0,0,0-1.05-.12Z" transform="translate(-245.79 -3.58)"/><path class="a" d="M1111.6,225.55a0.75,0.75,0,0,0,.63,1.31c2.31-.47,4.61-1,6.86-1.6a0.75,0.75,0,0,0-.39-1.45c-2.21.59-4.49,1.12-6.77,1.58A0.75,0.75,0,0,0,1111.6,225.55Z" transform="translate(-245.79 -3.58)"/><path class="a" d="M1059.74,187.6a0.75,0.75,0,0,0,1.47.27,50.8,50.8,0,0,0,.81-7,0.75,0.75,0,0,0-1.5-.06A49.33,49.33,0,0,1,1059.74,187.6Z" transform="translate(-245.79 -3.58)"/><path class="a" d="M1036.39,142l0.1,0.06a0.75,0.75,0,0,0,.74-1.31l-0.09-.05a25.42,25.42,0,0,0-6.57-2.63,0.75,0.75,0,0,0-.36,1.46A23.92,23.92,0,0,1,1036.39,142Z" transform="translate(-245.79 -3.58)"/><path class="a" d="M1016.71,139.78a30.87,30.87,0,0,1,6.76-.92,0.75,0.75,0,1,0,0-1.5,32.35,32.35,0,0,0-7.09,1A0.75,0.75,0,1,0,1016.71,139.78Z" transform="translate(-245.79 -3.58)"/><path class="a" d="M1172.83,193.07c1.62-1.62,3.25-3.33,4.86-5.08a0.75,0.75,0,0,0-1-1.08l-0.07.07c-1.59,1.74-3.21,3.43-4.82,5A0.75,0.75,0,1,0,1172.83,193.07Z" transform="translate(-245.79 -3.58)"/><path class="a" d="M1182.34,182.73c1.48-1.74,3-3.56,4.47-5.42a0.75,0.75,0,0,0-1.07-1l-0.1.11c-1.47,1.85-3,3.66-4.43,5.38A0.75,0.75,0,0,0,1182.34,182.73Z" transform="translate(-245.79 -3.58)"/><path class="a" d="M1191.1,171.75c1.37-1.82,2.76-3.72,4.14-5.67a0.75,0.75,0,0,0-1.1-1,0.74,0.74,0,0,0-.13.14c-1.38,1.93-2.76,3.83-4.12,5.64A0.75,0.75,0,0,0,1191.1,171.75Z" transform="translate(-245.79 -3.58)"/><path class="a" d="M1199.25,160.33q2-2.89,3.89-5.83a0.75,0.75,0,1,0-1.25-.82q-1.92,2.93-3.88,5.81A0.75,0.75,0,1,0,1199.25,160.33Z" transform="translate(-245.79 -3.58)"/><path class="a" d="M1162.43,202.57c1.78-1.48,3.56-3,5.31-4.62a0.75,0.75,0,0,0-1-1.13l0,0q-2.6,2.37-5.25,4.57h0A0.75,0.75,0,0,0,1162.43,202.57Z" transform="translate(-245.79 -3.58)"/><path class="a" d="M1138.87,217.88c2.09-1,4.19-2.13,6.23-3.29a0.75,0.75,0,0,0-.74-1.3c-2,1.14-4.08,2.24-6.15,3.24l-0.16.1A0.75,0.75,0,0,0,1138.87,217.88Z" transform="translate(-245.79 -3.58)"/><path class="a" d="M1125.84,223.22c2.22-.75,4.44-1.57,6.6-2.46a0.75,0.75,0,0,0-.57-1.39c-2.13.87-4.32,1.69-6.51,2.43A0.75,0.75,0,0,0,1125.84,223.22Z" transform="translate(-245.79 -3.58)"/><path class="a" d="M1151.11,210.92c1.94-1.27,3.88-2.62,5.78-4a0.75,0.75,0,0,0-.89-1.21c-1.87,1.38-3.79,2.72-5.71,4l-0.08.06A0.75,0.75,0,0,0,1151.11,210.92Z" transform="translate(-245.79 -3.58)"/><path class="a" d="M989.52,194a0.75,0.75,0,0,0,.27-1,32,32,0,0,1-2.8-6.22,0.75,0.75,0,0,0-1.43.46,33.57,33.57,0,0,0,2.93,6.51A0.75,0.75,0,0,0,989.52,194Z" transform="translate(-245.79 -3.58)"/><path class="a" d="M1003.26,207.59a0.76,0.76,0,0,0-.14.15,0.75,0.75,0,0,0,.2,1c1.88,1.26,3.91,2.49,6.05,3.65a0.75,0.75,0,1,0,.71-1.32c-2.1-1.14-4.09-2.34-5.93-3.57A0.75,0.75,0,0,0,1003.26,207.59Z" transform="translate(-245.79 -3.58)"/><path class="a" d="M998.74,204.43a0.75,0.75,0,0,0-.08-1.06,46.34,46.34,0,0,1-4.88-4.85,0.75,0.75,0,0,0-1.05-.08h0a0.75,0.75,0,0,0-.08,1.06,47.82,47.82,0,0,0,5,5A0.75,0.75,0,0,0,998.74,204.43Z" transform="translate(-245.79 -3.58)"/><path class="a" d="M985.63,180.07a30.7,30.7,0,0,1,.18-6.81,0.75,0.75,0,1,0-1.49-.2,32.19,32.19,0,0,0-.19,7.15A0.75,0.75,0,1,0,985.63,180.07Z" transform="translate(-245.79 -3.58)"/><path class="a" d="M1014.64,256.79c1.73-1.61,3.44-3.24,5.08-4.84a0.75,0.75,0,0,0-1-1.11l0,0c-1.63,1.59-3.33,3.21-5.05,4.82a0.75,0.75,0,0,0,0,1.06A0.76,0.76,0,0,0,1014.64,256.79Z" transform="translate(-245.79 -3.58)"/><path class="a" d="M1024.68,247c1.65-1.69,3.27-3.41,4.83-5.1a0.75,0.75,0,0,0-1-1.08l-0.07.07c-1.54,1.68-3.16,3.38-4.8,5.07A0.75,0.75,0,0,0,1024.68,247Z" transform="translate(-245.79 -3.58)"/><path class="a" d="M1042.81,222.58a0.75,0.75,0,0,0-.47,1.42l-0.58.79a0.75,0.75,0,1,0,1.21.89l1-1.32c1.78,0.38,3.6.74,5.44,1.08a0.75,0.75,0,0,0,.27-1.47c-1.61-.3-3.2-0.61-4.76-0.94,0.74-1,1.45-2.08,2.14-3.11a0.75,0.75,0,0,0-1.11-1,0.74,0.74,0,0,0-.14.16c-0.79,1.19-1.62,2.39-2.49,3.6Z" transform="translate(-245.79 -3.58)"/><path class="a" d="M1049.74,214.23a0.75,0.75,0,0,0,1-.26c1.23-2.07,2.37-4.15,3.4-6.17a0.75,0.75,0,1,0-1.34-.68c-1,2-2.14,4-3.35,6.09A0.75,0.75,0,0,0,1049.74,214.23Z" transform="translate(-245.79 -3.58)"/><path class="a" d="M994.15,154.7a45.71,45.71,0,0,1,4.7-5,0.75,0.75,0,0,0-1-1.13l0,0a47.24,47.24,0,0,0-4.86,5.19A0.75,0.75,0,1,0,994.15,154.7Z" transform="translate(-245.79 -3.58)"/><path class="a" d="M1004.26,145.41a42.43,42.43,0,0,1,6-3.36,0.75,0.75,0,0,0-.62-1.36,44,44,0,0,0-6.2,3.48l-0.07.05A0.75,0.75,0,0,0,1004.26,145.41Z" transform="translate(-245.79 -3.58)"/><path class="a" d="M987.43,166.62a38.57,38.57,0,0,1,2.85-6.24,0.75,0.75,0,0,0-1.3-.74,40.08,40.08,0,0,0-3,6.48A0.75,0.75,0,1,0,987.43,166.62Z" transform="translate(-245.79 -3.58)"/><path class="a" d="M1056.14,201.8a0.75,0.75,0,0,0,1-.41c0.93-2.24,1.73-4.48,2.4-6.64a0.75,0.75,0,1,0-1.43-.44c-0.65,2.12-1.44,4.31-2.35,6.51A0.75,0.75,0,0,0,1056.14,201.8Z" transform="translate(-245.79 -3.58)"/><path class="a" d="M1035.66,222.4a0.75,0.75,0,1,0,.38-1.45c-2.29-.6-4.54-1.25-6.7-1.92a0.75,0.75,0,0,0-.45,1.43C1031.07,221.14,1033.34,221.79,1035.66,222.4Z" transform="translate(-245.79 -3.58)"/><path class="a" d="M1370.53,5.08a0.75,0.75,0,0,0,0-1.5c-2.36,0-4.73.06-7,.17a0.75,0.75,0,1,0,.07,1.5C1365.85,5.14,1368.2,5.09,1370.53,5.08Z" transform="translate(-245.79 -3.58)"/><path class="a" d="M1412,9.67a0.75,0.75,0,0,0,.31-1.47c-2.31-.48-4.62-0.93-6.89-1.34a0.75,0.75,0,0,0-.27,1.48C1407.43,8.75,1409.74,9.19,1412,9.67Z" transform="translate(-245.79 -3.58)"/><path class="a" d="M1398.3,7.21a0.75,0.75,0,0,0,.22-1.48c-2.33-.35-4.67-0.65-7-0.92a0.75,0.75,0,1,0-.17,1.49C1393.66,6.56,1396,6.87,1398.3,7.21Z" transform="translate(-245.79 -3.58)"/><path class="a" d="M1425.61,12.89a0.75,0.75,0,1,0,.38-1.45c-2.28-.6-4.57-1.17-6.81-1.7a0.75,0.75,0,0,0-.35,1.46C1421.06,11.72,1423.34,12.29,1425.61,12.89Z" transform="translate(-245.79 -3.58)"/><path class="a" d="M1349.72,6.56c2.26-.33,4.59-0.61,6.91-0.83a0.75,0.75,0,1,0-.14-1.49c-2.35.22-4.7,0.5-7,.83A0.75,0.75,0,0,0,1349.72,6.56Z" transform="translate(-245.79 -3.58)"/><path class="a" d="M1439,16.74a0.75,0.75,0,1,0,.44-1.43c-2.24-.7-4.5-1.37-6.72-2a0.75,0.75,0,0,0-.41,1.44C1434.54,15.38,1436.79,16,1439,16.74Z" transform="translate(-245.79 -3.58)"/><path class="a" d="M1384.45,5.63a0.75,0.75,0,0,0,.12-1.5c-2.36-.19-4.72-0.32-7-0.42a0.75,0.75,0,1,0-.06,1.5C1379.77,5.31,1382.11,5.45,1384.45,5.63Z" transform="translate(-245.79 -3.58)"/><path class="a" d="M1004.17,266.14h0c1.8-1.55,3.58-3.1,5.28-4.62a0.75,0.75,0,0,0-1-1.13h0c-1.69,1.51-3.46,3.06-5.26,4.6A0.75,0.75,0,0,0,1004.17,266.14Z" transform="translate(-245.79 -3.58)"/><path class="a" d="M1084.27,227.78a0.75,0.75,0,1,0,0,1.5c2.36,0,4.73,0,7,0a0.75,0.75,0,0,0,0-1.5C1088.95,227.8,1086.6,227.82,1084.27,227.78Z" transform="translate(-245.79 -3.58)"/><path class="a" d="M1023.2,217.75a0.75,0.75,0,0,0-.44-1c-2.23-.83-4.4-1.71-6.44-2.62a0.75,0.75,0,1,0-.61,1.37c2.07,0.92,4.27,1.82,6.53,2.65A0.75,0.75,0,0,0,1023.2,217.75Z" transform="translate(-245.79 -3.58)"/><path class="a" d="M1037.61,230.2l-0.1.1c-1.42,1.77-2.93,3.58-4.46,5.36a0.75,0.75,0,1,0,1.14,1c1.55-1.8,3.06-3.61,4.5-5.4A0.75,0.75,0,0,0,1037.61,230.2Z" transform="translate(-245.79 -3.58)"/><path class="a" d="M1056.52,225.14a0.75,0.75,0,1,0-.23,1.48c2.25,0.35,4.59.68,6.95,1a0.75,0.75,0,0,0,.19-1.49C1061.08,225.82,1058.76,225.49,1056.52,225.14Z" transform="translate(-245.79 -3.58)"/><path class="a" d="M1070.37,226.92l-0.11,1.5c2.35,0.24,4.69.44,7,.58a0.75,0.75,0,1,0,.09-1.5C1075.06,227.36,1072.74,227.17,1070.37,226.92Z" transform="translate(-245.79 -3.58)"/><path class="a" d="M1336.09,9.3c2.22-.57,4.5-1.1,6.78-1.55a0.75,0.75,0,1,0-.29-1.47c-2.31.46-4.62,1-6.86,1.57A0.75,0.75,0,1,0,1336.09,9.3Z" transform="translate(-245.79 -3.58)"/><path class="a" d="M1105.09,226.56c-2.26.32-4.59,0.58-6.91,0.78a0.75,0.75,0,1,0,.13,1.49c2.35-.2,4.71-0.46,7-0.79A0.75,0.75,0,1,0,1105.09,226.56Z" transform="translate(-245.79 -3.58)"/><path class="a" d="M1267.72,54.77c1.52-1.79,3.07-3.55,4.61-5.23a0.75,0.75,0,0,0-1-1.08l-0.07.07c-1.55,1.7-3.11,3.47-4.64,5.27A0.75,0.75,0,1,0,1267.72,54.77Z" transform="translate(-245.79 -3.58)"/><path class="a" d="M1235.83,100.54q1.82-3,3.65-6a0.75,0.75,0,1,0-1.27-.79q-1.84,3-3.66,6A0.75,0.75,0,0,0,1235.83,100.54Z" transform="translate(-245.79 -3.58)"/><path class="a" d="M1250.87,77c1.34-2,2.69-3.88,4-5.72a0.75,0.75,0,1,0-1.22-.87c-1.32,1.85-2.68,3.78-4,5.75A0.75,0.75,0,1,0,1250.87,77Z" transform="translate(-245.79 -3.58)"/><path class="a" d="M1243.2,88.67q1.88-2.95,3.79-5.86a0.75,0.75,0,0,0-1.25-.83q-1.92,2.92-3.8,5.88A0.75,0.75,0,1,0,1243.2,88.67Z" transform="translate(-245.79 -3.58)"/><path class="a" d="M1228.64,112.55q1.78-3,3.58-6a0.75,0.75,0,0,0-1.13-1,0.74,0.74,0,0,0-.16.19q-1.8,3-3.58,6A0.75,0.75,0,0,0,1228.64,112.55Z" transform="translate(-245.79 -3.58)"/><path class="a" d="M1322.87,13.55c2.14-.83,4.35-1.61,6.55-2.32A0.75,0.75,0,0,0,1329,9.8c-2.23.72-4.47,1.51-6.63,2.35A0.75,0.75,0,0,0,1322.87,13.55Z" transform="translate(-245.79 -3.58)"/><path class="a" d="M1214.32,136.66q1.81-3,3.61-6a0.75,0.75,0,0,0-1.13-1,0.76,0.76,0,0,0-.16.19q-1.8,3-3.61,6A0.75,0.75,0,0,0,1214.32,136.66Z" transform="translate(-245.79 -3.58)"/><path class="a" d="M1221.52,124.61l3.56-6a0.75,0.75,0,0,0-1.29-.76l-3.56,6A0.75,0.75,0,0,0,1221.52,124.61Z" transform="translate(-245.79 -3.58)"/><path class="a" d="M1287.29,35l0.16-.13c1.73-1.47,3.5-2.89,5.26-4.24a0.74,0.74,0,0,0,.14-1.05,0.75,0.75,0,0,0-1.05-.14c-1.78,1.36-3.56,2.8-5.31,4.28l-0.16.13A0.75,0.75,0,0,0,1287.29,35Z" transform="translate(-245.79 -3.58)"/><path class="a" d="M1298.34,26.55c1.92-1.32,3.89-2.59,5.84-3.78a0.75,0.75,0,0,0-.78-1.28c-2,1.2-4,2.49-5.91,3.82l-0.06,0A0.75,0.75,0,0,0,1298.34,26.55Z" transform="translate(-245.79 -3.58)"/><path class="a" d="M1310.23,19.34c2-1.08,4.14-2.12,6.23-3.08a0.75,0.75,0,0,0-.62-1.36c-2.12,1-4.24,2-6.31,3.12l-0.13.09A0.75,0.75,0,0,0,1310.23,19.34Z" transform="translate(-245.79 -3.58)"/><path class="a" d="M1206.94,148.6q1.87-3,3.72-5.94a0.75,0.75,0,1,0-1.28-.79q-1.84,3-3.71,5.93A0.75,0.75,0,1,0,1206.94,148.6Z" transform="translate(-245.79 -3.58)"/><path class="a" d="M1259,65.67c1.42-1.89,2.86-3.74,4.27-5.52a0.75,0.75,0,0,0-1.07-1l-0.1.11c-1.42,1.78-2.87,3.65-4.3,5.55A0.75,0.75,0,0,0,1259,65.67Z" transform="translate(-245.79 -3.58)"/><path class="a" d="M1277.12,44.48c1.64-1.67,3.32-3.3,5-4.85a0.75,0.75,0,0,0-1-1.12l0,0c-1.68,1.56-3.37,3.21-5,4.89A0.75,0.75,0,0,0,1277.12,44.48Z" transform="translate(-245.79 -3.58)"/><path class="a" d="M848.75,360.26l6.38-2.91a0.75,0.75,0,0,0-.63-1.36l-6.37,2.9A0.75,0.75,0,0,0,848.75,360.26Z" transform="translate(-245.79 -3.58)"/><path class="a" d="M504.41,449.33a0.75,0.75,0,1,0-.13-1.49l-7,.57a0.75,0.75,0,0,0,.12,1.5Z" transform="translate(-245.79 -3.58)"/><path class="a" d="M518.37,448a0.75,0.75,0,0,0-.15-1.49l-7,.67a0.75,0.75,0,1,0,.14,1.49Z" transform="translate(-245.79 -3.58)"/><path class="a" d="M490.45,450.43a0.75,0.75,0,0,0-.11-1.5l-7,.48a0.75,0.75,0,1,0,.1,1.5Z" transform="translate(-245.79 -3.58)"/><path class="a" d="M462.47,452.06a0.75,0.75,0,0,0-.07-1.5l-7,.28a0.75,0.75,0,0,0,.06,1.5Z" transform="translate(-245.79 -3.58)"/><path class="a" d="M476.46,451.34a0.75,0.75,0,0,0-.09-1.5l-7,.38a0.75,0.75,0,1,0,.08,1.5Z" transform="translate(-245.79 -3.58)"/><path class="a" d="M448.47,452.57a0.75,0.75,0,0,0,0-1.5l-7,.18a0.75,0.75,0,0,0,0,1.5Z" transform="translate(-245.79 -3.58)"/><path class="a" d="M532.3,446.55a0.75,0.75,0,1,0-.17-1.49l-7,.76a0.75,0.75,0,1,0,.16,1.49Z" transform="translate(-245.79 -3.58)"/><path class="a" d="M567,442l6.93-1a0.75,0.75,0,0,0-.23-1.48l-6.92,1A0.75,0.75,0,0,0,567,442Z" transform="translate(-245.79 -3.58)"/><path class="a" d="M594.7,437.58l6.9-1.22a0.75,0.75,0,0,0-.27-1.48l-6.89,1.22A0.75,0.75,0,1,0,594.7,437.58Z" transform="translate(-245.79 -3.58)"/><path class="a" d="M608.49,435.09l6.88-1.31a0.75,0.75,0,1,0-.29-1.47l-6.87,1.31a0.74,0.74,0,0,0-.35.16A0.75,0.75,0,0,0,608.49,435.09Z" transform="translate(-245.79 -3.58)"/><path class="a" d="M580.88,439.89l6.91-1.13a0.75,0.75,0,0,0-.25-1.48l-6.9,1.13A0.75,0.75,0,1,0,580.88,439.89Z" transform="translate(-245.79 -3.58)"/><path class="a" d="M434.46,452.89a0.75,0.75,0,1,0,0-1.5l-7,.08a0.75,0.75,0,0,0,0,1.5Z" transform="translate(-245.79 -3.58)"/><path class="a" d="M553.16,444l6.94-1a0.75,0.75,0,0,0-.21-1.49l-6.93,1A0.75,0.75,0,0,0,553.16,444Z" transform="translate(-245.79 -3.58)"/><path class="a" d="M539.26,445.74l7-.86a0.75,0.75,0,1,0-.19-1.49l-6.94.86A0.75,0.75,0,1,0,539.26,445.74Z" transform="translate(-245.79 -3.58)"/><path class="a" d="M308.63,446.3a0.75,0.75,0,0,0,.18-1.49l-6.94-.88a0.75,0.75,0,1,0-.2,1.49Z" transform="translate(-245.79 -3.58)"/><path class="a" d="M294.74,444.48a0.75,0.75,0,0,0,.21-1.49L288,442a0.75,0.75,0,1,0-.22,1.48Z" transform="translate(-245.79 -3.58)"/><path class="a" d="M622.24,432.42l6.86-1.4a0.75,0.75,0,0,0-.3-1.47l-6.86,1.4A0.75,0.75,0,0,0,622.24,432.42Z" transform="translate(-245.79 -3.58)"/><path class="a" d="M280.88,442.43a0.75,0.75,0,1,0,.23-1.48q-3.45-.54-6.9-1.11a0.75,0.75,0,0,0-.24,1.48Z" transform="translate(-245.79 -3.58)"/><path class="a" d="M267.05,440.15a0.75,0.75,0,1,0,.26-1.48l-6.89-1.22a0.75,0.75,0,1,0-.27,1.48Z" transform="translate(-245.79 -3.58)"/><path class="a" d="M322.55,447.9a0.75,0.75,0,1,0,.16-1.49l-7-.77a0.75,0.75,0,0,0-.17,1.49Z" transform="translate(-245.79 -3.58)"/><path class="a" d="M993.36,275.08q2.77-2.21,5.45-4.42a0.79,0.79,0,0,0,.1-1.06,0.75,0.75,0,0,0-1.06-.1q-2.66,2.2-5.43,4.41h0A0.75,0.75,0,0,0,993.36,275.08Z" transform="translate(-245.79 -3.58)"/><path class="a" d="M350.46,450.44a0.75,0.75,0,0,0,.11-1.5l-7-.55a0.75,0.75,0,1,0-.12,1.5Z" transform="translate(-245.79 -3.58)"/><path class="a" d="M392.43,452.61a0.75,0.75,0,0,0,0-1.5l-7-.23a0.75,0.75,0,0,0-.05,1.5Z" transform="translate(-245.79 -3.58)"/><path class="a" d="M406.44,452.91a0.75,0.75,0,0,0,0-1.5l-7-.12a0.75,0.75,0,0,0,0,1.5Z" transform="translate(-245.79 -3.58)"/><path class="a" d="M336.49,449.28a0.75,0.75,0,1,0,.14-1.49l-7-.66a0.75,0.75,0,1,0-.15,1.49Z" transform="translate(-245.79 -3.58)"/><path class="a" d="M378.43,452.1a0.75,0.75,0,1,0,.07-1.5l-7-.33a0.75,0.75,0,0,0-.08,1.5Z" transform="translate(-245.79 -3.58)"/><path class="a" d="M420.45,453a0.75,0.75,0,0,0,0-1.5l-7,0a0.75,0.75,0,1,0,0,1.5Z" transform="translate(-245.79 -3.58)"/><path class="a" d="M364.44,451.37a0.75,0.75,0,0,0,.09-1.5l-7-.44a0.75,0.75,0,0,0-.1,1.5Z" transform="translate(-245.79 -3.58)"/><path class="a" d="M246.39,436.3q3.44,0.69,6.88,1.34a0.75,0.75,0,1,0,.28-1.47q-3.43-.66-6.86-1.34A0.75,0.75,0,1,0,246.39,436.3Z" transform="translate(-245.79 -3.58)"/><path class="a" d="M886.66,342.08q3.14-1.6,6.23-3.21a0.75,0.75,0,1,0-.69-1.33q-3.09,1.61-6.22,3.2l-0.14.1A0.75,0.75,0,0,0,886.66,342.08Z" transform="translate(-245.79 -3.58)"/><path class="a" d="M874.12,348.34q3.16-1.55,6.28-3.1a0.75,0.75,0,1,0-.67-1.34q-3.11,1.55-6.27,3.1l-0.16.1A0.75,0.75,0,0,0,874.12,348.34Z" transform="translate(-245.79 -3.58)"/><path class="a" d="M899.1,335.61q3.11-1.65,6.18-3.31a0.75,0.75,0,1,0-.72-1.32q-3.06,1.66-6.16,3.31l-0.13.09A0.75,0.75,0,0,0,899.1,335.61Z" transform="translate(-245.79 -3.58)"/><path class="a" d="M835.93,365.93l6.42-2.81a0.75,0.75,0,0,0-.61-1.37l-6.41,2.81A0.75,0.75,0,0,0,835.93,365.93Z" transform="translate(-245.79 -3.58)"/><path class="a" d="M911.42,328.93q3.08-1.71,6.12-3.43a0.75,0.75,0,0,0-.74-1.31q-3,1.71-6.1,3.42l-0.12.08A0.75,0.75,0,0,0,911.42,328.93Z" transform="translate(-245.79 -3.58)"/><path class="a" d="M861.48,354.4l6.33-3a0.75,0.75,0,0,0-.65-1.35l-6.32,3A0.75,0.75,0,0,0,861.48,354.4Z" transform="translate(-245.79 -3.58)"/><path class="a" d="M935.68,314.88q3-1.83,6-3.66a0.75,0.75,0,1,0-.79-1.27q-2.95,1.83-6,3.66l-0.1.07A0.75,0.75,0,0,0,935.68,314.88Z" transform="translate(-245.79 -3.58)"/><path class="a" d="M959.35,299.83q2.94-2,5.81-3.93a0.75,0.75,0,0,0-.85-1.24q-2.86,2-5.79,3.92l-0.07.05A0.75,0.75,0,0,0,959.35,299.83Z" transform="translate(-245.79 -3.58)"/><path class="a" d="M970.91,291.89q2.89-2,5.7-4.08a0.75,0.75,0,1,0-.88-1.21q-2.8,2-5.69,4.07l-0.05,0A0.75,0.75,0,0,0,970.91,291.89Z" transform="translate(-245.79 -3.58)"/><path class="a" d="M982.26,283.65q2.84-2.12,5.58-4.24a0.74,0.74,0,0,0,.14-1.05,0.75,0.75,0,0,0-1.05-.14q-2.74,2.11-5.57,4.23l0,0A0.75,0.75,0,0,0,982.26,283.65Z" transform="translate(-245.79 -3.58)"/><path class="a" d="M823,371.41l6.46-2.72a0.75,0.75,0,0,0-.59-1.38L822.46,370A0.75,0.75,0,1,0,823,371.41Z" transform="translate(-245.79 -3.58)"/><path class="a" d="M947.6,307.49q3-1.89,5.9-3.79a0.75,0.75,0,1,0-.82-1.26q-2.91,1.89-5.88,3.78l-0.08.06A0.75,0.75,0,0,0,947.6,307.49Z" transform="translate(-245.79 -3.58)"/><path class="a" d="M923.62,322q3.05-1.77,6-3.54a0.75,0.75,0,1,0-.76-1.29q-3,1.77-6,3.53l-0.11.08A0.75,0.75,0,0,0,923.62,322Z" transform="translate(-245.79 -3.58)"/><path class="a" d="M810.06,376.71l6.5-2.63a0.75,0.75,0,0,0-.57-1.39l-6.49,2.62A0.75,0.75,0,0,0,810.06,376.71Z" transform="translate(-245.79 -3.58)"/><path class="a" d="M690.44,416.44l6.76-1.84a0.75,0.75,0,0,0-.4-1.45L690.05,415A0.75,0.75,0,0,0,690.44,416.44Z" transform="translate(-245.79 -3.58)"/><path class="a" d="M704,412.72l6.74-1.92a0.75,0.75,0,1,0-.42-1.44l-6.73,1.92A0.75,0.75,0,1,0,704,412.72Z" transform="translate(-245.79 -3.58)"/><path class="a" d="M717.41,408.83l6.71-2a0.75,0.75,0,1,0-.43-1.44l-6.7,2A0.75,0.75,0,1,0,717.41,408.83Z" transform="translate(-245.79 -3.58)"/><path class="a" d="M676.89,420l6.78-1.75a0.75,0.75,0,0,0-.38-1.45l-6.78,1.75a0.74,0.74,0,0,0-.3.15A0.75,0.75,0,0,0,676.89,420Z" transform="translate(-245.79 -3.58)"/><path class="a" d="M663.29,423.35l6.81-1.66a0.75,0.75,0,1,0-.36-1.46l-6.8,1.66A0.75,0.75,0,1,0,663.29,423.35Z" transform="translate(-245.79 -3.58)"/><path class="a" d="M649.64,426.55l6.83-1.58a0.75,0.75,0,1,0-.34-1.46l-6.82,1.58a0.74,0.74,0,0,0-.32.16A0.75,0.75,0,0,0,649.64,426.55Z" transform="translate(-245.79 -3.58)"/><path class="a" d="M636,429.57l6.85-1.49a0.75,0.75,0,0,0-.32-1.46l-6.84,1.49a0.75,0.75,0,0,0-.58.89A0.75,0.75,0,0,0,636,429.57Z" transform="translate(-245.79 -3.58)"/><path class="a" d="M783.9,386.77l6.57-2.45a0.75,0.75,0,1,0-.53-1.4l-6.56,2.44A0.75,0.75,0,0,0,783.9,386.77Z" transform="translate(-245.79 -3.58)"/><path class="a" d="M797,381.83l6.53-2.54a0.75,0.75,0,1,0-.55-1.4l-6.52,2.53A0.75,0.75,0,0,0,797,381.83Z" transform="translate(-245.79 -3.58)"/><path class="a" d="M730.82,404.76l6.69-2.1a0.75,0.75,0,0,0-.45-1.43l-6.68,2.09A0.75,0.75,0,1,0,730.82,404.76Z" transform="translate(-245.79 -3.58)"/><path class="a" d="M770.72,391.53l6.6-2.36a0.75,0.75,0,0,0-.51-1.41l-6.59,2.36A0.75,0.75,0,0,0,770.72,391.53Z" transform="translate(-245.79 -3.58)"/><path class="a" d="M744.18,400.52l6.66-2.18a0.75,0.75,0,0,0-.47-1.42l-6.65,2.18A0.75,0.75,0,0,0,744.18,400.52Z" transform="translate(-245.79 -3.58)"/><path class="a" d="M757.48,396.11l6.63-2.27a0.75,0.75,0,0,0-.49-1.42L757,394.69A0.75,0.75,0,0,0,757.48,396.11Z" transform="translate(-245.79 -3.58)"/></svg>