<svg xmlns="http://www.w3.org/2000/svg" viewBox="0 0 185.08 180.67"><title>interview</title><path d="M98.5,6.16c-26.73,0-49.47,8.2-67.37,24.62S3.65,69.46,2.62,96.5s6.93,49.3,23.65,66l0,0C42.89,178.64,65,186.84,92,186.84c26.72,0,49.35-8.07,67-24.27,18-16.48,27.49-38.69,28.51-65.73s-6.93-49.3-23.65-65.95C147.41,14.48,125.41,6.16,98.5,6.16Z" transform="translate(-2.54 -6.16)" style="fill:#aa198d"/><path d="M125,138.47a5.32,5.32,0,0,1-4.92-3.17,5.6,5.6,0,0,1,2.54-7.45,36.69,36.69,0,0,0,0-65.8,5.57,5.57,0,0,1,4.92-10,47.72,47.72,0,0,1,0,85.62A4.29,4.29,0,0,1,125,138.47Z" transform="translate(-2.54 -6.16)" style="fill:#fff"/><path d="M116.72,114.84a5.32,5.32,0,0,1-4.92-3.17,5.6,5.6,0,0,1,2.54-7.45,10.39,10.39,0,0,0,0-18.71,5.57,5.57,0,0,1,4.92-10,21.55,21.55,0,0,1,0,38.69A5.44,5.44,0,0,1,116.72,114.84Z" transform="translate(-2.54 -6.16)" style="fill:#fff"/><path d="M101,53.64a5.77,5.77,0,0,0-3.65-1.43H96.9a4.31,4.31,0,0,0-2.7,1l-4.6,3L64.4,71.87H41.56a5.68,5.68,0,0,0-5.71,5.71v34.88a5.68,5.68,0,0,0,5.71,5.71H64.4l25.05,15.7,4.6,3a7.81,7.81,0,0,0,2.7,1h0.48a5.77,5.77,0,0,0,3.65-1.43,5,5,0,0,0,1.43-3.65h0V57.29h0A4.91,4.91,0,0,0,101,53.64Z" transform="translate(-2.54 -6.16)" style="fill:#fff"/></svg>
