<svg width="116" height="28" viewBox="0 0 116 28" fill="none" xmlns="http://www.w3.org/2000/svg">
<path d="M0 5C0 2.23858 2.23858 0 5 0H111C113.761 0 116 2.23858 116 5V23C116 25.7614 113.761 28 111 28H5C2.23858 28 0 25.7614 0 23V5Z" fill="#A9228C"/>
<path fill-rule="evenodd" clip-rule="evenodd" d="M16.625 6.5C16.625 6.15482 16.9048 5.875 17.25 5.875H19.75C20.0952 5.875 20.375 6.15482 20.375 6.5C20.375 6.84518 20.0952 7.125 19.75 7.125H19.125V7.78086C22.2833 8.09444 24.75 10.7592 24.75 14C24.75 17.4518 21.9518 20.25 18.5 20.25C15.0482 20.25 12.25 17.4518 12.25 14C12.25 10.7592 14.7167 8.09444 17.875 7.78086V7.125H17.25C16.9048 7.125 16.625 6.84518 16.625 6.5ZM8.5 9.625C8.15482 9.625 7.875 9.90482 7.875 10.25C7.875 10.5952 8.15482 10.875 8.5 10.875H11C11.3452 10.875 11.625 10.5952 11.625 10.25C11.625 9.90482 11.3452 9.625 11 9.625H8.5ZM7.25 13.375C6.90482 13.375 6.625 13.6548 6.625 14C6.625 14.3452 6.90482 14.625 7.25 14.625H9.75C10.0952 14.625 10.375 14.3452 10.375 14C10.375 13.6548 10.0952 13.375 9.75 13.375H7.25ZM8.5 17.125C8.15482 17.125 7.875 17.4048 7.875 17.75C7.875 18.0952 8.15482 18.375 8.5 18.375H11C11.3452 18.375 11.625 18.0952 11.625 17.75C11.625 17.4048 11.3452 17.125 11 17.125H8.5ZM21.4419 11.0581C21.686 11.3021 21.686 11.6979 21.4419 11.9419L18.9419 14.4419C18.6979 14.686 18.3021 14.686 18.0581 14.4419C17.814 14.1979 17.814 13.8021 18.0581 13.5581L20.5581 11.0581C20.8021 10.814 21.1979 10.814 21.4419 11.0581Z" fill="white"/>
<path d="M30.732 16.52C31.524 16.916 32.568 17.132 33.432 17.132C35.304 17.132 36.588 16.112 36.588 14.42C36.588 12.884 35.532 12.272 34.224 11.84C33.18 11.492 32.376 11.432 32.376 10.664C32.376 10.088 32.844 9.848 33.492 9.848C34.164 9.848 35.232 10.112 36.156 10.688V8.804C35.4 8.396 34.356 8.18 33.504 8.18C31.68 8.18 30.456 9.188 30.456 10.808C30.456 12.32 31.536 12.908 32.736 13.304C33.852 13.664 34.668 13.736 34.668 14.54C34.668 15.188 34.152 15.464 33.456 15.464C32.772 15.464 31.668 15.2 30.732 14.6V16.52ZM37.6701 17H39.4941V13.028C39.8181 12.776 40.2621 12.536 40.7301 12.536C40.9821 12.536 41.1981 12.608 41.3541 12.788C41.4981 12.956 41.5581 13.172 41.5581 13.616V17H43.3821V13.316C43.3821 12.464 43.2261 11.948 42.8661 11.564C42.4941 11.18 41.9421 10.964 41.3181 10.964C40.5741 10.964 39.9501 11.276 39.4941 11.648L39.4701 11.636V11.096H37.6701V17ZM50.3734 14.528C50.3974 14.372 50.4094 14.108 50.4094 13.904C50.4094 11.924 49.0414 10.964 47.5894 10.964C45.9574 10.964 44.4934 12.188 44.4934 14.072C44.4934 15.92 45.8974 17.132 47.8414 17.132C48.6214 17.132 49.5094 16.952 50.0854 16.592V15.068C49.4614 15.488 48.7414 15.716 48.0814 15.716C47.2414 15.716 46.5694 15.344 46.3654 14.528H50.3734ZM47.5654 12.356C48.1534 12.356 48.6214 12.74 48.7294 13.376H46.3534C46.5094 12.704 47.0014 12.356 47.5654 12.356ZM51.5919 17H53.4159V7.832H51.5919V17ZM54.7878 16.652C55.4838 16.988 56.3838 17.132 57.0918 17.132C58.6038 17.132 59.7318 16.424 59.7438 15.128C59.7438 14.108 59.0598 13.676 57.9318 13.4C57.0558 13.184 56.4198 13.22 56.4198 12.788C56.4198 12.512 56.7078 12.368 57.1878 12.368C57.7158 12.368 58.6278 12.56 59.4078 13.004V11.432C58.7358 11.108 57.8598 10.964 57.1518 10.964C55.6878 10.964 54.5838 11.672 54.5718 12.92C54.5718 13.892 55.2318 14.36 56.3478 14.636C57.2358 14.864 57.8958 14.816 57.8958 15.272C57.8958 15.596 57.5958 15.728 57.0918 15.728C56.5278 15.728 55.5918 15.524 54.7878 15.056V16.652ZM61.6808 16.544C62.0528 16.94 62.6168 17.132 63.2168 17.132C63.7328 17.132 64.2728 16.988 64.5488 16.808V15.356C64.3088 15.476 63.9728 15.596 63.6728 15.596C63.1208 15.596 62.9888 15.164 62.9888 14.588V12.608H64.5488V11.096H62.9888V9.248L61.1648 9.56V11.096H60.2048V12.608H61.1648V14.78C61.1648 15.716 61.3688 16.208 61.6808 16.544ZM71.0921 14.528C71.1161 14.372 71.1281 14.108 71.1281 13.904C71.1281 11.924 69.7601 10.964 68.3081 10.964C66.6761 10.964 65.2121 12.188 65.2121 14.072C65.2121 15.92 66.6161 17.132 68.5601 17.132C69.3401 17.132 70.2281 16.952 70.8041 16.592V15.068C70.1801 15.488 69.4601 15.716 68.8001 15.716C67.9601 15.716 67.2881 15.344 67.0841 14.528H71.0921ZM68.2841 12.356C68.8721 12.356 69.3401 12.74 69.4481 13.376H67.0721C67.2281 12.704 67.7201 12.356 68.2841 12.356ZM76.6103 14.048C76.6103 13.208 77.2463 12.536 78.0743 12.536C78.9023 12.536 79.5383 13.208 79.5383 14.048C79.5383 14.888 78.9023 15.56 78.0743 15.56C77.2463 15.56 76.6103 14.888 76.6103 14.048ZM74.7863 14.048C74.7863 15.788 76.1903 17.132 78.0743 17.132C79.9583 17.132 81.3623 15.788 81.3623 14.048C81.3623 12.308 79.9583 10.964 78.0743 10.964C76.1903 10.964 74.7863 12.308 74.7863 14.048ZM84.33 16.916L84.354 16.904C84.63 17.036 85.014 17.132 85.494 17.132C87.222 17.132 88.578 15.896 88.578 14C88.578 12.164 87.294 10.964 85.782 10.964C85.194 10.964 84.702 11.144 84.318 11.408L84.294 11.396V11.096H82.506V19.64H84.33V16.916ZM84.33 15.428V12.812C84.594 12.62 84.942 12.488 85.314 12.488C86.214 12.488 86.742 13.208 86.742 14.096C86.742 14.972 86.214 15.656 85.266 15.656C84.894 15.656 84.558 15.548 84.33 15.428ZM90.7082 16.544C91.0802 16.94 91.6442 17.132 92.2442 17.132C92.7602 17.132 93.3002 16.988 93.5762 16.808V15.356C93.3362 15.476 93.0002 15.596 92.7002 15.596C92.1482 15.596 92.0162 15.164 92.0162 14.588V12.608H93.5762V11.096H92.0162V9.248L90.1922 9.56V11.096H89.2322V12.608H90.1922V14.78C90.1922 15.716 90.3962 16.208 90.7082 16.544ZM94.5261 9.224C94.5261 9.8 95.0061 10.268 95.5821 10.268C96.1581 10.268 96.6381 9.8 96.6381 9.224C96.6381 8.648 96.1581 8.18 95.5821 8.18C95.0061 8.18 94.5261 8.648 94.5261 9.224ZM94.6701 17H96.4941V11.096H94.6701V17ZM103.518 14.528C103.542 14.372 103.554 14.108 103.554 13.904C103.554 11.924 102.186 10.964 100.734 10.964C99.1019 10.964 97.6379 12.188 97.6379 14.072C97.6379 15.92 99.0419 17.132 100.986 17.132C101.766 17.132 102.654 16.952 103.23 16.592V15.068C102.606 15.488 101.886 15.716 101.226 15.716C100.386 15.716 99.7139 15.344 99.5099 14.528H103.518ZM100.71 12.356C101.298 12.356 101.766 12.74 101.874 13.376H99.4979C99.6539 12.704 100.146 12.356 100.71 12.356ZM104.676 16.088C104.676 16.664 105.156 17.132 105.732 17.132C106.308 17.132 106.788 16.664 106.788 16.088C106.788 15.512 106.308 15.044 105.732 15.044C105.156 15.044 104.676 15.512 104.676 16.088ZM105.12 14.108H106.344L106.788 8.312H104.676L105.12 14.108Z" fill="white"/>
</svg>
