<?xml version="1.0" encoding="UTF-8"?>
<svg width="229px" height="1635px" viewBox="0 0 229 1635" version="1.1" xmlns="http://www.w3.org/2000/svg" xmlns:xlink="http://www.w3.org/1999/xlink">
    <!-- Generator: Sketch 46.1 (44463) - http://www.bohemiancoding.com/sketch -->
    <title>Group 8</title>
    <desc>Created with Sketch.</desc>
    <defs></defs>
    <g id="Flow-V3" stroke="none" stroke-width="1" fill="none" fill-rule="evenodd">
        <g id="02" transform="translate(-689.000000, -402.000000)">
            <g id="Group-8" transform="translate(689.000000, 402.000000)">
                <g id="Group" transform="translate(121.000000, 822.000000) scale(1, -1) rotate(-270.000000) translate(-121.000000, -822.000000) translate(-691.000000, 715.000000)" fill-rule="nonzero" fill="#F9E037">
                    <path d="M0.720819303,157.342291 C2.6503684,156.030985 4.57620945,154.713799 6.49802626,153.391117 C6.8392368,153.156281 6.92546989,152.689302 6.69063326,152.348092 C6.45579662,152.006881 5.98881813,151.920648 5.64760759,152.155485 C3.72820703,153.476503 1.80479904,154.792026 -0.122299317,156.101666 C-0.464888518,156.334486 -0.553873406,156.800948 -0.321052628,157.143538 C-0.0882318498,157.486127 0.378230103,157.575112 0.720819303,157.342291 Z M12.2635948,149.398244 C14.182726,148.060953 16.0956541,146.71979 18.0020148,145.375198 C18.3405039,145.136456 18.4213645,144.668517 18.1826219,144.330028 C17.9438793,143.991539 17.4759406,143.910678 17.1374515,144.149421 C15.2334067,145.492379 13.3228107,146.831907 11.4060287,148.167561 C11.066185,148.404372 10.98266,148.871842 11.2194703,149.211686 C11.4562806,149.55153 11.9237511,149.635055 12.2635948,149.398244 Z M23.7105438,141.32478 C25.6170876,139.96397 27.5141433,138.601872 29.4012768,137.239012 C29.7370771,136.996503 29.8127039,136.52769 29.5701941,136.191889 C29.3276842,135.856089 28.8588712,135.780462 28.5230709,136.022972 C26.6381798,137.384212 24.7433824,138.744689 22.8391136,140.103875 C22.50197,140.344514 22.4237374,140.812899 22.6643762,141.150043 C22.905015,141.487186 23.3734002,141.565419 23.7105438,141.32478 Z M35.0675423,133.123045 C36.9637337,131.737643 38.8457194,130.354555 40.7129522,128.974447 C41.0460546,128.728245 41.116501,128.258625 40.8702985,127.925523 C40.6240961,127.59242 40.1544767,127.521974 39.8213743,127.768177 C37.9563477,129.146654 36.0765845,130.528108 34.1826325,131.911874 C33.8481769,132.156235 33.775141,132.625459 34.0195021,132.959915 C34.2638632,133.29437 34.7330868,133.367406 35.0675423,133.123045 Z M46.3273875,124.800679 C48.2155778,123.388865 50.0820266,121.985043 51.9259844,120.590126 C52.256325,120.34023 52.3215382,119.869855 52.0716422,119.539515 C51.8217462,119.209174 51.3513716,119.143961 51.021031,119.393857 C49.1792947,120.787093 47.3150844,122.189232 45.4291509,123.599359 C45.0974154,123.8474 45.0295677,124.317402 45.277609,124.649137 C45.5256502,124.980873 45.995652,125.048721 46.3273875,124.800679 Z M57.5007137,116.34793 C59.3870354,114.903915 61.2372574,113.478701 63.0501897,112.073736 C63.3775954,111.820007 63.4373221,111.348904 63.1835931,111.021499 C62.9298642,110.694093 62.4587614,110.634366 62.1313558,110.888095 C60.3207525,112.291255 58.4728793,113.71466 56.5889275,115.156861 C56.2600228,115.408644 56.1975032,115.879384 56.449286,116.208289 C56.7010688,116.537193 57.171809,116.599713 57.5007137,116.34793 Z M68.5730279,107.766222 C70.4807516,106.268527 72.3134116,104.819333 74.0683581,103.421865 C74.3923882,103.163839 74.4458952,102.69199 74.1878692,102.36796 C73.9298433,102.04393 73.4579937,101.990423 73.1339636,102.248449 C71.3816995,103.643781 69.5517496,105.090832 67.6467663,106.586375 C67.3209605,106.842155 67.2641934,107.313624 67.5199735,107.639429 C67.7757535,107.965235 68.2472221,108.022002 68.5730279,107.766222 Z M83.1890942,94.1050906 C82.9233279,94.3256797 82.6079985,94.5863964 82.2439641,94.8861971 C81.2079897,95.7393742 79.987489,96.7363645 78.5893265,97.868818 C78.2674496,98.1295249 78.2178615,98.6018025 78.4785685,98.9236794 C78.7392754,99.2455564 79.2115529,99.2951444 79.5334299,99.0344375 C80.934793,97.8993916 82.1584496,96.8998234 83.1975394,96.0440805 C83.5630624,95.7430539 83.8798705,95.4811146 84.147106,95.2593061 C84.3099466,95.1241466 84.4183489,95.0338298 84.480906,94.9815254 C84.6620387,94.7833484 84.9027751,94.4904565 84.9669474,94.414084 C85.2334134,94.0969583 85.1923455,93.6238637 84.8752197,93.3573977 C84.5580939,93.0909317 84.0849993,93.1319996 83.8185334,93.4491254 C83.7023082,93.587447 83.6025191,93.7075365 83.5187084,93.8095047 C83.4918414,93.8414092 83.472089,93.8648651 83.4594496,93.8802692 C83.3963483,93.9328862 83.3070772,94.0071635 83.1890942,94.1050906 Z M89.6245075,89.2532666 C91.1185857,87.6810464 92.751129,86.0254754 94.5224051,84.2967336 C94.8188359,84.0074211 94.8246064,83.5325825 94.535294,83.2361517 C94.2459815,82.939721 93.7711428,82.9339505 93.4747121,83.2232629 C91.6898467,84.9652677 90.0440951,86.6342332 88.5371703,88.2199719 C88.2518339,88.5202318 88.2639317,88.9949514 88.5641916,89.2802879 C88.8644515,89.5656243 89.3391711,89.5535265 89.6245075,89.2532666 Z M99.5952109,79.5043539 C101.267509,77.9732567 103.005395,76.4272567 104.808954,74.8696231 C105.122439,74.5988834 105.157091,74.1252757 104.886352,73.8117906 C104.615612,73.4983055 104.142004,73.4636534 103.828519,73.7343931 C102.013924,75.3015583 100.26521,76.8571903 98.5822866,78.3980157 C98.2767798,78.677727 98.2558683,79.1521401 98.5355796,79.4576469 C98.8152909,79.7631538 99.289704,79.7840653 99.5952109,79.5043539 Z M110.154604,70.3796225 C111.930987,68.9280342 113.752249,67.4785693 115.618436,66.0330572 C115.945903,65.7794076 116.005744,65.3083194 115.752095,64.9808522 C115.498445,64.653385 115.027357,64.5935441 114.69989,64.8471937 C112.823346,66.3007273 110.991886,67.7583087 109.205459,69.2181047 C108.884715,69.4802039 108.837173,69.9526918 109.099272,70.2734361 C109.361372,70.5941804 109.83386,70.6417216 110.154604,70.3796225 Z M121.192772,61.8272579 C123.049976,60.4622689 124.942014,59.1069249 126.868917,57.7624653 C127.208615,57.525447 127.291854,57.0579255 127.054836,56.7182268 C126.817818,56.3785281 126.350296,56.2952892 126.010598,56.5323074 C124.073561,57.883838 122.17152,59.2463477 120.304441,60.6185943 C119.970678,60.8639002 119.898969,61.3333285 120.144275,61.6670917 C120.389581,62.0008549 120.859009,62.0725638 121.192772,61.8272579 Z M132.639804,53.8388799 C134.565958,52.5629076 136.520957,51.3007516 138.504826,50.0533379 C138.855481,49.8328532 138.961006,49.3698525 138.740521,49.0191968 C138.520037,48.6685412 138.057036,48.5630167 137.70638,48.7835014 C135.712416,50.0372627 133.747435,51.3058631 131.811411,52.5883736 C131.466094,52.8171279 131.3716,53.2825052 131.600354,53.627823 C131.829109,53.9731408 132.294486,54.0676342 132.639804,53.8388799 Z M144.470824,46.3993989 C146.458535,45.2138521 148.471086,44.0447543 150.508497,42.8928398 C150.869071,42.6889782 150.996111,42.231413 150.792249,41.8708395 C150.588387,41.5102659 150.130822,41.3832257 149.770249,41.5870874 C147.722699,42.7447343 145.700108,43.919664 143.702457,45.1111396 C143.346714,45.3233183 143.230332,45.7837098 143.44251,46.1394528 C143.654689,46.4951957 144.115081,46.6115776 144.470824,46.3993989 Z M156.633021,39.5227781 C158.674319,38.4299384 160.737524,37.3553027 162.822653,36.2994748 C163.192192,36.1123547 163.340072,35.6610935 163.152952,35.2915547 C162.965832,34.9220158 162.51457,34.7741362 162.145032,34.9612562 C160.049697,36.0222518 157.976375,37.1021571 155.925048,38.200366 C155.559874,38.3958674 155.422327,38.8503847 155.617828,39.2155587 C155.81333,39.5807327 156.267847,39.7182795 156.633021,39.5227781 Z M169.083457,33.2179167 C171.173881,32.2182218 173.283992,31.2379804 175.413807,30.2777034 C175.791413,30.1074505 175.959507,29.6633225 175.789254,29.2857158 C175.619001,28.9081091 175.174873,28.7400156 174.797266,28.9102686 C172.657173,29.8751803 170.536859,30.8601609 168.436312,31.864697 C168.062631,32.0434011 167.90457,32.4911979 168.083274,32.8648792 C168.261978,33.2385606 168.709775,33.3966208 169.083457,33.2179167 Z M181.821592,27.474597 C183.956103,26.5691525 186.108529,25.6840594 188.278884,24.8197582 C188.663706,24.6665104 188.851434,24.2303186 188.698186,23.8454966 C188.544939,23.4606746 188.108747,23.2729466 187.723925,23.4261944 C185.543233,24.2946123 183.380536,25.1839283 181.235825,26.0936997 C180.854501,26.2554547 180.676505,26.6957075 180.83826,27.0770317 C181.000015,27.458356 181.440267,27.636352 181.821592,27.474597 Z M194.805572,22.3039215 C196.978356,21.4938105 199.16758,20.7046732 201.373255,19.9368947 C201.764446,19.8007242 201.971181,19.3732131 201.835011,18.982022 C201.69884,18.5908309 201.271329,18.384096 200.880138,18.5202666 C198.6641,19.2916523 196.464572,20.0845038 194.281543,20.8984344 C193.893429,21.0431409 193.696108,21.4750777 193.840814,21.8631922 C193.985521,22.2513068 194.417457,22.448628 194.805572,22.3039215 Z M207.981219,17.7169567 C210.187906,17.002159 212.409792,16.3087666 214.646888,15.6371197 C215.043607,15.518012 215.268656,15.0998516 215.149548,14.7031323 C215.030441,14.3064129 214.61228,14.0813642 214.215561,14.2004719 C211.968111,14.8752275 209.73592,15.5718356 207.518979,16.2899546 C207.124923,16.4175985 206.908954,16.8405196 207.036598,17.2345754 C207.164242,17.6286311 207.587163,17.8446005 207.981219,17.7169567 Z M221.359758,13.6999697 C223.595255,13.0806982 225.84487,12.4830945 228.108612,11.9074613 C228.51005,11.805382 228.752728,11.3972004 228.650649,10.9957621 C228.54857,10.5943238 228.140388,10.3516454 227.73895,10.4537247 C225.464905,11.0319777 223.205029,11.6323074 220.959312,12.2544097 C220.560132,12.3649896 220.326175,12.7782319 220.436755,13.1774123 C220.547335,13.5765926 220.960577,13.8105496 221.359758,13.6999697 Z M234.906838,10.2549941 C237.166798,9.73078543 239.439925,9.2283772 241.726228,8.74804085 C242.131592,8.6628767 242.391165,8.26522509 242.306001,7.85986113 C242.220837,7.45449716 241.823185,7.19492393 241.417821,7.28008809 C239.121309,7.76256931 236.838006,8.26722668 234.567904,8.79378776 C234.164403,8.88738176 233.913174,9.29035686 234.006768,9.69385784 C234.100362,10.0973588 234.503337,10.3485881 234.906838,10.2549941 Z M248.574573,7.38297435 C250.855134,6.95275877 253.14802,6.54437431 255.453238,6.15806555 C255.861755,6.08960621 256.137427,5.70294043 256.068967,5.29442337 C256.000508,4.8859063 255.613842,4.61023504 255.205325,4.67869438 C252.890031,5.0666916 250.587095,5.47686611 248.296511,5.90897257 C247.889476,5.98575741 247.621756,6.37797036 247.698541,6.78500471 C247.775326,7.19203907 248.167539,7.45975919 248.574573,7.38297435 Z M262.348139,5.07409916 C264.644134,4.73677446 266.951684,4.42119742 269.270795,4.12758899 C269.681728,4.07556324 269.97268,3.70026075 269.920655,3.28932743 C269.868629,2.87839411 269.493326,2.58744203 269.082393,2.63946778 C266.753385,2.93432922 264.435956,3.2512573 262.130101,3.59003054 C261.720287,3.65023992 261.436876,4.03126934 261.497086,4.44108358 C261.557295,4.85089781 261.938325,5.13430854 262.348139,5.07409916 Z M276.223195,3.31711859 C278.529506,3.07124062 280.846658,2.84692378 283.174657,2.64436796 C283.587311,2.60846349 283.892728,2.24483458 283.856823,1.83218007 C283.820919,1.41952557 283.45729,1.11410932 283.044635,1.15001379 C280.70696,1.35341156 278.380143,1.57866404 276.06418,1.82557103 C275.6523,1.86948188 275.354003,2.23897296 275.397914,2.65085245 C275.441825,3.06273194 275.811316,3.36102945 276.223195,3.31711859 Z M290.14854,2.1050748 C292.462541,1.94838845 294.786739,1.81302923 297.121141,1.69917868 C297.534863,1.67900116 297.853894,1.32725624 297.833716,0.913534422 C297.813539,0.499812604 297.461794,0.18078192 297.048072,0.200959446 C294.704241,0.315269837 292.37062,0.451177834 290.047203,0.608501735 C289.633936,0.636485011 289.321602,0.994189231 289.349585,1.40745647 C289.377568,1.82072371 289.735272,2.13305807 290.14854,2.1050748 Z M304.103777,1.42387809 C306.422392,1.3540029 308.750616,1.30517049 311.088452,1.27754621 C311.502637,1.27265213 311.834433,0.932921701 311.829539,0.518737052 C311.824645,0.104552403 311.484914,-0.227243162 311.070729,-0.222349085 C308.723738,-0.194616625 306.38636,-0.14559222 304.058593,-0.0754412136 C303.644567,-0.062963886 303.319048,0.282785045 303.331526,0.696810638 C303.344003,1.11083623 303.689752,1.43635542 304.103777,1.42387809 Z M318.073768,1.25810895 C320.393137,1.27249228 322.721564,1.30757424 325.059054,1.36350556 C325.473149,1.373414 325.816872,1.04575602 325.826781,0.631660987 C325.836689,0.217565952 325.509031,-0.126156778 325.094936,-0.136065218 C322.748589,-0.192208458 320.411302,-0.227423919 318.08307,-0.241862212 C317.668865,-0.244430866 317.331002,0.0892668097 317.328434,0.503472408 C317.325865,0.917678005 317.659563,1.25554029 318.073768,1.25810895 Z M332.048351,1.59191388 C334.366015,1.68783295 336.692231,1.80407563 339.027001,1.94077961 C339.440506,1.96499091 339.795346,1.64940572 339.819557,1.23590035 C339.843768,0.822394985 339.528183,0.467555516 339.114678,0.443344214 C336.771364,0.306139995 334.436598,0.189470031 332.110377,0.0931968372 C331.696517,0.0760688206 331.347133,0.397683057 331.330005,0.811542341 C331.312877,1.22540162 331.634491,1.57478586 332.048351,1.59191388 Z M345.995844,2.42516471 C348.307822,2.61935278 350.6266,2.85016209 352.952935,3.11734954 C353.364443,3.16461267 353.736351,2.86933363 353.783614,2.45782534 C353.830877,2.04631706 353.535598,1.67440933 353.12409,1.6271462 C350.782644,1.35822323 348.448663,1.1259006 346.12139,0.930427891 C345.70863,0.895759273 345.345917,1.20226304 345.311248,1.61502322 C345.27658,2.02778339 345.583084,2.39049609 345.995844,2.42516471 Z M359.874633,4.01611439 C362.162302,4.34712702 364.458052,4.71264659 366.762729,5.11249047 C367.170846,5.18329563 367.55909,4.90985034 367.629895,4.50173331 C367.7007,4.09361629 367.427255,3.70537315 367.019138,3.63456799 C364.700697,3.23233639 362.39108,2.86460892 360.089437,2.53157438 C359.679493,2.47225777 359.299082,2.75649776 359.239765,3.16644217 C359.180449,3.57638657 359.464689,3.95679779 359.874633,4.01611439 Z M373.625917,6.39901205 C375.889124,6.85449225 378.161775,7.34241572 380.444834,7.86267324 C380.848694,7.95470393 381.250693,7.70191599 381.342724,7.29805558 C381.434755,6.89419518 381.181967,6.49219602 380.778106,6.40016533 C378.482716,5.87709768 376.197624,5.38650334 373.921865,4.92849682 C373.515793,4.84677316 373.120357,5.10970909 373.038633,5.51578066 C372.95691,5.92185223 373.219845,6.31728839 373.625917,6.39901205 Z M387.232852,9.49667808 C389.471525,10.0639431 391.721111,10.6616732 393.982718,11.2898493 C394.381822,11.4007032 394.795225,11.16703 394.906079,10.7679256 C395.016933,10.3688212 394.78326,9.95541841 394.384155,9.84456455 C392.11166,9.21336392 389.851078,8.61271235 387.601298,8.04263276 C387.199775,7.9408893 386.791796,8.18390906 386.690053,8.58543259 C386.588309,8.98695611 386.831329,9.39493462 387.232852,9.49667808 Z M400.709556,13.2370489 C402.923513,13.9034583 405.149994,14.5984712 407.39029,15.3221823 C407.784447,15.4495119 408.207196,15.2332053 408.334525,14.8390479 C408.461855,14.4448906 408.245548,14.0221418 407.851391,13.8948122 C405.601612,13.1680376 403.365548,12.4700331 401.1419,11.8007069 C400.745265,11.6813183 400.326945,11.9060708 400.207557,12.3027057 C400.088168,12.6993406 400.312921,13.1176603 400.709556,13.2370489 Z M413.975874,17.518269 C416.156476,18.267784 418.351274,19.0439995 420.561786,19.8471527 C420.951099,19.9886032 421.381368,19.7876709 421.522818,19.3983579 C421.664269,19.0090448 421.463337,18.578776 421.074023,18.4373255 C418.855386,17.63122 416.652371,16.8520987 414.463455,16.0997258 C414.071735,15.9650841 413.645035,16.1734871 413.510393,16.565207 C413.375751,16.9569269 413.584154,17.3836273 413.975874,17.518269 Z M427.138286,22.2980616 C429.294157,23.1212558 431.466259,23.9696837 433.656439,24.8437744 C434.041147,24.9973093 434.477479,24.8099069 434.631014,24.4251994 C434.784549,24.0404918 434.597146,23.6041601 434.212439,23.4506251 C432.015368,22.5737846 429.836295,21.7226337 427.673363,20.8967435 C427.2864,20.748986 426.852923,20.9429007 426.705166,21.329864 C426.557408,21.7168274 426.751323,22.1503042 427.138286,22.2980616 Z M440.115177,27.4737448 C442.246108,28.3583288 444.39566,29.2669659 446.56615,30.2003508 C446.946671,30.3639876 447.387797,30.1881686 447.551434,29.8076481 C447.715071,29.4271275 447.539252,28.9860009 447.158731,28.8223641 C444.982486,27.8865043 442.827107,26.9754041 440.690269,26.0883681 C440.307708,25.9295607 439.868842,26.110949 439.710035,26.4935103 C439.551227,26.8760715 439.732616,27.3149375 440.115177,27.4737448 Z M452.980125,33.0032513 C455.085289,33.9374879 457.212002,34.8949731 459.363287,35.8767915 C459.740112,36.0487692 460.185004,35.8827082 460.356981,35.5058839 C460.528959,35.1290596 460.362898,34.6841677 459.986074,34.51219 C457.830076,33.5282209 455.698587,32.5685855 453.588575,31.6321977 C453.209969,31.4641787 452.766842,31.6348932 452.598823,32.0134992 C452.430804,32.3921052 452.601519,32.8352323 452.980125,33.0032513 Z M465.681024,38.7967248 C467.759465,39.7690129 469.863206,40.7642932 471.996402,41.7842631 C472.370096,41.9629416 472.817882,41.8048507 472.99656,41.4311571 C473.175239,41.0574636 473.017148,40.6096776 472.643454,40.4309991 C470.506496,39.40923 468.398936,38.4121433 466.316613,37.4380391 C465.941422,37.2625261 465.494988,37.4243968 465.319475,37.7995875 C465.143962,38.1747782 465.305833,38.6212118 465.681024,38.7967248 Z M478.321462,44.8385036 C480.37839,45.8411319 482.465996,46.8675074 484.590515,47.9204353 C484.961649,48.1043719 485.411622,47.9526188 485.595559,47.5814852 C485.779496,47.2103515 485.627743,46.7603782 485.256609,46.5764415 C483.12919,45.5220762 481.038635,44.494251 478.9787,43.4901569 C478.606364,43.3086657 478.157399,43.4633758 477.975908,43.8357114 C477.794416,44.2080471 477.949127,44.6570124 478.321462,44.8385036 Z M490.847896,51.0444468 C492.886306,52.069206 494.963686,53.1201291 497.090702,54.2023566 C497.459877,54.3901932 497.911424,54.2431892 498.099261,53.8740141 C498.287098,53.5048389 498.140094,53.0532917 497.770919,52.8654551 C495.64179,51.782153 493.562255,50.7301399 491.521636,49.7042699 C491.151557,49.5182217 490.700726,49.6674086 490.514678,50.0374882 C490.328629,50.4075678 490.477816,50.8583985 490.847896,51.0444468 Z M503.331915,57.3942038 C505.341911,58.4270603 507.404915,59.4915724 509.543611,60.5991976 C509.911424,60.7896871 510.364018,60.6459378 510.554507,60.2781246 C510.744997,59.9103113 510.601248,59.4577174 510.233434,59.2672279 C508.093363,58.1588906 506.028948,57.0936501 504.017488,56.0600411 C503.649069,55.8707254 503.196936,56.0159172 503.00762,56.3843361 C502.818304,56.7527549 502.963496,57.2048881 503.331915,57.3942038 Z M515.750203,63.8235495 C517.70814,64.8435345 519.746642,65.9078525 521.947301,67.0588606 C522.314343,67.2508337 522.767513,67.1089129 522.959486,66.7418717 C523.151459,66.3748306 523.009538,65.92166 522.642497,65.7296869 C520.44115,64.578319 518.401933,63.5136279 516.443225,62.4932413 C516.075871,62.3018684 515.622933,62.4445297 515.43156,62.8118842 C515.240187,63.1792386 515.382848,63.6321766 515.750203,63.8235495 Z M528.142341,70.3030258 C529.063137,70.7856672 530.012237,71.2832732 531.238039,71.9260465 C532.78754,72.7385822 533.693634,73.2137279 534.338727,73.551983 C534.705569,73.7443368 535.158886,73.6028862 535.35124,73.2360444 C535.543594,72.8692026 535.402143,72.415885 535.035302,72.2235313 C534.390232,71.8852888 533.484164,71.4101567 531.934633,70.5976051 C530.708764,69.9547964 529.759595,69.4571548 528.838714,68.9744683 C528.471843,68.7821703 528.018547,68.9236897 527.826249,69.2905607 C527.633951,69.6574317 527.77547,70.1107278 528.142341,70.3030258 Z M540.548222,76.8061522 C542.781092,77.9753372 544.809417,79.035994 546.755145,80.0516568 C547.122342,80.2433321 547.575397,80.1010439 547.767073,79.7338472 C547.958748,79.3666504 547.81646,78.9135951 547.449263,78.7219198 C545.504146,77.7065758 543.476376,76.6462093 541.244039,75.4773037 C540.877088,75.285159 540.423851,75.4268679 540.231706,75.7938193 C540.039562,76.1607707 540.181271,76.6140075 540.548222,76.8061522 Z M552.975794,83.29144 C555.120583,84.4056152 557.187211,85.4759148 559.202343,86.5159166 C559.570427,86.7058831 560.022816,86.5614906 560.212782,86.193407 C560.402749,85.8253233 560.258356,85.3729342 559.890273,85.1829677 C557.876367,84.1435989 555.810919,83.0739103 553.667278,81.9603316 C553.299703,81.7693835 552.84693,81.9125682 552.655982,82.2801436 C552.465034,82.647719 552.608219,83.1004918 552.975794,83.29144 Z M565.432746,89.7186564 C567.553414,90.8041529 569.627789,91.8609261 571.667152,92.8944946 C572.036624,93.0817466 572.487938,92.9340281 572.67519,92.5645561 C572.862441,92.1950841 572.714723,91.7437701 572.345251,91.5565181 C570.307718,90.5238768 568.235128,89.4680131 566.116211,88.3834128 C565.747494,88.1946792 565.29559,88.3405848 565.106857,88.7093021 C564.918123,89.0780194 565.064029,89.5299228 565.432746,89.7186564 Z M577.926506,96.0488088 C580.045279,97.1101663 582.131951,98.1486955 584.192748,99.167271 C584.56408,99.3508067 585.013889,99.1985676 585.197425,98.8272355 C585.380961,98.4559034 585.228722,98.0060942 584.857389,97.8225585 C582.799026,96.8051861 580.714744,95.7678463 578.598324,94.7076675 C578.227978,94.52215 577.777362,94.671983 577.591844,95.042329 C577.406327,95.412675 577.55616,95.8632913 577.926506,96.0488088 Z M590.464244,102.244128 C592.587053,103.27758 594.685911,104.290966 596.764764,105.28597 C597.138386,105.464797 597.586235,105.306884 597.765062,104.933262 C597.94389,104.55964 597.785977,104.111791 597.412354,103.932964 C595.33654,102.939414 593.240675,101.927473 591.12082,100.895459 C590.748395,100.714151 590.299506,100.869081 590.118197,101.241506 C589.936889,101.61393 590.091819,102.06282 590.464244,102.244128 Z M603.120161,108.299657 C605.254777,109.302152 607.370724,110.285828 609.470738,111.251738 C609.847053,111.424826 610.292433,111.260078 610.465521,110.883762 C610.638609,110.507447 610.47386,110.062067 610.097545,109.888979 C608.001186,108.92475 605.888848,107.942751 603.757799,106.941932 C603.382874,106.765853 602.936197,106.92705 602.760118,107.301975 C602.584039,107.676901 602.745236,108.123578 603.120161,108.299657 Z M615.835002,114.146347 C617.981557,115.111398 620.113235,116.05814 622.232044,116.987251 C622.611388,117.153596 623.053757,116.980926 623.220102,116.601582 C623.386447,116.222237 623.213777,115.779869 622.834432,115.613524 C620.719897,114.686287 618.592446,113.741421 616.450072,112.778251 C616.072282,112.608404 615.628335,112.776975 615.458488,113.154764 C615.288641,113.532554 615.457212,113.976501 615.835002,114.146347 Z M628.684004,119.778748 C630.851355,120.703574 633.006622,121.610025 635.15136,122.498541 C635.534035,122.657074 635.972771,122.475372 636.131304,122.092697 C636.289837,121.710022 636.108135,121.271286 635.72546,121.112753 C633.58564,120.226274 631.43524,119.32187 629.27271,118.399101 C628.891731,118.236534 628.4511,118.413592 628.288534,118.794571 C628.125967,119.17555 628.303025,119.616181 628.684004,119.778748 Z M641.641014,125.145005 C643.825634,126.021527 646.000433,126.879399 648.166644,127.718898 C648.552869,127.868576 648.987304,127.676817 649.136982,127.290593 C649.28666,126.904369 649.094902,126.469934 648.708677,126.320255 C646.548024,125.482911 644.378732,124.62721 642.199569,123.752879 C641.815144,123.598638 641.378469,123.78524 641.224228,124.169665 C641.069988,124.55409 641.256589,124.990765 641.641014,125.145005 Z M654.713389,130.209652 C656.915471,131.031658 659.109586,131.834565 661.29674,132.618534 C661.686662,132.758298 662.116057,132.555505 662.255821,132.165584 C662.395586,131.775662 662.192793,131.346267 661.802872,131.206503 C659.621918,130.424757 657.433948,129.624098 655.237962,128.804368 C654.849903,128.659511 654.41789,128.856666 654.273033,129.244724 C654.128177,129.632783 654.325331,130.064796 654.713389,130.209652 Z M667.908344,134.937795 C670.130924,135.700258 672.347079,136.443008 674.557647,137.166122 C674.951333,137.294903 675.374876,137.080156 675.503657,136.686471 C675.632438,136.292785 675.417691,135.869242 675.024005,135.740461 C672.820283,135.019587 670.61092,134.279112 668.395079,133.518961 C668.003278,133.384553 667.576702,133.593211 667.442294,133.985011 C667.307886,134.376811 667.516544,134.803387 667.908344,134.937795 Z M681.232948,139.295114 C683.476592,139.992179 685.715133,140.668837 687.949281,141.325097 C688.346704,141.441837 688.763514,141.214298 688.880253,140.816875 C688.996993,140.419452 688.769454,140.002642 688.372031,139.885902 C686.145368,139.23184 683.914258,138.557429 681.677991,137.862656 C681.282428,137.73976 680.862136,137.960801 680.73924,138.356363 C680.616345,138.751926 680.837386,139.172219 681.232948,139.295114 Z M694.694124,143.247858 C696.956846,143.873136 699.215625,144.477303 701.471072,145.060319 C701.872104,145.163983 702.281241,144.922919 702.384904,144.521887 C702.488568,144.120855 702.247504,143.711718 701.846472,143.608054 C699.599124,143.027131 697.348388,142.425116 695.093659,141.802046 C694.694409,141.691717 694.281314,141.925935 694.170985,142.325184 C694.060657,142.724434 694.294874,143.137529 694.694124,143.247858 Z M708.26162,146.753951 C710.543082,147.302126 712.821623,147.828469 715.09777,148.332904 C715.502172,148.422527 715.902657,148.167348 715.99228,147.762947 C716.081903,147.358545 715.826724,146.958059 715.422323,146.868437 C713.154855,146.365924 710.884942,145.841575 708.612057,145.295461 C708.209306,145.198691 707.804364,145.446737 707.707593,145.849488 C707.610823,146.252239 707.858869,146.657181 708.26162,146.753951 Z M721.978032,149.792261 C724.274135,150.257338 726.568232,150.699934 728.860781,151.119948 C729.268214,151.194593 729.659014,150.924816 729.733659,150.517383 C729.808304,150.109951 729.538527,149.71915 729.131095,149.644505 C726.847748,149.226177 724.562806,148.785347 722.275811,148.322115 C721.869841,148.239886 721.474078,148.502329 721.391849,148.908299 C721.309619,149.314268 721.572063,149.710032 721.978032,149.792261 Z M735.773615,152.318579 C738.084455,152.696486 740.394097,153.051273 742.702947,153.382815 C743.112955,153.441691 743.49306,153.157042 743.551936,152.747034 C743.610812,152.337026 743.326163,151.956921 742.916155,151.898045 C740.616975,151.567891 738.31696,151.214584 736.015704,150.838243 C735.606921,150.771392 735.221343,151.048583 735.154492,151.457366 C735.087641,151.86615 735.364832,152.251727 735.773615,152.318579 Z M749.651283,154.31052 C751.97522,154.597296 754.298681,154.860361 756.622024,155.099576 C757.03406,155.142 757.402472,154.84237 757.444895,154.430335 C757.487319,154.0183 757.18769,153.649888 756.775654,153.607464 C754.462374,153.369285 752.148939,153.107356 749.834992,152.821812 C749.423896,152.771082 749.049513,153.063216 748.998784,153.474312 C748.948054,153.885407 749.240188,154.25979 749.651283,154.31052 Z M763.613578,155.747303 C765.94608,155.939273 768.278753,156.107058 770.61191,156.25051 C771.025343,156.27593 771.381103,155.961383 771.406522,155.54795 C771.431942,155.134518 771.117395,154.778757 770.703962,154.753338 C768.381162,154.610522 766.058819,154.44348 763.736615,154.252358 C763.323797,154.218382 762.9616,154.525494 762.927624,154.938312 C762.893648,155.351129 763.20076,155.713327 763.613578,155.747303 Z M777.62292,156.608113 C779.958701,156.702734 782.29522,156.772839 784.632757,156.818275 C785.046892,156.826325 785.389141,156.497127 785.397191,156.082992 C785.40524,155.668856 785.076043,155.326608 784.661907,155.318558 C782.334912,155.273328 780.008915,155.203538 777.683634,155.109343 C777.26976,155.092577 776.920657,155.414497 776.903892,155.828371 C776.887126,156.242245 777.209046,156.591348 777.62292,156.608113 Z M791.67936,156.88036 C794.01722,156.876086 796.356319,156.847025 798.696904,156.793022 C799.111007,156.783468 799.438959,156.440025 799.429404,156.025922 C799.41985,155.611819 799.076408,155.283867 798.662304,155.293421 C796.332349,155.347179 794.00387,155.376108 791.676617,155.380363 C791.262404,155.38112 790.927233,155.71752 790.92799,156.131733 C790.928747,156.545946 791.265147,156.881118 791.67936,156.88036 Z M805.700647,156.557032 C808.032925,156.453655 810.36687,156.325423 812.7027,156.17218 C813.116025,156.145064 813.429109,155.788015 813.401993,155.37469 C813.374877,154.961365 813.017828,154.648281 812.604503,154.675398 C810.279266,154.827946 807.955914,154.955595 805.634225,155.058503 C805.220418,155.076845 804.89983,155.427171 804.918172,155.840978 C804.936514,156.254785 805.28684,156.575373 805.700647,156.557032 Z M819.723916,155.636573 C822.050171,155.43427 824.378462,155.20709 826.708986,154.954878 C827.120795,154.910311 827.418504,154.540346 827.373937,154.128537 C827.329371,153.716728 826.959405,153.419019 826.547596,153.463585 C824.227543,153.714664 821.90973,153.940822 819.593959,154.142213 C819.181303,154.178099 818.875871,154.541715 818.911758,154.954371 C818.947645,155.367027 819.31126,155.672459 819.723916,155.636573 Z M833.661798,154.128895 C835.974526,153.829689 838.289593,153.505781 840.607175,153.157019 C841.016776,153.09538 841.298856,152.713364 841.237216,152.303762 C841.175577,151.894161 840.793561,151.612081 840.38396,151.67372 C838.076617,152.020942 835.771803,152.343415 833.469342,152.641293 C833.058552,152.694438 832.768623,153.070532 832.821769,153.481322 C832.874914,153.892112 833.251008,154.18204 833.661798,154.128895 Z M847.549916,152.039058 C849.848362,151.644735 852.149403,151.225932 854.453193,150.782503 C854.859941,150.704213 855.126208,150.311012 855.047918,149.904264 C854.969628,149.497517 854.576428,149.231249 854.16968,149.309539 C851.875828,149.751056 849.584747,150.168046 847.29628,150.560657 C846.888031,150.630697 846.613858,151.018426 846.683898,151.426675 C846.753937,151.834924 847.141667,152.109098 847.549916,152.039058 Z M861.295745,149.39466 C863.575015,148.908801 865.85708,148.398819 868.142077,147.864573 C868.545413,147.770271 868.795934,147.366855 868.701631,146.963519 C868.607329,146.560183 868.203913,146.309662 867.800577,146.403964 C865.525147,146.935973 863.252675,147.443812 860.983025,147.92762 C860.577913,148.013975 860.319509,148.412388 860.405865,148.8175 C860.49222,149.222612 860.890633,149.481015 861.295745,149.39466 Z M874.977507,146.196152 C877.234944,145.621969 879.495333,145.024099 881.758795,144.402408 C882.158216,144.292702 882.393076,143.879972 882.283369,143.480551 C882.173663,143.081129 881.760933,142.846269 881.361512,142.955976 C879.107196,143.575155 876.855984,144.170598 874.607753,144.742439 C874.206321,144.844543 873.963669,145.25274 874.065773,145.654172 C874.167878,146.055604 874.576075,146.298256 874.977507,146.196152 Z M888.499466,142.483152 C890.732408,141.824929 892.968416,141.143528 895.207598,140.438825 C895.602707,140.314478 895.822203,139.893377 895.697857,139.498268 C895.57351,139.10316 895.152409,138.883663 894.7573,139.00801 C892.526808,139.709978 890.299525,140.38872 888.075341,141.044361 C887.67803,141.16148 887.45089,141.578508 887.568008,141.975819 C887.685127,142.37313 888.102155,142.600271 888.499466,142.483152 Z M901.896402,138.26752 C904.103427,137.529256 906.313601,136.768369 908.52702,135.984741 C908.917485,135.846503 909.121955,135.417904 908.983717,135.027439 C908.845478,134.636974 908.416879,134.432503 908.026414,134.570742 C905.821214,135.35146 903.619295,136.109505 901.420559,136.844996 C901.02774,136.976397 900.815819,137.40136 900.947219,137.794179 C901.078619,138.186999 901.503583,138.39892 901.896402,138.26752 Z M915.113531,133.589256 C917.293177,132.775508 919.476025,131.939729 921.662159,131.081811 C922.047744,130.930494 922.237656,130.495248 922.086338,130.109663 C921.935021,129.724078 921.499775,129.534166 921.11419,129.685484 C918.935796,130.540364 916.760726,131.373165 914.588892,132.183997 C914.20084,132.328872 914.003707,132.760895 914.148582,133.148946 C914.293457,133.536998 914.725479,133.734132 915.113531,133.589256 Z M928.183639,128.536036 C930.371006,127.691931 932.556008,126.858854 934.738646,126.036767 C935.126276,125.890767 935.322156,125.458175 935.176155,125.070545 C935.030155,124.682915 934.597563,124.487036 934.209933,124.633036 C932.023514,125.456547 929.834739,126.291062 927.643605,127.136621 C927.257167,127.285747 927.064788,127.719907 927.213914,128.106345 C927.363041,128.492783 927.797201,128.685162 928.183639,128.536036 Z M941.266438,123.608223 C943.462798,122.801258 945.656695,122.005451 947.848131,121.220763 C948.238099,121.081127 948.441033,120.651799 948.301397,120.261831 C948.161761,119.871863 947.732432,119.66893 947.342465,119.808565 C945.147142,120.594646 942.949365,121.391859 940.749133,122.200248 C940.360331,122.343098 940.160947,122.774086 940.303797,123.162888 C940.446647,123.55169 940.877636,123.751073 941.266438,123.608223 Z M954.415075,118.900004 C956.615635,118.132613 958.813639,117.376465 961.009091,116.631516 C961.401339,116.498421 961.611424,116.072546 961.478328,115.680298 C961.345233,115.28805 960.919358,115.077965 960.52711,115.21106 C958.327673,115.957362 956.12569,116.714879 953.921158,117.483655 C953.530044,117.620046 953.32355,118.047674 953.459942,118.438788 C953.596333,118.829902 954.023961,119.036396 954.415075,118.900004 Z M967.66436,114.404969 C969.877873,113.674977 972.08871,112.956403 974.296876,112.249201 C974.691353,112.122863 974.908722,111.70066 974.782384,111.306184 C974.656047,110.911707 974.233843,110.694338 973.839367,110.820676 C971.627099,111.529191 969.412166,112.249096 967.194566,112.980436 C966.801192,113.110166 966.587467,113.534226 966.717197,113.9276 C966.846927,114.320974 967.270987,114.534699 967.66436,114.404969 Z M981.002919,110.133842 C983.236792,109.43998 985.467843,108.75779 987.696079,108.087223 C988.09272,107.967858 988.317497,107.549551 988.198131,107.152909 C988.078766,106.756268 987.660459,106.531491 987.263817,106.650856 C985.031348,107.322697 982.796068,108.00618 980.557974,108.701354 C980.162403,108.824222 979.941334,109.244499 980.064202,109.64007 C980.18707,110.035641 980.607348,110.25671 981.002919,110.133842 Z M994.376069,106.109259 C996.623766,105.454596 998.868504,104.811794 1001.11029,104.180803 C1001.50901,104.068576 1001.74126,103.654371 1001.62903,103.255651 C1001.5168,102.85693 1001.1026,102.624682 1000.70388,102.736909 C998.457737,103.369126 996.20865,104.013173 993.956609,104.669102 C993.558921,104.784933 993.33043,105.201222 993.44626,105.598911 C993.562091,105.996599 993.97838,106.22509 994.376069,106.109259 Z M1007.85834,102.314638 C1010.11285,101.702258 1012.36427,101.10186 1014.61262,100.513387 C1015.01333,100.408505 1015.25315,99.9986379 1015.14827,99.5979227 C1015.04339,99.1972074 1014.63352,98.957387 1014.23281,99.0622688 C1011.98,99.6519104 1009.72411,100.253498 1007.46515,100.867087 C1007.06542,100.975663 1006.82939,101.387727 1006.93797,101.787457 C1007.04654,102.187187 1007.45861,102.423214 1007.85834,102.314638 Z M1021.39375,98.7722725 C1023.6603,98.2016138 1025.9236,97.643111 1028.18367,97.0967063 C1028.58629,96.9993684 1028.83376,96.5940772 1028.73642,96.191463 C1028.63908,95.7888487 1028.23379,95.5413733 1027.83118,95.6387111 C1025.56652,96.1862247 1023.29864,96.7458577 1021.02752,97.3176682 C1020.62584,97.4188006 1020.3822,97.8264088 1020.48333,98.2280867 C1020.58447,98.6297646 1020.99207,98.8734049 1021.39375,98.7722725 Z M1034.96957,95.490163 C1037.24057,94.9639187 1039.50819,94.449926 1041.77244,93.9481239 C1042.17684,93.8585004 1042.43202,93.4580142 1042.3424,93.0536127 C1042.25277,92.6492113 1041.85229,92.3940333 1041.44788,92.4836567 C1039.17895,92.9864985 1036.90664,93.5015533 1034.63096,94.0288824 C1034.22744,94.1223879 1033.97612,94.5253078 1034.06963,94.9288293 C1034.16313,95.3323508 1034.56605,95.5836685 1034.96957,95.490163 Z M1048.6131,92.466958 C1050.90278,91.9828695 1053.18889,91.5112842 1055.47144,91.0521362 C1055.87752,90.9704508 1056.14049,90.5750394 1056.0588,90.1689601 C1055.97712,89.7628808 1055.58171,89.4999076 1055.17563,89.581593 C1052.88826,90.0417119 1050.59733,90.5142918 1048.30282,90.9993987 C1047.89757,91.0850783 1047.6385,91.4830597 1047.72418,91.888315 C1047.80986,92.2935704 1048.20784,92.5526376 1048.6131,92.466958 Z M1062.34849,89.7042839 C1064.64701,89.2656761 1066.94177,88.8397176 1069.2328,88.4263383 C1069.64043,88.3527876 1069.91125,87.9627127 1069.8377,87.5550815 C1069.76415,87.1474503 1069.37408,86.8766246 1068.96644,86.9501753 C1066.67048,87.3644459 1064.37078,87.7913207 1062.06733,88.2308698 C1061.66046,88.3085099 1061.39357,88.7012847 1061.47121,89.1081567 C1061.54885,89.5150288 1061.94162,89.781924 1062.34849,89.7042839 Z M1076.11864,87.2197906 C1078.42658,86.8274376 1080.73058,86.4478873 1083.03064,86.0810652 C1083.43968,86.0158294 1083.7184,85.6313495 1083.65316,85.2223053 C1083.58792,84.8132611 1083.20344,84.5345493 1082.7944,84.5997851 C1080.48928,84.9674134 1078.18024,85.3477958 1075.86724,85.7410072 C1075.45889,85.810428 1075.18413,86.1977416 1075.25355,86.6060964 C1075.32297,87.0144512 1075.71028,87.2892114 1076.11864,87.2197906 Z M1089.90699,85.0205058 C1092.21408,84.6768083 1094.51705,84.345953 1096.81592,84.0278609 C1097.22622,83.9710874 1097.51281,83.5924461 1097.45604,83.1821418 C1097.39927,82.7718374 1097.02062,82.485244 1096.61032,82.5420174 C1094.30631,82.8608214 1091.9982,83.1924156 1089.68597,83.5368788 C1089.27628,83.5979126 1088.99363,83.9795114 1089.05467,84.3892037 C1089.1157,84.798896 1089.4973,85.0815395 1089.90699,85.0205058 Z M1103.77152,83.1026949 C1106.08527,82.8073607 1108.39468,82.5249906 1110.69979,82.2555009 C1111.1112,82.2074028 1111.40573,81.8348967 1111.35763,81.4234851 C1111.30953,81.0120736 1110.93702,80.7175498 1110.52561,80.7656479 C1108.21525,81.0357514 1105.90059,81.3187632 1103.58159,81.6147672 C1103.17071,81.6672132 1102.88014,82.0428131 1102.93259,82.453693 C1102.98504,82.8645729 1103.36064,83.155141 1103.77152,83.1026949 Z M1117.6533,81.4801678 C1119.9789,81.2334539 1122.29991,80.9998839 1124.61637,80.7793672 C1125.02872,80.7401134 1125.33117,80.3740167 1125.29192,79.9616673 C1125.25266,79.5493179 1124.88657,79.2468642 1124.47422,79.286118 C1122.15239,79.5071453 1119.82602,79.7412551 1117.49506,79.988538 C1117.08316,80.0322352 1116.78467,80.4015715 1116.82837,80.8134737 C1116.87206,81.2253759 1117.2414,81.523865 1117.6533,81.4801678 Z M1131.5677,80.155575 C1133.89921,79.9591001 1136.22589,79.77588 1138.54778,79.6058179 C1138.96088,79.5755607 1139.27125,79.216143 1139.24099,78.803036 C1139.21073,78.389929 1138.85131,78.079568 1138.43821,78.1098252 C1136.11086,78.2802873 1133.77872,78.4639375 1131.44175,78.6608729 C1131.029,78.6956551 1130.72259,79.0584522 1130.75737,79.4712028 C1130.79216,79.8839535 1131.15495,80.1903573 1131.5677,80.155575 Z M1145.52614,79.1333291 C1147.85613,78.9884902 1150.18106,78.8569293 1152.50097,78.7385436 C1152.91464,78.7174336 1153.23288,78.3649705 1153.21177,77.9512952 C1153.19066,77.5376199 1152.8382,77.2193829 1152.42452,77.2404929 C1150.09908,77.3591612 1147.76861,77.4910355 1145.43307,77.6362189 C1145.01966,77.661918 1144.70535,78.0178907 1144.73105,78.4313063 C1144.75675,78.8447218 1145.11272,79.1590282 1145.52614,79.1333291 Z M1159.50155,78.420585 C1161.836,78.3276797 1164.16511,78.2481387 1166.48893,78.1818518 C1166.90298,78.1700412 1167.22905,77.8248168 1167.21724,77.4107717 C1167.20543,76.9967265 1166.86021,76.670651 1166.44616,76.6824617 C1164.11672,76.748909 1161.78198,76.8286421 1159.4419,76.9217715 C1159.02801,76.9382431 1158.70584,77.2871168 1158.72231,77.7010027 C1158.73879,78.1148886 1159.08766,78.4370566 1159.50155,78.420585 Z M1173.46587,78.0222784 C1175.80017,77.9821105 1178.12885,77.9553338 1180.45196,77.9418305 C1180.86617,77.9394229 1181.2,77.6016904 1181.19759,77.1874838 C1181.19518,76.7732772 1180.85745,76.4394482 1180.44324,76.4418558 C1178.11444,76.4553922 1175.78007,76.4822344 1173.44007,76.5225004 C1173.02591,76.5296271 1172.69596,76.8711411 1172.70308,77.2852933 C1172.71021,77.6994456 1173.05172,78.029405 1173.46587,78.0222784 Z M1187.45498,77.9413095 C1189.79407,77.954583 1192.12721,77.9813229 1194.45447,78.0214022 C1194.86862,78.0285346 1195.21014,77.6985799 1195.21727,77.2844278 C1195.22441,76.8702756 1194.89445,76.528757 1194.4803,76.5216246 C1192.14727,76.481446 1189.80837,76.45464 1187.4635,76.4413337 C1187.04929,76.4389832 1186.7116,76.7728588 1186.70925,77.1870657 C1186.7069,77.6012726 1187.04078,77.938959 1187.45498,77.9413095 Z M1201.43312,78.1819504 C1203.7711,78.2492858 1206.1028,78.3300833 1208.42833,78.4242074 C1208.8422,78.4409587 1209.19129,78.1190266 1209.20805,77.7051519 C1209.2248,77.2912772 1208.90286,76.9421859 1208.48899,76.9254346 C1206.15765,76.831075 1203.82012,76.7500756 1201.47631,76.6825721 C1201.06226,76.6706475 1200.71695,76.9966279 1200.70503,77.4106697 C1200.6931,77.8247116 1201.01908,78.1700257 1201.43312,78.1819504 Z M1215.42418,78.7483959 C1217.75629,78.8701727 1220.08181,79.0053379 1222.40085,79.1537479 C1222.81422,79.1802019 1223.17076,78.8665461 1223.19722,78.4531782 C1223.22367,78.0398102 1222.91002,77.6832641 1222.49665,77.6568101 C1220.17176,77.5080259 1217.84038,77.37252 1215.5024,77.2504367 C1215.08875,77.2288371 1214.73591,77.5466567 1214.71431,77.9603067 C1214.69271,78.3739567 1215.01053,78.7267963 1215.42418,78.7483959 Z M1229.38338,79.64196 C1231.71507,79.8188265 1234.03978,80.0090517 1236.3577,80.2124822 C1236.77032,80.2486962 1237.13418,79.9435529 1237.1704,79.5309254 C1237.20661,79.118298 1236.90147,78.75444 1236.48884,78.718226 C1234.16504,78.5142792 1231.83443,78.3235716 1229.49683,78.1462568 C1229.08381,78.1149273 1228.72359,78.4243543 1228.69226,78.8373813 C1228.66093,79.2504084 1228.97035,79.6106305 1229.38338,79.64196 Z M1243.29247,80.8623692 C1245.61591,81.0939573 1247.93202,81.338761 1250.24106,81.5966199 C1250.65271,81.6425911 1251.02369,81.346146 1251.06966,80.9344914 C1251.11563,80.5228368 1250.81919,80.1518578 1250.40753,80.1058867 C1248.09262,79.8473706 1245.7706,79.6019432 1243.44125,79.3697654 C1243.02907,79.3286823 1242.66164,79.6295086 1242.62056,80.0416797 C1242.57947,80.4538509 1242.8803,80.8212861 1243.29247,80.8623692 Z M1257.18143,82.4134519 C1259.5009,82.7004215 1261.81268,83.000483 1264.1171,83.3134709 C1264.52754,83.369218 1264.90546,83.0816784 1264.96121,82.6712334 C1265.01696,82.2607883 1264.72942,81.8828649 1264.31897,81.8271179 C1262.00868,81.5133313 1259.691,81.212504 1257.36561,80.9248021 C1256.95453,80.8739426 1256.58005,81.1659584 1256.52919,81.5770377 C1256.47833,81.988117 1256.77035,82.3625924 1257.18143,82.4134519 Z M1271.03785,84.2953917 C1273.34747,84.6370972 1275.64909,84.9916693 1277.94317,85.3589441 C1278.35217,85.4244247 1278.73682,85.145943 1278.8023,84.7369379 C1278.86778,84.3279328 1278.5893,83.9432862 1278.1803,83.8778056 C1275.88038,83.5095956 1273.57289,83.1541201 1271.25738,82.8115436 C1270.84763,82.7509211 1270.46631,83.0339476 1270.40569,83.4437009 C1270.34507,83.8534542 1270.6281,84.2347692 1271.03785,84.2953917 Z M1284.83635,86.5044345 C1287.13792,86.9009101 1289.43125,87.3100062 1291.71699,87.7315745 C1292.12434,87.8067023 1292.51546,87.5373884 1292.59058,87.130045 C1292.66571,86.7227015 1292.3964,86.3315813 1291.98905,86.2564534 C1289.69753,85.8338193 1287.3984,85.4236875 1285.091,85.0262071 C1284.68279,84.9558891 1284.29488,85.2297975 1284.22456,85.6379988 C1284.15424,86.0462 1284.42815,86.4341165 1284.83635,86.5044345 Z M1298.58456,89.0399354 C1300.87546,89.4903078 1303.15806,89.9529846 1305.4334,90.427865 C1305.83887,90.5124911 1306.23618,90.2523903 1306.32081,89.8469137 C1306.40543,89.441437 1306.14533,89.0441303 1305.73986,88.9595042 C1303.45885,88.4834403 1301.17054,88.0196076 1298.87391,87.5681078 C1298.46748,87.4882059 1298.07322,87.7529126 1297.99332,88.1593465 C1297.91342,88.5657805 1298.17813,88.9600336 1298.58456,89.0399354 Z M1312.2857,91.899424 C1314.56617,92.4029299 1316.83871,92.918403 1319.10503,93.4458664 C1319.50846,93.5397608 1319.91163,93.2888316 1320.00552,92.8854004 C1320.09942,92.4819692 1319.84849,92.0788072 1319.44506,91.9849128 C1317.17323,91.4561688 1314.89515,90.9394389 1312.6091,90.4347008 C1312.20463,90.3453971 1311.80434,90.6008916 1311.71504,91.0053638 C1311.62574,91.4098359 1311.88123,91.8101203 1312.2857,91.899424 Z M1325.90713,95.0691735 C1328.17293,95.6232328 1330.43216,96.188932 1332.688,96.7666245 C1333.08927,96.8693834 1333.49786,96.6273966 1333.60062,96.2261318 C1333.70338,95.8248669 1333.46139,95.4162749 1333.06013,95.3135159 C1330.79906,94.7344852 1328.53456,94.1674655 1326.26342,93.6121039 C1325.86107,93.5137149 1325.45513,93.760131 1325.35674,94.1624897 C1325.25835,94.5648483 1325.50477,94.9707845 1325.90713,95.0691735 Z M1339.45213,98.5370286 C1341.70095,99.1381872 1343.94696,99.7509725 1346.1972,100.376746 C1346.59627,100.487724 1347.00974,100.254179 1347.12072,99.8551095 C1347.2317,99.4560397 1346.99816,99.0425641 1346.59909,98.931586 C1344.34408,98.3044861 1342.09324,97.6903823 1339.83951,97.0879128 C1339.43935,96.9809407 1339.02824,97.2186184 1338.92127,97.6187807 C1338.81429,98.018943 1339.05197,98.4300566 1339.45213,98.5370286 Z M1352.9369,102.285563 C1355.15916,102.926062 1357.38933,103.579513 1359.64904,104.251497 C1360.04607,104.369564 1360.46364,104.143421 1360.58171,103.74639 C1360.69977,103.34936 1360.47363,102.931791 1360.0766,102.813723 C1357.81294,102.140564 1355.57873,101.48593 1353.35232,100.844235 C1352.95431,100.72952 1352.53866,100.959177 1352.42395,101.357189 C1352.30923,101.755201 1352.53889,102.170848 1352.9369,102.285563 Z M1366.34447,106.269429 C1368.4842,106.922301 1370.65851,107.592635 1373.02997,108.329462 C1373.42553,108.452365 1373.84583,108.231333 1373.96873,107.835773 C1374.09164,107.440213 1373.8706,107.019916 1373.47504,106.897013 C1371.10129,106.159472 1368.92458,105.488401 1366.78222,104.834727 C1366.38604,104.713845 1365.96688,104.937019 1365.846,105.333201 C1365.72511,105.729383 1365.94829,106.148547 1366.34447,106.269429 Z M1379.71634,110.416539 C1383.00548,111.445511 1384.61678,111.948017 1386.40182,112.49966 C1386.79757,112.62196 1387.21753,112.400288 1387.33983,112.004541 C1387.46213,111.608794 1387.24046,111.188834 1386.84471,111.066534 C1385.06186,110.515568 1383.4517,110.013418 1380.1642,108.984958 C1379.76888,108.861286 1379.34815,109.081501 1379.22448,109.476821 C1379.10081,109.872141 1379.32102,110.292868 1379.71634,110.416539 Z M1393.11756,114.532987 C1393.69596,114.702961 1394.25367,114.86505 1394.79307,115.019887 C1396.47031,115.50135 1398.16531,115.966257 1399.87626,116.41423 C1400.27697,116.519145 1400.68685,116.279359 1400.79177,115.878653 C1400.89669,115.477947 1400.6569,115.068059 1400.25619,114.963143 C1398.55654,114.518128 1396.87285,114.056324 1395.20693,113.578113 C1394.67064,113.424166 1394.11594,113.262952 1393.54049,113.093843 C1393.14308,112.977056 1392.72624,113.204544 1392.60945,113.601953 C1392.49267,113.999361 1392.72015,114.4162 1393.11756,114.532987 Z M1406.69564,118.090689 C1408.96432,118.612988 1411.25365,119.105462 1413.55922,119.567348 C1413.96537,119.648712 1414.36057,119.385427 1414.44193,118.979283 C1414.5233,118.573139 1414.26001,118.177936 1413.85387,118.096571 C1411.56225,117.637481 1409.28688,117.14801 1407.03217,116.628927 C1406.62852,116.535997 1406.22596,116.787889 1406.13303,117.191543 C1406.0401,117.595198 1406.29199,117.997759 1406.69564,118.090689 Z M1420.47878,120.853354 C1422.78245,121.248541 1425.09518,121.612735 1427.41233,121.945317 C1427.82235,122.004167 1428.20243,121.719493 1428.26128,121.309481 C1428.32013,120.89947 1428.03546,120.519383 1427.62545,120.460533 C1425.32181,120.129891 1423.02257,119.767823 1420.73239,119.37495 C1420.32414,119.304916 1419.93642,119.579094 1419.86638,119.987344 C1419.79635,120.395594 1420.07053,120.78332 1420.47878,120.853354 Z M1434.3741,122.847801 C1436.70615,123.117757 1439.03539,123.354877 1441.3569,123.558706 C1441.76952,123.594934 1442.13339,123.289804 1442.16962,122.877178 C1442.20585,122.464551 1441.90072,122.100683 1441.48809,122.064454 C1439.18039,121.861838 1436.86491,121.626119 1434.54659,121.357751 C1434.13512,121.31012 1433.76295,121.605066 1433.71532,122.016532 C1433.66769,122.427998 1433.96263,122.80017 1434.3741,122.847801 Z M1448.37853,124.07491 C1450.73445,124.21412 1453.07437,124.317779 1455.39301,124.385624 C1455.80704,124.397739 1456.15251,124.071917 1456.16462,123.657881 C1456.17674,123.243844 1455.85092,122.898381 1455.43688,122.886266 C1453.13319,122.818858 1450.80814,122.715858 1448.46701,122.577521 C1448.05351,122.553088 1447.6985,122.868483 1447.67407,123.281975 C1447.64964,123.695468 1447.96503,124.050476 1448.37853,124.07491 Z M1462.40039,124.48121 C1464.77574,124.475644 1467.11917,124.430577 1469.42501,124.345986 C1469.83895,124.3308 1470.1622,123.982929 1470.14701,123.568994 C1470.13182,123.155059 1469.78395,122.831808 1469.37002,122.846994 C1467.08147,122.930951 1464.75519,122.975688 1462.39687,122.981214 C1461.98266,122.982185 1461.64766,123.318757 1461.64863,123.73297 C1461.6496,124.147182 1461.98617,124.482181 1462.40039,124.48121 Z M1476.4577,123.956284 C1476.04464,123.987221 1475.68471,123.677453 1475.65377,123.264397 C1475.62284,122.85134 1475.93261,122.491411 1476.34566,122.460473 C1478.71339,122.283131 1481.0278,122.06077 1483.28264,121.793718 C1483.69398,121.745001 1484.06693,122.038964 1484.11565,122.450303 C1484.16436,122.861641 1483.8704,123.23459 1483.45906,123.283307 C1481.18253,123.552928 1478.84667,123.77735 1476.4577,123.956284 Z M1490.43261,122.283846 C1492.82307,121.877866 1495.12871,121.416669 1497.34251,120.900973 C1497.74592,120.806999 1497.99677,120.403788 1497.9028,120.000375 C1497.80882,119.596963 1497.40561,119.346113 1497.0022,119.440086 C1494.8185,119.948771 1492.54255,120.404028 1490.18146,120.805022 C1489.77309,120.874377 1489.49827,121.261646 1489.56762,121.670012 C1489.63698,122.078378 1490.02425,122.353201 1490.43261,122.283846 Z M1504.15696,119.049156 C1506.51336,118.307491 1508.72978,117.492903 1510.79768,116.60674 C1511.1784,116.443585 1511.35478,116.002682 1511.19163,115.621954 C1511.02847,115.241227 1510.58757,115.064849 1510.20684,115.228004 C1508.18619,116.093923 1506.01656,116.891311 1503.70662,117.618353 C1503.31152,117.74271 1503.09203,118.163818 1503.21639,118.558923 C1503.34075,118.954028 1503.76186,119.173513 1504.15696,119.049156 Z M1517.13162,113.387992 C1519.30267,112.076224 1521.22134,110.655646 1522.87554,109.128598 C1523.1799,108.847636 1523.19887,108.373141 1522.91791,108.068784 C1522.63694,107.764427 1522.16245,107.745461 1521.85809,108.026422 C1520.28096,109.482325 1518.4433,110.842917 1516.3559,112.104143 C1516.00138,112.31835 1515.88763,112.779399 1516.10184,113.133924 C1516.31604,113.488449 1516.77709,113.602199 1517.13162,113.387992 Z M1527.44577,103.558331 C1527.91596,102.762004 1528.32888,101.945389 1528.68367,101.108885 C1529.25616,99.7557506 1529.75964,98.3632135 1530.19753,96.9246681 C1530.31815,96.5284061 1530.0947,96.10939 1529.69844,95.9887695 C1529.30217,95.8681489 1528.88316,96.0916004 1528.76254,96.4878624 C1528.33977,97.8767242 1527.85411,99.2199722 1527.30248,100.523803 C1526.97396,101.29838 1526.59091,102.055915 1526.15412,102.795671 C1525.94352,103.15235 1526.06193,103.612222 1526.41861,103.822824 C1526.77529,104.033427 1527.23516,103.91501 1527.44577,103.558331 Z M1531.74431,89.959082 C1532.0833,87.623094 1532.25688,85.2463317 1532.2613,82.8714568 C1532.26208,82.457244 1531.92691,82.120833 1531.5127,82.120062 C1531.09849,82.1192909 1530.76208,82.4544516 1530.76131,82.8686645 C1530.75702,85.1724258 1530.58862,87.4781331 1530.25986,89.743664 C1530.20037,90.1535839 1530.48445,90.5341125 1530.89437,90.5935985 C1531.30429,90.6530846 1531.68482,90.3690018 1531.74431,89.959082 Z M1531.7555,75.7399768 C1531.4057,73.3460925 1530.87629,71.0190602 1530.17149,68.7961201 C1530.0463,68.4012772 1529.62473,68.1826785 1529.22989,68.3078663 C1528.83505,68.433054 1528.61645,68.8546222 1528.74164,69.2494651 C1529.42158,71.3940187 1529.93301,73.641994 1530.27126,75.9568543 C1530.33115,76.3667155 1530.71196,76.6504239 1531.12182,76.5905349 C1531.53168,76.5306458 1531.81539,76.149838 1531.7555,75.7399768 Z M1527.40367,62.2298744 C1526.23607,60.0733293 1524.87112,58.0994396 1523.31784,56.3372368 C1523.04394,56.026504 1522.57001,55.9966406 1522.25928,56.2705348 C1521.94854,56.544429 1521.91868,57.0183628 1522.19257,57.3290955 C1523.66948,59.0046453 1524.96991,60.8852345 1526.08459,62.944049 C1526.28181,63.3083011 1526.73697,63.4437123 1527.10122,63.2464984 C1527.46547,63.0492845 1527.60088,62.5941264 1527.40367,62.2298744 Z M1517.92867,51.5968997 C1515.95204,50.2704568 1513.79857,49.2023374 1511.47743,48.4087714 C1511.08549,48.2747724 1510.65913,48.4838751 1510.52513,48.8758154 C1510.39114,49.2677556 1510.60024,49.6941136 1510.99218,49.8281125 C1513.18927,50.5792681 1515.22488,51.5889331 1517.09283,52.8424422 C1517.43678,53.0732523 1517.90271,52.9815367 1518.13352,52.6375896 C1518.36433,52.2936425 1518.27261,51.8277098 1517.92867,51.5968997 Z M1504.43729,46.906368 C1502.16888,46.682924 1499.78847,46.675109 1497.29981,46.8884606 C1496.88711,46.9238412 1496.58123,47.2870821 1496.61661,47.6997818 C1496.65199,48.1124816 1497.01523,48.4183592 1497.42793,48.3829787 C1499.82648,48.177352 1502.11488,48.1848649 1504.29024,48.3991434 C1504.70246,48.4397481 1505.06955,48.1384954 1505.11015,47.7262769 C1505.15076,47.3140583 1504.8495,46.9469726 1504.43729,46.906368 Z M1490.26766,48.0181327 C1488.06892,48.525562 1485.80217,49.1844074 1483.46865,49.996911 C1483.07747,50.1331153 1482.87078,50.5606442 1483.00698,50.9518235 C1483.14319,51.3430028 1483.57071,51.549701 1483.96189,51.4134968 C1486.24516,50.6184895 1488.45995,49.9747463 1490.60497,49.4797156 C1491.00857,49.386571 1491.26025,48.983876 1491.16711,48.580271 C1491.07396,48.1766661 1490.67127,47.9249882 1490.26766,48.0181327 Z M1476.92601,52.6017602 C1475.8555,53.079145 1474.77282,53.5860226 1473.67805,54.1225539 C1472.59639,54.6527823 1471.57138,55.2164168 1470.59558,55.8170764 C1470.24284,56.0342093 1470.13291,56.4961834 1470.35004,56.8489243 C1470.56717,57.2016652 1471.02915,57.3115973 1471.38189,57.0944644 C1472.31635,56.5192483 1473.29928,55.9787513 1474.33823,55.4694638 C1475.4168,54.9408689 1476.48308,54.4416678 1477.53693,53.9717161 C1477.91523,53.8030158 1478.08515,53.3595821 1477.91645,52.9812792 C1477.74775,52.6029763 1477.30431,52.4330598 1476.92601,52.6017602 Z M1464.9257,60.2668647 C1463.19783,62.0003429 1461.74336,63.9133297 1460.56613,65.9939419 C1460.36216,66.3544495 1460.48905,66.8120557 1460.84956,67.0160341 C1461.21006,67.2200125 1461.66767,67.0931205 1461.87165,66.732613 C1462.98239,64.7695078 1464.355,62.9641819 1465.98808,61.3258043 C1466.2805,61.0324367 1466.27973,60.5575636 1465.98636,60.2651455 C1465.69299,59.9727274 1465.21812,59.9734971 1464.9257,60.2668647 Z M1457.89318,72.6393502 C1457.30942,74.8806252 1456.97345,77.2495845 1456.88406,79.7330619 C1456.86916,80.1470074 1457.19265,80.4946544 1457.6066,80.5095533 C1458.02054,80.5244521 1458.36819,80.2009608 1458.38309,79.7870153 C1458.46861,77.4108201 1458.78919,75.1504383 1459.34475,73.0174266 C1459.44916,72.6165864 1459.20885,72.2070058 1458.80801,72.1026029 C1458.40717,71.9982 1457.99759,72.23851 1457.89318,72.6393502 Z M1457.27246,86.9399643 C1457.581,89.192045 1458.06171,91.5113516 1458.71184,93.888713 C1458.8211,94.2882565 1459.23356,94.5235771 1459.63311,94.4143164 C1460.03265,94.3050557 1460.26797,93.8925884 1460.15871,93.4930449 C1459.52549,91.1774774 1459.05804,88.922174 1458.75858,86.7363652 C1458.70236,86.325985 1458.3241,86.0388833 1457.91372,86.0951057 C1457.50334,86.151328 1457.21624,86.5295841 1457.27246,86.9399643 Z M1460.9049,100.514704 C1461.72616,102.640946 1462.66935,104.800586 1463.73154,106.98721 C1463.91253,107.35979 1464.36128,107.515107 1464.73386,107.334119 C1465.10644,107.153131 1465.26176,106.704375 1465.08077,106.331795 C1464.03656,104.18218 1463.1101,102.060827 1462.30415,99.9742398 C1462.1549,99.5878478 1461.72068,99.3956022 1461.33429,99.5448472 C1460.9479,99.6940923 1460.75565,100.128312 1460.9049,100.514704 Z M1467.05687,113.249025 C1468.19965,115.234823 1469.43311,117.234804 1470.75456,119.244358 C1470.98215,119.590448 1471.4472,119.686516 1471.79329,119.458932 C1472.13938,119.231347 1472.23545,118.766292 1472.00787,118.420202 C1470.70257,116.435223 1469.48472,114.460557 1468.35696,112.500852 C1468.15035,112.141842 1467.69183,112.018291 1467.33282,112.224893 C1466.97381,112.431496 1466.85026,112.890015 1467.05687,113.249025 Z M1474.80108,125.053995 C1474.55571,124.720278 1474.62733,124.250836 1474.96105,124.005468 C1475.29477,123.7601 1475.76421,123.831722 1476.00958,124.16544 C1477.35893,126.000654 1478.77836,127.838918 1480.26553,129.676807 C1480.52608,129.998808 1480.47627,130.471062 1480.15427,130.731616 C1479.83227,130.99217 1479.36001,130.942357 1479.09946,130.620356 C1477.59784,128.764611 1476.16426,126.908021 1474.80108,125.053995 Z M1483.6757,136.033972 C1485.20369,137.76707 1486.78812,139.49518 1488.42694,141.215716 C1488.71262,141.515644 1489.18736,141.527192 1489.48729,141.241507 C1489.78721,140.955823 1489.79876,140.481089 1489.51308,140.181161 C1487.88746,138.474484 1486.31603,136.760561 1484.80085,135.041984 C1484.52692,134.731283 1484.05298,134.701474 1483.74228,134.975404 C1483.43158,135.249334 1483.40177,135.723271 1483.6757,136.033972 Z M1493.33171,146.183224 C1494.98794,147.802736 1496.69047,149.412106 1498.43754,151.009333 C1498.74325,151.288823 1499.21765,151.267568 1499.49714,150.961858 C1499.77663,150.656149 1499.75537,150.181751 1499.44966,149.902261 C1497.71493,148.316315 1496.0246,146.718474 1494.38041,145.110742 C1494.08426,144.82115 1493.60941,144.826473 1493.31982,145.12263 C1493.03023,145.418788 1493.03555,145.893632 1493.33171,146.183224 Z M1503.65756,155.631423 C1505.41902,157.142643 1507.2191,158.640018 1509.05628,160.121975 C1509.37868,160.382036 1509.85086,160.331502 1510.11092,160.009104 C1510.37098,159.686705 1510.32045,159.214528 1509.99805,158.954466 C1508.17263,157.481999 1506.3842,155.994314 1504.63427,154.492985 C1504.31989,154.223274 1503.8464,154.259479 1503.57669,154.57385 C1503.30698,154.888221 1503.34319,155.361713 1503.65756,155.631423 Z M1514.59178,164.454841 C1516.44257,165.860837 1518.32597,167.250218 1520.24066,168.621733 C1520.57739,168.862941 1521.04591,168.7855 1521.28712,168.448764 C1521.52833,168.112028 1521.45089,167.643511 1521.11415,167.402303 C1519.21085,166.038949 1517.33875,164.6579 1515.49915,163.260408 C1515.16932,163.009844 1514.69881,163.074104 1514.44825,163.403937 C1514.19768,163.733771 1514.26194,164.204277 1514.59178,164.454841 Z M1526.0012,172.630011 C1527.9304,173.933934 1529.88742,175.219097 1531.87114,176.484485 C1532.22035,176.707244 1532.68403,176.604732 1532.90679,176.255517 C1533.12955,175.906302 1533.02704,175.442625 1532.67782,175.219865 C1530.70528,173.961611 1528.75936,172.683736 1526.84117,171.387251 C1526.498,171.1553 1526.03176,171.245468 1525.79981,171.588647 C1525.56786,171.931825 1525.65803,172.39806 1526.0012,172.630011 Z M1537.83617,180.181138 C1539.83185,181.38247 1541.85141,182.563391 1543.89385,183.723075 C1544.25405,183.927595 1544.71185,183.801389 1544.91637,183.441188 C1545.12089,183.080987 1544.99468,182.623191 1544.63448,182.418672 C1542.6031,181.265273 1540.59454,180.090778 1538.60977,178.896014 C1538.25489,178.682391 1537.79403,178.796899 1537.58041,179.151777 C1537.36679,179.506654 1537.48129,179.967515 1537.83617,180.181138 Z M1550.04942,187.116465 C1552.1051,188.216375 1554.1814,189.294527 1556.27746,190.350237 C1556.6474,190.536562 1557.09834,190.387713 1557.28467,190.017773 C1557.471,189.647833 1557.32215,189.19689 1556.95221,189.010565 C1554.86719,187.960417 1552.80186,186.887963 1550.75708,185.793884 C1550.39186,185.59847 1549.93737,185.736125 1549.74196,186.101346 C1549.54654,186.466566 1549.6842,186.921051 1550.04942,187.116465 Z M1562.60009,193.437991 C1564.70859,194.435942 1566.83493,195.411041 1568.9784,196.362718 C1569.35697,196.530803 1569.80013,196.360165 1569.96822,195.981588 C1570.1363,195.603011 1569.96566,195.159854 1569.58709,194.99177 C1567.45469,194.045009 1565.33935,193.074957 1563.2418,192.082183 C1562.8674,191.904981 1562.42025,192.064839 1562.24304,192.439235 C1562.06584,192.81363 1562.2257,193.260789 1562.60009,193.437991 Z M1575.44567,199.141194 C1577.60112,200.036644 1579.77208,200.908336 1581.9579,201.755789 C1582.34411,201.905522 1582.77857,201.713824 1582.9283,201.327621 C1583.07803,200.941418 1582.88634,200.506956 1582.50013,200.357223 C1580.32545,199.514089 1578.16557,198.646846 1576.02113,197.755973 C1575.63862,197.597062 1575.1997,197.778332 1575.04079,198.16085 C1574.88188,198.543368 1575.06315,198.982283 1575.44567,199.141194 Z M1588.55667,204.223991 C1590.75324,205.015893 1592.96328,205.783291 1595.18622,206.525775 C1595.57909,206.657 1596.00396,206.444889 1596.13519,206.052011 C1596.26641,205.659133 1596.0543,205.234264 1595.66142,205.103039 C1593.44971,204.364306 1591.25085,203.600787 1589.0654,202.812893 C1588.67573,202.672412 1588.24597,202.874415 1588.10549,203.264079 C1587.965,203.653743 1588.16701,204.08351 1588.55667,204.223991 Z M1601.87071,208.671144 C1604.10277,209.358612 1606.34652,210.020965 1608.60147,210.657851 C1609.00009,210.770437 1609.4145,210.538561 1609.52709,210.139942 C1609.63968,209.741322 1609.4078,209.326909 1609.00918,209.214323 C1606.76555,208.580635 1604.53307,207.921609 1602.31223,207.237598 C1601.91637,207.115674 1601.49662,207.337745 1601.3747,207.733607 C1601.25277,208.12947 1601.47484,208.549219 1601.87071,208.671144 Z M1615.39861,212.491541 C1617.66076,213.073363 1619.93304,213.629578 1622.215,214.15988 C1622.61846,214.25364 1623.02154,214.002577 1623.1153,213.599115 C1623.20906,213.195652 1622.958,212.792574 1622.55454,212.698813 C1620.28398,212.171163 1618.02308,211.61773 1615.77224,211.038821 C1615.37109,210.935644 1614.96224,211.177206 1614.85907,211.578363 C1614.75589,211.979521 1614.99745,212.388365 1615.39861,212.491541 Z" id="Page-1"></path>
                </g>
                <g id="Group-4">
                    <path d="M31.8413196,0 C22.9718131,0 15.4286136,2.73628812 9.49181084,8.21992008 C3.52754827,13.7256634 0.372420419,21.1357528 0.0291732632,30.1682675 C-0.311327915,39.2228937 2.33030219,46.632983 7.87717622,52.191241 L7.88266818,52.1995328 C13.3883526,57.597483 20.7228578,60.3337711 29.6802355,60.3337711 C38.5469961,60.3337711 46.0544978,57.6389419 51.9171592,52.229936 C57.8841678,46.7269566 61.0365497,39.3113394 61.3770508,30.2788246 C61.717552,21.2269624 59.0786679,13.8168731 53.5317939,8.25861506 C48.0672992,2.77774703 40.7684916,0 31.8413196,0" id="Fill-11" fill="#FAE138"></path>
                    <g id="Page-1" transform="translate(31.000000, 31.500000) rotate(-270.000000) translate(-31.000000, -31.500000) translate(20.000000, 22.000000)" fill="#413C37">
                        <path d="M21.0236645,9.02840001 L11.778591,0.0588850268 C11.7000855,-0.0173423987 11.5769716,-0.0199800259 11.4954831,0.0529503656 L9.10940404,2.1680636 C9.01761091,2.25009381 9.01476356,2.39397637 9.10316699,2.47983113 L13.7686174,7.00758195 L12.5949669,7.05796063 L12.5949669,7.05413607 L7.65996743,7.27028961 L4.86929349,7.39030165 L4.86929349,7.39254363 L0.195843428,7.5972235 C0.0850679636,7.60157559 5.42352334e-05,7.68795788 5.42352334e-05,7.79570495 L5.42352334e-05,11.2520516 C5.42352334e-05,11.3735143 0.106897645,11.4733485 0.231503094,11.468337 L4.83363382,11.2703831 L4.83349824,11.2742077 L9.76904006,11.0580541 L12.5593072,10.9380421 L12.5593072,10.9358001 L14.2411418,10.8622103 L9.28783796,15.6692858 C9.20933246,15.7456451 9.20662069,15.8649978 9.2816009,15.9441266 L11.4611793,18.2596995 C11.5455151,18.3487194 11.6939841,18.3514889 11.7823875,18.265766 L21.0075295,9.33317783 C21.0553921,9.29044827 21.0784421,9.23096978 21.0776286,9.17162317 C21.0799336,9.12071696 21.0624427,9.06928323 21.0236645,9.02840001" id="Fill-1"></path>
                    </g>
                </g>
            </g>
        </g>
    </g>
</svg>