<?xml version="1.0" encoding="UTF-8"?>
<svg width="253px" height="248px" viewBox="0 0 253 248" version="1.1" xmlns="http://www.w3.org/2000/svg" xmlns:xlink="http://www.w3.org/1999/xlink">
    <!-- Generator: Sketch 46.1 (44463) - http://www.bohemiancoding.com/sketch -->
    <title>Group 10</title>
    <desc>Created with Sketch.</desc>
    <defs>
        <polygon id="path-1" points="0.257397083 0.0225935557 93.6845741 0.0225935557 93.6845741 68.5538751 0.257397083 68.5538751"></polygon>
        <polygon id="path-3" points="7.65499443e-21 0.379119865 7.65499443e-21 68.9103449 93.4270641 68.9103449 93.4270641 0.379119865 0 0.379119865"></polygon>
    </defs>
    <g id="Flow-V3" stroke="none" stroke-width="1" fill="none" fill-rule="evenodd">
        <g id="03" transform="translate(-590.000000, -498.000000)">
            <g id="Group-10" transform="translate(590.000000, 498.000000)">
                <path d="M130.784545,0 C94.3540706,0 63.3712495,11.2389876 38.9865173,33.7623728 C14.4889973,56.3765781 1.52967388,86.8126647 0.119825811,123.912676 C-1.27874347,161.103508 9.57144725,191.539595 32.354592,214.369498 L32.3771496,214.403555 C54.9911126,236.575012 85.1167461,247.814 121.908141,247.814 C158.327336,247.814 189.163533,236.7453 213.243738,214.528433 C237.752537,191.92558 250.700582,161.466788 252.099151,124.366777 C253.49772,87.1872977 242.658808,56.7512111 219.875664,33.921308 C197.430882,11.4092753 167.451873,0 130.784545,0" id="Fill-11" fill="#F1EFE6"></path>
                <g id="Page-1" transform="translate(74.000000, 83.000000)">
                    <g id="Group-3" transform="translate(9.037422, 0.542245)">
                        <mask id="mask-2" fill="white">
                            <use xlink:href="#path-1"></use>
                        </mask>
                        <g id="Clip-2"></g>
                        <path d="M78.4553879,0.0225370718 L15.4865833,0.0225370718 C7.07387284,0.0225370718 0.257397083,6.83901283 0.257397083,15.2517233 L0.257397083,53.3246889 C0.257397083,61.7373993 7.07387284,68.5538751 15.4865833,68.5538751 L78.4553879,68.5538751 C86.8680984,68.5538751 93.6845741,61.7373993 93.6845741,53.3246889 L93.6845741,15.2517233 C93.6845741,6.83901283 86.8680984,0.0225370718 78.4553879,0.0225370718" id="Fill-1" fill="#A32B86" mask="url(#mask-2)"></path>
                    </g>
                    <path d="M82.1814606,5.87618845 L19.212656,5.87618845 C10.7999456,5.87618845 3.98346981,12.6926642 3.98346981,21.1053747 L3.98346981,59.1783402 C3.98346981,67.5910507 10.7999456,74.4075265 19.212656,74.4075265 L82.1814606,74.4075265 C90.5941711,74.4075265 97.4106469,67.5910507 97.4106469,59.1783402 L97.4106469,21.1053747 C97.4106469,12.6926642 90.5941711,5.87618845 82.1814606,5.87618845" id="Fill-4" fill="#F1EFE6"></path>
                    <g id="Group-8" transform="translate(0.000000, 10.144507)">
                        <mask id="mask-4" fill="white">
                            <use xlink:href="#path-3"></use>
                        </mask>
                        <g id="Clip-7"></g>
                        <path d="M78.1978779,0.379119865 L15.2290733,0.379119865 C6.81636279,0.379119865 -0.000112967779,7.19559562 -0.000112967779,15.6083061 L-0.000112967779,53.6812717 C-0.000112967779,62.0939821 6.81636279,68.9104579 15.2290733,68.9104579 L78.1978779,68.9104579 C86.6105883,68.9104579 93.4270641,62.0939821 93.4270641,53.6812717 L93.4270641,15.6083061 C93.4270641,7.19559562 86.6105883,0.379119865 78.1978779,0.379119865" id="Fill-6" fill="#00AEAB" mask="url(#mask-4)"></path>
                    </g>
                    <polygon id="Fill-9" fill="#F1EFE6" points="66.2171366 39.8907866 83.2752712 28.4691793 83.2752712 60.325528"></polygon>
                    <path d="M35.683923,45.5769632 L43.8836892,51.1344131 C45.5940214,52.2844251 47.8347372,52.2844251 49.5445046,51.1344131 L57.7442708,45.626669 L77.1730342,68.9019853 L16.2562893,68.9019853 L35.683923,45.5769632 Z" id="Fill-11" fill="#F1EFE6"></path>
                    <polygon id="Fill-13" fill="#F1EFE6" points="46.7141534 40.7534085 16.8652421 20.6762101 76.512794 20.6762101"></polygon>
                    <polygon id="Fill-15" fill="#F1EFE6" points="10.1527532 28.4293017 27.2108877 39.850909 10.1527532 60.2862153"></polygon>
                </g>
            </g>
        </g>
    </g>
</svg>