<?xml version="1.0" encoding="UTF-8"?>
<svg width="21px" height="21px" viewBox="0 0 21 21" version="1.1" xmlns="http://www.w3.org/2000/svg" xmlns:xlink="http://www.w3.org/1999/xlink">
    <!-- Generator: Sketch 46 (44423) - http://www.bohemiancoding.com/sketch -->
    <title>btn_info</title>
    <desc>Created with Sketch.</desc>
    <defs>
        <polygon id="path-1" points="20.9310938 0.0206900266 20.9310938 20.2355386 3.11774577e-05 20.2355386 3.11774577e-05 0.0206900266"></polygon>
    </defs>
    <g id="Flow-V3" stroke="none" stroke-width="1" fill="none" fill-rule="evenodd">
        <g id="09" transform="translate(-425.000000, -816.000000)">
            <g id="btn_info" transform="translate(424.000000, 815.000000)">
                <g id="Group-9" transform="translate(1.000000, 1.000000)">
                    <g id="Group-3">
                        <mask id="mask-2" fill="white">
                            <use xlink:href="#path-1"></use>
                        </mask>
                        <g id="Clip-2"></g>
                        <path d="M10.8532156,0.0206900266 C7.83009062,0.0206900266 5.25890312,0.937565525 3.23459062,2.77477929 C1.20229375,4.61924322 0.126153125,7.10258747 0.009996875,10.1287203 C-0.106159375,13.1625361 0.793559375,15.6451229 2.68443437,17.5077663 L2.68629375,17.5097141 C4.56360625,19.3183601 7.06348125,20.235452 10.1169031,20.2355602 C13.138825,20.2355602 15.6979812,19.3328604 17.6968094,17.5203188 C19.7299812,15.6766124 20.8052469,13.1918614 20.9211844,10.165945 C21.0373406,7.13267025 20.1375125,4.65008348 18.2467469,2.78733182 C16.3837625,0.951524801 13.8963562,0.0206900266 10.8532156,0.0206900266" id="Fill-1" fill="#E0DED5" mask="url(#mask-2)"></path>
                    </g>
                    <g id="Group-8" transform="translate(8.217391, 3.652174)" fill="#00AEAB">
                        <path d="M2.68562276,0.338176901 C2.23991963,0.338176901 1.86082588,0.473332985 1.56245088,0.74418621 C1.26276338,1.01612155 1.10416963,1.38230905 1.08699776,1.82835659 C1.06993526,2.27570267 1.20249776,2.64167374 1.48129463,2.91631437 L1.48162276,2.91653079 C1.75834151,3.18327198 2.12693526,3.31842807 2.57712276,3.31842807 C3.02260713,3.31842807 3.39984151,3.185328 3.69460713,2.91815396 C3.99429463,2.64632683 4.15288838,2.28003112 4.16995088,1.83387537 C4.18701338,1.38674572 4.05445088,1.02066643 3.77565401,0.746025804 C3.50101338,0.475389003 3.13427901,0.338176901 2.68562276,0.338176901" id="Fill-4"></path>
                        <path d="M3.61686338,12.4295388 L3.80389463,8.33633304 C3.80476963,8.31620571 3.80662901,8.29726871 3.80772276,8.2773578 L3.94870713,5.67757805 C3.94761338,5.6789848 3.94641026,5.68017512 3.94531651,5.68158187 L3.99191026,4.79251671 C3.99650401,4.70973496 3.90845713,4.63636761 3.82489463,4.62251655 C3.29070713,4.53432423 1.58489463,4.60336312 1.19748838,4.94217313 C1.14980088,4.98372632 1.12672276,5.04670538 1.12398838,5.11065833 L0.762613383,12.4035681 C0.758785258,12.4944657 0.834582133,12.5723779 0.926785258,12.5723779 L3.46603526,12.5723779 C3.54795713,12.5723779 3.61347276,12.5102646 3.61686338,12.4295388" id="Fill-6"></path>
                    </g>
                </g>
            </g>
        </g>
    </g>
</svg>