<?xml version="1.0" encoding="utf-8"?>
<!-- Generator: Adobe Illustrator 25.4.1, SVG Export Plug-In . SVG Version: 6.00 Build 0)  -->
<svg version="1.1" id="Layer_1" xmlns="http://www.w3.org/2000/svg" xmlns:xlink="http://www.w3.org/1999/xlink" x="0px" y="0px"
	 viewBox="0 0 180.6 116.5" style="enable-background:new 0 0 180.6 116.5;" xml:space="preserve">
<style type="text/css">
	.st0{fill:#255BE3;}
	.st1{fill:#FF3C28;}
</style>
<g>
	<path class="st0" d="M0.8,70.1c0-18.4,15.1-32.7,34.7-32.7c11.4,0,21.7,5.1,27.7,12.7l-8.5,8.5c-4.6-5.9-11.6-9.3-19-9.4
		c-11.7,0-21.1,8.8-21.1,20.9c0,12.2,9.4,21,21.1,21c7.7,0,15-3.6,19.6-9.8l8.4,8.3c-5.7,8-16.5,13.3-28.2,13.3
		C15.9,102.9,0.8,88.6,0.8,70.1z"/>
	<path class="st0" d="M74.8,39.6h13.5v61.1H74.8V39.6z"/>
	<path class="st0" d="M113.3,84.3V50.9H98.6V39.6H114V26.5l12.6-6.2v19.3h20v11.4h-20v31.1c0,6.2,3.5,8.9,10,8.9
		c3.4,0,6.8-0.7,9.9-2.1v11.6c-3.9,1.7-8.1,2.5-12.4,2.5C122.1,102.9,113.3,96.4,113.3,84.3z"/>
	<path class="st0" d="M157.2,39.6h13.5v61.1h-13.5V39.6z"/>
	<path class="st1" d="M122.6,0.7C145,0.6,166.1,11.5,179,29.8h-15.7c-20.3-22.5-54.9-24.3-77.4-4.1c-1.4,1.3-2.8,2.7-4.1,4.1H66.2
		C79.1,11.5,100.2,0.6,122.6,0.7z"/>
</g>
</svg>
