<svg xmlns="http://www.w3.org/2000/svg" enable-background="new 0 0 652 652" viewBox="3.1 70.9 635.9 500.0" width="356.43673548329036" height="280.554696093293"><g fill="#00f"><path d="m618.6 295.5c7.8 0 15.1 2.7 20.4 6.3v-17.7c-4-2-12.8-4.5-24.2-4.5-27.9 0-39.4 16.9-39.4 38.3v99.6h27.8v-75.6h19.6v-16h-19.6v-12.6c.1-10.3 5.7-18 15.4-17.8m-109.1 26.4c15-.1 21.4 13.4 21.7 41.8.3 28.1-6.1 40.8-21.7 40.8s-21.6-12.8-21.6-40.8c0-29.4 6-41.7 21.6-41.8m.2 98.7c26.4 0 51-15.3 50.8-56.9-.2-41.8-22.4-57.9-50.8-57.7-27.2.1-51.2 16-51.2 57.7.2 41.7 24.9 56.9 51.2 56.9m-369-34.1c0-12.6 12.1-19 24.4-22.5l14.1-3.6v33.9c-3.5 3.2-12.5 8-22.1 8-10.3 0-16.3-5.2-16.4-15.8m40.5 23.3 1.9 7.6h26.2c-1.3-4.3-2.5-12.5-2.5-22.7v-53.9c0-31.7-23.7-34.7-44.5-34.7-35.4 0-44.9 19.2-44.9 33.7h25.5c0-12.4 9.5-18.8 19.9-18.8 8.6 0 16.4 3.9 16.4 17.8v6.8l-32.9 7.9c-20.2 4.8-34.3 14.9-34.2 35.7.1 20.6 14.1 31.4 34.9 31.4 18.8 0 30.6-8.4 34.1-10.8m-138-7.4h-9.9v-49.7h9.9c15.3 0 26.2 7.2 26.4 23.8.1 16.6-8.2 25.9-26.4 25.9zm-9.9-104.7h7.6c12.8 0 23.5 4 23.5 18.9 0 14.8-9.1 20.8-23.6 20.8h-7.4zm68.3 80.8c0-24.5-21.9-34.2-36.1-34.9 14.3-3.1 29.1-10.5 29.1-31 0-21.2-17-29.9-35.9-29.9h-55.5v134.8h49.4c26.6.1 49-12.5 49-39zm188.1-30v69h27.6v-70.4c0-17.4-3-41-34.2-41-14.6 0-27.1 8.3-31.3 10.9v-8h-27.6v108.5h27.6v-83.5c4.4-3.5 12.3-9.3 21.1-9.3 13.5 0 16.8 8 16.8 23.8m44.9-65.9v134.9h27.8v-134.8z"/><path d="m391 351.4 35.1-42.4h-23.8l-40 47.7 31 60.9h34.2zm-239.1 150.9c1.3-12.8 5.2-30.1 21.3-30.2 16 0 20.2 16.9 21 30.2zm21.3-46c-28.2 0-50.9 17.9-51 55.9-.1 44.1 23.1 58.6 51 58.6 22 0 43.4-9.7 49.2-39.7l-28.9-.1c-1.7 14.1-6.8 23.8-20.2 23.8-16.8-.1-21.6-14.6-21.6-38h72c.1-1.6.1-3.1.1-4.7 0-38-23.3-55.8-50.6-55.8zm175.6 88.3c-3.5 3.2-12.4 8-22 8-10.4 0-16.3-5.2-16.3-15.8 0-12.6 12.1-19 24.4-22.5l14-3.6zm27.7-53.6c0-31.8-23.7-34.7-44.5-34.7-35.4 0-45.1 19.2-45.1 33.7h25.5c0-12.4 9.4-18.8 19.9-18.8 8.6 0 16.4 3.9 16.4 17.8v6.8l-32.7 8c-20.3 4.8-34.3 14.9-34.2 35.7.1 20.6 14.1 31.4 35 31.4 18.8 0 30.6-8.4 34-10.8l1.9 7.6h26.2c-1.3-4.3-2.4-12.5-2.4-22.7zm-137.4 76.7h27.8v-134.9h-27.8zm214.8-111.4c-14.6 0-27.1 8.3-31.3 10.9v-8h-27.6v108.5h27.6v-83.5c4.4-3.5 12.3-9.3 21.1-9.3 13.6 0 16.8 8 16.8 23.8v69h27.6v-70.4c0-17.5-3-41.1-34.2-41m121.5 85.8c-2 3.6-10.9 11.9-20.2 11.9-12.3 0-22.8-6.9-22.8-40.8.1-32.4 11.1-39.7 22.6-39.7 9.8 0 17.8 7.2 20.4 11.6zm0-75.6c-5.8-5.2-14.8-10.1-27.7-10-16.7 0-44.6 9.5-44.7 56.7-.1 45.1 22.1 57.8 43 57.7 16.5-.1 28.3-10.4 29.4-11.4v8.2h27.8v-134.9h-27.8zm-572.3 101.2h30.1v-134.9h-30.1zm78.4-94.5v-14h-27.8v108.5h27.8v-62.1c0-26.6 23.2-28.4 36.5-27.9v-21.2c-21.4-2.3-34.1 10.8-36.5 16.7m329.9-402.3c0 20.4-89.3 22.6-89.3 44.6h-2c0-22-89.3-24.2-89.3-44.6h-2v21.3c0 25.4 89.5 23 91.2 47.5h2c1.8-24.5 91.2-22.1 91.2-47.5v-21.3h-2zm0 48.4c0 20.4-89.3 22.6-89.3 44.6h-2c0-22-89.3-24.2-89.3-44.6h-2v21.3c0 25.4 89.5 23 91.2 47.5h2c1.8-24.5 91.2-22.1 91.2-47.5v-21.3h-2zm0 48.3c0 20.4-89.3 22.6-89.3 44.6h-2c0-22-89.3-24.2-89.3-44.6h-2v21.3c0 25.5 89.5 23 91.2 47.5h2c1.8-24.5 91.2-22.1 91.2-47.5v-21.3h-2z"/></g></svg>