<svg xmlns="http://www.w3.org/2000/svg" viewBox="0 0 351.5 102"><path fill="none" d="M0 0h351.5v102H0z"/><path d="M107.9 43v24.1c0 .5-.4.9-.9.9h-5.5c-.5 0-.9-.4-.9-.9V43c0-.5.4-.9.9-.9h5.5c.5 0 .9.4.9.9zm40.2 10.6l-5.6-3.2c-.9-.5-1.4-.9-1.4-1.6 0-1 .6-1.3 2.4-1.3 2.3 0 6.2.4 7.5.6h.1c.5 0 .8-.3.8-.9v-3.7c0-.5-.3-.9-.9-1-2.3-.6-4.5-1-8.1-1-6.2 0-9.3 2.4-9.3 7 0 2.9 1.5 5.2 4 6.7l5.9 3.4c1.3.7 1.7 1.2 1.7 1.9 0 1.2-.5 1.8-2.7 1.8-1.4 0-5.2-.3-7.7-.6h-.2c-.5 0-.9.4-.9.9v3.7c0 .5.3.9.9 1 2.3.6 5.7 1 8.2 1 6.6 0 9.7-3.3 9.7-7.6.2-2.6-.6-5-4.4-7.1zm49.6-11.9c-2.2 0-4.4.8-6.1 2.2V43c0-.5-.4-.9-.9-.9h-5.4c-.5 0-.9.4-.9.9v24c0 .5.5 1 1 1h5.5c.5 0 .9-.5.9-1V49.4c1.7-.9 3.6-1.6 5.8-1.6h.4c.4 0 .7-.5.7-.9v-4.3c-.1-.5-.5-.9-1-.9zM56.6 61.9H43.4c-.3 0-.5-.1-.5-.3 0-.1.1-.3.2-.5l13.8-20.4c.2-.4.4-.8.4-1.2v-4.2c0-.9-.9-1.3-1.8-1.3H35.3c-.5 0-.9.4-.9.9v4.4c0 .5.4.9.9.9H48c.3 0 .5.1.5.4 0 .1 0 .3-.2.5l-13.6 20c-.6.8-.7 1.4-.7 2v3.7c0 1 .8 1.4 1.9 1.4h20.8c.5 0 .9-.4.9-.9v-4.4c-.1-.7-.5-1-1-1zm71.5-19.8H124v-6.2c0-.5-.4-.8-.8-.8h-.1l-5.5.9c-.5.1-.9.4-.9.9v5.2H113c-.5 0-1 .5-1 1v3.1c0 .5.5.9 1 1l3.7.6v12.9c0 6.4 2.6 7.7 7.6 7.7 1.3 0 2.5-.1 3.9-.4.5-.1.9-.5.9-.9v-3.5c0-.5-.4-.8-1-.8h-2.5c-1.4 0-1.5-.3-1.5-2.1V47.8h4.1c.5 0 .9-.4.9-.9V43c-.1-.5-.5-.9-1-.9zm-52.1 0c-1.5 0-2.1.5-2.5 2l-3.2 17.4c0 .2-.1.2-.2.2s-.2 0-.2-.2l-2.8-18.7c-.1-.7-.4-.8-1-.8h-5.3c-.1 0-1.1-.1-.8 1.2 0 0 4.1 20.2 4.6 22.3.2 1 1.1 2.5 2.5 2.5h5.2c1.4 0 2.3-1.5 2.5-2.5.2-1 2.9-15.6 2.9-15.6 0-.2.1-.2.2-.2s.2 0 .2.2c0 0 2.7 14.6 2.9 15.6.2 1 1.2 2.5 2.5 2.5h5.2c1.3 0 2.3-1.4 2.5-2.5.4-2.1 4.6-22.3 4.6-22.3.3-1.2-.7-1.2-.8-1.2h-5.3c-.5 0-.9.1-1 .8l-2.8 18.7c0 .2-.1.2-.2.2s-.2 0-.2-.2l-3.2-17.4c-.4-1.6-1.1-2-2.5-2H76zm103.3 11.5v2.1c0 .9-.7 1.6-1.6 1.6H164v.1c0 2.6 1.1 4.9 4.7 4.9 2.8 0 6.9-.2 8.7-.4h.1c.5 0 .9.2.9.7V66c0 .7-.2 1-1 1.2-2.9.7-5.3 1.1-9.3 1.1-5.5 0-11.4-2.9-11.4-11.6v-3.2c0-7.3 4.3-11.9 11.5-11.9 7.4.1 11.1 5.2 11.1 12zm-7.1-1c0-3.3-1.5-5-4.1-5-2.5 0-4.2 1.7-4.2 5v.4h8.2v-.4z" fill="#646363"/><path d="M317.5 52v15c0 .5-.5 1-1 1H311c-.5 0-.9-.5-.9-1V52c0-3.2-.6-4.2-3.3-4.2-1.3 0-2.7.6-4.3 1.4V67c0 .5-.4 1-.9 1h-5.5c-.5 0-.9-.5-.9-1V43c0-.5.4-.9.9-.9h5.1c.5 0 .9.4.9.9v1.1c2.5-1.8 4.5-2.4 7.4-2.4 6.6 0 8 4.6 8 10.3zm-108-19.2h-.1l-5.5.9c-.5.1-.9.4-.9.9V67c0 .5.5 1 .9 1h5.5c.5 0 .9-.5.9-1V33.5c.1-.4-.3-.7-.8-.7zM107 31.1h-5.5c-.5 0-.9.4-.9.9v5.4c0 .5.4.9.9.9h5.5c.5 0 .9-.4.9-.9V32c0-.5-.4-.9-.9-.9zm157.3 11h-6.2c-.5 0-.9.1-1 .8l-4 18.7c0 .2-.1.2-.2.2s-.2 0-.2-.2l-4-18.7c-.1-.7-.4-.8-1-.8h-6.2c-.4 0-.7.4-.7.8v.2s6.2 21.5 6.5 22.5c.3 1 1.1 2.5 2.5 2.5h6c1.3 0 2.2-1.5 2.5-2.5.5-1.2 6.7-22.6 6.7-22.6v-.2c0-.4-.2-.7-.7-.7zm-25.9 11.5v2.1c0 .9-.7 1.6-1.6 1.6H223v.1c0 2.6 1.1 4.9 4.7 4.9 2.8 0 6.9-.2 8.7-.4h.1c.5 0 .9.2.9.7V66c0 .7-.2 1-1 1.2-2.9.7-5.3 1.1-9.3 1.1-5.5 0-11.4-2.9-11.4-11.6v-3.2c0-7.3 4.3-11.9 11.5-11.9 7.4.1 11.2 5.2 11.2 12zm-7.2-1c0-3.3-1.5-5-4.1-5-2.5 0-4.2 1.7-4.2 5v.4h8.2v-.4zm59.1 1v2.1c0 .9-.7 1.6-1.6 1.6H275v.1c0 2.6 1.1 4.9 4.7 4.9 2.9 0 6.9-.2 8.7-.4h.1c.5 0 .9.2.9.7V66c0 .7-.2 1-1 1.2-2.9.7-5.3 1.1-9.3 1.1-5.5 0-11.4-2.9-11.4-11.6v-3.2c0-7.3 4.3-11.9 11.5-11.9 7.4.1 11.1 5.2 11.1 12zm-7.1-1c0-3.3-1.5-5-4.1-5-2.5 0-4.2 1.7-4.2 5v.4h8.2v-.4z" fill="#db0812"/></svg>