<?xml version="1.0" encoding="utf-8"?>
<svg xmlns="http://www.w3.org/2000/svg" xmlns:xlink="http://www.w3.org/1999/xlink" width="138px" height="130px" viewBox="0 0 138 130" version="1.1">
    <title>Centraal Beheer beeldmerk</title>
    <defs/>
    <g id="beeldmerk" fill-rule="nonzero">
        <path d="M0.4,81.8 C0.4,39.5 43.7,9.4 109.1,0 C107.2,8.3 105.6,16.1 103.7,24.4 C57.3,30.9 26.3,52.5 26.3,82.2 C26.3,102.2 40.2,110.5 52.9,111 L48.7,129.5 C25.9,128.5 0.4,114.1 0.4,81.8" id="Shape" fill="#07ac2b"/>
        <path d="M102.6,75.2 C110.1,75.2 114.1,79.2 114.1,87.3 C114.1,100.9 102.4,110.4 84.3,111.5 L91.8,77.5 C95.1,76 99.4,75.2 102.6,75.2 M137.8,84.2 C137.9,69 129.5,58.4 112.4,58.4 C105.8,58.4 99.7,60 95.3,62 L101.7,33.3 C95,34.1 82.5,36.9 77.2,39 L57,129.8 L70.2,129.8 C112.2,129.8 137.5,110.2 137.8,84.2" id="Shape" fill="#0050F0"/>
    </g>
</svg>