<svg xmlns="http://www.w3.org/2000/svg" xmlns:xlink="http://www.w3.org/1999/xlink" width="950" zoomAndPan="magnify" viewBox="50 370 950 450" height="450" preserveAspectRatio="xMidYMid meet" version="1.0"><defs><clipPath id="7a17b49831"><path d="M 659.753906 534 L 882.503906 534 L 882.503906 779 L 659.753906 779 Z M 659.753906 534 " clip-rule="nonzero"/></clipPath><clipPath id="5221c0bc79"><path d="M 664 690 L 748 690 L 748 803.757812 L 664 803.757812 Z M 664 690 " clip-rule="nonzero"/></clipPath></defs><path fill="#ffffff" d="M 364.570312 558.421875 L 364.570312 574.429688 C 349.277344 564.3125 330.941406 558.421875 311.234375 558.421875 C 257.746094 558.421875 214.386719 601.789062 214.386719 655.285156 C 214.386719 708.78125 257.746094 752.148438 311.234375 752.148438 C 330.949219 752.148438 349.277344 746.257812 364.570312 736.140625 L 364.570312 746.589844 L 415.113281 746.589844 L 415.113281 558.429688 L 364.570312 558.429688 Z M 311.234375 708.625 C 281.78125 708.625 257.902344 684.746094 257.902344 655.285156 C 257.902344 625.824219 281.78125 601.945312 311.234375 601.945312 C 340.691406 601.945312 364.570312 625.824219 364.570312 655.285156 C 364.570312 684.746094 340.691406 708.625 311.234375 708.625 Z M 311.234375 708.625 " fill-opacity="1" fill-rule="nonzero"/><path fill="#ffffff" d="M 726.355469 558.421875 C 706.644531 558.421875 688.316406 564.3125 673.023438 574.429688 L 673.023438 469.664062 L 620.28125 469.664062 L 620.28125 618.71875 C 605.851562 583.355469 571.128906 558.421875 530.578125 558.421875 C 510.867188 558.421875 492.539062 564.3125 477.246094 574.429688 L 477.246094 469.664062 L 426.703125 469.664062 L 426.703125 746.582031 L 477.246094 746.582031 L 477.246094 736.132812 C 492.539062 746.25 510.875 752.140625 530.578125 752.140625 C 571.132812 752.140625 605.851562 727.207031 620.28125 691.84375 L 620.28125 746.582031 L 673.023438 746.582031 L 673.023438 736.132812 C 688.316406 746.25 706.652344 752.140625 726.355469 752.140625 C 779.84375 752.140625 823.203125 708.773438 823.203125 655.277344 C 823.203125 601.78125 779.84375 558.414062 726.355469 558.414062 Z M 530.578125 708.625 C 501.121094 708.625 477.246094 684.746094 477.246094 655.285156 C 477.246094 625.824219 501.121094 601.945312 530.578125 601.945312 C 560.035156 601.945312 583.914062 625.824219 583.914062 655.285156 C 583.914062 684.746094 560.035156 708.625 530.578125 708.625 Z M 726.355469 708.625 C 696.898438 708.625 673.023438 684.746094 673.023438 655.285156 C 673.023438 625.824219 696.898438 601.945312 726.355469 601.945312 C 755.8125 601.945312 779.6875 625.824219 779.6875 655.285156 C 779.6875 684.746094 755.8125 708.625 726.355469 708.625 Z M 726.355469 708.625 " fill-opacity="1" fill-rule="nonzero"/><path fill="#ffffff" d="M 203.148438 655.285156 L 203.148438 469.664062 C 203.148438 469.664062 152.90625 469.664062 152.90625 469.664062 L 152.90625 670.234375 C 152.90625 711.859375 186.234375 745.8125 227.847656 746.582031 L 253.292969 746.582031 C 246.683594 742.363281 240.484375 737.398438 234.808594 731.722656 C 214.394531 711.304688 203.148438 684.152344 203.148438 655.277344 Z M 203.148438 655.285156 " fill-opacity="1" fill-rule="nonzero"/><g clip-path="url(#7a17b49831)"><path fill="#ffffff" d="M 880.363281 649.03125 C 868.453125 637.925781 855.730469 627.683594 843.550781 616.90625 C 838.753906 612.539062 837.082031 606.125 835.519531 600.089844 C 834.925781 597.285156 832.988281 595.023438 830.507812 593.566406 C 823.390625 589.199219 816.492188 584.402344 808.785156 581.171875 C 807.007812 580.308594 804.203125 579.660156 804.367188 577.128906 C 804.3125 572.492188 804.3125 567.640625 802.480469 563.273438 C 798.4375 551.902344 787.65625 544.355469 776.445312 540.960938 C 779.789062 545.378906 782.484375 550.5 782.535156 556.160156 C 777.953125 550.285156 773.15625 544.195312 766.421875 540.636719 C 753.375 533.144531 737.636719 533.46875 723.246094 535.625 C 731.332031 536.757812 739.6875 538.210938 746.691406 542.632812 C 748.578125 543.710938 749.65625 545.597656 750.734375 547.429688 C 745.183594 542.902344 737.746094 541.824219 730.902344 540.53125 C 714.191406 538.210938 695.972656 539.289062 681.257812 548.292969 C 691.339844 547.914062 701.632812 547.160156 711.441406 550.015625 C 704.003906 550.824219 696.511719 551.578125 689.453125 554.21875 C 677.703125 558.476562 665.953125 565.378906 659.753906 576.640625 C 672.203125 565.109375 689.398438 560.632812 705.945312 559.070312 C 724.59375 557.777344 744.105469 560.042969 760.707031 569.097656 C 770.570312 574.433594 779.195312 583.21875 781.890625 594.375 C 782.265625 596.585938 783.128906 598.957031 782.859375 601.21875 C 782.589844 603.105469 782.859375 605.046875 783.292969 606.933594 C 784.800781 613.726562 780.703125 620.894531 782.265625 627.738281 C 787.117188 636.148438 793.964844 643.261719 799.03125 651.5625 C 800.214844 653.289062 799.839844 655.335938 799.515625 657.222656 C 795.527344 658.355469 791.105469 658.570312 787.601562 660.996094 C 785.609375 664.875 789.21875 668.539062 789.328125 672.367188 C 789.113281 675.492188 786.039062 676.679688 783.722656 677.917969 C 784.585938 680.023438 785.984375 682.125 785.609375 684.441406 C 785.394531 688 780.21875 688.320312 780.109375 691.933594 C 780.328125 696.136719 782.804688 699.855469 782.859375 704.113281 C 783.183594 709.019531 780.597656 714.140625 776.070312 716.296875 C 770.570312 719.097656 764.15625 717.589844 758.445312 716.351562 C 751.382812 715.109375 743.675781 713.65625 736.777344 716.402344 C 731.0625 718.828125 731.546875 725.890625 732.085938 731.0625 C 723.839844 727.832031 715.648438 724.328125 707.023438 722.117188 C 730.847656 734.460938 752.300781 753.539062 763.242188 778.496094 C 767.605469 775.855469 771.269531 772.242188 774.234375 768.148438 C 783.453125 754.996094 786.902344 738.554688 786.902344 722.65625 C 791.320312 731.117188 790.351562 741.199219 788.25 750.199219 C 796.335938 742.976562 802.371094 733.003906 803.828125 722.171875 C 804.742188 717.804688 804.472656 713.332031 803.933594 708.910156 C 809.109375 709.019531 814.230469 710.207031 819.1875 711.605469 C 827.378906 714.03125 836.382812 717.964844 839.886719 726.429688 C 843.011719 724.003906 844.953125 720.445312 847.214844 717.265625 C 852.390625 709.179688 857.726562 700.988281 860.90625 691.824219 C 856 689.292969 850.449219 688.320312 845.007812 687.890625 C 839.132812 688.589844 834.171875 692.527344 828.457031 693.875 C 825.441406 694.464844 822.90625 692.527344 820.964844 690.476562 C 827.109375 687.78125 833.847656 686.867188 840.207031 684.765625 C 848.132812 682.230469 856 688.269531 863.925781 686.328125 C 864.894531 682.125 867.589844 677.972656 866.351562 673.5 C 864.410156 668.21875 860.691406 663.742188 859.449219 658.191406 C 862.199219 660.886719 864.679688 663.796875 867.429688 666.492188 C 868.558594 667.570312 869.800781 668.863281 871.523438 668.539062 C 876 665.683594 879.609375 661.425781 881.65625 656.519531 C 882.195312 654.042969 882.574219 650.808594 880.363281 649.03125 Z M 819.726562 618.953125 C 816.277344 616.851562 812.613281 615.074219 809.539062 612.484375 C 814.929688 611.191406 820.375 609.789062 825.871094 608.980469 C 827.972656 613.726562 828.996094 619.222656 832.878906 622.941406 C 836.382812 626.445312 840.261719 629.519531 843.820312 632.914062 C 835.410156 628.980469 827.8125 623.480469 819.726562 618.953125 Z M 819.726562 618.953125 " fill-opacity="1" fill-rule="nonzero"/></g><g clip-path="url(#5221c0bc79)"><path fill="#ffffff" d="M 681.042969 737.261719 C 683.09375 731.980469 685.894531 726.265625 683.632812 720.554688 C 682.066406 714.464844 676.03125 711.5 672.472656 706.808594 C 668.59375 702.175781 666.652344 696.351562 664.441406 690.800781 C 664.929688 698.238281 666.976562 705.839844 671.664062 711.769531 C 674.414062 715.054688 676.625 719.3125 675.652344 723.734375 C 674.144531 729.878906 670.855469 735.375 668.96875 741.359375 C 681.691406 744.699219 694.519531 748.742188 705.730469 755.859375 C 724.109375 767.015625 738.445312 784.261719 747.230469 803.773438 C 744.539062 790.894531 738.394531 778.820312 730.308594 768.46875 C 717.964844 752.894531 699.855469 742.976562 681.042969 737.261719 Z M 681.042969 737.261719 " fill-opacity="1" fill-rule="nonzero"/></g></svg>